<?xml version="1.0" encoding="UTF-8" standalone="no"?>
<!-- Created with Inkscape (http://www.inkscape.org/) -->

<svg
   width="176.06958"
   height="130.83221"
   viewBox="0 0 46.585075 34.616023"
   version="1.1"
   id="svg1"
   inkscape:version="1.3.2 (091e20e, 2023-11-25, custom)"
   sodipodi:docname="Card.svg"
   xml:space="preserve"
   inkscape:export-filename="Card.svg"
   inkscape:export-xdpi="96"
   inkscape:export-ydpi="96"
   xmlns:inkscape="http://www.inkscape.org/namespaces/inkscape"
   xmlns:sodipodi="http://sodipodi.sourceforge.net/DTD/sodipodi-0.dtd"
   xmlns="http://www.w3.org/2000/svg"
   xmlns:svg="http://www.w3.org/2000/svg"><sodipodi:namedview
     id="namedview1"
     pagecolor="#ffffff"
     bordercolor="#000000"
     borderopacity="0.25"
     inkscape:showpageshadow="2"
     inkscape:pageopacity="0.0"
     inkscape:pagecheckerboard="0"
     inkscape:deskcolor="#d1d1d1"
     inkscape:document-units="mm"
     showgrid="true"
     inkscape:zoom="1.0412186"
     inkscape:cx="3079.0846"
     inkscape:cy="-336.62481"
     inkscape:window-width="1920"
     inkscape:window-height="1010"
     inkscape:window-x="1699"
     inkscape:window-y="-6"
     inkscape:window-maximized="1"
     inkscape:current-layer="layer1"><inkscape:grid
       id="grid1"
       units="mm"
       originx="-1010.1536"
       originy="108.52419"
       spacingx="63.999999"
       spacingy="63.999999"
       empcolor="#0099e5"
       empopacity="0.30196078"
       color="#0099e5"
       opacity="0.14901961"
       empspacing="5"
       dotted="false"
       gridanglex="30"
       gridanglez="30"
       visible="true" /></sodipodi:namedview><defs
     id="defs1"><inkscape:path-effect
       effect="bspline"
       id="path-effect160"
       is_visible="true"
       lpeversion="1.3"
       weight="33.333333"
       steps="2"
       helper_size="0"
       apply_no_weight="true"
       apply_with_weight="true"
       only_selected="false"
       uniform="false" /><inkscape:path-effect
       effect="bspline"
       id="path-effect159"
       is_visible="true"
       lpeversion="1.3"
       weight="33.333333"
       steps="2"
       helper_size="0"
       apply_no_weight="true"
       apply_with_weight="true"
       only_selected="false"
       uniform="false" /><inkscape:path-effect
       effect="bspline"
       id="path-effect158"
       is_visible="true"
       lpeversion="1.3"
       weight="33.333333"
       steps="2"
       helper_size="0"
       apply_no_weight="true"
       apply_with_weight="true"
       only_selected="false"
       uniform="false" /><inkscape:path-effect
       effect="bspline"
       id="path-effect151"
       is_visible="true"
       lpeversion="1.3"
       weight="33.333333"
       steps="2"
       helper_size="0"
       apply_no_weight="true"
       apply_with_weight="true"
       only_selected="false"
       uniform="false" /><inkscape:path-effect
       effect="bspline"
       id="path-effect150"
       is_visible="true"
       lpeversion="1.3"
       weight="33.333333"
       steps="2"
       helper_size="0"
       apply_no_weight="true"
       apply_with_weight="true"
       only_selected="false"
       uniform="false" /><inkscape:path-effect
       effect="bspline"
       id="path-effect149"
       is_visible="true"
       lpeversion="1.3"
       weight="33.333333"
       steps="2"
       helper_size="0"
       apply_no_weight="true"
       apply_with_weight="true"
       only_selected="false"
       uniform="false" /><inkscape:path-effect
       effect="bspline"
       id="path-effect143"
       is_visible="true"
       lpeversion="1.3"
       weight="33.333333"
       steps="2"
       helper_size="0"
       apply_no_weight="true"
       apply_with_weight="true"
       only_selected="false"
       uniform="false" /><inkscape:path-effect
       effect="bspline"
       id="path-effect142"
       is_visible="true"
       lpeversion="1.3"
       weight="33.333333"
       steps="2"
       helper_size="0"
       apply_no_weight="true"
       apply_with_weight="true"
       only_selected="false"
       uniform="false" /></defs><g
     inkscape:label="Layer 1"
     inkscape:groupmode="layer"
     id="layer1"
     transform="translate(-1010.1537,108.52419)"><g
       id="g160"
       transform="matrix(-0.81351952,0.26539967,0.26539967,0.81351952,1895.9651,-286.22568)"
       inkscape:export-filename="Card_9_Art.svg"
       inkscape:export-xdpi="96"
       inkscape:export-ydpi="96"><path
         style="fill:#f0c8bd;fill-opacity:1;fill-rule:evenodd;stroke:none;stroke-width:1;stroke-linecap:round;stroke-linejoin:round;stroke-opacity:1;paint-order:stroke fill markers"
         d="m 1017.5715,-153.1493 c -1.1081,0.59894 -2.5455,1.31765 -4.0129,2.33588 -1.4675,1.01823 -2.9648,2.33587 -4.2226,3.35408 -1.2578,1.01822 -2.2759,1.7369 -3.0246,3.26423 -0.7487,1.52732 -1.2278,3.86315 -0.7786,6.13915 0.4492,2.27599 1.8267,4.49201 4.1027,6.46853 2.276,1.97652 5.4504,3.71344 8.7147,4.61185 3.2642,0.89842 6.6182,0.95831 9.3434,0.80858 2.7252,-0.14974 4.8215,-0.5091 7.3071,-1.34762 2.4856,-0.83853 5.3605,-2.15619 7.2771,-3.02466 1.9166,-0.86846 2.8749,-1.28772 3.0246,-3.38405 0.1498,-2.09633 -0.5091,-5.86958 -1.2278,-7.99583 -0.7187,-2.12625 -1.4973,-2.6054 -3.6535,-3.62362 -2.1563,-1.01823 -5.69,-2.57545 -8.7146,-4.19259 -3.0247,-1.61714 -5.5402,-3.29414 -7.367,-4.13267 -1.8268,-0.83852 -2.9647,-0.83852 -3.923,-0.59893 -0.9584,0.23959 -1.737,0.71873 -2.845,1.31767 z"
         id="path142"
         inkscape:path-effect="#path-effect142"
         inkscape:original-d="m 1017.9009,-153.2691 c -1.4375,0.71873 -2.8749,1.43746 -4.3124,2.15619 -1.4974,1.3177 -2.9947,2.63534 -4.492,3.95301 -1.0183,0.71874 -2.0364,1.43746 -3.0546,2.15619 -0.4792,2.33592 -0.9584,4.67174 -1.4375,7.00761 1.3776,2.21613 2.7551,4.43217 4.1327,6.64825 3.1744,1.73697 6.3488,3.47386 9.5232,5.21079 3.3541,0.0599 6.7081,0.11979 10.0622,0.17969 2.0963,-0.35938 4.1926,-0.71873 6.2889,-1.0781 2.8749,-1.3177 5.7498,-2.63534 8.6247,-3.95301 0.9583,-0.41927 1.9166,-0.83852 2.8749,-1.25778 -0.6588,-3.77341 -1.3176,-7.54666 -1.9765,-11.31999 -0.7786,-0.47916 -1.5572,-0.95831 -2.3358,-1.43746 -3.5339,-1.55728 -7.0676,-3.1145 -10.6013,-4.67174 -2.5156,-1.67707 -5.0311,-3.35408 -7.5467,-5.03111 -1.138,0 -2.2759,0 -3.4139,0 -0.7787,0.47916 -1.5573,0.9583 -2.3359,1.43746 z"
         transform="matrix(1.0004821,0,0,0.90268227,-0.52426533,32.040399)" /><path
         style="fill:#ffffff;fill-opacity:1;fill-rule:evenodd;stroke:none;stroke-width:1;stroke-linecap:round;stroke-linejoin:round;stroke-opacity:1;paint-order:stroke fill markers"
         d="m 1021.4036,-108.10627 c 0.9248,-1.58382 2.4896,-4.16747 4.0545,-6.75114 1.4605,0.77686 2.9211,1.55373 3.644,2.6392 0.7229,1.08547 0.7083,2.47961 1.4391,3.27701 0.7308,0.79741 2.207,0.99812 3.7498,1.58554 1.5429,0.58742 3.1522,1.56147 4.8742,3.16364 1.722,1.60217 3.5566,3.83231 4.1986,5.265089 0.642,1.43278 0.091,2.067999 -1.7364,1.884633 -1.8279,-0.183367 -4.933,-1.18536 -7.4597,-2.512245 -2.5267,-1.326887 -4.4748,-2.978547 -5.9797,-4.156817 -1.5049,-1.17826 -2.5663,-1.88294 -3.8723,-2.07792 -1.3059,-0.19498 -2.856,0.11989 -3.4887,-0.0146 -0.6328,-0.13453 -0.3481,-0.71853 0.5766,-2.30235 z"
         id="path143"
         inkscape:path-effect="#path-effect143"
         inkscape:original-d="m 1020.7635,-107.10641 c 1.5649,-2.58367 4.6946,-7.751 4.6946,-7.751 0,0 2.9211,1.55372 4.3816,2.33058 -0.014,1.3941 -0.029,2.78823 -0.044,4.18231 1.4763,0.20072 2.9525,0.40144 4.4288,0.60217 1.6094,0.9741 3.2187,1.94817 4.8281,2.92226 1.8346,2.23026 3.6692,4.46035 5.5038,6.690637 -0.5506,0.635295 -1.1011,1.270532 -1.6517,1.905817 -3.1052,-1.002037 -6.2103,-2.004015 -9.3155,-3.006051 -1.9482,-1.651743 -3.8963,-3.303423 -5.8445,-4.955133 -1.0616,-0.7048 -2.123,-1.40951 -3.1847,-2.11434 -1.5502,0.3149 -3.1003,0.62978 -4.6504,0.94465 0.2846,-0.58395 0.5693,-1.16793 0.8539,-1.7519 z"
         transform="translate(-3.0493118,-0.2541093)"
         sodipodi:nodetypes="ccacccccccccc" /><path
         style="fill:#ffffff;fill-opacity:1;fill-rule:evenodd;stroke:none;stroke-width:1;stroke-linecap:round;stroke-linejoin:round;stroke-opacity:1;paint-order:stroke fill markers"
         d="m 1043.9869,-95.862758 c 0.021,-0.275264 0.021,-0.487024 0.9106,-1.609359 0.8894,-1.122335 2.6681,-3.155153 4.214,-4.383353 1.5458,-1.22821 2.8587,-1.65172 4.2987,-1.50349 1.4399,0.14823 3.0069,0.8682 3.981,1.88465 0.9741,1.01646 1.3552,2.329318 0.2753,3.451639 -1.08,1.122322 -3.6211,2.054054 -4.4469,2.795208 -0.8259,0.741154 0.064,1.291721 1.567,2.117585 1.5035,0.825865 3.621,1.926973 4.2986,3.578705 0.6777,1.651731 -0.085,3.853994 -1.7787,5.10336 -1.6941,1.249365 -4.3199,1.545826 -6.3316,0.847015 -2.0117,-0.698811 -3.4093,-2.392854 -4.4469,-3.981048 -1.0376,-1.588195 -1.7152,-3.070475 -2.0964,-4.277517 -0.3811,-1.207043 -0.4658,-2.138731 -0.487,-2.773987 -0.021,-0.635256 0.021,-0.974145 0.042,-1.249408 z"
         id="path159"
         inkscape:path-effect="#path-effect160"
         inkscape:original-d="m 1044.0081,-95.926266 c 0,-0.211756 0,-0.423516 0,-0.635272 1.7788,-2.032916 3.5575,-4.065752 5.3363,-6.098622 1.3129,-0.42353 2.6258,-0.84703 3.9387,-1.27055 1.567,0.71999 3.134,1.43995 4.701,2.15993 0.3812,1.31292 0.7623,2.625797 1.1435,3.938694 -2.5411,0.931754 -5.0822,1.863468 -7.6233,2.795204 0.8894,0.550582 1.7788,1.10114 2.6682,1.651709 2.1176,1.101164 4.2351,2.20228 6.3527,3.303423 -0.7623,2.202323 -1.5247,4.404561 -2.287,6.606842 -2.6258,0.296465 -5.2516,0.59292 -7.8774,0.889381 -1.3976,-1.694096 -2.7952,-3.388125 -4.1928,-5.082186 -0.6776,-1.482333 -1.3552,-2.964608 -2.0328,-4.446912 -0.085,-0.931754 -0.1694,-1.863469 -0.2541,-2.795202 0.042,-0.33882 0.085,-0.677627 0.127,-1.016439 z"
         transform="translate(-1.7787652,0.76232794)" /><path
         id="path154"
         style="fill:#ffffff;fill-opacity:1;fill-rule:evenodd;stroke:#ffffff;stroke-width:0.950325;stroke-linecap:round;stroke-linejoin:round;stroke-opacity:1;paint-order:stroke fill markers"
         d="m 1009.9364,-99.720077 c -0.9174,-0.03549 -1.7516,0.191955 -2.4004,0.410034 -0.2555,0.296666 -0.4926,0.625432 -0.7053,1.016908 -0.749,1.378693 -1.228,3.487215 -0.7785,5.541711 0.4494,2.054495 1.8274,4.054695 4.1045,5.838855 2.2771,1.78417 5.4531,3.351831 8.7189,4.162819 3.2658,0.810979 6.6211,0.865194 9.3476,0.730026 2.7266,-0.135158 4.8244,-0.459646 7.3112,-1.216563 2.4868,-0.756917 5.363,-1.946327 7.2805,-2.730271 1.9175,-0.783952 2.8763,-1.162149 3.0261,-3.054469 0.1259,-1.590174 -0.3218,-4.240232 -0.8939,-6.187778 -0.2473,-0.180501 -0.5649,-0.249123 -1.0408,-0.24117 -1.144,0.01912 -3.1777,0.439552 -4.5337,0.688051 -1.3559,0.2485 -2.3701,3.172877 -4.0184,2.813964 -2.0323,-0.442542 -1.3205,-4.935592 -2.6552,-5.126744 -1.3347,-0.191152 -2.6907,0.687907 -3.983,0.439417 -1.2924,-0.248491 -3.2402,4.86309 -5.4011,4.786614 -2.1611,-0.07647 -4.5351,-5.34087 -6.8444,-5.493785 -2.3093,-0.152923 -3.8345,-1.681895 -5.3811,-2.178903 -0.3866,-0.124254 -0.7746,-0.184084 -1.153,-0.198716 z"
         sodipodi:nodetypes="scsssssssscssassssss" /><path
         style="fill:#f0c8bd;fill-opacity:1;fill-rule:evenodd;stroke:#f0c8bd;stroke-width:1;stroke-linecap:round;stroke-linejoin:round;stroke-opacity:1;paint-order:stroke fill markers"
         d="m 1011.5139,-100.50023 c -0.095,0.0635 -0.2859,0.19058 -0.9106,0.709396 -0.6247,0.518819 -1.6835,1.429386 -2.0223,2.699925 -0.3387,1.270539 0.042,2.901052 0.8683,3.875137 0.8258,0.974085 2.0963,1.291714 2.8692,1.556428 0.773,0.264713 1.0482,0.476436 1.8423,-0.285919 0.7942,-0.762355 2.107,-2.498747 2.7211,-3.801056 0.6141,-1.302309 0.5294,-2.170468 -0.1906,-2.911616 -0.7199,-0.741148 -2.0752,-1.355265 -3.0281,-1.651725 -0.9529,-0.29646 -1.5035,-0.27529 -1.7787,-0.26471 -0.2753,0.0106 -0.2753,0.0106 -0.3706,0.0741 z"
         id="path157"
         inkscape:path-effect="#path-effect158"
         inkscape:original-d="m 1011.6092,-100.56376 c -0.1906,0.12705 -0.3812,0.25411 -0.5718,0.38116 -1.0588,0.91058 -2.1176,1.82112 -3.1763,2.731678 0.3811,1.630569 0.7623,3.261072 1.1435,4.891606 1.2705,0.317643 2.541,0.635273 3.8116,0.95291 0.2753,0.211762 0.5505,0.423513 0.8258,0.635273 1.313,-1.73645 2.6259,-3.472829 3.9387,-5.209241 -0.085,-0.868225 -0.1694,-1.736413 -0.2541,-2.604622 -1.3552,-0.614109 -2.7105,-1.228194 -4.0657,-1.842294 -0.5506,0.0212 -1.1012,0.0423 -1.6517,0.0635 z"
         transform="translate(-2.6053951,-0.44920605)" /><path
         style="fill:#00043d;fill-opacity:1;fill-rule:evenodd;stroke:#00043d;stroke-width:1;stroke-linecap:round;stroke-linejoin:round;stroke-opacity:1;paint-order:stroke fill markers"
         d="m 1014.9362,-102.13448 c -0.09,0.015 -0.2696,0.0449 -0.7113,0.19464 -0.4418,0.14974 -1.1455,0.41925 -1.7669,0.56897 -0.6214,0.14973 -1.1604,0.17965 -1.7294,1.01069 -0.569,0.831033 -1.168,2.463141 -1.0182,3.81076 0.1497,1.347619 1.0481,2.410727 1.9465,3.473848 1.0584,0.189259 2.1168,0.378517 3.12,0.243768 1.0032,-0.134748 1.9513,-0.593544 2.3879,-1.646489 0.4366,-1.052945 0.3618,-2.700025 0.3468,-3.82305 -0.015,-1.123024 0.03,-1.721957 -0.3744,-2.275997 -0.4043,-0.55404 -1.2577,-1.06309 -1.6845,-1.31764 -0.4267,-0.25455 -0.4267,-0.25447 -0.5165,-0.2395 z"
         id="path158"
         inkscape:path-effect="#path-effect159"
         inkscape:original-d="m 1015.026,-102.14945 c -0.1797,0.0299 -0.3594,0.0599 -0.5391,0.0898 -0.7038,0.26953 -1.4075,0.53904 -2.1112,0.80857 -0.5391,0.0299 -1.0781,0.0599 -1.6172,0.0898 -0.5989,1.632148 -1.1979,3.26423 -1.7968,4.896344 0.8984,1.063144 2.6952,3.189364 2.6952,3.189364 0,0 2.1168,0.378518 3.1752,0.567776 0.948,-0.458782 1.8961,-0.917565 2.8442,-1.376348 -0.075,-1.647088 -0.1497,-3.294176 -0.2246,-4.941265 0.045,-0.598953 0.09,-1.197881 0.1348,-1.796821 -0.8536,-0.50912 -1.707,-1.0182 -2.5605,-1.5273 z"
         sodipodi:nodetypes="scccccaaccss" /><ellipse
         style="fill:#ffffff;fill-opacity:1;fill-rule:evenodd;stroke:none;stroke-width:0.604651;stroke-linecap:round;stroke-linejoin:round;stroke-opacity:1;paint-order:stroke fill markers"
         id="path147"
         cx="1005.733"
         cy="-97.419151"
         rx="1.6517105"
         ry="2.1894767" /><ellipse
         style="fill:#00043d;fill-opacity:1;fill-rule:evenodd;stroke:none;stroke-width:0.433;stroke-linecap:round;stroke-linejoin:round;stroke-opacity:1;paint-order:stroke fill markers"
         id="path145"
         cx="1005.4641"
         cy="-97.495979"
         rx="0.76823747"
         ry="1.498063" /><ellipse
         style="fill:#ffffff;fill-opacity:1;fill-rule:evenodd;stroke:none;stroke-width:0.725;stroke-linecap:round;stroke-linejoin:round;stroke-opacity:1;paint-order:stroke fill markers"
         id="path148"
         cx="1012.8003"
         cy="-97.419159"
         rx="2.3028655"
         ry="2.5331521" /><circle
         style="fill:#00043d;fill-opacity:1;fill-rule:evenodd;stroke:none;stroke-width:0.725;stroke-linecap:round;stroke-linejoin:round;stroke-opacity:1;paint-order:stroke fill markers"
         id="path146"
         cx="1012.8004"
         cy="-97.741554"
         r="1.5659487" /><path
         style="fill:#916b91;fill-opacity:1;fill-rule:evenodd;stroke:none;stroke-width:1;stroke-linecap:round;stroke-linejoin:round;stroke-opacity:1;paint-order:stroke fill markers"
         d="m 1006.654,-137.72725 c 0.2118,-0.25413 0.4235,-0.5082 1.2282,-0.71996 0.8047,-0.21177 2.2023,-0.38117 3.367,-0.23293 1.1647,0.14824 2.0964,0.6141 2.7105,1.37643 0.6141,0.76234 0.9105,1.82109 0.9529,2.56226 0.042,0.74116 -0.1694,1.16465 -0.9106,1.52463 -0.7411,0.35999 -2.0117,0.65647 -3.2399,0.86823 -1.2282,0.21175 -2.414,0.33881 -3.2187,0.12703 -0.8047,-0.21178 -1.2282,-0.76233 -1.4399,-1.35525 -0.2118,-0.59292 -0.2118,-1.22818 -0.085,-1.92699 0.127,-0.69881 0.3811,-1.46112 0.6352,-2.22345 0,0 0,0 0,0"
         id="path149"
         inkscape:path-effect="#path-effect149"
         inkscape:original-d="m 1006.654,-137.72725 c 0.2118,-0.25411 0.4235,-0.50822 0.6353,-0.76232 1.3976,-0.16941 2.7952,-0.33882 4.1928,-0.50822 0.9318,0.46587 1.8635,0.93173 2.7952,1.3976 0.2965,1.05881 0.5929,2.11758 0.8894,3.17636 -0.2118,0.42353 -0.4235,0.84704 -0.6353,1.27055 -1.2705,0.29647 -2.5411,0.59292 -3.8116,0.88938 -1.1859,0.12706 -2.3717,0.25411 -3.5575,0.38117 -0.4236,-0.55058 -0.8471,-1.10114 -1.2706,-1.65171 0,-0.63529 0,-1.27055 0,-1.90582 0.2541,-0.76235 0.5082,-1.52466 0.7623,-2.28699 0,0 0,0 0,0"
         transform="translate(-1.9058199,44.850294)" /><path
         style="fill:#ffe085;fill-opacity:1;fill-rule:evenodd;stroke:none;stroke-width:1;stroke-linecap:round;stroke-linejoin:round;stroke-opacity:1;paint-order:stroke fill markers"
         d="m 1012.3291,-90.907575 c -0.042,0.190614 -0.127,0.571714 -0.1905,1.185811 -0.064,0.614097 -0.1059,1.461144 -0.233,2.519936 -0.127,1.058792 -0.3388,2.329317 -0.5505,3.599864 0,0 0.9745,-2.520145 0.9745,-2.520145 0.085,-0.677624 0.1694,-1.355259 0.1906,-2.011687 0.021,-0.656428 -0.021,-1.292808 -0.064,-1.652128 -0.042,-0.35932 -0.085,-0.444391 -0.099,-0.617236 -0.014,-0.172845 -2e-4,-0.433936 0.01,-0.564483 0.01,-0.130546 0.01,-0.130546 -0.035,0.06007 z"
         id="path150"
         inkscape:path-effect="#path-effect150"
         inkscape:original-d="m 1012.3715,-91.098189 c -0.085,0.381164 -0.1694,0.762328 -0.2541,1.143492 -0.042,0.847048 -0.085,1.694064 -0.1271,2.541093 -0.2117,1.270574 -0.6352,3.81164 -0.6352,3.81164 l 0.9745,-2.520145 c 0,0 0.1694,-1.355259 0.2541,-2.032873 -0.042,-0.635264 -0.085,-1.271605 -0.127,-1.90582 -0.042,-0.08456 -0.085,-0.169406 -0.1271,-0.254109 0.014,-0.261094 0.028,-0.522185 0.042,-0.783278 z"
         sodipodi:nodetypes="ccccccccc"
         transform="translate(0.65388001,0.15881832)" /><path
         style="fill:#ffe085;fill-opacity:1;fill-rule:evenodd;stroke:none;stroke-width:1;stroke-linecap:round;stroke-linejoin:round;stroke-opacity:1;paint-order:stroke fill markers"
         d="m 1003.9717,-90.314655 c 0.099,-0.105865 0.1836,0.444662 0.353,1.397585 0.1694,0.952923 0.4235,2.308146 0.4447,3.282231 0.021,0.974085 -0.1906,1.567009 -0.4023,2.159931 -0.1131,-0.974086 -0.2263,-1.948151 -0.3463,-2.81637 -0.1201,-0.868219 -0.2472,-1.630507 -0.2541,-2.392866 -0.01,-0.762358 0.1061,-1.524646 0.205,-1.630511 z"
         id="path151"
         inkscape:path-effect="#path-effect151"
         inkscape:original-d="m 1003.9859,-90.971133 c 0.085,0.550568 0.1694,1.10114 0.2541,1.651709 0.2541,1.355278 0.5082,2.7105 0.7623,4.065751 -0.2117,0.592931 -0.6352,1.778765 -0.6352,1.778765 0,0 -0.2262,-1.948158 -0.3394,-2.922257 -0.127,-0.762338 -0.254,-1.52463 -0.3811,-2.286984 0.1131,-0.762354 0.2262,-1.524641 0.3393,-2.286984 z"
         sodipodi:nodetypes="ccccccc" /></g></g></svg>
