<?xml version="1.0" encoding="UTF-8" standalone="no"?>
<!-- Created with Inkscape (http://www.inkscape.org/) -->

<svg
   width="29.96734"
   height="42.366749"
   viewBox="0 0 7.9288586 11.209536"
   version="1.1"
   id="svg1"
   xmlns="http://www.w3.org/2000/svg"
   xmlns:svg="http://www.w3.org/2000/svg">
  <defs
     id="defs1" />
  <g
     id="layer1"
     transform="translate(-42.762914,64.79722)">
    <path
       style="font-size:9.87777px;font-family:'Poor Richard';-inkscape-font-specification:'Poor Richard';text-align:center;text-anchor:middle;fill:#ffffff;fill-rule:evenodd;stroke:#000000;stroke-width:1.34161;stroke-linecap:round;stroke-linejoin:round;stroke-opacity:1;paint-order:stroke fill markers"
       d="m 44.786122,-61.66105 q 0,0.135887 0.09059,0.135887 0.03883,0 0.08411,-0.03236 0.317068,-0.258833 0.776493,-0.414131 0.459424,-0.155298 0.918849,-0.155298 0.556489,0 1.352394,0.349423 0.795905,0.349421 1.404158,1.138857 0.608252,0.789434 0.608252,2.219475 0,1.25533 -0.575899,2.200063 -0.575899,0.944733 -1.546516,1.455924 -0.964145,0.504721 -1.785934,0.504721 -0.763551,0 -1.384745,-0.271772 -0.614724,-0.265302 -0.957675,-0.640606 -0.33648,-0.375308 -0.33648,-0.530605 0,-0.08411 0.05825,-0.168238 0.0647,-0.08411 0.168238,-0.08411 0.116482,0 0.465897,0.284714 0.562957,0.465896 0.957675,0.608253 0.394717,0.142357 0.76355,0.142357 0.569429,0 1.216507,-0.368835 0.653549,-0.375304 1.093561,-1.106503 0.446483,-0.737667 0.446483,-2.051235 0,-1.300626 -0.737668,-2.148298 -0.731199,-0.84767 -1.436512,-0.84767 -0.938263,0 -1.779463,1.132384 -0.16177,0.220007 -0.245891,0.271774 -0.08411,0.04529 -0.17471,0.04529 -0.200594,0 -0.200594,-0.291187 0,-0.129412 0.03236,-0.278244 0.09059,-0.407659 0.09059,-1.300625 v -1.630635 q 0,-0.452955 0.472366,-0.452955 h 2.704786 q 0.161768,0 0.317067,-0.09059 0.161769,-0.09059 0.317069,-0.09059 0.07766,0 0.129412,0.05825 0.05825,0.05825 0.05825,0.148827 0,0.278243 -0.582369,0.634136 -0.582369,0.349422 -1.507691,0.349422 -0.381774,0 -0.763551,-0.07119 -0.381776,-0.07766 -0.420599,-0.07766 -0.09059,0 -0.09059,0.135886 z"
       id="path7" />
  </g>
</svg>
