<?xml version="1.0" encoding="UTF-8" standalone="no"?>
<!-- Created with Inkscape (http://www.inkscape.org/) -->

<svg
   width="127.43116"
   height="125.42749"
   viewBox="0 0 33.71616 33.186023"
   version="1.1"
   id="svg1"
   inkscape:version="1.3.2 (091e20e, 2023-11-25, custom)"
   sodipodi:docname="Card.svg"
   xml:space="preserve"
   inkscape:export-filename="Card.svg"
   inkscape:export-xdpi="96"
   inkscape:export-ydpi="96"
   xmlns:inkscape="http://www.inkscape.org/namespaces/inkscape"
   xmlns:sodipodi="http://sodipodi.sourceforge.net/DTD/sodipodi-0.dtd"
   xmlns="http://www.w3.org/2000/svg"
   xmlns:svg="http://www.w3.org/2000/svg"><sodipodi:namedview
     id="namedview1"
     pagecolor="#ffffff"
     bordercolor="#000000"
     borderopacity="0.25"
     inkscape:showpageshadow="2"
     inkscape:pageopacity="0.0"
     inkscape:pagecheckerboard="0"
     inkscape:deskcolor="#d1d1d1"
     inkscape:document-units="mm"
     showgrid="true"
     inkscape:zoom="1.4725054"
     inkscape:cx="4582.6657"
     inkscape:cy="-433.61471"
     inkscape:window-width="1920"
     inkscape:window-height="1010"
     inkscape:window-x="1699"
     inkscape:window-y="-6"
     inkscape:window-maximized="1"
     inkscape:current-layer="layer1"><inkscape:grid
       id="grid1"
       units="mm"
       originx="-1292.7945"
       originy="117.45487"
       spacingx="63.999999"
       spacingy="63.999999"
       empcolor="#0099e5"
       empopacity="0.30196078"
       color="#0099e5"
       opacity="0.14901961"
       empspacing="5"
       dotted="false"
       gridanglex="30"
       gridanglez="30"
       visible="true" /></sodipodi:namedview><defs
     id="defs1"><inkscape:path-effect
       effect="bspline"
       id="path-effect206"
       is_visible="true"
       lpeversion="1.3"
       weight="33.333333"
       steps="2"
       helper_size="0"
       apply_no_weight="true"
       apply_with_weight="true"
       only_selected="false"
       uniform="false" /><inkscape:path-effect
       effect="bspline"
       id="path-effect205"
       is_visible="true"
       lpeversion="1.3"
       weight="33.333333"
       steps="2"
       helper_size="0"
       apply_no_weight="true"
       apply_with_weight="true"
       only_selected="false"
       uniform="false" /><inkscape:path-effect
       effect="bspline"
       id="path-effect204"
       is_visible="true"
       lpeversion="1.3"
       weight="33.333333"
       steps="2"
       helper_size="0"
       apply_no_weight="true"
       apply_with_weight="true"
       only_selected="false"
       uniform="false" /><inkscape:path-effect
       effect="bspline"
       id="path-effect203"
       is_visible="true"
       lpeversion="1.3"
       weight="33.333333"
       steps="2"
       helper_size="0"
       apply_no_weight="true"
       apply_with_weight="true"
       only_selected="false"
       uniform="false" /><inkscape:path-effect
       effect="bspline"
       id="path-effect202"
       is_visible="true"
       lpeversion="1.3"
       weight="33.333333"
       steps="2"
       helper_size="0"
       apply_no_weight="true"
       apply_with_weight="true"
       only_selected="false"
       uniform="false" /><inkscape:path-effect
       effect="bspline"
       id="path-effect192"
       is_visible="true"
       lpeversion="1.3"
       weight="33.333333"
       steps="2"
       helper_size="0"
       apply_no_weight="true"
       apply_with_weight="true"
       only_selected="false"
       uniform="false" /></defs><g
     inkscape:label="Layer 1"
     inkscape:groupmode="layer"
     id="layer1"
     transform="translate(-1292.7946,117.45487)"><path
       style="fill:#ffffff;fill-opacity:1;fill-rule:evenodd;stroke:none;stroke-width:0.499999;stroke-linecap:square;stroke-linejoin:round;stroke-dasharray:none;stroke-opacity:1;paint-order:stroke fill markers"
       d="m 1329.4999,-90.293528 c 1.0164,-1.56701 1.5247,-2.964601 2.3082,-4.044562 0.7835,-1.079961 1.8423,-1.842284 3.0705,-1.52464 1.2282,0.317643 2.6258,1.71523 3.6211,1.778748 0.9952,0.06352 1.5881,-1.207009 2.4775,-1.503462 0.8894,-0.296452 2.0752,0.38114 2.3505,3.11287 0.2753,2.73173 -0.36,7.517362 -0.9953,11.096093 -0.6353,3.578731 -1.2705,5.950359 -3.1552,7.580911 -1.8847,1.630553 -5.0186,2.519907 -6.6068,1.439916 -1.5882,-1.079992 -1.6305,-4.129253 -2.3082,-5.018627 -0.6776,-0.889375 -1.9905,0.381159 -2.9011,-0.571782 -0.9105,-0.952941 -1.4187,-4.129245 -0.9105,-6.585636 0.5082,-2.456392 2.0329,-4.192818 3.0493,-5.759829 z"
       id="path205"
       inkscape:path-effect="#path-effect206"
       inkscape:original-d="m 1330.0081,-90.462914 c 0.5083,-1.397603 1.0165,-2.795204 1.5247,-4.192804 1.0588,-0.762344 2.1176,-1.524656 3.1764,-2.286984 1.3976,1.397629 2.7952,2.795201 4.1928,4.192804 0.5929,-1.270571 1.1858,-2.541093 1.7787,-3.81164 1.1859,0.677637 2.3717,1.355248 3.5576,2.032873 -0.6353,4.785823 -1.2706,9.571453 -1.9059,14.357178 -0.6353,2.371732 -1.2705,4.743373 -1.9058,7.115061 -3.1341,0.889399 -6.268,1.778764 -9.402,2.668145 -0.042,-3.04937 -0.085,-6.098622 -0.1271,-9.147934 -1.3129,1.270572 -2.6258,2.541093 -3.9387,3.81164 -0.5082,-3.176431 -1.0164,-6.352733 -1.5246,-9.529098 1.5246,-1.73645 3.0493,-3.472828 4.5739,-5.209241 z"
       transform="matrix(-0.59906498,0.20048864,0.20048864,0.59906498,2116.199,-308.92351)" /><path
       id="path189"
       style="fill:#f98868;fill-opacity:1;fill-rule:evenodd;stroke:#f98868;stroke-width:0.315861;stroke-linecap:square;stroke-linejoin:round;stroke-dasharray:none;stroke-opacity:1;paint-order:stroke fill markers"
       d="m 1312.8759,-107.26328 c 0.2392,-0.0874 0.4157,-0.12161 0.5638,-0.1487 0.3948,-0.0722 0.5864,-0.0963 0.9872,-0.0908 0.4008,0.006 1.0109,0.0407 1.8965,0.18324 0.8855,0.14253 2.0466,0.39227 3.0164,0.96544 0.9697,0.57303 1.7484,1.46904 2.2459,2.35968 -0.5543,0.43373 -0.9484,0.92065 -1.2182,1.63532 -0.2804,0.74219 -0.4286,1.72946 0.078,2.467707 0.5064,0.738251 1.6677,1.227457 2.7212,1.632976 1.0533,0.405557 1.9989,0.727486 2.926,0.63666 0.087,-0.0084 0.1739,-0.02183 0.2602,-0.03749 -0.3284,1.387007 -1.3255,3.086378 -2.5401,4.551093 -1.2366,1.491145 -2.6948,2.737221 -4.8474,3.637157 -2.1526,0.899975 -4.9995,1.453804 -7.5716,1.755997 -2.5723,0.302251 -4.8695,0.352749 -6.6228,0.0019 -1.7533,-0.350863 -2.9626,-1.103138 -3.8912,-2.268608 -0.9287,-1.165476 -1.5766,-2.744262 -1.8712,-4.042139 -0.2948,-1.297847 -0.2362,-2.314831 0.8213,-3.446796 1.0577,-1.131995 3.1141,-2.378966 5.2838,-4.002837 2.1697,-1.62388 4.4524,-3.62456 5.8929,-4.6852 0.9003,-0.66288 1.4715,-0.95846 1.8696,-1.10456 z" /><circle
       style="fill:#ffffff;fill-opacity:1;fill-rule:evenodd;stroke:#f98868;stroke-width:0.315861;stroke-linecap:square;stroke-linejoin:round;stroke-dasharray:none;stroke-opacity:1;paint-order:stroke fill markers"
       id="path190"
       cx="-1282.7415"
       cy="319.06473"
       r="1.4046096"
       transform="matrix(-0.94830255,0.31736772,0.31736772,0.94830255,0,0)" /><circle
       style="fill:#00043d;fill-opacity:1;fill-rule:evenodd;stroke:none;stroke-width:0.315861;stroke-linecap:square;stroke-linejoin:round;stroke-dasharray:none;stroke-opacity:1;paint-order:stroke fill markers"
       id="path191"
       cx="-1282.922"
       cy="318.92429"
       r="0.86283165"
       transform="matrix(-0.94830255,0.31736772,0.31736772,0.94830255,0,0)" /><path
       style="fill:none;fill-opacity:1;fill-rule:evenodd;stroke:#f98868;stroke-width:0.499999;stroke-linecap:square;stroke-linejoin:round;stroke-dasharray:none;stroke-opacity:1;paint-order:stroke fill markers"
       d="m 1302.1585,-100.80184 c 0.3594,0.1198 0.7187,0.23957 3.6536,-0.44921 2.9348,-0.68878 8.445,-2.18612 11.1103,-5.18087 2.6653,-2.99476 2.4856,-7.48673 -0.2396,-9.85255 -2.7253,-2.36582 -7.9959,-2.6054 -12.3083,-2.15617 -4.3124,0.44922 -7.6664,1.58717 -9.8226,3.47386 -2.1562,1.88669 -3.1145,4.52199 -3.5937,6.25892 -0.4791,1.73694 -0.4791,2.57545 -0.4791,3.41396"
       id="path192"
       inkscape:path-effect="#path-effect192"
       inkscape:original-d="m 1302.1585,-100.80184 c 0.3594,0.11979 0.7187,0.23958 1.0781,0.35937 5.5103,-1.49739 11.0205,-2.99471 16.5308,-4.49206 -0.1797,-4.49215 -0.3594,-8.98412 -0.5391,-13.47618 -5.2708,-0.23958 -10.5414,-0.47916 -15.812,-0.71873 -3.3542,1.13801 -6.7082,2.27597 -10.0623,3.41396 -0.9583,2.6354 -1.9166,5.27069 -2.8749,7.90603 0,0.83853 0,1.67704 0,2.51555"
       transform="matrix(-0.59906498,0.20048864,0.20048864,0.59906498,2115.008,-307.42459)" /><circle
       style="fill:#f6ff00;fill-opacity:1;fill-rule:evenodd;stroke:none;stroke-width:0.315861;stroke-linecap:square;stroke-linejoin:round;stroke-dasharray:none;stroke-opacity:1;paint-order:stroke fill markers"
       id="path193"
       cx="-1288.0364"
       cy="313.32901"
       r="1.276983"
       transform="matrix(-0.94830255,0.31736772,0.31736772,0.94830255,0,0)" /><path
       style="fill:#ffffff;fill-opacity:1;fill-rule:evenodd;stroke:#f98868;stroke-width:0.499999;stroke-linecap:square;stroke-linejoin:round;stroke-dasharray:none;stroke-opacity:1;paint-order:stroke fill markers"
       d="m 1289.4354,-81.611441 c -0.3388,-0.169406 -0.3388,-0.508218 -0.2753,-1.524671 0.063,-1.016452 0.1906,-2.710483 0.3176,-4.404545 0.4659,1.948171 0.9317,3.896334 1.2071,4.912849 0.2753,1.016515 0.3599,1.101069 0.063,1.143421 -0.2964,0.04235 -0.974,0.04235 -1.3128,-0.127054 z"
       id="path201"
       inkscape:path-effect="#path-effect202"
       inkscape:original-d="m 1289.0966,-81.442035 c 0,-0.338812 0,-0.677624 0,-1.016437 0.127,-1.694095 0.3811,-5.082185 0.3811,-5.082185 0,0 0.9317,3.896341 1.3976,5.844513 0.085,0.0847 0.1694,0.169405 0.2541,0.254109 -0.6776,0 -1.3552,0 -2.0328,0 z"
       sodipodi:nodetypes="cccccc"
       transform="matrix(-0.59906498,0.20048864,0.20048864,0.59906498,2115.008,-307.42459)" /><path
       style="fill:#ffffff;fill-opacity:1;fill-rule:evenodd;stroke:#f98868;stroke-width:0.499999;stroke-linecap:square;stroke-linejoin:round;stroke-dasharray:none;stroke-opacity:1;paint-order:stroke fill markers"
       d="m 1291.1604,-82.324491 c 0.01,-0.02995 0.023,-0.08985 0.037,-0.973301 0.015,-0.883456 0.03,-2.590405 0.045,-4.297388 0.4791,1.64709 0.9583,3.294188 1.1528,4.10273 0.1946,0.808542 0.1049,0.778636 -0.1496,0.838541 -0.2546,0.0599 -0.6738,0.209619 -0.8835,0.284492 -0.2096,0.07487 -0.2097,0.07487 -0.2022,0.04493 z"
       id="path202"
       inkscape:path-effect="#path-effect203"
       inkscape:original-d="m 1291.1529,-82.294546 c 0.015,-0.05989 0.03,-0.119791 0.045,-0.179684 0.015,-1.707018 0.045,-5.12095 0.045,-5.12095 0,0 0.9583,3.294179 1.4374,4.941269 -0.09,-0.02995 -0.1797,-0.05989 -0.2695,-0.08984 -0.4193,0.149738 -0.8385,0.299471 -1.2578,0.449207 z"
       sodipodi:nodetypes="sccccss"
       transform="matrix(-0.59906498,0.20048864,0.20048864,0.59906498,2115.008,-307.42459)" /><path
       style="fill:#ffffff;fill-opacity:1;fill-rule:evenodd;stroke:#f98868;stroke-width:0.499999;stroke-linecap:square;stroke-linejoin:round;stroke-dasharray:none;stroke-opacity:1;paint-order:stroke fill markers"
       d="m 1292.9572,-92.536445 c -0.082,0.763651 -0.247,2.290951 -0.4117,3.818252 0,0 1.8866,-4.132694 1.8866,-4.132694 -0.1048,-0.134762 -0.2096,-0.269524 -0.4417,-0.344392 -0.2321,-0.07487 -0.5914,-0.08984 -0.7711,-0.09733 -0.1797,-0.0075 -0.1797,-0.0075 -0.2621,0.756161 z"
       id="path203"
       inkscape:path-effect="#path-effect204"
       inkscape:original-d="m 1293.0396,-93.300096 c -0.1647,1.527302 -0.4941,4.581903 -0.4941,4.581903 l 1.8866,-4.132694 c 0,0 -0.2096,-0.269524 -0.3144,-0.404286 -0.3594,-0.01498 -0.7187,-0.02995 -1.0781,-0.04492 z"
       sodipodi:nodetypes="scccss"
       transform="matrix(-0.59906498,0.20048864,0.20048864,0.59906498,2115.0171,-307.30793)" /><path
       style="fill:#ffffff;fill-opacity:1;fill-rule:evenodd;stroke:#f98868;stroke-width:0.499999;stroke-linecap:square;stroke-linejoin:round;stroke-dasharray:none;stroke-opacity:1;paint-order:stroke fill markers"
       d="m 1294.522,-91.787766 c -0.09,0.658836 -0.2695,1.976504 -0.4492,3.294175 0,0 2.1563,-3.413966 2.1563,-3.413966 -0.539,-0.179682 -1.078,-0.359344 -1.3476,-0.449195 -0.2695,-0.08985 -0.2697,-0.08985 -0.3595,0.568986 z"
       id="path204"
       inkscape:path-effect="#path-effect205"
       inkscape:original-d="m 1294.6118,-92.446603 c -0.1797,1.317669 -0.539,3.953012 -0.539,3.953012 l 2.1563,-3.413966 c 0,0 -1.078,-0.359365 -1.6171,-0.539046 z"
       sodipodi:nodetypes="sccss"
       transform="matrix(-0.59906498,0.20048864,0.20048864,0.59906498,2115.008,-307.42459)" /></g></svg>
