<?xml version="1.0" encoding="UTF-8" standalone="no"?>
<!-- Created with Inkscape (http://www.inkscape.org/) -->

<svg
   width="29.116434"
   height="40.708805"
   viewBox="0 0 7.703723 10.770871"
   version="1.1"
   id="svg1"
   xmlns="http://www.w3.org/2000/svg"
   xmlns:svg="http://www.w3.org/2000/svg">
  <defs
     id="defs1" />
  <g
     id="layer1"
     transform="translate(-78.730055,64.658766)">
    <path
       style="font-size:9.87777px;font-family:'Poor Richard';-inkscape-font-specification:'Poor Richard';text-align:center;text-anchor:middle;fill:#ffffff;fill-rule:evenodd;stroke:#000000;stroke-width:1;stroke-linecap:round;stroke-linejoin:round;stroke-dasharray:none;stroke-dashoffset:0;stroke-opacity:1;paint-order:stroke fill markers"
       d="m 82.420147,-64.158766 q 1.598282,0 2.555956,1.300626 0.957675,1.294155 0.957675,3.643047 0,2.232418 -1.00297,3.533043 -1.002969,1.294155 -2.400657,1.294155 -1.015914,0 -1.785934,-0.459425 -0.763552,-0.459425 -0.763552,-0.802376 0,-0.0647 0.09707,-0.122944 0.09707,-0.05825 0.181182,-0.05825 0.135887,0 0.588841,0.284715 0.459425,0.284714 0.795906,0.381775 0.33648,0.09707 0.634136,0.09707 0.621194,0 1.100032,-0.368835 0.485308,-0.375305 0.802376,-1.475336 0.323538,-1.106503 0.323538,-2.646546 0,-1.857114 -0.517663,-2.873025 -0.51119,-1.022384 -1.514159,-1.022384 -0.957677,0 -1.391218,0.854143 -0.433542,0.854143 -0.433542,2.711255 0,1.100033 0.414129,1.688872 0.420602,0.588842 1.06768,0.588842 0.239418,0 0.504719,-0.07766 0.265302,-0.08411 0.634136,-0.330008 0.368834,-0.252361 0.504721,-0.252361 0.09059,0 0.155298,0.07766 0.07117,0.07118 0.07117,0.161769 0,0.284715 -0.660019,0.679433 -0.653548,0.394716 -1.210034,0.394716 -0.608255,0 -1.32651,-0.388246 -0.711784,-0.394718 -1.145327,-1.106501 -0.427072,-0.711787 -0.427072,-1.650049 0,-1.203565 0.478837,-2.17418 0.48531,-0.970617 1.281214,-1.423572 0.795906,-0.459424 1.430042,-0.459426 z"
       id="path13" />
  </g>
</svg>
