<?xml version="1.0" encoding="UTF-8" standalone="no"?>
<!-- Created with Inkscape (http://www.inkscape.org/) -->

<svg
   width="179.92775"
   height="129.42319"
   viewBox="0 0 47.605883 34.243218"
   version="1.1"
   id="svg1"
   inkscape:version="1.3.2 (091e20e, 2023-11-25, custom)"
   sodipodi:docname="Card.svg"
   xml:space="preserve"
   inkscape:export-filename="Card.svg"
   inkscape:export-xdpi="96"
   inkscape:export-ydpi="96"
   xmlns:inkscape="http://www.inkscape.org/namespaces/inkscape"
   xmlns:sodipodi="http://sodipodi.sourceforge.net/DTD/sodipodi-0.dtd"
   xmlns="http://www.w3.org/2000/svg"
   xmlns:svg="http://www.w3.org/2000/svg"><sodipodi:namedview
     id="namedview1"
     pagecolor="#ffffff"
     bordercolor="#000000"
     borderopacity="0.25"
     inkscape:showpageshadow="2"
     inkscape:pageopacity="0.0"
     inkscape:pagecheckerboard="0"
     inkscape:deskcolor="#d1d1d1"
     inkscape:document-units="mm"
     showgrid="true"
     inkscape:zoom="1.0412186"
     inkscape:cx="4195.0847"
     inkscape:cy="-277.0792"
     inkscape:window-width="1920"
     inkscape:window-height="1010"
     inkscape:window-x="1699"
     inkscape:window-y="-6"
     inkscape:window-maximized="1"
     inkscape:current-layer="layer1"><inkscape:grid
       id="grid1"
       units="mm"
       originx="-1101.6422"
       originy="111.77523"
       spacingx="63.999999"
       spacingy="63.999999"
       empcolor="#0099e5"
       empopacity="0.30196078"
       color="#0099e5"
       opacity="0.14901961"
       empspacing="5"
       dotted="false"
       gridanglex="30"
       gridanglez="30"
       visible="true" /></sodipodi:namedview><defs
     id="defs1"><inkscape:path-effect
       effect="bspline"
       id="path-effect169"
       is_visible="true"
       lpeversion="1.3"
       weight="33.333333"
       steps="2"
       helper_size="0"
       apply_no_weight="true"
       apply_with_weight="true"
       only_selected="false"
       uniform="false" /><inkscape:path-effect
       effect="bspline"
       id="path-effect168"
       is_visible="true"
       lpeversion="1.3"
       weight="33.333333"
       steps="2"
       helper_size="0"
       apply_no_weight="true"
       apply_with_weight="true"
       only_selected="false"
       uniform="false" /><inkscape:path-effect
       effect="bspline"
       id="path-effect166"
       is_visible="true"
       lpeversion="1.3"
       weight="33.333333"
       steps="2"
       helper_size="0"
       apply_no_weight="true"
       apply_with_weight="true"
       only_selected="false"
       uniform="false" /><inkscape:path-effect
       effect="bspline"
       id="path-effect165"
       is_visible="true"
       lpeversion="1.3"
       weight="33.333333"
       steps="2"
       helper_size="0"
       apply_no_weight="true"
       apply_with_weight="true"
       only_selected="false"
       uniform="false" /><inkscape:path-effect
       effect="bspline"
       id="path-effect164"
       is_visible="true"
       lpeversion="1.3"
       weight="33.333333"
       steps="2"
       helper_size="0"
       apply_no_weight="true"
       apply_with_weight="true"
       only_selected="false"
       uniform="false" /><inkscape:path-effect
       effect="bspline"
       id="path-effect163"
       is_visible="true"
       lpeversion="1.3"
       weight="33.333333"
       steps="2"
       helper_size="0"
       apply_no_weight="true"
       apply_with_weight="true"
       only_selected="false"
       uniform="false" /><inkscape:path-effect
       effect="bspline"
       id="path-effect161"
       is_visible="true"
       lpeversion="1.3"
       weight="33.333333"
       steps="2"
       helper_size="0"
       apply_no_weight="true"
       apply_with_weight="true"
       only_selected="false"
       uniform="false" /></defs><g
     inkscape:label="Layer 1"
     inkscape:groupmode="layer"
     id="layer1"
     transform="translate(-1101.6422,111.77523)"><path
       style="fill:#ffe085;fill-opacity:1;fill-rule:evenodd;stroke:none;stroke-width:1;stroke-linecap:round;stroke-linejoin:round;stroke-dasharray:none;stroke-opacity:1;paint-order:stroke fill markers"
       d="m 1145.4754,-104.81474 c -0.2995,-0.65885 -0.4192,-1.1979 -0.3593,-1.85673 0.06,-0.65882 0.2994,-1.43744 1.2278,-1.9166 0.9284,-0.47916 2.5455,-0.65884 3.6835,-0.0898 1.138,0.56902 1.7968,1.88665 2.5455,3.50382 0.7487,1.61716 1.5872,3.53373 1.9166,4.97119 0.3294,1.437462 0.1497,2.395749 -0.3894,2.964744 -0.539,0.568995 -1.4374,0.748677 -2.4855,0.179667 -1.0482,-0.569009 -2.2461,-1.886682 -3.0846,-2.934827 -0.8385,-1.048144 -1.3177,-1.826774 -1.7968,-2.605394 -0.4792,-0.77862 -0.9583,-1.5572 -1.2578,-2.21605 z"
       id="path168"
       inkscape:path-effect="#path-effect169"
       inkscape:original-d="m 1145.2957,-104.93453 c -0.1198,-0.53905 -0.2396,-1.0781 -0.3593,-1.61714 0.2395,-0.77864 0.4791,-1.55725 0.7187,-2.33587 1.6172,-0.17969 3.2343,-0.35937 4.8514,-0.53905 0.6589,1.3177 1.3177,2.63534 1.9765,3.95301 0.8386,1.91665 1.6771,3.83323 2.5156,5.74984 -0.1797,0.958323 -0.3594,1.916609 -0.5391,2.874917 -0.8984,0.179687 -1.7968,0.359365 -2.6952,0.539046 -1.1979,-1.317696 -2.3958,-2.63534 -3.5936,-3.953013 -0.4792,-0.77864 -0.9584,-1.55725 -1.4375,-2.33587 -0.4792,-0.77864 -0.9583,-1.55725 -1.4375,-2.33587 z"
       transform="matrix(0.71391917,0,0,0.71391917,317.51707,-30.888271)"
       inkscape:export-filename="Card_10_Art.svg"
       inkscape:export-xdpi="96"
       inkscape:export-ydpi="96" /><path
       style="fill:#ffe085;fill-opacity:1;fill-rule:evenodd;stroke:none;stroke-width:1;stroke-linecap:round;stroke-linejoin:round;stroke-dasharray:none;stroke-opacity:1;paint-order:stroke fill markers"
       d="m 1144.3374,-74.508301 c 0,0.299463 0.4792,0.299463 1.5873,0.299463 1.108,0 2.8449,0 5.3305,-0.209636 2.4857,-0.209636 5.7199,-0.628883 8.1157,-1.587188 2.3957,-0.958305 3.953,-2.455676 4.8214,-3.833246 0.8685,-1.377569 1.0482,-2.635322 0.569,-3.354059 -0.4792,-0.718737 -1.6171,-0.898404 -2.815,-0.568976 -1.1979,0.329428 -2.4557,1.167956 -3.4739,1.677048 -1.0182,0.509092 -1.7968,0.688766 -3.2043,0.778604 -1.4076,0.08984 -3.4439,0.08984 -5.0012,0.598942 -1.5572,0.509106 -2.6353,1.527297 -3.384,2.395775 -0.7487,0.868477 -1.1679,1.587166 -1.6171,2.246005 -0.4492,0.658839 -0.9284,1.257805 -0.9284,1.557268 z"
       id="path167"
       inkscape:path-effect="#path-effect168"
       inkscape:original-d="m 1143.8583,-74.208838 c 0.4791,0 0.9583,0 1.4374,0 1.737,0 3.4739,0 5.2108,0 3.2344,-0.419269 6.4686,-0.83852 9.7029,-1.257778 1.5572,-1.497383 3.1145,-2.994705 4.6717,-4.492059 0.1797,-1.257803 0.3594,-2.515555 0.5391,-3.773331 -1.1381,-0.179687 -2.276,-0.359365 -3.414,-0.539047 -1.2578,0.838534 -2.5156,1.677035 -3.7733,2.515553 -0.7787,0.179686 -1.5573,0.359365 -2.3359,0.539046 -2.0365,0 -4.0728,0 -6.1092,0 -1.0781,1.018222 -2.1562,2.036403 -3.2343,3.054601 -0.4193,0.718746 -0.8385,1.43746 -1.2578,2.15619 -0.4791,0.598954 -0.9583,1.197883 -1.4374,1.796825 z"
       transform="matrix(-0.71391917,0,0,0.71391917,1933.3732,-42.818193)" /><path
       style="fill:#c5ac7a;fill-opacity:1;fill-rule:evenodd;stroke:#c5ac7a;stroke-width:1;stroke-linecap:round;stroke-linejoin:round;stroke-opacity:1;paint-order:stroke fill markers"
       d="m 1127.8854,-165.5734 c -2.1811,0.65644 -4.087,2.05408 -6.0352,3.2611 -1.9482,1.20703 -3.9386,2.22341 -5.6962,3.32456 -1.7576,1.10115 -3.2823,2.28701 -5.1458,3.43052 -1.8635,1.1435 -4.0657,2.2446 -5.781,4.25633 -1.7152,2.01172 -2.9434,4.93393 -3.9175,7.24209 -0.9741,2.30816 -1.694,4.00221 -1.8846,6.60687 -0.1906,2.60466 0.1483,6.11976 1.9059,9.27498 1.7576,3.15521 4.9339,5.95035 10.2279,7.41149 5.294,1.46114 12.7054,1.58819 17.83,1.3129 5.1245,-0.27528 7.962,-0.9529 10.1855,-2.13876 2.2235,-1.18586 3.8328,-2.87987 5.8657,-5.10336 2.0329,-2.22349 4.4892,-4.97628 5.908,-7.66564 1.4188,-2.68935 1.7999,-5.31511 1.3976,-8.17387 -0.4024,-2.85876 -1.5882,-5.95036 -2.9223,-8.85148 -1.334,-2.90112 -2.8163,-5.61153 -5.3151,-8.0256 -2.4988,-2.41406 -6.0139,-4.53159 -8.9997,-5.63273 -2.9858,-1.10114 -5.4421,-1.18584 -7.6232,-0.5294 z"
       id="path160"
       inkscape:path-effect="#path-effect161"
       inkscape:original-d="m 1127.6101,-166.31454 c -1.9058,1.3976 -3.8117,2.7952 -5.7175,4.1928 -1.9906,1.01646 -3.981,2.03287 -5.9716,3.04931 -1.5246,1.18587 -3.0493,2.37169 -4.5739,3.55753 -2.2024,1.10116 -4.4046,2.20228 -6.6069,3.30342 -1.2282,2.92232 -2.4564,5.84452 -3.6846,8.76677 -0.7199,1.6941 -1.4399,3.38813 -2.1599,5.08219 0.3388,3.51525 0.6776,7.03036 1.0165,10.54554 3.1764,2.79526 6.3527,5.5904 9.5291,8.3856 7.4116,0.12706 14.823,0.25411 22.2345,0.38117 2.8376,-0.67764 5.6751,-1.35525 8.5127,-2.03288 1.6094,-1.69409 3.2187,-3.38812 4.8281,-5.08218 2.4564,-2.75291 4.9127,-5.50571 7.3691,-8.25856 0.3812,-2.62584 0.7624,-5.25159 1.1435,-7.87738 -1.1859,-3.09173 -2.3717,-6.18333 -3.5575,-9.27499 -1.4824,-2.71056 -2.9646,-5.421 -4.4469,-8.1315 -3.5153,-2.11762 -7.0304,-4.23516 -10.5456,-6.35274 -2.4564,-0.0847 -4.9127,-0.1694 -7.3691,-0.2541 z"
       transform="matrix(0.71391917,0,0,0.71391917,317.51707,7.0822316)"
       sodipodi:nodetypes="acccccccccccccccaa" /><path
       style="fill:#f98868;fill-opacity:1;fill-rule:evenodd;stroke:#f98868;stroke-width:1;stroke-linecap:round;stroke-linejoin:round;stroke-dasharray:none;stroke-opacity:1;paint-order:stroke fill markers"
       d="m 1100.8439,-80.150329 c 0.5082,-0.952894 1.0588,-2.392846 3.2188,-3.875158 2.1599,-1.482313 5.9291,-3.006941 9.2114,-3.769275 3.2823,-0.762334 6.0774,-0.762334 8.9785,0.487056 2.9011,1.249389 5.908,3.748077 8.5339,6.183329 2.6258,2.435252 4.8704,4.806896 5.7809,6.966837 0.9106,2.15994 0.4871,4.108074 -0.4023,5.399803 -0.8894,1.291729 -2.2446,1.926975 -3.7693,2.223442 -1.5247,0.296467 -3.2187,0.254118 -4.934,-0.169399 -1.7152,-0.423518 -3.4516,-1.228195 -4.8916,-2.18111 -1.4399,-0.952915 -2.5834,-2.054045 -3.5151,-3.176378 -0.9318,-1.122332 -1.6518,-2.265822 -3.007,-3.006965 -1.3553,-0.741143 -3.3458,-1.079949 -5.2093,-0.910545 -1.8634,0.169404 -3.5998,0.847015 -5.4633,1.291718 -1.8635,0.444703 -3.854,0.656461 -4.8704,0.02118 -1.0165,-0.635283 -1.0588,-2.117576 -0.8471,-3.091669 0.2118,-0.974093 0.6777,-1.439972 1.1859,-2.392865 z"
       id="path162"
       inkscape:path-effect="#path-effect163"
       inkscape:original-d="m 1100.8015,-79.66327 c 0.5506,-1.439953 1.1012,-2.879905 1.6518,-4.319858 3.7693,-1.524685 7.5385,-3.049312 11.3078,-4.573968 2.7953,0 5.5904,0 8.3856,0 3.007,2.498794 6.0139,4.997484 9.0209,7.496225 2.2447,2.371735 4.4893,4.743373 6.7339,7.115061 -0.4235,1.948212 -0.847,3.896344 -1.2705,5.844514 -1.3553,0.635285 -2.7105,1.270547 -4.0658,1.90582 -1.6941,-0.04235 -3.3881,-0.0847 -5.0822,-0.127053 -1.7364,-0.804696 -3.4728,-1.60936 -5.2092,-2.41404 -1.1435,-1.101161 -2.287,-2.20228 -3.4305,-3.303421 -0.72,-1.143516 -1.44,-2.286984 -2.1599,-3.430476 -1.9906,-0.338818 -3.9811,-0.677624 -5.9716,-1.016437 -1.7364,0.677638 -3.4728,1.355249 -5.2093,2.032873 -1.9905,0.211762 -3.981,0.423516 -5.9715,0.635276 -0.042,-1.482334 -0.085,-2.964609 -0.1271,-4.446913 0.4659,-0.465879 0.9318,-0.931736 1.3976,-1.397603 z"
       transform="matrix(0.71391917,0,0,0.71391917,317.24495,-30.525444)" /><path
       style="fill:#00043d;fill-opacity:1;fill-rule:evenodd;stroke:#f98868;stroke-width:1;stroke-linecap:round;stroke-linejoin:round;stroke-dasharray:none;stroke-opacity:1;paint-order:stroke fill markers"
       d="m 1103.879,-79.76402 c 0.2096,-0.194673 0.3293,-0.284482 1.1379,-0.59894 0.8086,-0.314458 2.306,-0.853514 4.3723,-1.227844 2.0664,-0.374331 4.7017,-0.583957 6.6033,-0.673796 1.9017,-0.08984 3.0696,-0.05989 4.4472,0.29949 1.3776,0.359383 2.9647,1.048127 4.1177,1.706981 1.153,0.658854 1.8717,1.287722 2.9198,2.051374 1.0482,0.763652 2.4257,1.662028 3.2193,2.770087 0.7936,1.108059 1.0033,2.425716 1.138,3.713452 0.1348,1.287737 0.1947,2.545484 -0.3444,2.815005 -0.539,0.269521 -1.677,-0.449205 -2.4706,-1.377573 -0.7936,-0.928369 -1.2428,-2.066339 -1.6471,-3.099525 -0.4043,-1.033187 -0.7636,-1.961508 -1.707,-2.755112 -0.9433,-0.793604 -2.4706,-1.452438 -3.923,-2.051386 -1.4525,-0.598948 -2.83,-1.137972 -4.1028,-1.482373 -1.2728,-0.344401 -2.4407,-0.494132 -3.5337,-0.568997 -1.0931,-0.07487 -2.1113,-0.07487 -3.0546,0.04493 -0.9434,0.119792 -1.8118,0.359352 -3.0397,0.598933 -1.2278,0.239581 -2.815,0.479157 -3.6984,0.58397 -0.8835,0.104812 -1.0632,0.07486 -1.0033,-0.08983 0.06,-0.164688 0.3594,-0.464173 0.5691,-0.658845 z"
       id="path163"
       inkscape:path-effect="#path-effect164"
       inkscape:original-d="m 1103.9688,-79.868836 c 0.1198,-0.08984 0.2395,-0.179681 0.3593,-0.269523 1.4974,-0.539057 2.9948,-1.078095 4.4921,-1.617141 2.6354,-0.209635 5.2707,-0.419259 7.906,-0.628888 1.168,0.02995 2.3359,0.05989 3.5038,0.08984 1.5873,0.688795 3.1744,1.377563 4.7616,2.066348 0.7188,0.628898 1.4375,1.257776 2.1562,1.886664 1.3776,0.89843 2.7551,1.796825 4.1327,2.695236 0.2096,1.317697 0.4193,2.635343 0.6289,3.953013 0.06,1.257803 0.1198,2.515555 0.1797,3.773331 -1.138,-0.718743 -2.276,-1.43746 -3.414,-2.15619 -0.4492,-1.13801 -0.8984,-2.275977 -1.3476,-3.413963 -0.3594,-0.928378 -0.7187,-1.856719 -1.0781,-2.785079 -1.5273,-0.658849 -3.0546,-1.317672 -4.5819,-1.976506 -1.3776,-0.539059 -2.7551,-1.078095 -4.1327,-1.617144 -1.168,-0.149738 -2.3359,-0.299468 -3.5038,-0.449204 -1.0182,0 -2.0364,0 -3.0546,0 -0.8685,0.23958 -1.7369,0.479152 -2.6054,0.71873 -1.5872,0.23958 -3.1744,0.479152 -4.7616,0.71873 -0.1797,-0.02995 -0.3594,-0.0599 -0.539,-0.08984 0.2994,-0.299477 0.5989,-0.598943 0.8984,-0.898414 z"
       transform="matrix(0.71391917,0,0,0.71391917,317.24495,-30.525444)" /><circle
       style="fill:#00043d;fill-opacity:1;fill-rule:evenodd;stroke:none;stroke-width:0.713919;stroke-linecap:round;stroke-linejoin:round;stroke-dasharray:none;stroke-opacity:1;paint-order:stroke fill markers"
       id="path164"
       cx="1128.4355"
       cy="-91.75251"
       r="1.542015" /><circle
       style="fill:#00043d;fill-opacity:1;fill-rule:evenodd;stroke:none;stroke-width:0.713919;stroke-linecap:round;stroke-linejoin:round;stroke-dasharray:none;stroke-opacity:1;paint-order:stroke fill markers"
       id="circle164"
       cx="1109.3871"
       cy="-96.015717"
       r="1.542015" /><path
       style="fill:#c5ac7a;fill-opacity:1;fill-rule:evenodd;stroke:#00043d;stroke-width:0.5;stroke-linecap:square;stroke-linejoin:round;stroke-dasharray:none;stroke-opacity:1;paint-order:stroke fill markers"
       d="m 1117.1916,-91.098189 c -0.4235,0.33879 -0.847,0.677581 -1.3976,1.672952 -0.5507,0.995371 -1.2282,2.646908 -1.6094,4.023356 -0.3811,1.376448 -0.4658,2.477542 -0.1905,3.515147 0.2753,1.037604 0.9105,2.011692 2.1811,2.562269 1.2705,0.550578 3.1763,0.677632 4.6798,-0.296484 1.5035,-0.974115 2.6046,-3.049293 3.5681,-4.595148 0.9635,-1.545855 1.7893,-2.562233 2.6152,-3.578671"
       id="path165"
       inkscape:path-effect="#path-effect165"
       inkscape:original-d="m 1117.1916,-91.098189 c -0.4235,0.338796 -0.847,0.677593 -1.2706,1.016439 -0.6777,1.651872 -1.3552,3.303421 -2.0328,4.95513 -0.085,1.101164 -0.1694,2.202281 -0.2541,3.303421 0.6352,0.974106 1.2705,1.948172 1.9058,2.922257 1.9058,0.127058 3.8116,0.254111 5.7174,0.381164 1.1012,-2.075268 2.2023,-4.15045 3.3034,-6.225678 0.8259,-1.016508 1.6517,-2.0329 2.4776,-3.049312"
       transform="matrix(0.71391917,0,0,0.71391917,316.79142,-29.618376)"
       sodipodi:nodetypes="cccccccc" /><path
       style="fill:#ffe085;fill-opacity:1;fill-rule:evenodd;stroke:none;stroke-width:1;stroke-linecap:round;stroke-linejoin:round;stroke-dasharray:none;stroke-opacity:1;paint-order:stroke fill markers"
       d="m 1144.3374,-74.508301 c 0,0.299463 0.4792,0.299463 1.5873,0.299463 1.108,0 2.8449,0 5.3305,-0.209636 2.4857,-0.209636 5.7199,-0.628883 8.1157,-1.587188 2.3957,-0.958305 3.953,-2.455676 4.8214,-3.833246 0.8685,-1.377569 1.0482,-2.635322 0.569,-3.354059 -0.4792,-0.718737 -1.6171,-0.898404 -2.815,-0.568976 -1.1979,0.329428 -2.4557,1.167956 -3.4739,1.677048 -1.0182,0.509092 -1.7968,0.688766 -3.2043,0.778604 -1.4076,0.08984 -3.4439,0.08984 -5.0012,0.598942 -1.5572,0.509106 -2.6353,1.527297 -3.384,2.395775 -0.7487,0.868477 -1.1679,1.587166 -1.6171,2.246005 -0.4492,0.658839 -0.9284,1.257805 -0.9284,1.557268 z"
       id="path166"
       inkscape:path-effect="#path-effect166"
       inkscape:original-d="m 1143.8583,-74.208838 c 0.4791,0 0.9583,0 1.4374,0 1.737,0 3.4739,0 5.2108,0 3.2344,-0.419269 6.4686,-0.83852 9.7029,-1.257778 1.5572,-1.497383 3.1145,-2.994705 4.6717,-4.492059 0.1797,-1.257803 0.3594,-2.515555 0.5391,-3.773331 -1.1381,-0.179687 -2.276,-0.359365 -3.414,-0.539047 -1.2578,0.838534 -2.5156,1.677035 -3.7733,2.515553 -0.7787,0.179686 -1.5573,0.359365 -2.3359,0.539046 -2.0365,0 -4.0728,0 -6.1092,0 -1.0781,1.018222 -2.1562,2.036403 -3.2343,3.054601 -0.4193,0.718746 -0.8385,1.43746 -1.2578,2.15619 -0.4791,0.598954 -0.9583,1.197883 -1.4374,1.796825 z"
       transform="matrix(0.71391917,0,0,0.71391917,317.51707,-30.888271)" /></g></svg>
