<?xml version="1.0" encoding="UTF-8" standalone="no"?>
<!-- Created with Inkscape (http://www.inkscape.org/) -->

<svg
   width="28.842304"
   height="35.175694"
   viewBox="0 0 7.6311928 9.3069022"
   version="1.1"
   id="svg1"
   xmlns="http://www.w3.org/2000/svg"
   xmlns:svg="http://www.w3.org/2000/svg">
  <defs
     id="defs1" />
  <g
     id="layer1"
     transform="translate(-40.287949,47.923567)">
    <path
       style="font-size:9.87777px;font-family:'Javanese Text';-inkscape-font-specification:'Javanese Text';text-align:center;text-anchor:middle;fill:#40446e;fill-rule:evenodd;stroke:#00043d;stroke-width:1.34161;stroke-linecap:round;stroke-linejoin:round;paint-order:stroke fill markers"
       d="m 44.110013,-47.252996 q 0.168238,0.698843 0.51766,1.248861 0.349421,0.550015 1.24239,1.365333 0.899437,0.808845 1.138856,1.242389 0.239418,0.433542 0.239418,0.880025 0,0.621195 -0.41413,1.035323 -0.414129,0.414131 -1.00944,0.414131 -0.504721,0 -0.91885,-0.310597 -0.407659,-0.317069 -0.724727,-0.918851 0.0063,0.951204 0.245889,1.51416 0.24589,0.556489 0.776495,0.880027 0.537073,0.317068 1.423569,0.375305 l 0.0453,0.23942 H 41.54112 l 0.05177,-0.23942 q 1.190624,0 1.844171,-0.692373 0.660019,-0.698843 0.634138,-2.077119 -0.291187,0.614723 -0.724729,0.925321 -0.427069,0.304127 -0.970615,0.304127 -0.58237,0 -1.00297,-0.420601 -0.414131,-0.420601 -0.414131,-1.009441 0,-0.472365 0.213537,-0.854143 0.291186,-0.530603 0.944734,-1.067678 0.653547,-0.537073 0.964144,-0.886495 0.472368,-0.537074 0.685903,-0.957676 0.220006,-0.420598 0.342951,-0.990028 z"
       id="path23" />
  </g>
</svg>
