<?xml version="1.0" encoding="UTF-8" standalone="no"?>
<!-- Created with Inkscape (http://www.inkscape.org/) -->

<svg
   width="163.13501"
   height="176.08023"
   viewBox="0 0 43.162804 46.587894"
   version="1.1"
   id="svg1"
   inkscape:version="1.3.2 (091e20e, 2023-11-25, custom)"
   sodipodi:docname="Card.svg"
   xml:space="preserve"
   inkscape:export-filename="Card.svg"
   inkscape:export-xdpi="96"
   inkscape:export-ydpi="96"
   xmlns:inkscape="http://www.inkscape.org/namespaces/inkscape"
   xmlns:sodipodi="http://sodipodi.sourceforge.net/DTD/sodipodi-0.dtd"
   xmlns="http://www.w3.org/2000/svg"
   xmlns:svg="http://www.w3.org/2000/svg"><sodipodi:namedview
     id="namedview1"
     pagecolor="#ffffff"
     bordercolor="#000000"
     borderopacity="0.25"
     inkscape:showpageshadow="2"
     inkscape:pageopacity="0.0"
     inkscape:pagecheckerboard="0"
     inkscape:deskcolor="#d1d1d1"
     inkscape:document-units="mm"
     showgrid="true"
     inkscape:zoom="0.73625269"
     inkscape:cx="1905.5958"
     inkscape:cy="-107.97923"
     inkscape:window-width="1920"
     inkscape:window-height="1010"
     inkscape:window-x="1699"
     inkscape:window-y="-6"
     inkscape:window-maximized="1"
     inkscape:current-layer="layer1"><inkscape:grid
       id="grid1"
       units="mm"
       originx="-572.9585"
       originy="58.911411"
       spacingx="63.999999"
       spacingy="63.999999"
       empcolor="#0099e5"
       empopacity="0.30196078"
       color="#0099e5"
       opacity="0.14901961"
       empspacing="5"
       dotted="false"
       gridanglex="30"
       gridanglez="30"
       visible="true" /></sodipodi:namedview><defs
     id="defs1"><inkscape:path-effect
       effect="bspline"
       id="path-effect78"
       is_visible="true"
       lpeversion="1.3"
       weight="33.333333"
       steps="2"
       helper_size="0"
       apply_no_weight="true"
       apply_with_weight="true"
       only_selected="false"
       uniform="false" /><inkscape:path-effect
       effect="bspline"
       id="path-effect77"
       is_visible="true"
       lpeversion="1.3"
       weight="33.333333"
       steps="2"
       helper_size="0"
       apply_no_weight="true"
       apply_with_weight="true"
       only_selected="false"
       uniform="false" /><inkscape:path-effect
       effect="bspline"
       id="path-effect76"
       is_visible="true"
       lpeversion="1.3"
       weight="33.333333"
       steps="2"
       helper_size="0"
       apply_no_weight="true"
       apply_with_weight="true"
       only_selected="false"
       uniform="false" /><inkscape:path-effect
       effect="bspline"
       id="path-effect75"
       is_visible="true"
       lpeversion="1.3"
       weight="33.333333"
       steps="2"
       helper_size="0"
       apply_no_weight="true"
       apply_with_weight="true"
       only_selected="false"
       uniform="false" /><inkscape:path-effect
       effect="bspline"
       id="path-effect74"
       is_visible="true"
       lpeversion="1.3"
       weight="33.333333"
       steps="2"
       helper_size="0"
       apply_no_weight="true"
       apply_with_weight="true"
       only_selected="false"
       uniform="false" /><inkscape:path-effect
       effect="bspline"
       id="path-effect73"
       is_visible="true"
       lpeversion="1.3"
       weight="33.333333"
       steps="2"
       helper_size="0"
       apply_no_weight="true"
       apply_with_weight="true"
       only_selected="false"
       uniform="false" /></defs><g
     inkscape:label="Layer 1"
     inkscape:groupmode="layer"
     id="layer1"
     transform="translate(-572.95851,58.911412)"><path
       id="path71"
       style="fill:#ffffff;fill-opacity:1;fill-rule:evenodd;stroke:none;stroke-width:0.728516;stroke-linecap:round;stroke-linejoin:round;stroke-opacity:1;paint-order:stroke fill markers"
       d="m 606.11883,-58.907811 c -0.36503,-0.05273 -1.83067,0.465748 -5.41742,2.104849 -5.7388,2.622561 -16.9077,8.114504 -22.46138,10.968478 -3.8007,1.953135 -4.95075,2.661355 -5.2815,3.003859 0.23146,0.02374 0.47231,0.04849 0.65732,0.144188 0.31634,0.163632 0.46913,0.534402 0.52367,0.763484 0.0546,0.229074 0.0108,0.31646 -0.15285,0.589172 -0.054,0.09008 -0.12207,0.200473 -0.19915,0.310967 0.52587,0.641174 1.29413,1.496604 2.21553,2.50052 1.0336,1.126169 2.20602,2.391142 3.42475,3.424754 1.21874,1.033616 2.4838,1.835657 3.60998,2.514448 1.12617,0.678793 2.11339,1.234429 2.60706,1.89779 0.49368,0.663361 0.49388,1.434631 1.0801,2.637931 0.58622,1.203301 1.75847,2.838306 3.13148,5.106074 1.373,2.267768 2.94665,5.168004 4.36594,6.942122 1.41927,1.774117 2.68431,2.422035 2.86945,2.113507 0.18515,-0.308528 -0.70965,-1.573189 -1.41928,-2.822779 -0.70965,-1.249589 -1.23418,-2.48389 -1.43474,-3.764332 -0.20056,-1.28044 -0.0771,-2.606955 0.0309,-4.504473 0.10799,-1.897517 0.20037,-4.365903 0.37007,-7.11191 0.1697,-2.746007 0.41651,-5.769782 0.66334,-7.867862 0.24684,-2.098082 0.49357,-3.270424 0.52442,-4.705132 0.0309,-1.434717 -0.15394,-3.131634 0.58655,-4.813179 0.74048,-1.681545 2.40631,-3.347667 4.33468,-4.921232 1.92838,-1.573556 4.11909,-3.054388 5.06014,-3.918305 0.3529,-0.323971 0.52998,-0.561307 0.31097,-0.592939 z"
       inkscape:export-filename="Card_5_Art.svg"
       inkscape:export-xdpi="96"
       inkscape:export-ydpi="96" /><path
       style="fill:#ffffff;fill-opacity:1;fill-rule:evenodd;stroke:none;stroke-width:1;stroke-linecap:round;stroke-linejoin:round;stroke-opacity:1;paint-order:stroke fill markers"
       d="m 564.44032,-99.272035 c -0.1906,-0.04235 -0.57176,0.127054 -1.12233,1.143507 -0.55058,1.016452 -1.27054,2.879885 -1.71523,4.722197 -0.44469,1.842311 -0.61409,3.663393 -0.40232,5.950404 0.21176,2.287011 0.80467,5.039803 1.90582,7.136218 1.10115,2.096416 2.71048,3.536342 3.62104,4.171612 0.91056,0.635269 1.12232,0.465866 1.12231,0.27529 0,-0.190576 -0.21175,-0.40233 -0.78351,-1.079974 -0.57175,-0.677643 -1.50346,-1.821106 -2.11756,-3.028137 -0.6141,-1.207031 -0.91056,-2.477553 -1.1435,-3.790466 -0.23294,-1.312913 -0.40234,-2.668134 -0.35998,-4.235159 0.0423,-1.567025 0.29645,-3.345757 0.63527,-4.679842 0.33882,-1.334085 0.76232,-2.223443 0.8682,-3.155188 0.10588,-0.931746 -0.10587,-1.905812 -0.21174,-2.519911 -0.10588,-0.614099 -0.10588,-0.868203 -0.29647,-0.910551 z"
       id="path72"
       inkscape:path-effect="#path-effect73"
       inkscape:original-d="m 564.63091,-99.483798 c -0.38119,0.169408 -0.76235,0.338812 -1.14351,0.50822 -0.71998,1.863505 -1.43994,3.726937 -2.15992,5.590405 -0.16941,1.821153 -0.33883,3.642233 -0.50821,5.463349 0.59293,2.752908 1.18583,5.505702 1.77876,8.258554 1.60938,1.439981 3.21871,2.879904 4.82807,4.319857 0.21177,-0.169408 0.42352,-0.338812 0.63526,-0.508217 -0.21174,-0.211762 -0.42349,-0.423516 -0.63526,-0.635273 -0.93176,-1.143516 -1.86346,-2.286984 -2.79519,-3.430476 -0.29647,-1.270571 -0.59293,-2.541093 -0.8894,-3.81164 -0.16941,-1.355278 -0.3388,-2.7105 -0.50821,-4.065749 0.2541,-1.778802 0.50821,-3.557532 0.76232,-5.336297 0.42354,-0.889399 0.84703,-1.778764 1.27055,-2.668148 -0.21177,-0.974103 -0.42352,-1.948169 -0.63526,-2.922257 0,-0.254113 0,-0.508217 0,-0.762328 z"
       transform="matrix(0.72851549,0,0,0.72851549,168.87227,37.054047)" /><path
       style="fill:#ffffff;fill-opacity:1;fill-rule:evenodd;stroke:none;stroke-width:1;stroke-linecap:round;stroke-linejoin:round;stroke-opacity:1;paint-order:stroke fill markers"
       d="m 565.47793,-96.836825 c -0.25411,0.317642 -0.55057,0.868214 -0.80468,1.799959 -0.25411,0.931745 -0.46587,2.244613 -0.35999,4.086931 0.10589,1.842318 0.52939,4.213954 0.7835,6.395079 0.25411,2.181125 0.33882,4.171609 0.99528,6.204505 0.65646,2.032896 1.88463,4.108082 3.11284,6.098625 1.2282,1.990542 2.45638,3.896324 3.64222,5.166872 1.18585,1.270548 2.32933,1.905811 2.4352,1.376402 0.10588,-0.529409 -0.82584,-2.22344 -1.75759,-4.023401 -0.93174,-1.799962 -1.86345,-3.70574 -2.81637,-6.458628 -0.95292,-2.752888 -1.92699,-6.352694 -2.64697,-8.703218 -0.71998,-2.350525 -1.18584,-3.451642 -1.46112,-4.891611 -0.27529,-1.439968 -0.36,-3.218699 -0.40235,-4.531605 -0.0424,-1.312906 -0.0424,-2.159922 -0.14823,-2.541088 -0.10587,-0.381165 -0.31762,-0.296464 -0.57174,0.02118 z"
       id="path73"
       inkscape:path-effect="#path-effect74"
       inkscape:original-d="m 565.52028,-97.069758 c -0.29647,0.550569 -0.59293,1.10114 -0.88937,1.651709 -0.21178,1.312926 -0.42352,2.625797 -0.63529,3.938696 0.42354,2.371733 0.84703,4.743373 1.27055,7.115061 0.0847,1.990561 0.16941,3.981045 0.25411,5.971569 1.22822,2.075267 2.45639,4.150453 3.68458,6.225678 1.22823,1.905857 2.4564,3.81164 3.68459,5.71746 1.1435,0.635286 2.28698,1.270545 3.43048,1.905818 -0.93175,-1.694096 -1.86348,-3.388122 -2.79521,-5.082186 -0.93176,-1.905857 -1.86346,-3.81164 -2.79519,-5.71746 -0.97412,-3.599953 -1.94818,-7.199762 -2.92227,-10.799646 -0.46588,-1.101162 -0.93173,-2.202281 -1.39759,-3.303421 -0.0847,-1.778799 -0.16941,-3.557529 -0.25413,-5.336294 0,-0.847047 0,-1.694063 0,-2.541092 -0.21174,0.0847 -0.42349,0.169404 -0.63526,0.254108 z"
       transform="matrix(0.72851549,0,0,0.72851549,169.42764,35.409704)" /><path
       style="fill:#ffffff;fill-opacity:1;fill-rule:evenodd;stroke:none;stroke-width:1;stroke-linecap:round;stroke-linejoin:round;stroke-opacity:1;paint-order:stroke fill markers"
       d="m 585.74315,-112.48572 c 0.23293,-0.25411 0.6141,-0.29647 1.1435,-0.27529 0.52941,0.0212 1.207,0.10588 1.84228,0.27528 0.63528,0.16941 1.22818,0.42351 1.37642,1.20704 0.14824,0.78352 -0.14821,2.0964 -0.48703,3.28225 -0.33882,1.18585 -0.71998,2.24461 -1.18585,2.81636 -0.46587,0.57174 -1.01644,0.65645 -1.48231,0.63527 -0.46586,-0.0212 -0.84702,-0.14823 -1.12231,-0.86822 -0.27529,-0.71999 -0.4447,-2.03286 -0.50823,-3.11284 -0.0635,-1.07997 -0.0212,-1.92698 0.0424,-2.58343 0.0635,-0.65646 0.14824,-1.12231 0.38117,-1.37642 z"
       id="path74"
       inkscape:path-effect="#path-effect75"
       inkscape:original-d="m 585.59493,-112.69748 c 0.38116,-0.0423 0.76232,-0.0847 1.14348,-0.12706 0.67765,0.0847 1.35524,0.16941 2.03287,0.25411 0.59293,0.25412 1.18583,0.50822 1.77877,0.76233 -0.29647,1.31293 -0.59294,2.6258 -0.88937,3.9387 -0.38119,1.05881 -0.76235,2.11757 -1.14351,3.17636 -0.55057,0.0847 -1.10114,0.16941 -1.65171,0.25411 -0.38116,-0.12706 -0.76232,-0.25411 -1.14348,-0.38116 -0.16941,-1.31293 -0.33882,-2.6258 -0.50824,-3.9387 0.0424,-0.84705 0.0847,-1.69406 0.12706,-2.54109 0.0847,-0.46588 0.16941,-0.93173 0.25413,-1.3976 z"
       transform="matrix(0.72851549,0,0,0.72851549,168.59458,37.516853)" /><path
       style="fill:#ffffff;fill-opacity:1;fill-rule:evenodd;stroke:#ffffff;stroke-width:1;stroke-linecap:round;stroke-linejoin:round;stroke-opacity:1;paint-order:stroke fill markers"
       d="m 597.72863,-95.396874 c 0.40234,0.190581 0.74116,0.5294 1.48232,1.037627 0.74117,0.508226 1.88464,1.185842 3.00697,1.736412 1.12232,0.55057 2.22344,0.974077 3.11283,1.334066 0.88938,0.35999 1.567,0.656448 1.7364,0.84703 0.1694,0.190582 -0.1694,0.275281 -0.86822,0.211752 -0.69882,-0.06353 -1.75757,-0.27528 -3.13401,-0.804685 -1.37645,-0.529405 -3.07047,-1.376414 -4.23515,-2.202279 -1.16468,-0.825864 -1.79994,-1.630533 -1.88464,-2.011693 -0.0847,-0.38116 0.38116,-0.338811 0.7835,-0.14823 z"
       id="path77"
       inkscape:path-effect="#path-effect78"
       inkscape:original-d="m 597.79217,-95.545102 c 0.3388,0.338812 0.67762,0.677625 1.01642,1.016437 1.14353,0.677637 2.28701,1.355248 3.43048,2.032875 1.10117,0.423524 2.20229,0.84703 3.30343,1.270546 0.67763,0.296468 1.35525,0.592923 2.03287,0.889383 -0.33882,0.0847 -0.67762,0.169405 -1.01645,0.254109 -1.05881,-0.211762 -2.11756,-0.423516 -3.17634,-0.635273 -1.69411,-0.847048 -3.38813,-1.694063 -5.0822,-2.541093 -0.63529,-0.804695 -1.27056,-1.609359 -1.90582,-2.414039 0.46588,0.04235 0.93173,0.0847 1.39761,0.127055 z"
       transform="matrix(0.72851549,0,0,0.72851549,168.59458,37.516853)" /><path
       style="fill:#ffffff;fill-opacity:1;fill-rule:evenodd;stroke:#ffffff;stroke-width:1;stroke-linecap:round;stroke-linejoin:round;stroke-opacity:1;paint-order:stroke fill markers"
       d="m 605.33074,-117.20792 c 0.50823,0.10588 2.20227,0.0212 4.1293,0.0212 1.92703,1e-5 4.0869,0.0847 4.8704,0.0212 0.7835,-0.0635 0.19059,-0.27528 -0.88939,-0.48704 -1.07997,-0.21176 -2.64697,-0.42352 -3.81164,-0.55058 -1.16467,-0.12705 -1.92698,-0.1694 -2.4352,-0.10587 -0.50823,0.0635 -0.76233,0.23294 -1.2282,0.46587 -0.46587,0.23293 -1.14349,0.52939 -0.63527,0.63527 z"
       id="path76"
       inkscape:path-effect="#path-effect77"
       inkscape:original-d="m 604.14489,-117.01734 c 1.69408,-0.0847 3.38812,-0.16941 5.0822,-0.25411 2.15998,0.0847 4.31985,0.16941 6.47978,0.25411 -0.59293,-0.21176 -1.18584,-0.42351 -1.77877,-0.63527 -1.56702,-0.21177 -3.13402,-0.42352 -4.70101,-0.63528 -0.76235,-0.0423 -1.52466,-0.0847 -2.28698,-0.12705 -0.25413,0.16941 -0.50824,0.33881 -0.76234,0.50822 -0.67763,0.29646 -1.35525,0.59292 -2.03288,0.88938 z"
       transform="matrix(0.72851549,0,0,0.72851549,167.94665,37.701976)" /><path
       style="fill:#5f8d94;fill-opacity:1;fill-rule:evenodd;stroke:#5f8d94;stroke-width:1;stroke-linecap:round;stroke-linejoin:round;stroke-opacity:1;paint-order:stroke fill markers"
       d="m 589.59714,-112.42219 c 0.40233,-0.35999 0.99526,-0.82587 2.15995,-1.56703 1.16468,-0.74116 2.90106,-1.75758 4.59513,-2.60461 1.69408,-0.84704 3.34577,-1.52465 4.57396,-1.79994 1.2282,-0.27528 2.03288,-0.14823 2.66815,0.14824 0.63528,0.29646 1.10113,0.76232 0.78349,1.37643 -0.31765,0.6141 -1.41877,1.37641 -1.82111,2.1811 -0.40234,0.80469 -0.10588,1.65171 -0.33883,2.64698 -0.23294,0.99527 -0.99524,2.13873 -1.18582,3.43047 -0.19058,1.29174 0.19058,2.73167 0.0635,3.95988 -0.12706,1.2282 -0.76232,2.24462 -1.3129,3.13401 -0.55057,0.88939 -1.01643,1.651693 -1.12231,2.414029 -0.10587,0.762335 0.14823,1.524648 -0.10588,2.37169 -0.25412,0.847041 -1.01643,1.778757 -1.33407,2.371681 -0.31764,0.592923 -0.19058,0.847023 -0.8894,0.127034 -0.69881,-0.719989 -2.22344,-2.414017 -3.53635,-3.875159 -1.31292,-1.461142 -2.41404,-2.689305 -3.13401,-3.663395 -0.71998,-0.9741 -1.05878,-1.69406 -1.33407,-2.37169 -0.27528,-0.67764 -0.48703,-1.3129 -0.40233,-2.54111 0.0847,-1.22821 0.46586,-3.04929 0.76232,-4.08691 0.29647,-1.03761 0.50822,-1.29172 0.91056,-1.6517 z"
       id="path75"
       inkscape:path-effect="#path-effect76"
       inkscape:original-d="m 589.40657,-112.31632 c 0.5929,-0.46586 1.18584,-0.93173 1.77874,-1.3976 1.73646,-1.01646 3.47284,-2.03287 5.20925,-3.04931 1.65174,-0.67764 3.30343,-1.35525 4.95514,-2.03288 0.80468,0.12706 1.60936,0.25412 2.41403,0.38117 0.46588,0.46587 0.93173,0.93173 1.39761,1.3976 -1.10117,0.76234 -2.20228,1.52466 -3.30343,2.28698 0.29647,0.84705 0.59293,1.69407 0.88937,2.5411 -0.76234,1.14351 -1.52463,2.28698 -2.28697,3.43047 0.38118,1.43998 0.76234,2.87991 1.1435,4.31986 -0.63529,1.01646 -1.27056,2.03288 -1.90582,3.04931 -0.46588,0.76235 -0.93173,1.524658 -1.39761,2.286986 0.2541,0.762344 0.50821,1.524656 0.76234,2.286985 -0.76234,0.931754 -1.52466,1.863468 -2.287,2.795203 0.12705,0.254114 0.2541,0.508217 0.38118,0.762328 -1.52469,-1.694098 -3.04932,-3.388124 -4.57398,-5.082188 -1.10117,-1.228219 -2.20229,-2.456384 -3.30343,-3.684584 -0.3388,-0.71999 -0.67762,-1.43995 -1.01642,-2.15993 -0.21178,-0.63528 -0.42352,-1.27055 -0.63527,-1.90582 0.38116,-1.82115 0.76232,-3.64223 1.14348,-5.46335 0.21177,-0.25411 0.42352,-0.50822 0.63529,-0.76233 z"
       transform="matrix(0.72851549,0,0,0.72851549,168.59458,37.516853)" /><path
       d="m 586.78412,-29.627042 c 0.56126,-1.673382 0.86629,-3.724694 1.06729,-5.827392 0.28362,-2.967126 0.37085,-6.021079 0.41449,-8.944571 0.0344,-2.300711 0.0389,-4.509743 -0.11896,-6.063439 -1.37147,0.675304 -2.75907,1.357508 -4.02937,1.991155 -0.0977,0.390051 -0.19014,0.783945 -0.25863,1.170448 -0.30544,1.72355 -0.21827,3.294534 -0.56734,5.148991 -0.34908,1.854458 -1.13441,3.992196 -1.24349,5.912098 -0.0538,0.9458 0.0571,1.838509 0.18033,2.733178 0.50206,0.331967 0.99627,0.641732 1.46371,0.923482 1.12618,0.678792 2.1134,1.23443 2.60707,1.89779 0.23471,0.315382 0.35727,0.659265 0.4849,1.05826 z"
       style="fill:#00043d;fill-rule:evenodd;stroke:#00043d;stroke-width:0.728516;stroke-linecap:round;stroke-linejoin:round;paint-order:stroke fill markers"
       id="path83" /><path
       d="m 593.84445,-17.432399 c 0.36822,-0.497989 0.66477,-2.260252 0.70475,-4.53911 0.0436,-2.487155 -0.21821,-5.584825 -0.50184,-9.511911 -0.28361,-3.927086 -0.58909,-8.683411 -0.48,-12.414125 0.10909,-3.730713 0.63277,-6.43571 0.98184,-8.159253 0.14783,-0.729916 0.25421,-1.254981 0.32452,-1.682447 -0.65142,0.313868 -1.34938,0.658478 -2.02241,0.985224 -0.017,0.09077 -0.0295,0.141312 -0.0475,0.239059 -0.39271,2.138055 -1.00357,5.977902 -1.33082,9.490453 -0.32726,3.51255 -0.37111,6.697473 -0.26202,9.468241 0.10909,2.770766 0.371,5.12715 0.58918,7.37431 0.21816,2.24716 0.39255,4.385068 0.7198,6.108616 0.0577,0.303714 0.12492,0.571771 0.19087,0.843294 0.37858,0.626195 0.75821,1.234427 1.13356,1.797649 z"
       style="fill:#00043d;fill-rule:evenodd;stroke:#00043d;stroke-width:0.728516;stroke-linecap:round;stroke-linejoin:round;paint-order:stroke fill markers"
       id="path89" /><circle
       style="fill:#f6ff00;fill-opacity:1;fill-rule:evenodd;stroke:#f6ff00;stroke-width:0.728516;stroke-linecap:round;stroke-linejoin:round;stroke-opacity:1;paint-order:stroke fill markers"
       id="path92"
       cx="579.08276"
       cy="-42.554428"
       r="2.1289093" /><circle
       style="fill:#00043d;fill-opacity:1;fill-rule:evenodd;stroke:#f6ff00;stroke-width:0.728516;stroke-linecap:round;stroke-linejoin:round;stroke-opacity:1;paint-order:stroke fill markers"
       id="path93"
       cx="579.19855"
       cy="-42.438721"
       r="1.5041209" /></g></svg>
