<?xml version="1.0" encoding="UTF-8" standalone="no"?>
<!-- Created with Inkscape (http://www.inkscape.org/) -->

<svg
   width="35.304111"
   height="39.535011"
   viewBox="0 0 9.3408793 10.460305"
   version="1.1"
   id="svg1"
   xmlns="http://www.w3.org/2000/svg"
   xmlns:svg="http://www.w3.org/2000/svg">
  <defs
     id="defs1" />
  <g
     id="layer1"
     transform="translate(-100.94411,64.471081)">
    <path
       style="font-size:9.87777px;font-family:'Poor Richard';-inkscape-font-specification:'Poor Richard';text-align:center;text-anchor:middle;fill:#ffffff;fill-rule:evenodd;stroke:#000000;stroke-width:1;stroke-linecap:round;stroke-linejoin:round;stroke-dasharray:none;stroke-dashoffset:0;stroke-opacity:1;paint-order:stroke fill markers"
       d="m 105.52729,-60.302183 q -0.11648,0.161769 -0.11648,0.232946 0,0.05177 0.0517,0.122944 l 3.32598,4.477777 q 0.1553,0.168238 0.34295,0.245889 0.19413,0.07766 0.31707,0.07766 0.12941,0 0.23295,0.07118 0.10353,0.07117 0.10353,0.181181 0,0.174712 -0.16177,0.271774 -0.15529,0.09707 -0.39471,0.09707 -0.50472,0 -1.10651,-0.388248 -0.59531,-0.394717 -1.08061,-1.041794 l -2.31007,-3.047735 q -0.0712,-0.09059 -0.10354,-0.09059 -0.0324,0 -0.0906,0.07766 l -0.8412,1.07415 q -0.0518,0.07118 -0.0518,0.174711 v 2.128883 q 0,0.174712 0.0906,0.304128 0.0971,0.129412 0.40119,0.187652 0.30413,0.05825 0.36236,0.129411 0.0647,0.07117 0.0647,0.17471 0,0.11647 -0.16177,0.213538 -0.16177,0.09059 -0.47884,0.09059 -0.14883,0 -0.4206,-0.0647 -0.27177,-0.0647 -0.47884,-0.0647 -0.28471,0 -0.63414,0.07766 -0.34295,0.07766 -0.50472,0.07766 -0.15529,0 -0.29765,-0.09707 -0.14236,-0.09059 -0.14236,-0.245889 0,-0.110002 0.0647,-0.181183 0.0647,-0.07766 0.4206,-0.103525 0.35589,-0.03236 0.4659,-0.232948 0.11,-0.207064 0.11,-0.472365 v -6.774903 q 0,-0.252359 -0.11,-0.446483 -0.10354,-0.194124 -0.45296,-0.232948 -0.34295,-0.03882 -0.40766,-0.110003 -0.0647,-0.07766 -0.0647,-0.187653 0,-0.110002 0.14236,-0.226475 0.14236,-0.122944 0.38825,-0.122944 0.24589,0 0.60178,0.07766 0.36236,0.07117 0.60825,0.07117 0.1553,0 0.39472,-0.07766 0.24589,-0.08411 0.55649,-0.08411 0.25236,0 0.40765,0.09707 0.16177,0.09059 0.16177,0.220006 0,0.09707 -0.0777,0.174711 -0.0777,0.07117 -0.36237,0.148828 -0.28471,0.07117 -0.40119,0.129413 -0.11,0.05176 -0.18118,0.207064 -0.0647,0.155299 -0.0647,0.465895 v 3.500689 l 0.0194,0.129413 0.0906,-0.09059 2.87302,-3.772462 q 0.21354,-0.265301 0.21354,-0.388246 0,-0.07766 -0.0712,-0.122944 -0.0647,-0.05176 -0.34296,-0.07766 -0.27824,-0.02589 -0.36236,-0.09707 -0.0841,-0.07766 -0.0841,-0.194124 0,-0.148827 0.13589,-0.239419 0.14235,-0.09059 0.33648,-0.09059 0.17471,0 0.44648,0.05176 0.27824,0.04529 0.36236,0.04529 0.11648,0 0.4206,-0.05176 0.3106,-0.05825 0.47237,-0.05825 0.17471,0 0.28472,0.09707 0.11,0.09707 0.11,0.24589 0,0.08411 -0.0583,0.142356 -0.0517,0.05825 -0.4206,0.16824 -0.36883,0.110003 -0.56943,0.381776 z"
       id="path17" />
  </g>
</svg>
