<?xml version="1.0" encoding="UTF-8" standalone="no"?>
<!-- Created with Inkscape (http://www.inkscape.org/) -->

<svg
   width="24.562544"
   height="41.388622"
   viewBox="0 0 6.4988396 10.95074"
   version="1.1"
   id="svg1"
   xmlns="http://www.w3.org/2000/svg"
   xmlns:svg="http://www.w3.org/2000/svg">
  <defs
     id="defs1" />
  <g
     id="layer1"
     transform="translate(-111.31429,64.616045)">
    <path
       style="font-size:9.87777px;font-family:'Poor Richard';-inkscape-font-specification:'Poor Richard';text-align:center;text-anchor:middle;fill:#40446e;fill-rule:evenodd;stroke:#00043d;stroke-width:1.34161;stroke-linecap:round;stroke-linejoin:round;paint-order:stroke fill markers"
       d="m 114.86461,-62.761078 q -0.0129,-0.23942 -0.14235,-0.394718 -0.12295,-0.155299 -0.48531,-0.187653 -0.36237,-0.03882 -0.47237,-0.09707 -0.11,-0.0647 -0.11,-0.278244 0,-0.226477 0.35589,-0.226477 0.0777,0 0.51766,0.07766 0.44002,0.07117 0.84767,0.07117 0.22648,0 0.63414,-0.0647 0.41413,-0.07117 0.70531,-0.07117 0.42707,0 0.42707,0.291184 0,0.103536 -0.0712,0.168241 -0.0712,0.05825 -0.36237,0.07766 -0.35589,0.01941 -0.49825,0.110003 -0.25883,0.155298 -0.24589,0.588838 l 0.14236,6.347832 q 0,0.75708 -0.67943,1.384746 -0.67943,0.627666 -1.46887,0.627666 -0.97709,0 -1.47533,-0.414132 -0.49825,-0.420599 -0.49825,-0.789434 0,-0.50472 0.40118,-0.50472 0.23942,0 0.38825,0.174712 0.1553,0.174709 0.1553,0.304126 0,0.187653 0.2653,0.407658 0.2653,0.213536 0.58237,0.213536 0.40766,0 0.80238,-0.355894 0.39471,-0.362362 0.38824,-0.970616 z"
       id="path18" />
  </g>
</svg>
