<?xml version="1.0" encoding="UTF-8" standalone="no"?>
<!-- Created with Inkscape (http://www.inkscape.org/) -->

<svg
   width="147.35693"
   height="123.41315"
   viewBox="0 0 38.988188 32.653062"
   version="1.1"
   id="svg1"
   inkscape:version="1.3.2 (091e20e, 2023-11-25, custom)"
   sodipodi:docname="Card.svg"
   xml:space="preserve"
   inkscape:export-filename="Card.svg"
   inkscape:export-xdpi="96"
   inkscape:export-ydpi="96"
   xmlns:inkscape="http://www.inkscape.org/namespaces/inkscape"
   xmlns:sodipodi="http://sodipodi.sourceforge.net/DTD/sodipodi-0.dtd"
   xmlns="http://www.w3.org/2000/svg"
   xmlns:svg="http://www.w3.org/2000/svg"><sodipodi:namedview
     id="namedview1"
     pagecolor="#ffffff"
     bordercolor="#000000"
     borderopacity="0.25"
     inkscape:showpageshadow="2"
     inkscape:pageopacity="0.0"
     inkscape:pagecheckerboard="0"
     inkscape:deskcolor="#d1d1d1"
     inkscape:document-units="mm"
     showgrid="true"
     inkscape:zoom="1.0412186"
     inkscape:cx="3079.0846"
     inkscape:cy="-336.62481"
     inkscape:window-width="1920"
     inkscape:window-height="1010"
     inkscape:window-x="1699"
     inkscape:window-y="-6"
     inkscape:window-maximized="1"
     inkscape:current-layer="layer1"><inkscape:grid
       id="grid1"
       units="mm"
       originx="-919.34937"
       originy="99.80478"
       spacingx="63.999999"
       spacingy="63.999999"
       empcolor="#0099e5"
       empopacity="0.30196078"
       color="#0099e5"
       opacity="0.14901961"
       empspacing="5"
       dotted="false"
       gridanglex="30"
       gridanglez="30"
       visible="true" /></sodipodi:namedview><defs
     id="defs1"><inkscape:path-effect
       effect="bspline"
       id="path-effect89"
       is_visible="true"
       lpeversion="1.3"
       weight="33.333333"
       steps="2"
       helper_size="0"
       apply_no_weight="true"
       apply_with_weight="true"
       only_selected="false"
       uniform="false" /><inkscape:path-effect
       effect="bspline"
       id="path-effect88"
       is_visible="true"
       lpeversion="1.3"
       weight="33.333333"
       steps="2"
       helper_size="0"
       apply_no_weight="true"
       apply_with_weight="true"
       only_selected="false"
       uniform="false" /><inkscape:path-effect
       effect="bspline"
       id="path-effect85"
       is_visible="true"
       lpeversion="1.3"
       weight="33.333333"
       steps="2"
       helper_size="0"
       apply_no_weight="true"
       apply_with_weight="true"
       only_selected="false"
       uniform="false" /><inkscape:path-effect
       effect="bspline"
       id="path-effect82"
       is_visible="true"
       lpeversion="1.3"
       weight="33.333333"
       steps="2"
       helper_size="0"
       apply_no_weight="true"
       apply_with_weight="true"
       only_selected="false"
       uniform="false" /><inkscape:path-effect
       effect="bspline"
       id="path-effect81"
       is_visible="true"
       lpeversion="1.3"
       weight="33.333333"
       steps="2"
       helper_size="0"
       apply_no_weight="true"
       apply_with_weight="true"
       only_selected="false"
       uniform="false" /><inkscape:path-effect
       effect="bspline"
       id="path-effect66"
       is_visible="true"
       lpeversion="1.3"
       weight="33.333333"
       steps="2"
       helper_size="0"
       apply_no_weight="true"
       apply_with_weight="true"
       only_selected="false"
       uniform="false" /><inkscape:path-effect
       effect="bspline"
       id="path-effect58"
       is_visible="true"
       lpeversion="1.3"
       weight="33.333333"
       steps="2"
       helper_size="0"
       apply_no_weight="true"
       apply_with_weight="true"
       only_selected="false"
       uniform="false" /><inkscape:path-effect
       effect="bspline"
       id="path-effect51"
       is_visible="true"
       lpeversion="1.3"
       weight="33.333333"
       steps="2"
       helper_size="0"
       apply_no_weight="true"
       apply_with_weight="true"
       only_selected="false"
       uniform="false" /><inkscape:path-effect
       effect="bspline"
       id="path-effect39"
       is_visible="true"
       lpeversion="1.3"
       weight="33.333333"
       steps="2"
       helper_size="0"
       apply_no_weight="true"
       apply_with_weight="true"
       only_selected="false"
       uniform="false" /><inkscape:path-effect
       effect="bspline"
       id="path-effect38"
       is_visible="true"
       lpeversion="1.3"
       weight="33.333333"
       steps="2"
       helper_size="0"
       apply_no_weight="true"
       apply_with_weight="true"
       only_selected="false"
       uniform="false" /></defs><g
     inkscape:label="Layer 1"
     inkscape:groupmode="layer"
     id="layer1"
     transform="translate(-919.34939,99.804779)"><path
       style="fill:#ffd149;fill-opacity:1;fill-rule:evenodd;stroke:none;stroke-width:1;stroke-linecap:round;stroke-linejoin:round;stroke-opacity:1;paint-order:stroke fill markers"
       d="m 926.35271,-56.060913 c -0.29947,-0.389311 -0.6888,-0.598946 -1.06313,-0.763652 -0.37434,-0.164707 -0.73369,-0.28449 -0.79359,0.19467 -0.0599,0.47916 0.17967,1.557235 0.29946,2.455654 0.11979,0.898419 0.11979,1.617133 0.26953,2.036395 0.14975,0.419262 0.4492,0.539043 0.80857,0.389307 0.35937,-0.149736 0.77863,-0.568991 0.98826,-1.078097 0.20963,-0.509106 0.20963,-1.108036 0.10481,-1.692009 -0.10481,-0.583973 -0.31444,-1.152958 -0.61391,-1.542268 z"
       id="path39"
       inkscape:path-effect="#path-effect39"
       inkscape:original-d="m 926.44255,-56.240597 c -0.38931,-0.20963 -0.77864,-0.419259 -1.16795,-0.628888 -0.35936,-0.11979 -0.71871,-0.239578 -1.0781,-0.359365 0.23958,1.078116 0.47916,2.15619 0.71874,3.234285 0,0.718743 0,1.437457 0,2.156187 0.29949,0.11979 0.59894,0.239578 0.89842,0.359365 0.41926,-0.419266 0.83852,-0.838517 1.25778,-1.257776 0,-0.598953 0,-1.197883 0,-1.796825 -0.20963,-0.569005 -0.41926,-1.137989 -0.62889,-1.706983 z"
       transform="translate(-1.0164373,-27.347846)" /><path
       style="fill:#ffffff;fill-opacity:1;fill-rule:evenodd;stroke:#ffffff;stroke-width:1;stroke-linecap:round;stroke-linejoin:round;stroke-opacity:1;paint-order:stroke fill markers"
       d="m 924.88529,-57.198904 c -0.0299,-0.0599 -0.0898,-0.179678 -0.47915,-0.613918 -0.38931,-0.434239 -1.10803,-1.182902 -1.58719,-1.66206 -0.47916,-0.479158 -0.71873,-0.68879 -1.0182,-0.299461 -0.29947,0.389329 -0.65882,1.37756 -0.82354,2.470639 -0.16472,1.093078 -0.13478,2.290938 0.0149,3.473859 0.14973,1.182922 0.41925,2.350837 0.86846,3.294179 0.44922,0.943342 1.07809,1.662048 1.66207,1.796807 0.58397,0.134758 1.12301,-0.314433 1.46741,-0.853489 0.3444,-0.539056 0.49413,-1.16793 0.43423,-1.781853 -0.0599,-0.613924 -0.32943,-1.212853 -0.41927,-1.976516 -0.0898,-0.763662 0,-1.692 0.015,-2.350839 0.015,-0.658838 -0.0449,-1.048139 -0.0749,-1.242796 -0.0299,-0.194656 -0.0299,-0.194656 -0.0599,-0.254552 z"
       id="path49"
       inkscape:path-effect="#path-effect51"
       inkscape:original-d="m 924.91524,-57.139008 c -0.0599,-0.119788 -0.11977,-0.239578 -0.17967,-0.359366 -0.71874,-0.748691 -1.43746,-1.497353 -2.1562,-2.246029 -0.23958,-0.209635 -0.47916,-0.419259 -0.71871,-0.628888 -0.35939,0.988272 -0.71874,1.976506 -1.0781,2.964759 0.0299,1.197907 0.0599,2.395765 0.0898,3.593648 0.26954,1.167958 0.53907,2.335871 0.80857,3.503808 0.62892,0.718743 1.25778,1.437458 1.88667,2.156188 0.53906,-0.449215 1.07809,-0.898412 1.61716,-1.347619 0.14972,-0.628901 0.29945,-1.257776 0.44921,-1.886664 -0.26954,-0.598953 -0.53907,-1.197882 -0.8086,-1.796825 0.0899,-0.928378 0.17971,-1.856719 0.26953,-2.785078 -0.0599,-0.389319 -0.11977,-0.778624 -0.17968,-1.167934 z"
       transform="translate(-1.0164373,-27.347846)" /><path
       style="fill:#ffffff;fill-opacity:1;fill-rule:evenodd;stroke:#ffffff;stroke-width:1;stroke-linecap:round;stroke-linejoin:round;stroke-opacity:1;paint-order:stroke fill markers"
       d="m 931.279,-96.489459 c -0.015,0.449206 -0.0449,1.347618 -0.25459,1.901639 -0.20964,0.554022 -0.59895,0.76365 -0.94334,1.033177 -0.3444,0.269527 -0.64386,0.598935 -0.91339,0.82354 -0.26953,0.224605 -0.50911,0.344393 -0.74869,-0.04493 -0.23958,-0.389321 -0.47914,-1.287711 -0.43422,-1.961521 0.0449,-0.673811 0.37434,-1.123024 0.65884,-1.482387 0.28449,-0.359363 0.52407,-0.628885 0.88344,-0.763645 0.35937,-0.134761 0.83851,-0.134761 1.15295,-0.104816 0.31445,0.02995 0.46417,0.08983 0.53905,0.119785 0.0749,0.02995 0.0749,0.02995 0.0599,0.479157 z"
       id="path65"
       inkscape:path-effect="#path-effect66"
       inkscape:original-d="m 931.29398,-96.938665 c -0.0299,0.898414 -0.0599,1.796825 -0.0899,2.695236 -0.38931,0.209635 -0.77862,0.419259 -1.16793,0.628889 -0.29948,0.329424 -0.59894,0.658836 -0.89842,0.988253 -0.23958,0.119792 -0.47916,0.239577 -0.71874,0.359365 -0.23958,-0.89843 -0.47913,-1.796823 -0.71871,-2.695237 0.3294,-0.449214 0.65884,-0.898411 0.98824,-1.347618 0.23958,-0.269528 0.47916,-0.539049 0.71874,-0.808569 0.47916,0.05989 0.9583,0.02994 1.43746,0 0.14973,0.05989 0.29945,0.119787 0.44921,0.179681 z"
       transform="translate(-1.0164373,3.5575304)" /><path
       style="fill:#ffe085;fill-opacity:1;fill-rule:evenodd;stroke:#ffe085;stroke-width:1;stroke-linecap:round;stroke-linejoin:round;stroke-opacity:1;paint-order:stroke fill markers"
       d="m 935.90582,-67.425832 c -0.14972,0.164708 -0.53906,0.374347 -1.22785,0.823557 -0.68879,0.449211 -1.67701,1.137974 -2.7102,2.021425 -1.03318,0.883452 -2.11125,1.961526 -2.9348,3.054608 -0.82355,1.093083 -1.39254,2.2011 -1.67703,3.758367 -0.2845,1.557266 -0.2845,3.563678 -0.3444,5.510257 -0.0599,1.946579 -0.17969,3.833207 0.53906,5.114197 0.71874,1.280991 2.27591,1.956261 3.8931,2.743142 1.61719,0.786881 3.29411,1.685232 4.86639,2.2243 1.57228,0.539068 3.0396,0.71874 5.13595,0.419261 2.09635,-0.299478 4.82143,-1.078071 6.783,-1.931575 1.96156,-0.853504 3.15941,-1.781836 4.16265,-2.718444 1.00324,-0.936607 1.81179,-1.881417 2.51556,-3.252262 0.70376,-1.370844 1.30269,-3.167625 1.31766,-5.443635 0.015,-2.27601 -0.55401,-5.031083 -1.46741,-6.782993 -0.9134,-1.75191 -2.17115,-2.500571 -3.98298,-3.503813 -1.81183,-1.003241 -4.1776,-2.260991 -6.22899,-2.949775 -2.0514,-0.688783 -3.78828,-0.808568 -5.18083,-0.628881 -1.39256,0.179688 -2.44068,0.658829 -2.91982,0.958315 -0.47915,0.299486 -0.38933,0.419241 -0.53906,0.583949 z"
       id="path38"
       inkscape:path-effect="#path-effect38"
       inkscape:original-d="m 936.1454,-67.470747 c -0.3893,0.20963 -0.77864,0.419259 -1.16795,0.628888 -0.98827,0.688795 -1.97649,1.377564 -2.96476,2.066349 -1.0781,1.078116 -2.15617,2.156187 -3.23426,3.234282 -0.56902,1.108064 -1.138,2.216084 -1.70699,3.324124 0,2.006495 0,4.012907 0,6.019361 -0.1198,1.886704 -0.23958,3.773332 -0.35938,5.659996 1.55728,0.675317 3.11445,1.350586 4.67174,2.025909 1.67709,0.898439 3.35401,1.796792 5.03111,2.695237 1.46746,0.179689 2.93478,0.359361 4.40222,0.539049 2.72526,-0.778644 5.45034,-1.557236 8.17557,-2.335872 1.1979,-0.928375 2.39575,-1.856705 3.59365,-2.785078 0.80858,-0.944842 1.61713,-1.889653 2.4257,-2.834481 0.59896,-1.79686 1.19787,-3.593648 1.79684,-5.390473 -0.56902,-2.755186 -1.138,-5.51026 -1.70699,-8.26539 -1.2578,-0.748692 -2.51555,-1.497354 -3.77333,-2.246029 -2.36588,-1.257803 -4.73165,-2.515556 -7.09747,-3.773332 -1.73697,-0.11979 -3.47385,-0.239577 -5.21079,-0.359365 -1.04817,0.479163 -2.09629,0.958305 -3.14444,1.43746 0.0899,0.11979 0.17968,0.239575 0.26953,0.359365 z"
       transform="translate(-1.0164373,-27.347846)"
       sodipodi:nodetypes="cccccccccccccccccccc" /><path
       style="fill:#ffffff;fill-opacity:1;fill-rule:evenodd;stroke:#ffffff;stroke-width:1;stroke-linecap:round;stroke-linejoin:round;stroke-opacity:1;paint-order:stroke fill markers"
       d="m 952.51148,-64.416141 c 0.015,-0.08984 0.0449,-0.269525 0.14978,-0.703767 0.10482,-0.434242 0.28449,-1.123013 0.56899,-1.886669 0.2845,-0.763657 0.6738,-1.602159 1.39254,-1.766864 0.71874,-0.164706 1.76689,0.344392 2.57546,1.287734 0.80857,0.943343 1.37754,2.320886 1.5722,3.503802 0.19465,1.182917 0.015,2.171153 -0.17968,3.17439 -0.19465,1.003236 -0.40428,2.021417 -0.67381,2.695232 -0.26953,0.673814 -0.59894,1.003224 -1.12301,1.093063 -0.52408,0.08984 -1.24282,-0.0599 -1.82678,-0.823559 -0.58397,-0.763661 -1.03317,-2.141201 -1.42248,-3.324119 -0.38932,-1.182917 -0.71873,-2.171159 -0.88343,-2.665283 -0.16471,-0.494125 -0.16476,-0.494125 -0.14978,-0.58396 z"
       id="path57"
       inkscape:path-effect="#path-effect58"
       inkscape:original-d="m 952.4965,-64.326306 c 0.0299,-0.179681 0.0599,-0.359365 0.0899,-0.539046 0.17968,-0.688798 0.35936,-1.377567 0.53903,-2.066349 0.38931,-0.838536 0.77862,-1.677035 1.16793,-2.515555 1.04817,0.509112 2.09632,1.018202 3.14446,1.527302 0.56899,1.377593 1.13798,2.75513 1.70696,4.132697 -0.17967,0.988271 -0.35935,1.976506 -0.53903,2.964759 -0.20963,1.01822 -0.41926,2.0364 -0.62889,3.054601 -0.32943,0.329425 -0.65884,0.658834 -0.98825,0.988254 -0.71874,-0.149739 -1.43748,-0.299472 -2.15619,-0.449207 -0.44921,-1.377593 -0.89842,-2.75513 -1.34763,-4.132697 -0.32941,-0.988271 -0.65884,-1.976506 -0.98824,-2.964759 z"
       transform="translate(-1.0164373,-27.347846)" /><path
       style="fill:#ffffff;fill-opacity:1;fill-rule:evenodd;stroke:#00043d;stroke-width:1;stroke-linecap:round;stroke-linejoin:round;stroke-opacity:1;paint-order:stroke fill markers"
       d="m 936.55163,-94.59219 c -0.56117,-0.02118 -0.83644,0.02117 -1.29173,0.412926 -0.45529,0.391754 -1.09055,1.132895 -1.46113,1.926998 -0.37058,0.794104 -0.47645,1.641117 -0.17998,2.297574 0.29647,0.656456 0.99526,1.122316 1.86347,1.365836 0.86822,0.243519 1.90581,0.264695 2.69991,-0.296472 0.7941,-0.561167 1.34466,-1.70464 1.40818,-2.721083 0.0635,-1.016443 -0.35998,-1.905813 -0.99526,-2.392857 -0.63528,-0.487045 -1.48229,-0.571746 -2.04346,-0.592922 z"
       id="path78"
       inkscape:path-effect="#path-effect81"
       inkscape:original-d="m 936.26576,-94.655718 c -0.2753,0.04235 -0.55057,0.0847 -0.82587,0.127053 -0.63526,0.741169 -1.27053,1.482304 -1.90582,2.223457 -0.10586,0.847048 -0.21174,1.694061 -0.31763,2.541093 0.69882,0.465876 1.39761,0.931736 2.0964,1.397601 1.03764,0.02117 2.07523,0.04235 3.11285,0.06353 0.55057,-1.143516 1.10114,-2.286984 1.65171,-3.430476 -0.42351,-0.8894 -0.84703,-1.778765 -1.27055,-2.668149 -0.84704,-0.0847 -1.69405,-0.169404 -2.54109,-0.254109 z"
       transform="matrix(0.84052346,0,0,0.84052346,147.82974,-11.0996)" /><path
       style="fill:#00043d;fill-opacity:1;fill-rule:evenodd;stroke:#00043d;stroke-width:1;stroke-linecap:round;stroke-linejoin:round;stroke-opacity:1;paint-order:stroke fill markers"
       d="m 936.05401,-94.115735 c -0.14824,0.01059 -0.25412,0.05294 -0.43411,0.232942 -0.18,0.179999 -0.43411,0.497623 -0.66704,0.804669 -0.23293,0.307046 -0.44469,0.603516 -0.59292,0.963505 -0.14822,0.35999 -0.23293,0.783499 -0.22234,1.185843 0.0106,0.402344 0.11646,0.783496 0.32822,1.101136 0.21176,0.317639 0.52939,0.571746 1.01644,0.719976 0.48706,0.148231 1.1435,0.190582 1.65172,0.137637 0.50823,-0.05295 0.86819,-0.201166 1.16465,-0.624689 0.29646,-0.423523 0.52939,-1.122315 0.62468,-1.651707 0.0953,-0.529392 0.0529,-0.889377 -0.16941,-1.25996 -0.22235,-0.370583 -0.62467,-0.751742 -1.01643,-1.016439 -0.39176,-0.264698 -0.77292,-0.412926 -1.05878,-0.497626 -0.28587,-0.0847 -0.47645,-0.105877 -0.62468,-0.09529 z"
       id="path81"
       inkscape:path-effect="#path-effect82"
       inkscape:original-d="m 936.01166,-94.147501 c -0.10589,0.04235 -0.21177,0.0847 -0.31763,0.127055 -0.25414,0.317643 -0.50824,0.635273 -0.76235,0.95291 -0.21174,0.296466 -0.42352,0.592921 -0.63526,0.889384 -0.0847,0.423524 -0.16942,0.847029 -0.25411,1.270545 0.10589,0.381172 0.21175,0.762328 0.31763,1.143492 0.31764,0.254114 0.63527,0.50822 0.9529,0.762328 0.65648,0.04235 1.31292,0.0847 1.96935,0.127056 0.36002,-0.148233 0.71998,-0.296461 1.07997,-0.444693 0.23294,-0.698813 0.46588,-1.397601 0.69879,-2.0964 -0.0423,-0.359997 -0.0847,-0.719976 -0.12705,-1.079966 -0.40235,-0.381171 -0.80468,-0.762328 -1.207,-1.143492 -0.38119,-0.148232 -0.76235,-0.29646 -1.1435,-0.44469 -0.19058,-0.02117 -0.38116,-0.04235 -0.57174,-0.06353 z"
       transform="matrix(0.78555895,0,0,0.78555895,199.36021,-16.193452)" /><path
       style="fill:#ffffff;fill-opacity:1;fill-rule:evenodd;stroke:#00043d;stroke-width:1;stroke-linecap:round;stroke-linejoin:round;stroke-opacity:1;paint-order:stroke fill markers"
       d="m 936.55163,-94.59219 c -0.56117,-0.02118 -0.83644,0.02117 -1.29173,0.412926 -0.45529,0.391754 -1.09055,1.132895 -1.46113,1.926998 -0.37058,0.794104 -0.47645,1.641117 -0.17998,2.297574 0.29647,0.656456 0.99526,1.122316 1.86347,1.365836 0.86822,0.243519 1.90581,0.264695 2.69991,-0.296472 0.7941,-0.561167 1.34466,-1.70464 1.40818,-2.721083 0.0635,-1.016443 -0.35998,-1.905813 -0.99526,-2.392857 -0.63528,-0.487045 -1.48229,-0.571746 -2.04346,-0.592922 z"
       id="path82"
       inkscape:path-effect="#path-effect85"
       inkscape:original-d="m 936.26576,-94.655718 c -0.2753,0.04235 -0.55057,0.0847 -0.82587,0.127053 -0.63526,0.741169 -1.27053,1.482304 -1.90582,2.223457 -0.10586,0.847048 -0.21174,1.694061 -0.31763,2.541093 0.69882,0.465876 1.39761,0.931736 2.0964,1.397601 1.03764,0.02117 2.07523,0.04235 3.11285,0.06353 0.55057,-1.143516 1.10114,-2.286984 1.65171,-3.430476 -0.42351,-0.8894 -0.84703,-1.778765 -1.27055,-2.668149 -0.84704,-0.0847 -1.69405,-0.169404 -2.54109,-0.254109 z"
       transform="matrix(0.84052346,0,0,0.84052346,158.24822,-11.607819)" /><path
       style="fill:#00043d;fill-opacity:1;fill-rule:evenodd;stroke:#00043d;stroke-width:1;stroke-linecap:round;stroke-linejoin:round;stroke-opacity:1;paint-order:stroke fill markers"
       d="m 936.05401,-94.115735 c -0.14824,0.01059 -0.25412,0.05294 -0.43411,0.232942 -0.18,0.179999 -0.43411,0.497623 -0.66704,0.804669 -0.23293,0.307046 -0.44469,0.603516 -0.59292,0.963505 -0.14822,0.35999 -0.23293,0.783499 -0.22234,1.185843 0.0106,0.402344 0.11646,0.783496 0.32822,1.101136 0.21176,0.317639 0.52939,0.571746 1.01644,0.719976 0.48706,0.148231 1.1435,0.190582 1.65172,0.137637 0.50823,-0.05295 0.86819,-0.201166 1.16465,-0.624689 0.29646,-0.423523 0.52939,-1.122315 0.62468,-1.651707 0.0953,-0.529392 0.0529,-0.889377 -0.16941,-1.25996 -0.22235,-0.370583 -0.62467,-0.751742 -1.01643,-1.016439 -0.39176,-0.264698 -0.77292,-0.412926 -1.05878,-0.497626 -0.28587,-0.0847 -0.47645,-0.105877 -0.62468,-0.09529 z"
       id="path84"
       inkscape:path-effect="#path-effect88"
       inkscape:original-d="m 936.01166,-94.147501 c -0.10589,0.04235 -0.21177,0.0847 -0.31763,0.127055 -0.25414,0.317643 -0.50824,0.635273 -0.76235,0.95291 -0.21174,0.296466 -0.42352,0.592921 -0.63526,0.889384 -0.0847,0.423524 -0.16942,0.847029 -0.25411,1.270545 0.10589,0.381172 0.21175,0.762328 0.31763,1.143492 0.31764,0.254114 0.63527,0.50822 0.9529,0.762328 0.65648,0.04235 1.31292,0.0847 1.96935,0.127056 0.36002,-0.148233 0.71998,-0.296461 1.07997,-0.444693 0.23294,-0.698813 0.46588,-1.397601 0.69879,-2.0964 -0.0423,-0.359997 -0.0847,-0.719976 -0.12705,-1.079966 -0.40235,-0.381171 -0.80468,-0.762328 -1.207,-1.143492 -0.38119,-0.148232 -0.76235,-0.29646 -1.1435,-0.44469 -0.19058,-0.02117 -0.38116,-0.04235 -0.57174,-0.06353 z"
       transform="matrix(0.78555895,0,0,0.78555895,209.77869,-16.701671)" /><path
       style="fill:#00043d;fill-opacity:1;fill-rule:evenodd;stroke:#00043d;stroke-width:1;stroke-linecap:round;stroke-linejoin:round;stroke-opacity:1;paint-order:stroke fill markers"
       d="m 939.60428,-138.81964 c 0.015,-0.16471 0.1647,-0.16471 0.82355,-0.2845 0.65885,-0.11979 1.82678,-0.35937 2.68027,-0.58397 0.85349,-0.22461 1.39253,-0.43423 2.06634,-0.65884 0.67382,-0.2246 1.48238,-0.46417 2.02143,-0.43422 0.53905,0.03 0.80856,0.32941 0.94333,0.82354 0.13476,0.49414 0.13476,1.18291 -0.16472,1.76689 -0.29948,0.58397 -0.8984,1.06311 -1.692,1.37756 -0.79361,0.31444 -1.78185,0.46417 -2.71022,0.41925 -0.92837,-0.0449 -1.79681,-0.28449 -2.41074,-0.58397 -0.61393,-0.29948 -0.97328,-0.65884 -1.21285,-1.00323 -0.23958,-0.34439 -0.35936,-0.6738 -0.34439,-0.83851 z"
       id="path88"
       inkscape:path-effect="#path-effect89"
       inkscape:original-d="m 939.46952,-138.98435 c 0.14973,0 0.29946,0 0.44921,0 1.16795,-0.23958 2.33588,-0.47915 3.5038,-0.71873 0.53906,-0.20963 1.0781,-0.41926 1.61713,-0.62889 0.8086,-0.23958 1.61716,-0.47915 2.42573,-0.71873 0.26953,0.29948 0.53904,0.59894 0.80857,0.89842 0,0.68879 0,1.37756 0,2.06634 -0.59897,0.47916 -1.19788,0.95831 -1.79681,1.43746 -0.98828,0.14974 -1.97652,0.29947 -2.96477,0.44921 -0.86849,-0.23958 -1.73693,-0.47915 -2.6054,-0.71873 -0.35939,-0.35938 -0.71874,-0.71873 -1.0781,-1.0781 -0.11978,-0.32942 -0.23958,-0.65883 -0.35936,-0.98825 z"
       transform="translate(-3.9811972,58.270826)" /><path
       style="fill:#ffe085;fill-opacity:1;fill-rule:evenodd;stroke:none;stroke-width:1;stroke-linecap:round;stroke-linejoin:round;stroke-opacity:1;paint-order:stroke fill markers"
       d="m 925.87531,-75.412893 -0.44921,5.210792 2.51558,-3.593651"
       id="path90" /><path
       style="fill:#ffe085;fill-opacity:1;fill-rule:evenodd;stroke:none;stroke-width:1;stroke-linecap:round;stroke-linejoin:round;stroke-opacity:1;paint-order:stroke fill markers"
       d="m 928.66038,-73.975432 c -0.26951,0.718727 -0.31443,3.144441 -0.31443,3.144441 l 1.12302,-1.482379"
       id="path91" /><path
       style="fill:#ffe085;fill-opacity:1;fill-rule:evenodd;stroke:none;stroke-width:1;stroke-linecap:round;stroke-linejoin:round;stroke-opacity:1;paint-order:stroke fill markers"
       d="m 931.26578,-72.043847 c -0.2246,0.449205 -0.2246,1.796823 -0.2246,1.796823 z"
       id="path96" /><path
       style="fill:#ffe085;fill-opacity:1;fill-rule:evenodd;stroke:none;stroke-width:1;stroke-linecap:round;stroke-linejoin:round;stroke-opacity:1;paint-order:stroke fill markers"
       d="m 933.37705,-71.010673 c -0.31445,0.494126 -0.40428,2.425711 -0.40428,2.425711 l 1.0781,-1.751901"
       id="path97" /><path
       style="fill:#ffe085;fill-opacity:1;fill-rule:evenodd;stroke:none;stroke-width:1;stroke-linecap:round;stroke-linejoin:round;stroke-opacity:1;paint-order:stroke fill markers"
       d="m 935.668,-69.797817 c 0,0.404286 -0.0449,1.43746 -0.0449,1.43746 l 1.52731,-1.392539"
       id="path98" /><path
       style="fill:#ffe085;fill-opacity:1;fill-rule:evenodd;stroke:none;stroke-width:1;stroke-linecap:round;stroke-linejoin:round;stroke-opacity:1;paint-order:stroke fill markers"
       d="m 938.40816,-69.34861 c -0.0449,0.494125 -0.0449,1.751904 0.13475,2.156187 0.1797,0.404286 0.80859,-2.335871 0.80859,-2.335871"
       id="path99" /><path
       style="fill:#ffe085;fill-opacity:1;fill-rule:evenodd;stroke:none;stroke-width:1;stroke-linecap:round;stroke-linejoin:round;stroke-opacity:1;paint-order:stroke fill markers"
       d="m 932.02942,-70.965752 -0.67378,1.796823 1.75188,-1.841744"
       id="path100" /><path
       style="fill:#ffe085;fill-opacity:1;fill-rule:evenodd;stroke:none;stroke-width:1;stroke-linecap:round;stroke-linejoin:round;stroke-opacity:1;paint-order:stroke fill markers"
       d="m 940.29482,-69.483373 c -0.0449,0.449207 0.44921,1.751904 0.44921,1.751904 l 0.58396,-1.796825"
       id="path101" /><path
       style="fill:#ffe085;fill-opacity:1;fill-rule:evenodd;stroke:none;stroke-width:1;stroke-linecap:round;stroke-linejoin:round;stroke-opacity:1;paint-order:stroke fill markers"
       d="m 941.5526,-69.393531 1.16795,1.347618 -0.0449,-2.201111"
       id="path103" /><path
       style="fill:#ffe085;fill-opacity:1;fill-rule:evenodd;stroke:none;stroke-width:1;stroke-linecap:round;stroke-linejoin:round;stroke-opacity:1;paint-order:stroke fill markers"
       d="m 943.88847,-70.741149 c 0.22461,0.449207 0.94335,2.515552 0.94335,2.515552 l 0.49411,-2.380792"
       id="path104" /><path
       style="fill:#ffe085;fill-opacity:1;fill-rule:evenodd;stroke:none;stroke-width:1;stroke-linecap:round;stroke-linejoin:round;stroke-opacity:1;paint-order:stroke fill markers"
       d="m 946.53878,-70.78607 0.85349,1.482381 0.1797,-2.246032"
       id="path105" /><path
       style="fill:#ffe085;fill-opacity:1;fill-rule:evenodd;stroke:none;stroke-width:1;stroke-linecap:round;stroke-linejoin:round;stroke-opacity:1;paint-order:stroke fill markers"
       d="m 948.9645,-72.043847 c 0.0449,0.494126 0.67382,1.437458 0.67382,1.437458 l 0.17968,-1.931585"
       id="path106" /><path
       style="fill:#ffe085;fill-opacity:1;fill-rule:evenodd;stroke:none;stroke-width:1;stroke-linecap:round;stroke-linejoin:round;stroke-opacity:1;paint-order:stroke fill markers"
       d="m 950.76131,-73.391465 c 0.22461,0.314444 1.12303,1.5273 1.12303,1.5273 l -0.53904,-2.380793"
       id="path113" /><path
       style="fill:#ffe085;fill-opacity:1;fill-rule:evenodd;stroke:none;stroke-width:1;stroke-linecap:round;stroke-linejoin:round;stroke-opacity:1;paint-order:stroke fill markers"
       d="m 952.37847,-74.694162 c 0.35936,0.404283 1.34761,1.257776 1.34761,1.257776 l -0.71872,-2.021427"
       id="path114" /><path
       style="fill:#ffe085;fill-opacity:1;fill-rule:evenodd;stroke:none;stroke-width:1;stroke-linecap:round;stroke-linejoin:round;stroke-opacity:1;paint-order:stroke fill markers"
       d="m 953.68118,-76.580829 1.93156,0.853493 -1.75188,-2.29095"
       id="path115" /><path
       style="fill:#ffe085;fill-opacity:1;fill-rule:evenodd;stroke:none;stroke-width:1;stroke-linecap:round;stroke-linejoin:round;stroke-opacity:1;paint-order:stroke fill markers"
       d="m 954.39989,-79.72527 c 0.35936,0.359365 1.66206,1.392537 1.66206,1.392537 l -1.03317,-2.38079"
       id="path116" /><path
       style="fill:#ffe085;fill-opacity:1;fill-rule:evenodd;stroke:none;stroke-width:1;stroke-linecap:round;stroke-linejoin:round;stroke-opacity:1;paint-order:stroke fill markers"
       d="m 955.29831,-82.285746 c 0.13475,0.359365 1.61713,0.71873 1.61713,0.71873 l -2.24602,-1.841743"
       id="path117" /><path
       style="fill:#ffe085;fill-opacity:1;fill-rule:evenodd;stroke:none;stroke-width:1;stroke-linecap:round;stroke-linejoin:round;stroke-opacity:1;paint-order:stroke fill markers"
       d="m 925.83039,-84.756377 c -0.2246,-0.539049 -0.94334,-2.111269 -0.94334,-2.111269 l 1.66206,0.943332"
       id="path118" /><path
       style="fill:#ffe085;fill-opacity:1;fill-rule:evenodd;stroke:none;stroke-width:1;stroke-linecap:round;stroke-linejoin:round;stroke-opacity:1;paint-order:stroke fill markers"
       d="m 926.68389,-87.04733 c -0.49414,-0.494125 -1.03317,-1.751902 -0.76367,-1.751902 0.26953,0 1.21288,0.943333 1.21288,0.943333"
       id="path119" /><path
       style="fill:#ffe085;fill-opacity:1;fill-rule:evenodd;stroke:none;stroke-width:1;stroke-linecap:round;stroke-linejoin:round;stroke-opacity:1;paint-order:stroke fill markers"
       d="m 931.67007,-92.797168 c -0.0449,-0.673809 0,-2.515552 0,-2.515552 0,0 0.76364,1.57222 0.80856,1.796825"
       id="path120" /><path
       style="fill:#ffe085;fill-opacity:1;fill-rule:evenodd;stroke:none;stroke-width:1;stroke-linecap:round;stroke-linejoin:round;stroke-opacity:1;paint-order:stroke fill markers"
       d="m 933.69151,-94.144786 c 0,-0.404283 0.35936,-1.976506 0.35936,-1.976506 0,0 0.85349,1.572223 0.85349,1.751904"
       id="path121" /><path
       style="fill:#ffe085;fill-opacity:1;fill-rule:evenodd;stroke:none;stroke-width:1;stroke-linecap:round;stroke-linejoin:round;stroke-opacity:1;paint-order:stroke fill markers"
       d="m 935.35357,-95.717006 c 0.2695,-0.404286 0.80857,-2.111274 0.80857,-2.111274 l 0.76364,2.156195"
       id="path122" /><path
       style="fill:#ffe085;fill-opacity:1;fill-rule:evenodd;stroke:none;stroke-width:1;stroke-linecap:round;stroke-linejoin:round;stroke-opacity:1;paint-order:stroke fill markers"
       d="m 938.00387,-96.52558 0.53904,-1.57222 0.76367,1.796827"
       id="path123" /><path
       style="fill:#ffe085;fill-opacity:1;fill-rule:evenodd;stroke:none;stroke-width:1;stroke-linecap:round;stroke-linejoin:round;stroke-opacity:1;paint-order:stroke fill markers"
       d="m 939.98039,-96.48066 c 0.0898,-0.67381 0.71872,-3.32412 0.71872,-3.32412 v 3.997932"
       id="path124" /><path
       style="fill:#ffe085;fill-opacity:1;fill-rule:evenodd;stroke:none;stroke-width:1;stroke-linecap:round;stroke-linejoin:round;stroke-opacity:1;paint-order:stroke fill markers"
       d="m 942.45102,-95.492404 c 0.17968,-0.583967 0.71871,-2.425706 0.71871,-2.425706 v 2.246025"
       id="path125" /><path
       style="fill:#ffe085;fill-opacity:1;fill-rule:evenodd;stroke:none;stroke-width:1;stroke-linecap:round;stroke-linejoin:round;stroke-opacity:1;paint-order:stroke fill markers"
       d="m 944.56229,-95.447483 c 0,0 1.12302,-2.605397 1.12302,-1.931587 0,0.67381 0.62889,2.740159 0.62889,2.740159 z"
       id="path126" /><path
       style="fill:#ffe085;fill-opacity:1;fill-rule:evenodd;stroke:none;stroke-width:1;stroke-linecap:round;stroke-linejoin:round;stroke-opacity:1;paint-order:stroke fill markers"
       d="m 948.33561,-93.470977 0.62889,-2.829996 0.49414,3.458887 z"
       id="path127" /><ellipse
       style="fill:#fdbd00;fill-opacity:1;fill-rule:evenodd;stroke:none;stroke-width:1;stroke-linecap:round;stroke-linejoin:round;stroke-opacity:1;paint-order:stroke fill markers"
       id="path128"
       cx="929.9071"
       cy="-83.610901"
       rx="0.61780608"
       ry="0.38182515" /><ellipse
       style="fill:#fdbd00;fill-opacity:1;fill-rule:evenodd;stroke:none;stroke-width:1;stroke-linecap:round;stroke-linejoin:round;stroke-opacity:1;paint-order:stroke fill markers"
       id="ellipse128"
       cx="929.62122"
       cy="-76.940529"
       rx="0.61780608"
       ry="0.38182515" /><ellipse
       style="fill:#fdbd00;fill-opacity:1;fill-rule:evenodd;stroke:none;stroke-width:1;stroke-linecap:round;stroke-linejoin:round;stroke-opacity:1;paint-order:stroke fill markers"
       id="ellipse129"
       cx="932.41644"
       cy="-80.625114"
       rx="0.61780608"
       ry="0.38182515" /><ellipse
       style="fill:#fdbd00;fill-opacity:1;fill-rule:evenodd;stroke:none;stroke-width:1;stroke-linecap:round;stroke-linejoin:round;stroke-opacity:1;paint-order:stroke fill markers"
       id="ellipse130"
       cx="939.40442"
       cy="-84.595573"
       rx="0.61780608"
       ry="0.38182515" /><ellipse
       style="fill:#fdbd00;fill-opacity:1;fill-rule:evenodd;stroke:none;stroke-width:1;stroke-linecap:round;stroke-linejoin:round;stroke-opacity:1;paint-order:stroke fill markers"
       id="ellipse131"
       cx="940.3891"
       cy="-91.361237"
       rx="0.61780608"
       ry="0.38182515" /><ellipse
       style="fill:#fdbd00;fill-opacity:1;fill-rule:evenodd;stroke:none;stroke-width:1;stroke-linecap:round;stroke-linejoin:round;stroke-opacity:1;paint-order:stroke fill markers"
       id="ellipse132"
       cx="947.44061"
       cy="-83.801483"
       rx="0.61780608"
       ry="0.38182515" /><ellipse
       style="fill:#fdbd00;fill-opacity:1;fill-rule:evenodd;stroke:none;stroke-width:1;stroke-linecap:round;stroke-linejoin:round;stroke-opacity:1;paint-order:stroke fill markers"
       id="ellipse133"
       cx="946.45593"
       cy="-78.592239"
       rx="0.61780608"
       ry="0.38182515" /><ellipse
       style="fill:#fdbd00;fill-opacity:1;fill-rule:evenodd;stroke:none;stroke-width:1;stroke-linecap:round;stroke-linejoin:round;stroke-opacity:1;paint-order:stroke fill markers"
       id="ellipse134"
       cx="951.22046"
       cy="-82.086243"
       rx="0.61780608"
       ry="0.38182515" /><ellipse
       style="fill:#fdbd00;fill-opacity:1;fill-rule:evenodd;stroke:none;stroke-width:1;stroke-linecap:round;stroke-linejoin:round;stroke-opacity:1;paint-order:stroke fill markers"
       id="ellipse135"
       cx="951.12518"
       cy="-76.432312"
       rx="0.61780608"
       ry="0.38182515" /><ellipse
       style="fill:#fdbd00;fill-opacity:1;fill-rule:evenodd;stroke:none;stroke-width:1;stroke-linecap:round;stroke-linejoin:round;stroke-opacity:1;paint-order:stroke fill markers"
       id="ellipse136"
       cx="943.12073"
       cy="-73.414764"
       rx="0.61780608"
       ry="0.38182515" /><ellipse
       style="fill:#fdbd00;fill-opacity:1;fill-rule:evenodd;stroke:none;stroke-width:1;stroke-linecap:round;stroke-linejoin:round;stroke-opacity:1;paint-order:stroke fill markers"
       id="ellipse137"
       cx="938.19739"
       cy="-73.414764"
       rx="0.61780608"
       ry="0.38182515" /><ellipse
       style="fill:#fdbd00;fill-opacity:1;fill-rule:evenodd;stroke:none;stroke-width:1;stroke-linecap:round;stroke-linejoin:round;stroke-opacity:1;paint-order:stroke fill markers"
       id="ellipse138"
       cx="935.021"
       cy="-76.082909"
       rx="0.61780608"
       ry="0.38182515" /><ellipse
       style="fill:#fdbd00;fill-opacity:1;fill-rule:evenodd;stroke:none;stroke-width:1;stroke-linecap:round;stroke-linejoin:round;stroke-opacity:1;paint-order:stroke fill markers"
       id="ellipse139"
       cx="942.7713"
       cy="-76.082909"
       rx="0.61780608"
       ry="0.38182515" /><ellipse
       style="fill:#fdbd00;fill-opacity:1;fill-rule:evenodd;stroke:none;stroke-width:1;stroke-linecap:round;stroke-linejoin:round;stroke-opacity:1;paint-order:stroke fill markers"
       id="ellipse140"
       cx="933.11517"
       cy="-71.763054"
       rx="0.61780608"
       ry="0.38182515" /><ellipse
       style="fill:#fdbd00;fill-opacity:1;fill-rule:evenodd;stroke:none;stroke-width:1;stroke-linecap:round;stroke-linejoin:round;stroke-opacity:1;paint-order:stroke fill markers"
       id="ellipse141"
       cx="948.06952"
       cy="-92.785606"
       rx="0.61780608"
       ry="0.38182515" /><ellipse
       style="fill:#fdbd00;fill-opacity:1;fill-rule:evenodd;stroke:none;stroke-width:1;stroke-linecap:round;stroke-linejoin:round;stroke-opacity:1;paint-order:stroke fill markers"
       id="ellipse142"
       cx="936.03082"
       cy="-93.818779"
       rx="0.61780608"
       ry="0.38182515" /></g></svg>
