<?xml version="1.0" encoding="UTF-8" standalone="no"?>
<!-- Created with Inkscape (http://www.inkscape.org/) -->

<svg
   width="28.695621"
   height="41.951893"
   viewBox="0 0 7.592383 11.099772"
   version="1.1"
   id="svg1"
   xmlns="http://www.w3.org/2000/svg"
   xmlns:svg="http://www.w3.org/2000/svg">
  <defs
     id="defs1" />
  <g
     id="layer1"
     transform="translate(-69.785174,64.881609)">
    <path
       id="path10"
       style="font-size:9.87777px;font-family:'Poor Richard';-inkscape-font-specification:'Poor Richard';text-align:center;text-anchor:middle;fill:#40446e;fill-rule:evenodd;stroke:#00043d;stroke-width:1.34161;stroke-linecap:round;stroke-linejoin:round;paint-order:stroke fill markers"
       d="m 73.529368,-64.210804 c -0.660019,0 -1.227524,0.198669 -1.702047,0.595542 -0.474522,0.39256 -0.711323,0.905679 -0.711323,1.539815 0,0.349421 0.07118,0.66911 0.213535,0.958137 0.146669,0.289029 0.407429,0.597008 0.782734,0.924861 0.04746,0.04313 0.07141,0.0781 0.07141,0.103991 0,0.02157 -0.02396,0.05392 -0.07141,0.09706 -0.58237,0.465896 -1.004897,0.909762 -1.268042,1.332518 -0.258832,0.418443 -0.388246,0.848133 -0.388246,1.288147 0,0.85414 0.314449,1.554915 0.944271,2.102773 0.629821,0.543544 1.357169,0.815318 2.181115,0.815318 0.888652,0 1.630174,-0.263376 2.225486,-0.789665 0.599624,-0.530603 0.899901,-1.239772 0.899901,-2.128426 0,-0.647076 -0.142357,-1.195168 -0.427071,-1.64381 -0.2804,-0.452951 -0.759239,-0.903983 -1.436513,-1.352622 l -0.06517,-0.06447 0.05199,-0.06447 c 0.396875,-0.332166 0.651161,-0.610412 0.763322,-0.834731 0.116469,-0.22432 0.174711,-0.47283 0.174711,-0.744602 0,-0.677274 -0.200595,-1.201409 -0.601783,-1.5724 -0.401187,-0.375304 -0.946661,-0.562957 -1.636877,-0.562957 z m 0.07765,0.679432 c 0.345106,0 0.64084,0.12749 0.886728,0.382008 0.250203,0.250201 0.375074,0.549786 0.375074,0.899206 0,0.608253 -0.383704,1.072225 -1.151568,1.391448 -0.918846,-0.306282 -1.378276,-0.787049 -1.378276,-1.442753 0,-0.34942 0.118397,-0.640607 0.355663,-0.873556 0.241573,-0.237259 0.545703,-0.356353 0.912379,-0.356353 z m -0.569198,3.947637 c 0.04313,0.02157 0.247585,0.112158 0.614262,0.271772 0.366676,0.155299 0.690218,0.353276 0.970617,0.59485 0.487465,0.418445 0.731429,0.942579 0.731429,1.572401 0,0.57374 -0.221932,1.050654 -0.666259,1.430272 -0.44001,0.379619 -0.880027,0.569199 -1.320038,0.569199 -0.58237,0 -1.089714,-0.19605 -1.521095,-0.588611 -0.427072,-0.396873 -0.640608,-0.908069 -0.640608,-1.533574 0,-0.414129 0.13396,-0.800452 0.401419,-1.158501 0.267459,-0.362364 0.744373,-0.747993 1.430273,-1.157808 z" />
  </g>
</svg>
