<?xml version="1.0" encoding="UTF-8" standalone="no"?>
<!-- Created with Inkscape (http://www.inkscape.org/) -->

<svg
   width="131.55273"
   height="125.20102"
   viewBox="0 0 34.80666 33.126103"
   version="1.1"
   id="svg1"
   inkscape:version="1.3.2 (091e20e, 2023-11-25, custom)"
   sodipodi:docname="Card.svg"
   xml:space="preserve"
   inkscape:export-filename="Card.svg"
   inkscape:export-xdpi="96"
   inkscape:export-ydpi="96"
   xmlns:inkscape="http://www.inkscape.org/namespaces/inkscape"
   xmlns:sodipodi="http://sodipodi.sourceforge.net/DTD/sodipodi-0.dtd"
   xmlns="http://www.w3.org/2000/svg"
   xmlns:svg="http://www.w3.org/2000/svg"><sodipodi:namedview
     id="namedview1"
     pagecolor="#ffffff"
     bordercolor="#000000"
     borderopacity="0.25"
     inkscape:showpageshadow="2"
     inkscape:pageopacity="0.0"
     inkscape:pagecheckerboard="0"
     inkscape:deskcolor="#d1d1d1"
     inkscape:document-units="mm"
     showgrid="true"
     inkscape:zoom="1.0412186"
     inkscape:cx="5091.1499"
     inkscape:cy="-297.24786"
     inkscape:window-width="1920"
     inkscape:window-height="1010"
     inkscape:window-x="1699"
     inkscape:window-y="-6"
     inkscape:window-maximized="1"
     inkscape:current-layer="layer1"><inkscape:grid
       id="grid1"
       units="mm"
       originx="-1368.8217"
       originy="122.12596"
       spacingx="63.999999"
       spacingy="63.999999"
       empcolor="#0099e5"
       empopacity="0.30196078"
       color="#0099e5"
       opacity="0.14901961"
       empspacing="5"
       dotted="false"
       gridanglex="30"
       gridanglez="30"
       visible="true" /></sodipodi:namedview><defs
     id="defs1"><inkscape:path-effect
       effect="bspline"
       id="path-effect208"
       is_visible="true"
       lpeversion="1.3"
       weight="33.333333"
       steps="2"
       helper_size="0"
       apply_no_weight="true"
       apply_with_weight="true"
       only_selected="false"
       uniform="false" /><inkscape:path-effect
       effect="bspline"
       id="path-effect172"
       is_visible="true"
       lpeversion="1.3"
       weight="33.333333"
       steps="2"
       helper_size="0"
       apply_no_weight="true"
       apply_with_weight="true"
       only_selected="false"
       uniform="false" /><inkscape:path-effect
       effect="bspline"
       id="path-effect167"
       is_visible="true"
       lpeversion="1.3"
       weight="33.333333"
       steps="2"
       helper_size="0"
       apply_no_weight="true"
       apply_with_weight="true"
       only_selected="false"
       uniform="false" /><inkscape:path-effect
       effect="bspline"
       id="path-effect155"
       is_visible="true"
       lpeversion="1.3"
       weight="33.333333"
       steps="2"
       helper_size="0"
       apply_no_weight="true"
       apply_with_weight="true"
       only_selected="false"
       uniform="false" /><inkscape:path-effect
       effect="bspline"
       id="path-effect91"
       is_visible="true"
       lpeversion="1.3"
       weight="33.333333"
       steps="2"
       helper_size="0"
       apply_no_weight="true"
       apply_with_weight="true"
       only_selected="false"
       uniform="false" /><inkscape:path-effect
       effect="bspline"
       id="path-effect87"
       is_visible="true"
       lpeversion="1.3"
       weight="33.333333"
       steps="2"
       helper_size="0"
       apply_no_weight="true"
       apply_with_weight="true"
       only_selected="false"
       uniform="false" /><inkscape:path-effect
       effect="bspline"
       id="path-effect83"
       is_visible="true"
       lpeversion="1.3"
       weight="33.333333"
       steps="2"
       helper_size="0"
       apply_no_weight="true"
       apply_with_weight="true"
       only_selected="false"
       uniform="false" /></defs><g
     inkscape:label="Layer 1"
     inkscape:groupmode="layer"
     id="layer1"
     transform="translate(-1368.8217,122.12596)"><path
       style="fill:#ffffff;fill-rule:evenodd;stroke-width:0.499999;stroke-linecap:square;stroke-linejoin:round;paint-order:stroke fill markers"
       d="m 1397.7917,-113.01512 c -0.021,-0.86823 0.1483,-1.03762 0.8259,-1.60935 0.6776,-0.57174 1.8635,-1.54585 2.6893,-1.22819 0.8259,0.31767 1.2917,1.92698 2.0329,2.71049 0.7412,0.78351 1.7576,0.74116 2.414,2.35055 0.6565,1.60939 0.9529,4.87039 0.3177,7.07267 -0.6353,2.20229 -2.2023,3.34578 -3.5999,3.59989 -1.3976,0.254103 -2.6258,-0.38117 -3.3034,-2.01173 -0.6777,-1.63056 -0.8047,-4.2563 -0.9742,-6.35271 -0.1694,-2.09642 -0.3811,-3.6634 -0.4023,-4.53162 z"
       id="path194"
       inkscape:path-effect="#path-effect208"
       inkscape:original-d="m 1397.6011,-113.71391 c 0.1695,-0.16941 0.3389,-0.33881 0.5083,-0.50822 1.1858,-0.9741 2.3717,-1.94817 3.5575,-2.92226 0.4659,1.60939 0.9317,3.21872 1.3976,4.82808 1.0165,-0.0423 2.0329,-0.0847 3.0493,-0.12705 0.2965,3.26113 0.5929,6.52213 0.8894,9.7832 -1.567,1.14352 -3.134,2.28699 -4.701,3.430479 -1.2282,-0.635286 -2.4564,-1.270549 -3.6846,-1.905819 -0.1271,-2.62585 -0.2541,-5.25159 -0.3812,-7.87739 -0.2117,-1.56704 -0.4235,-3.13401 -0.6353,-4.70102 z"
       transform="matrix(-1,0,0,1,2775.2451,-4.7010221)" /><path
       style="fill:#ffffff;fill-rule:evenodd;stroke-width:0.499999;stroke-linecap:square;stroke-linejoin:round;paint-order:stroke fill markers"
       d="m 1397.7917,-113.01512 c -0.021,-0.86823 0.1483,-1.03762 0.8259,-1.60935 0.6776,-0.57174 1.8635,-1.54585 2.6893,-1.22819 0.8259,0.31767 1.2917,1.92698 2.0329,2.71049 0.7412,0.78351 1.7576,0.74116 2.414,2.35055 0.6565,1.60939 0.9529,4.87039 0.3177,7.07267 -0.6353,2.20229 -2.2023,3.34578 -3.5999,3.59989 -1.3976,0.254103 -2.6258,-0.38117 -3.3034,-2.01173 -0.6777,-1.63056 -0.8047,-4.2563 -0.9742,-6.35271 -0.1694,-2.09642 -0.3811,-3.6634 -0.4023,-4.53162 z"
       id="path170"
       inkscape:path-effect="#path-effect172"
       inkscape:original-d="m 1397.6011,-113.71391 c 0.1695,-0.16941 0.3389,-0.33881 0.5083,-0.50822 1.1858,-0.9741 2.3717,-1.94817 3.5575,-2.92226 0.4659,1.60939 0.9317,3.21872 1.3976,4.82808 1.0165,-0.0423 2.0329,-0.0847 3.0493,-0.12705 0.2965,3.26113 0.5929,6.52213 0.8894,9.7832 -1.567,1.14352 -3.134,2.28699 -4.701,3.430479 -1.2282,-0.635286 -2.4564,-1.270549 -3.6846,-1.905819 -0.1271,-2.62585 -0.2541,-5.25159 -0.3812,-7.87739 -0.2117,-1.56704 -0.4235,-3.13401 -0.6353,-4.70102 z"
       transform="translate(-2.7952023,-3.6845849)" /><path
       style="fill:#f98868;fill-rule:evenodd;stroke-width:0.499999;stroke-linecap:square;stroke-linejoin:round;paint-order:stroke fill markers"
       d="m 1394.4671,-111.08811 c -1.9481,-0.29646 -3.7269,-0.38117 -7.1574,-0.0423 -3.4306,0.33882 -8.5126,1.10112 -11.7313,3.21874 -3.2188,2.11761 -4.574,5.59035 -4.1081,9.317345 0.4659,3.726996 2.7528,7.707938 5.1245,10.630209 2.3717,2.922272 4.8281,4.785743 8.7244,4.531596 3.8964,-0.254148 9.2326,-2.625789 12.5784,-5.124558 3.3458,-2.498769 4.701,-5.124496 4.8281,-8.682084 0.127,-3.557588 -0.9741,-8.046758 -2.5835,-10.545508 -1.6094,-2.49875 -3.7269,-3.00694 -5.6751,-3.3034 z"
       id="path79"
       inkscape:path-effect="#path-effect83"
       inkscape:original-d="m 1394.2977,-111.29987 c -1.7787,-0.0847 -3.5575,-0.16941 -5.3363,-0.25411 -5.0823,0.76234 -10.1643,1.52465 -15.2465,2.28698 -1.3553,3.4729 -2.7105,6.94565 -4.0658,10.418483 2.2871,3.981124 4.574,7.96209 6.861,11.943135 2.4564,1.863505 4.9128,3.726937 7.3691,5.590405 5.3364,-2.371733 10.6726,-4.743373 16.0089,-7.115058 1.3553,-2.62585 2.7105,-5.251593 4.0658,-7.87739 -1.1012,-4.489355 -2.2023,-8.978525 -3.3034,-13.467795 -2.1177,-0.50823 -4.2352,-1.01644 -6.3528,-1.52465 z"
       transform="translate(-1.2705465,-5.5904047)" /><path
       style="fill:#f98868;fill-rule:evenodd;stroke-width:0.499999;stroke-linecap:square;stroke-linejoin:round;paint-order:stroke fill markers"
       d="m 1378.3735,-95.799197 c 0.085,1.863491 -1.0164,3.218725 -2.3716,3.811637 -1.3553,0.592912 -2.9646,0.423513 -4.2352,-0.254137 -1.2706,-0.67765 -2.2023,-1.863463 -2.8799,-3.176367 -0.6776,-1.312904 -1.1011,-2.752829 -0.5505,-3.938668 0.5505,-1.185838 2.0751,-2.117548 3.4728,-2.583438 1.3976,-0.46588 2.6681,-0.46588 3.9386,0.71999 1.2706,1.18587 2.5411,3.557493 2.6258,5.420983 z"
       id="path85"
       inkscape:path-effect="#path-effect87"
       inkscape:original-d="m 1379.5594,-95.290988 c -1.1012,1.355249 -2.2023,2.7105 -3.3034,4.065749 -1.6094,-0.16941 -3.2187,-0.338812 -4.8281,-0.508217 -0.9318,-1.185868 -1.8635,-2.371688 -2.7952,-3.557532 -0.4235,-1.439982 -0.847,-2.879905 -1.2705,-4.319857 1.5246,-0.931755 3.0492,-1.863465 4.5739,-2.795205 1.2706,0 2.5411,0 3.8116,0 1.2706,2.37174 2.5411,4.743377 3.8117,7.115062 z"
       transform="translate(1.1434919,1.7787651)" /><path
       style="fill:#f98868;fill-rule:evenodd;stroke-width:0.499999;stroke-linecap:square;stroke-linejoin:round;paint-order:stroke fill markers"
       d="m 1389.9778,-99.441446 c -0.9317,0.762333 -1.3552,1.694069 -1.6093,3.091695 -0.2541,1.397626 -0.3388,3.261043 0.1271,4.57396 0.4659,1.312918 1.4823,2.075224 2.7528,2.45638 1.2706,0.381156 2.7952,0.381156 4.1505,-0.465902 1.3553,-0.847057 2.5411,-2.541081 3.0069,-4.108095 0.4659,-1.567013 0.2118,-3.006937 -0.6776,-4.235144 -0.8894,-1.228207 -2.414,-2.244608 -3.8964,-2.456368 -1.4823,-0.21176 -2.9222,0.38114 -3.854,1.143474 z"
       id="path87"
       inkscape:path-effect="#path-effect91"
       inkscape:original-d="m 1389.4696,-99.610845 c -0.4235,0.931732 -0.847,1.863468 -1.2705,2.795201 -0.085,1.863505 -0.1694,3.726936 -0.2541,5.590405 1.0165,0.762344 2.0329,1.524656 3.0493,2.286984 1.5247,0 3.0493,0 4.574,0 1.1859,-1.694095 2.3717,-3.388124 3.5575,-5.082185 -0.2541,-1.439982 -0.5082,-2.879905 -0.7623,-4.31986 -1.5247,-1.016458 -3.0493,-2.03287 -4.574,-3.04931 -1.44,0.59293 -2.8799,1.18584 -4.3199,1.778765 z"
       transform="translate(1.9058198)" /><ellipse
       style="fill:#ffffff;fill-rule:evenodd;stroke-width:0.499999;stroke-linecap:square;stroke-linejoin:round;paint-order:stroke fill markers"
       id="path129"
       cx="1379.2417"
       cy="-105.01068"
       rx="6.1621504"
       ry="5.5268769" /><ellipse
       style="fill:#ffffff;fill-rule:evenodd;stroke-width:0.499999;stroke-linecap:square;stroke-linejoin:round;paint-order:stroke fill markers"
       id="ellipse143"
       cx="1393.3447"
       cy="-103.99425"
       rx="6.1621504"
       ry="5.5268769" /><circle
       style="fill:#00043d;fill-rule:evenodd;stroke-width:0.499999;stroke-linecap:square;stroke-linejoin:round;paint-order:stroke fill markers"
       id="path144"
       cx="1379.6229"
       cy="-103.48601"
       r="3.3669481" /><circle
       style="fill:#00043d;fill-rule:evenodd;stroke-width:0.499999;stroke-linecap:square;stroke-linejoin:round;paint-order:stroke fill markers"
       id="circle144"
       cx="1393.0907"
       cy="-103.10484"
       r="3.3669481" /><path
       style="fill:#916b91;fill-rule:evenodd;stroke-width:0.499999;stroke-linecap:square;stroke-linejoin:round;paint-order:stroke fill markers"
       d="m 1379.1782,-96.43448 c 0.2965,0.719988 0.5929,1.439976 0.9318,2.096425 0.3388,0.656449 0.7199,1.249332 1.4823,1.376395 0.7623,0.127062 1.9058,-0.21175 2.5511,-0.638468 0.6452,-0.426717 0.8258,-1.058784 1.0064,-1.69086"
       id="path152"
       inkscape:path-effect="#path-effect155"
       inkscape:original-d="m 1379.1782,-96.43448 c 0.2965,0.719976 0.593,1.439952 0.8894,2.159929 0.3812,0.592933 0.7623,1.185843 1.1435,1.778767 1.1435,-0.33882 2.287,-0.67763 3.4305,-1.016439 0.1694,-0.508231 0.3388,-1.143493 0.5082,-1.778765"
       transform="translate(2.0328744,0.38116396)" /><path
       style="fill:#f98868;fill-rule:evenodd;stroke-width:0.499999;stroke-linecap:square;stroke-linejoin:round;paint-order:stroke fill markers"
       d="m 1387.1183,-112.99028 c 1.8267,-0.62887 3.0845,-2.66529 3.4139,-3.68349 0.3294,-1.01821 -0.2695,-1.01821 -0.8685,-0.95832 -0.5989,0.0599 -1.1978,0.17968 -2.0364,-0.80859 -0.8385,-0.98826 -1.9166,-3.08452 -3.1145,-3.7733 -1.1979,-0.68877 -2.5155,0.0299 -3.5038,1.07808 -0.9882,1.04816 -1.6471,2.42569 -1.677,3.6835 -0.03,1.25781 0.569,2.39575 2.0664,3.35407 1.4974,0.95831 3.8931,1.73692 5.7199,1.10805 z"
       id="path155"
       inkscape:path-effect="#path-effect167"
       inkscape:original-d="m 1387.6873,-111.58278 c 1.2577,-2.0364 2.5155,-4.0728 3.7733,-6.1092 -0.599,0 -1.1979,0 -1.7969,0 -0.5989,0.11979 -1.1978,0.23958 -1.7968,0.35937 -1.0781,-2.09634 -2.1562,-4.19259 -3.2343,-6.28889 -1.3177,0.71875 -2.6353,1.43746 -3.953,2.15619 -0.6588,1.37759 -1.3176,2.75513 -1.9765,4.1327 0.599,1.13801 1.1979,2.27597 1.7969,3.41396 2.3958,0.77864 4.7915,1.55725 7.1873,2.33587 z"
       transform="translate(0,0.35936482)" /></g></svg>
