<?xml version="1.0" encoding="UTF-8" standalone="no"?>
<!-- Created with Inkscape (http://www.inkscape.org/) -->

<svg
   width="124.20214"
   height="125.41336"
   viewBox="0 0 32.861816 33.182285"
   version="1.1"
   id="svg1"
   inkscape:version="1.3.2 (091e20e, 2023-11-25, custom)"
   sodipodi:docname="Card.svg"
   xml:space="preserve"
   inkscape:export-filename="Card.svg"
   inkscape:export-xdpi="96"
   inkscape:export-ydpi="96"
   xmlns:inkscape="http://www.inkscape.org/namespaces/inkscape"
   xmlns:sodipodi="http://sodipodi.sourceforge.net/DTD/sodipodi-0.dtd"
   xmlns="http://www.w3.org/2000/svg"
   xmlns:svg="http://www.w3.org/2000/svg"><sodipodi:namedview
     id="namedview1"
     pagecolor="#ffffff"
     bordercolor="#000000"
     borderopacity="0.25"
     inkscape:showpageshadow="2"
     inkscape:pageopacity="0.0"
     inkscape:pagecheckerboard="0"
     inkscape:deskcolor="#d1d1d1"
     inkscape:document-units="mm"
     showgrid="true"
     inkscape:zoom="1.4725054"
     inkscape:cx="2654.6592"
     inkscape:cy="-172.15557"
     inkscape:window-width="1920"
     inkscape:window-height="1010"
     inkscape:window-x="1699"
     inkscape:window-y="-6"
     inkscape:window-maximized="1"
     inkscape:current-layer="layer1"><inkscape:grid
       id="grid1"
       units="mm"
       originx="-698.95637"
       originy="60.321541"
       spacingx="63.999999"
       spacingy="63.999999"
       empcolor="#0099e5"
       empopacity="0.30196078"
       color="#0099e5"
       opacity="0.14901961"
       empspacing="5"
       dotted="false"
       gridanglex="30"
       gridanglez="30"
       visible="true" /></sodipodi:namedview><defs
     id="defs1"><inkscape:path-effect
       effect="bspline"
       id="path-effect111"
       is_visible="true"
       lpeversion="1.3"
       weight="33.333333"
       steps="2"
       helper_size="0"
       apply_no_weight="true"
       apply_with_weight="true"
       only_selected="false"
       uniform="false" /><inkscape:path-effect
       effect="bspline"
       id="path-effect110"
       is_visible="true"
       lpeversion="1.3"
       weight="33.333333"
       steps="2"
       helper_size="0"
       apply_no_weight="true"
       apply_with_weight="true"
       only_selected="false"
       uniform="false" /><inkscape:path-effect
       effect="bspline"
       id="path-effect108"
       is_visible="true"
       lpeversion="1.3"
       weight="33.333333"
       steps="2"
       helper_size="0"
       apply_no_weight="true"
       apply_with_weight="true"
       only_selected="false"
       uniform="false" /><inkscape:path-effect
       effect="bspline"
       id="path-effect95"
       is_visible="true"
       lpeversion="1.3"
       weight="33.333333"
       steps="2"
       helper_size="0"
       apply_no_weight="true"
       apply_with_weight="true"
       only_selected="false"
       uniform="false" /><inkscape:path-effect
       effect="bspline"
       id="path-effect94"
       is_visible="true"
       lpeversion="1.3"
       weight="33.333333"
       steps="2"
       helper_size="0"
       apply_no_weight="true"
       apply_with_weight="true"
       only_selected="false"
       uniform="false" /></defs><g
     inkscape:label="Layer 1"
     inkscape:groupmode="layer"
     id="layer1"
     transform="translate(-698.95638,60.321541)"><path
       style="fill:#c7fff7;fill-opacity:1;fill-rule:evenodd;stroke:#bacfba;stroke-width:1;stroke-linecap:round;stroke-linejoin:round;stroke-opacity:1;paint-order:stroke fill markers"
       d="m 696.67366,-126.736 c 0.13477,-0.0599 0.40428,-0.17968 1.40752,-0.65884 1.00325,-0.47916 2.74016,-1.31767 4.41721,-1.87169 1.67705,-0.55402 3.29415,-0.82354 5.00115,-0.97327 1.707,-0.14973 3.50379,-0.17967 5.091,-0.11976 1.5872,0.0599 2.96476,0.20963 4.4172,0.46419 1.45244,0.25455 2.97972,0.61391 4.97123,1.09307 1.99151,0.47916 4.4471,1.07809 5.80969,1.67703 1.3626,0.59895 1.63213,1.19788 1.51234,1.67704 -0.11979,0.47915 -0.62889,0.83852 -1.27276,1.09307 -0.64387,0.25455 -1.42249,0.40428 -2.5006,0.40428 -1.07811,-1e-5 -2.45564,-0.14974 -3.96798,0.10482 -1.51235,0.25456 -3.1594,0.91338 -4.8664,1.45243 -1.707,0.53905 -3.47384,0.9583 -5.21079,1.21285 -1.73695,0.25455 -3.44391,0.34439 -4.94127,0.19465 -1.49735,-0.14974 -2.78505,-0.53904 -4.04284,-1.04814 -1.25779,-0.50911 -2.48559,-1.13798 -3.53375,-1.73693 -1.04816,-0.59895 -1.9166,-1.16793 -2.29094,-1.64709 -0.37434,-0.47916 -0.25456,-0.86846 -0.19466,-1.06312 0.0599,-0.19466 0.0599,-0.1947 0.19465,-0.25459 z"
       id="path94"
       inkscape:path-effect="#path-effect94"
       inkscape:original-d="m 696.5389,-126.67611 c 0.26953,-0.11978 0.53904,-0.23957 0.80857,-0.35936 1.73696,-0.83853 3.47387,-1.67704 5.21078,-2.51555 1.61719,-0.26953 3.23429,-0.53905 4.85143,-0.80858 1.79686,-0.0299 3.59365,-0.0599 5.39048,-0.0898 1.37758,0.14974 2.75514,0.29947 4.13269,0.44921 1.52733,0.35937 3.05461,0.71873 4.5819,1.07809 2.45573,0.59896 4.91132,1.19789 7.36697,1.79683 0.26954,0.59895 0.53907,1.19788 0.8086,1.79682 -0.50911,0.35938 -1.01822,0.71873 -1.52731,1.0781 -0.77864,0.14974 -1.55726,0.29947 -2.33587,0.4492 -1.37761,-0.14974 -2.75514,-0.29947 -4.13269,-0.4492 -1.64714,0.65885 -3.29419,1.31767 -4.94128,1.9765 -1.76691,0.41927 -3.53375,0.83852 -5.30063,1.25778 -1.70702,0.0898 -3.41398,0.17968 -5.12094,0.26952 -1.28775,-0.38932 -2.57545,-0.77862 -3.86318,-1.16793 -1.22785,-0.6289 -2.45565,-1.25778 -3.6835,-1.88667 -0.86847,-0.569 -1.73691,-1.13798 -2.60538,-1.70698 0.11978,-0.38932 0.23958,-0.77862 0.35936,-1.16794 z"
       transform="matrix(-0.70710678,-0.70710678,-0.70710678,0.70710678,1132.5345,553.43782)"
       inkscape:export-filename="Card_6_Art.svg"
       inkscape:export-xdpi="96"
       inkscape:export-ydpi="96" /><path
       style="fill:#00043d;fill-opacity:1;fill-rule:evenodd;stroke:#00043d;stroke-width:1;stroke-linecap:round;stroke-linejoin:round;stroke-opacity:1;paint-order:stroke fill markers"
       d="m 696.11219,-77.345756 c 1.23528,0.172156 3.57115,0.172156 5.66747,0.172156 2.09632,0 3.95298,0 6.2739,0 2.32093,0 5.10596,0 7.74133,0 2.63537,0 5.12092,0 7.29255,0.24888 2.17164,0.248881 4.0292,0.746612 5.40235,0.738945 1.37314,-0.0077 2.2618,-0.520733 1.9403,-1.219427 -0.32149,-0.698695 -1.85311,-1.582976 -4.15818,-2.437564 -2.30506,-0.854587 -5.38341,-1.679429 -8.46138,-2.091856 -3.07798,-0.412428 -6.15543,-0.412428 -9.02683,-0.412428 -2.87141,0 -5.53666,0 -7.59242,0.417494 -2.05576,0.417493 -3.50197,1.25246 -4.49768,1.942546 -0.99571,0.690087 -1.54088,1.23526 -1.74613,1.680021 -0.20526,0.44476 -0.0706,0.789078 1.16472,0.961233 z"
       id="path95"
       inkscape:path-effect="#path-effect95"
       inkscape:original-d="m 695.01159,-77.1736 c 2.33588,0 4.67175,0 7.00762,0 1.85677,0 3.71343,0 5.57017,0 2.78511,0 5.57014,0 8.35523,0 2.48565,0 4.9712,0 7.4568,0 1.85767,0.497756 3.71523,0.995493 5.57284,1.493237 0.88868,-0.513085 1.77734,-1.026149 2.66602,-1.539221 -1.53167,-0.884317 -3.06329,-1.768597 -4.59494,-2.652893 -3.07848,-0.824875 -6.15683,-1.649716 -9.23523,-2.474573 -3.07755,0 -6.155,0 -9.23247,0 -2.66534,0 -5.33059,0 -7.99587,0 -1.44624,0.83499 -2.89245,1.669949 -4.33866,2.504924 -0.54521,0.5452 -1.09038,1.090379 -1.63558,1.635569 0.1347,0.344326 0.2694,0.688639 0.40407,1.032957 z"
       transform="matrix(-0.70710678,-0.70710678,-0.70710678,0.70710678,1167.2204,518.75189)" /><path
       d="m 705.35524,-50.953732 c 0.0185,-0.0462 0.038,-0.09192 0.0636,-0.134451 0.25411,-0.423519 0.86829,-0.656177 2.2553,-0.116199 1.38702,0.539978 3.547,1.85241 5.29403,2.921803 1.74702,1.069385 3.08103,1.895347 4.28805,2.742381 1.20703,0.847035 2.28697,1.715405 3.45164,2.795367 1.16468,1.079965 2.41407,2.371863 3.51522,3.684768 1.10116,1.312907 2.05389,2.646507 2.84799,4.224113 0.7941,1.577605 1.42942,3.398793 1.8,4.447009 0.37058,1.048222 0.47654,1.323626 0.52948,1.461267 0.0529,0.137639 0.0533,0.13754 -0.042,0.317539 -0.0157,0.02988 -0.04,0.06945 -0.0625,0.107049 -1.00734,-0.818831 -2.50485,-2.314109 -3.86601,-3.675268 l -4.43642,-4.436417 -5.47379,-5.473798 c -1.86349,-1.863488 -3.6212,-3.620917 -5.33276,-4.980507 -1.71157,-1.359596 -3.37697,-2.321056 -4.34251,-3.297442 -0.19536,-0.197622 -0.3536,-0.394537 -0.48928,-0.587209 z"
       style="fill:#5f8d94;fill-rule:evenodd;stroke:#5f8d94;stroke-linecap:round;stroke-linejoin:round;paint-order:stroke fill markers"
       id="path102" /><path
       d="m 705.44057,-51.811893 c 0.30017,0.167761 0.60891,0.38357 0.92083,0.649698 1.15408,0.984669 2.33986,2.593735 3.40925,4.001946 1.06939,1.408203 2.02232,2.61549 2.65761,3.822528 0.63528,1.207032 0.953,2.413859 0.97418,3.260898 0.0212,0.847031 -0.25439,1.333999 -0.32851,1.641039 -0.0234,0.09692 -0.028,0.173455 -0.0413,0.229845 -0.43901,-0.715101 -0.85579,-1.447538 -1.24238,-2.190985 -0.82587,-1.588197 -1.5245,-3.218817 -2.41389,-4.468204 -0.88938,-1.249386 -1.96944,-2.117804 -2.73178,-2.88014 -0.76234,-0.762336 -1.20717,-1.418683 -1.48246,-2.053954 -0.27529,-0.635278 -0.38127,-1.249316 -0.12717,-1.672842 0.0865,-0.14418 0.21939,-0.262808 0.4056,-0.339836 z"
       style="fill:#f98868;fill-rule:evenodd;stroke:#f98868;stroke-linecap:round;stroke-linejoin:round;paint-order:stroke fill markers"
       id="path107" /><path
       style="fill:#ffffff;fill-opacity:0.403543;fill-rule:evenodd;stroke:none;stroke-width:1;stroke-linecap:round;stroke-linejoin:round;stroke-opacity:1;paint-order:stroke fill markers"
       d="m 709.37121,-82.998308 c 0.0749,-0.07487 0.22461,-0.224604 0.77864,-0.763655 0.55402,-0.539051 1.51232,-1.467394 2.53053,-2.365813 1.01821,-0.898419 2.09628,-1.766869 2.99469,-2.246026 0.89842,-0.479157 1.61714,-0.568996 2.30593,-0.254547 0.6888,0.314449 1.34763,1.033172 1.6471,1.632118 0.29947,0.598945 0.23958,1.078088 -0.23959,1.632118 -0.47917,0.55403 -1.37756,1.1829 -2.08132,1.721953 -0.70377,0.539053 -1.21285,0.988253 -2.05139,1.227827 -0.83853,0.239574 -2.00643,0.269519 -2.9947,0.284493 -0.98827,0.01497 -1.79681,0.01497 -2.26099,-0.119792 -0.46419,-0.134766 -0.58398,-0.404281 -0.64387,-0.539044 -0.0599,-0.134763 -0.0599,-0.134761 0.015,-0.209632 z"
       id="path108"
       inkscape:path-effect="#path-effect108"
       inkscape:original-d="m 709.29634,-82.923437 c 0.14975,-0.149736 0.29948,-0.299471 0.44921,-0.449207 0.95832,-0.928375 1.91662,-1.856716 2.87494,-2.785076 1.07809,-0.868484 2.15616,-1.736931 3.23426,-2.605397 0.71874,-0.08984 1.43746,-0.179681 2.1562,-0.269523 0.65884,0.718746 1.31768,1.43746 1.97651,2.15619 -0.0599,0.479163 -0.1198,0.958305 -0.17967,1.43746 -0.89845,0.628902 -1.79684,1.257777 -2.69526,1.886665 -0.50911,0.449215 -1.0182,0.898411 -1.52728,1.347618 -1.16798,0.02995 -2.33588,0.05989 -3.50383,0.08984 -0.80859,0 -1.61713,0 -2.4257,0 -0.1198,-0.269529 -0.23958,-0.539049 -0.35938,-0.808572 z"
       transform="matrix(-0.70710678,-0.70710678,-0.70710678,0.70710678,1167.2204,518.75189)" /><path
       style="fill:#ffffff;fill-opacity:0.403543;fill-rule:evenodd;stroke:none;stroke-width:1;stroke-linecap:round;stroke-linejoin:round;stroke-opacity:1;paint-order:stroke fill markers"
       d="m 709.37121,-82.998308 c 0.0749,-0.07487 0.22461,-0.224604 0.77864,-0.763655 0.55402,-0.539051 1.51232,-1.467394 2.53053,-2.365813 1.01821,-0.898419 2.09628,-1.766869 2.99469,-2.246026 0.89842,-0.479157 1.61714,-0.568996 2.30593,-0.254547 0.6888,0.314449 1.34763,1.033172 1.6471,1.632118 0.29947,0.598945 0.23958,1.078088 -0.23959,1.632118 -0.47917,0.55403 -1.37756,1.1829 -2.08132,1.721953 -0.70377,0.539053 -1.21285,0.988253 -2.05139,1.227827 -0.83853,0.239574 -2.00643,0.269519 -2.9947,0.284493 -0.98827,0.01497 -1.79681,0.01497 -2.26099,-0.119792 -0.46419,-0.134766 -0.58398,-0.404281 -0.64387,-0.539044 -0.0599,-0.134763 -0.0599,-0.134761 0.015,-0.209632 z"
       id="path109"
       inkscape:path-effect="#path-effect110"
       inkscape:original-d="m 709.29634,-82.923437 c 0.14975,-0.149736 0.29948,-0.299471 0.44921,-0.449207 0.95832,-0.928375 1.91662,-1.856716 2.87494,-2.785076 1.07809,-0.868484 2.15616,-1.736931 3.23426,-2.605397 0.71874,-0.08984 1.43746,-0.179681 2.1562,-0.269523 0.65884,0.718746 1.31768,1.43746 1.97651,2.15619 -0.0599,0.479163 -0.1198,0.958305 -0.17967,1.43746 -0.89845,0.628902 -1.79684,1.257777 -2.69526,1.886665 -0.50911,0.449215 -1.0182,0.898411 -1.52728,1.347618 -1.16798,0.02995 -2.33588,0.05989 -3.50383,0.08984 -0.80859,0 -1.61713,0 -2.4257,0 -0.1198,-0.269529 -0.23958,-0.539049 -0.35938,-0.808572 z"
       transform="rotate(-135,723.09751,-59.739586)" /><path
       style="fill:#ffffff;fill-opacity:0.403922;fill-rule:evenodd;stroke:none;stroke-width:1;stroke-linecap:round;stroke-linejoin:round;stroke-opacity:1;paint-order:stroke fill markers"
       d="m 728.89671,-79.764018 c 0.91338,-0.524071 2.74015,-1.572216 4.02789,-2.021424 1.28774,-0.449208 2.0364,-0.299476 1.93157,0.389317 -0.10482,0.688794 -1.06311,1.916608 -1.4674,2.575438 -0.40428,0.65883 -0.25455,0.748665 0.2246,0.823537 0.47916,0.07487 1.28773,0.134767 1.45243,0.643877 0.16471,0.50911 -0.31444,1.467395 -0.62888,2.261001 -0.31445,0.793605 -0.46418,1.422482 -1.64711,1.602161 -1.18293,0.179679 -3.39897,-0.08984 -4.6268,-0.658842 -1.22783,-0.569002 -1.46741,-1.437452 -1.42249,-2.35085 0.0449,-0.913398 0.37433,-1.871681 0.62889,-2.33586 0.25456,-0.464178 0.43424,-0.434232 0.52408,-0.41926 0.0898,0.01497 0.0898,0.01498 1.00322,-0.509095 z"
       id="path110"
       inkscape:path-effect="#path-effect111"
       inkscape:original-d="m 727.98333,-79.239948 c 1.82676,-1.048147 3.65353,-2.096293 5.48032,-3.14444 0.74869,0.149738 1.49735,0.299468 2.24602,0.449204 -0.95832,1.227854 -1.91662,2.455661 -2.87491,3.683489 0.14973,0.08984 0.29945,0.179684 0.44921,0.269524 0.80856,0.0599 1.61713,0.11979 2.4257,0.179683 -0.47916,0.958326 -0.9583,1.916613 -1.43746,2.874918 -0.14975,0.628901 -0.29948,1.257779 -0.44921,1.886667 -2.21612,-0.269529 -4.43216,-0.539049 -6.64823,-0.808572 -0.23958,-0.868482 -0.47917,-1.736929 -0.71875,-2.605395 0.32944,-0.958326 0.65884,-1.916612 0.98825,-2.87492 0.1797,0.02995 0.35938,0.0599 0.53906,0.08984 z"
       transform="matrix(-0.70710678,-0.70710678,-0.70710678,0.70710678,1165.5687,517.10019)" /><circle
       style="fill:#bacfba;fill-opacity:1;fill-rule:evenodd;stroke:none;stroke-width:1;stroke-linecap:round;stroke-linejoin:round;stroke-opacity:1;paint-order:stroke fill markers"
       id="path111"
       cx="-494.45337"
       cy="-537.28223"
       r="1.931586"
       transform="matrix(-0.70710678,-0.70710678,-0.70710678,0.70710678,0,0)" /><circle
       style="fill:#00043d;fill-opacity:1;fill-rule:evenodd;stroke:none;stroke-width:1;stroke-linecap:round;stroke-linejoin:round;stroke-opacity:1;paint-order:stroke fill markers"
       id="path112"
       cx="-494.45557"
       cy="-537.32715"
       r="1.4374593"
       transform="matrix(-0.70710678,-0.70710678,-0.70710678,0.70710678,0,0)" /></g></svg>
