<?xml version="1.0" encoding="UTF-8" standalone="no"?>
<!-- Created with Inkscape (http://www.inkscape.org/) -->

<svg
   width="162.15759"
   height="110.24054"
   viewBox="0 0 42.904195 29.167809"
   version="1.1"
   id="svg1"
   inkscape:version="1.3.2 (091e20e, 2023-11-25, custom)"
   sodipodi:docname="Card.svg"
   xml:space="preserve"
   xmlns:inkscape="http://www.inkscape.org/namespaces/inkscape"
   xmlns:sodipodi="http://sodipodi.sourceforge.net/DTD/sodipodi-0.dtd"
   xmlns="http://www.w3.org/2000/svg"
   xmlns:svg="http://www.w3.org/2000/svg"><sodipodi:namedview
     id="namedview1"
     pagecolor="#ffffff"
     bordercolor="#000000"
     borderopacity="0.25"
     inkscape:showpageshadow="2"
     inkscape:pageopacity="0.0"
     inkscape:pagecheckerboard="0"
     inkscape:deskcolor="#d1d1d1"
     inkscape:document-units="mm"
     showgrid="true"
     inkscape:zoom="1.0167041"
     inkscape:cx="1420.2756"
     inkscape:cy="-209.99227"
     inkscape:window-width="1920"
     inkscape:window-height="1010"
     inkscape:window-x="1699"
     inkscape:window-y="-6"
     inkscape:window-maximized="1"
     inkscape:current-layer="layer1"><inkscape:grid
       id="grid1"
       units="mm"
       originx="-327.28006"
       originy="48.690486"
       spacingx="63.999999"
       spacingy="63.999999"
       empcolor="#0099e5"
       empopacity="0.30196078"
       color="#0099e5"
       opacity="0.14901961"
       empspacing="5"
       dotted="false"
       gridanglex="30"
       gridanglez="30"
       visible="true" /></sodipodi:namedview><defs
     id="defs1"><inkscape:path-effect
       effect="bspline"
       id="path-effect54"
       is_visible="true"
       lpeversion="1.3"
       weight="33.333333"
       steps="2"
       helper_size="0"
       apply_no_weight="true"
       apply_with_weight="true"
       only_selected="false"
       uniform="false" /><inkscape:path-effect
       effect="bspline"
       id="path-effect53"
       is_visible="true"
       lpeversion="1.3"
       weight="33.333333"
       steps="2"
       helper_size="0"
       apply_no_weight="true"
       apply_with_weight="true"
       only_selected="false"
       uniform="false" /><inkscape:path-effect
       effect="bspline"
       id="path-effect52"
       is_visible="true"
       lpeversion="1.3"
       weight="33.333333"
       steps="2"
       helper_size="0"
       apply_no_weight="true"
       apply_with_weight="true"
       only_selected="false"
       uniform="false" /><inkscape:path-effect
       effect="bspline"
       id="path-effect49"
       is_visible="true"
       lpeversion="1.3"
       weight="33.333333"
       steps="2"
       helper_size="0"
       apply_no_weight="true"
       apply_with_weight="true"
       only_selected="false"
       uniform="false" /><inkscape:path-effect
       effect="bspline"
       id="path-effect48"
       is_visible="true"
       lpeversion="1.3"
       weight="33.333333"
       steps="2"
       helper_size="0"
       apply_no_weight="true"
       apply_with_weight="true"
       only_selected="false"
       uniform="false" /><inkscape:path-effect
       effect="bspline"
       id="path-effect47"
       is_visible="true"
       lpeversion="1.3"
       weight="33.333333"
       steps="2"
       helper_size="0"
       apply_no_weight="true"
       apply_with_weight="true"
       only_selected="false"
       uniform="false" /></defs><g
     inkscape:label="Layer 1"
     inkscape:groupmode="layer"
     id="layer1"
     transform="translate(-327.28007,48.690487)"><path
       style="fill:#00043d;fill-opacity:1;fill-rule:evenodd;stroke:#00043d;stroke-width:1;stroke-linecap:round;stroke-linejoin:round;stroke-opacity:1;paint-order:stroke fill markers"
       d="m 344.09247,-44.876623 c 0.3987,0.253021 1.19608,0.759057 2.11617,1.081086 0.92009,0.32203 1.96281,0.460038 2.84456,0.53671 0.88175,0.07667 1.60245,0.09201 2.62988,0.07667 1.02743,-0.01534 2.36151,-0.06134 3.56529,-0.260691 1.20377,-0.199353 2.27718,-0.552043 3.21259,-0.851067 0.93541,-0.299024 1.73281,-0.544377 2.36153,-0.828067 0.62871,-0.28369 1.08874,-0.605712 1.45677,-0.897074 0.36804,-0.291362 0.64405,-0.552048 0.3987,-0.567379 -0.24536,-0.01533 -1.01207,0.214682 -1.93216,0.421703 -0.92009,0.20702 -1.99348,0.391029 -3.06692,0.59805 -1.07344,0.207021 -2.14683,0.437034 -3.61897,0.55971 -1.47214,0.122676 -3.34291,0.138009 -4.89939,0.115005 -1.55647,-0.023 -2.79853,-0.08434 -3.65727,-0.130344 -0.85875,-0.04601 -1.33413,-0.07667 -1.5718,-0.09201 -0.23768,-0.01533 -0.23768,-0.01532 0.16102,0.237698 z"
       id="path54"
       inkscape:path-effect="#path-effect54"
       inkscape:original-d="m 343.69377,-45.129645 c 0.7974,0.506039 1.59478,1.012081 2.39218,1.518123 1.04278,0.138012 2.0855,0.276022 3.12825,0.414034 0.72075,0.01534 1.44145,0.03067 2.16217,0.046 1.33414,-0.04601 2.66822,-0.09201 4.00233,-0.138012 1.07344,-0.352703 2.14685,-0.70539 3.22027,-1.058085 0.7974,-0.245359 1.5948,-0.490707 2.3922,-0.73606 0.46003,-0.322032 0.92006,-0.644052 1.3801,-0.966079 0.27603,-0.260691 0.55205,-0.521374 0.82806,-0.782063 -0.76673,0.230024 -1.53344,0.460039 -2.30018,0.690057 -1.07344,0.184018 -2.14683,0.36803 -3.22027,0.552045 -1.07344,0.230021 -2.14683,0.460037 -3.22024,0.690055 -1.87087,0.01535 -3.74164,0.03067 -5.61245,0.046 -1.24214,-0.06134 -2.4842,-0.122677 -3.72631,-0.184015 -0.47538,-0.03067 -0.95076,-0.06134 -1.42611,-0.09201 z"
       transform="matrix(-1,0,0,1,701.62811,18.606897)"
       inkscape:export-filename="Card_3_Art.svg"
       inkscape:export-xdpi="96"
       inkscape:export-ydpi="96" /><path
       style="fill:#00043d;fill-opacity:1;fill-rule:evenodd;stroke:#00043d;stroke-width:1;stroke-linecap:round;stroke-linejoin:round;stroke-opacity:1;paint-order:stroke fill markers"
       d="m 340.84453,-51.190652 c 0,-0.05421 0,-0.162647 0.0325,-0.596385 0.0325,-0.433737 0.0976,-1.192739 0.15178,-1.82165 0.0542,-0.628911 0.0976,-1.127689 0.29278,-1.626481 0.19518,-0.498791 0.54216,-0.997564 0.96505,-1.518041 0.42288,-0.520476 0.92166,-1.062632 1.32286,-1.48552 0.4012,-0.422887 0.7048,-0.726484 1.39878,-1.246962 0.69397,-0.520479 1.77827,-1.257794 2.50477,-1.940925 0.7265,-0.683131 1.09515,-1.312019 2.11442,-1.984305 1.01928,-0.672286 2.6891,-1.38792 3.88186,-1.843335 1.19275,-0.455415 1.90839,-0.65059 2.59152,-0.802397 0.68313,-0.151807 1.33371,-0.260237 1.95177,-0.376801 0.61806,-0.116563 1.20359,-0.241259 2.00599,-0.314451 0.8024,-0.07319 1.82161,-0.09488 2.94936,0.148285 1.12775,0.243162 2.36378,0.751105 3.03612,1.081026 0.67234,0.329922 0.78076,0.48171 0.26026,0.509637 -0.52051,0.02793 -1.66987,-0.06802 -2.62411,-0.159373 -0.95424,-0.09135 -1.71324,-0.178095 -2.20118,-0.256708 -0.48795,-0.07861 -0.70481,-0.149093 -1.24698,-0.0759 -0.54216,0.07319 -1.4096,0.290052 -2.79755,0.810536 -1.38795,0.520483 -3.29631,1.34455 -4.53244,1.886714 -1.23613,0.542163 -1.79996,0.802392 -2.65657,1.192747 -0.85662,0.390355 -2.006,0.910825 -2.84092,1.561418 -0.83493,0.650592 -1.35539,1.431284 -1.89756,2.309594 -0.54216,0.878309 -1.10599,1.854176 -1.659,2.786699 -0.55301,0.932522 -1.09516,1.82165 -1.52889,2.450558 -0.43373,0.628908 -0.75901,0.997566 -0.98673,1.1819 -0.22771,0.184335 -0.35783,0.184335 -0.42287,0.184335 -0.065,0 -0.065,2e-6 -0.065,-0.05421 z"
       id="path53"
       inkscape:path-effect="#path-effect53"
       inkscape:original-d="m 340.84453,-51.136436 c 0,-0.108431 0,-0.216863 0,-0.325297 0.0651,-0.759037 0.13009,-1.518044 0.19515,-2.277067 0.0434,-0.498796 0.0868,-0.997572 0.13013,-1.496359 0.347,-0.498796 0.69397,-0.997572 1.04095,-1.496357 0.49879,-0.542171 0.99758,-1.084318 1.49635,-1.626478 0.30363,-0.303615 0.60722,-0.607219 0.91083,-0.910828 1.08434,-0.737349 2.16863,-1.474671 3.25297,-2.212007 0.36867,-0.628917 0.73731,-1.257811 1.10598,-1.886714 1.66989,-0.715664 3.33971,-1.431301 5.00957,-2.146949 0.71565,-0.195183 1.43129,-0.390355 2.14694,-0.585533 0.65061,-0.108434 1.30119,-0.216863 1.95177,-0.325295 0.58554,-0.124698 1.17107,-0.249393 1.75661,-0.37409 1.01926,-0.02169 2.03847,-0.04337 3.05777,-0.06506 1.2362,0.508012 2.47223,1.015955 3.70847,1.523983 0.10844,0.151815 0.21686,0.303605 0.3253,0.455414 -1.14945,-0.09596 -2.29881,-0.191905 -3.44825,-0.287861 -0.75904,-0.08675 -1.51804,-0.17349 -2.27706,-0.260236 -0.21687,-0.07048 -0.43373,-0.14096 -0.6506,-0.211443 -0.86746,0.216868 -1.7349,0.433726 -2.60236,0.650592 -1.90844,0.824097 -3.8168,1.648163 -5.72518,2.472245 -0.56388,0.260242 -1.12771,0.520473 -1.69154,0.780709 -1.1494,0.520483 -2.29878,1.040945 -3.44815,1.561417 -0.52047,0.780725 -1.04093,1.561418 -1.56142,2.342126 -0.56385,0.975905 -1.12768,1.951773 -1.69153,2.92766 -0.54216,0.889159 -1.08432,1.77828 -1.62647,2.66742 -0.32531,0.368676 -0.65059,0.737339 -0.97589,1.106006 -0.13013,0 -0.26025,0 -0.39034,0 z"
       sodipodi:nodetypes="sccccccccccccccccccccccccccss"
       transform="matrix(-1,0,0,1,701.62811,18.606897)" /><path
       id="path45"
       style="fill:#40446e;fill-opacity:1;fill-rule:evenodd;stroke:#40446e;stroke-width:1;stroke-linecap:round;stroke-linejoin:round;stroke-opacity:1;paint-order:stroke fill markers"
       d="m 339.17622,-46.718335 c 1.06958,-0.0077 2.19662,0.0766 3.40806,0.27595 2.42288,0.39869 5.18312,1.25751 6.6859,1.74821 1.50278,0.4907 1.74838,0.61344 2.42311,1.13482 0.67472,0.52137 1.77868,1.44143 3.18946,2.72954 1.41079,1.28811 3.12806,2.94427 4.07883,4.569751 0.95076,1.625481 1.13514,3.220132 1.16582,4.508252 0.0307,1.288121 -0.0922,2.269257 -0.58291,3.035991 -0.49071,0.766734 -1.3493,1.318815 -2.57607,1.840198 -1.22678,0.521382 -2.82146,1.012289 -4.41627,1.196309 -1.59482,0.18402 -3.18983,0.06105 -5.06068,-0.214974 -1.87084,-0.276026 -4.01759,-0.705188 -6.25646,-1.441256 -2.23888,-0.736067 -4.56946,-1.778768 -6.28696,-2.821533 -1.71749,-1.042765 -2.82158,-2.085505 -3.95634,-3.342948 -1.13477,-1.257444 -2.30015,-2.729437 -2.82154,-3.80287 -0.49495,-1.01901 -0.40915,-1.67902 -0.34675,-2.37298 0.42268,0.1404 0.94406,0.31187 1.49655,0.28732 0.69006,-0.03066 1.42608,-0.36816 1.45676,-0.81287 0.0307,-0.44471 -0.64391,-0.99656 -1.21129,-1.39526 -0.47322,-0.33253 -0.87048,-0.55663 -1.18546,-0.68472 0.44499,-0.82934 1.28423,-1.70662 2.58072,-2.44326 1.34945,-0.76674 3.18981,-1.38035 5.15266,-1.71772 0.98142,-0.16869 1.99328,-0.26829 3.06286,-0.27595 z" /><path
       style="fill:#e5d409;fill-opacity:1;fill-rule:evenodd;stroke:#e5d409;stroke-width:1;stroke-linecap:round;stroke-linejoin:round;stroke-opacity:1;paint-order:stroke fill markers"
       d="m 354.04332,-71.662193 c -1.91659,0.29315 -5.18255,1.413644 -8.42851,2.527277 1.12069,1.185121 2.24138,2.370233 3.1921,3.179668 0.95072,0.809435 1.73142,1.243154 2.2302,2.197353 0.49879,0.954199 0.71565,2.428871 0.93251,3.903543 1.12769,-1.518045 2.25537,-3.03608 3.31802,-4.35896 1.06264,-1.322881 2.0602,-2.450551 2.66742,-3.296326 0.60722,-0.845775 0.82408,-1.409606 0.62889,-1.93009 -0.19519,-0.520483 -0.80239,-0.997572 -1.40961,-1.496359 -0.60722,-0.498787 -1.21443,-1.019255 -3.13102,-0.726106 z"
       id="path46"
       inkscape:path-effect="#path-effect47"
       inkscape:original-d="m 355.35269,-72.475814 c -3.15493,1.313802 -9.73788,3.340898 -9.73788,3.340898 0,0 2.24138,2.370231 3.36208,3.555363 0.78074,0.433737 1.56144,0.867455 2.34215,1.301184 0.21686,1.474673 0.65058,4.424017 0.65058,4.424017 0,0 2.25537,-3.036082 3.38307,-4.554136 0.99758,-1.127713 1.99514,-2.255383 2.99273,-3.383071 0.21685,-0.563859 0.4337,-1.127692 0.65058,-1.691537 -0.60724,-0.47711 -1.21444,-0.954201 -1.82165,-1.431301 -0.60722,-0.520483 -1.21444,-1.040945 -1.82166,-1.561417 z"
       transform="matrix(-1,0,0,1,715.29911,39.831751)"
       sodipodi:nodetypes="cccccccccc" /><path
       style="fill:#00043d;fill-opacity:1;fill-rule:evenodd;stroke:#00043d;stroke-width:1;stroke-linecap:round;stroke-linejoin:round;stroke-opacity:1;paint-order:stroke fill markers"
       d="m 346.67815,-96.482614 c -1e-5,-0.45541 0.17349,-0.715643 0.73734,-1.583111 0.56386,-0.867467 1.51803,-2.342115 2.97104,-3.665005 1.45301,-1.32288 3.40475,-2.49391 5.20473,-3.51318 1.79999,-1.01927 3.44811,-1.8867 5.09629,-2.58067 1.64818,-0.69397 3.29632,-1.21444 4.74931,-1.56142 1.45299,-0.34698 2.71079,-0.52047 3.70836,-0.43372 0.99757,0.0867 1.73491,0.43373 1.79996,0.84577 0.065,0.41204 -0.54214,0.88913 -1.77829,1.30117 -1.23615,0.41205 -3.10114,0.75903 -4.22883,1.40963 -1.1277,0.6506 -1.51805,1.60478 -1.86504,2.58067 -0.34698,0.9759 -0.65058,1.97345 -1.51805,3.20959 -0.86746,1.236134 -2.29873,2.710771 -3.62162,3.773414 -1.32288,1.062642 -2.5373,1.713223 -3.86017,2.168637 -1.32288,0.455414 -2.75414,0.715643 -3.94691,0.650581 -1.19277,-0.06506 -2.14694,-0.455407 -2.71079,-0.975887 -0.56384,-0.52048 -0.73733,-1.171059 -0.73733,-1.626469 z"
       id="path47"
       inkscape:path-effect="#path-effect48"
       inkscape:original-d="m 346.50465,-96.677791 c 0.17349,-0.260236 0.34698,-0.520472 0.52049,-0.780709 0.95419,-1.474702 1.90839,-2.94934 2.86258,-4.42402 1.95183,-1.17108 3.90356,-2.34212 5.85534,-3.51319 1.64819,-0.86747 3.29631,-1.73491 4.94448,-2.60236 1.64819,-0.52048 3.29633,-1.04095 4.94448,-1.56142 1.25783,-0.17349 2.51563,-0.34698 3.77343,-0.52047 0.73734,0.34699 1.47468,0.69396 2.212,1.04094 -0.60722,0.47711 -1.21441,0.9542 -1.82163,1.4313 -1.86508,0.34699 -3.73007,0.69397 -5.59509,1.04095 -0.39037,0.95422 -0.78071,1.9084 -1.17108,2.8626 -0.30361,0.99759 -0.60721,1.99514 -0.91082,2.99272 -1.43132,1.474696 -2.86258,2.949341 -4.2939,4.424012 -1.21446,0.650605 -2.42888,1.301181 -3.64331,1.951773 -1.43132,0.260242 -2.86258,0.520472 -4.2939,0.780709 -0.95422,-0.390361 -1.90839,-0.780709 -2.86258,-1.171062 -0.17351,-0.650605 -0.347,-1.301184 -0.52049,-1.951773 z"
       transform="matrix(-1,0,0,1,703.97883,63.90361)" /><path
       style="fill:#40446e;fill-opacity:1;fill-rule:evenodd;stroke:#00043d;stroke-width:1;stroke-linecap:round;stroke-linejoin:round;stroke-opacity:1;paint-order:stroke fill markers"
       d="m 356.84905,-103.44394 c -0.28193,0.17349 -0.49879,0.21687 -0.88915,0.60723 -0.39036,0.39036 -0.95419,1.12768 -1.27949,1.86503 -0.3253,0.73735 -0.41204,1.474661 -0.0217,1.734893 0.39037,0.260232 1.2578,0.04337 2.42887,-0.477107 1.17108,-0.520476 2.64573,-1.344546 3.6433,-1.930086 0.99758,-0.58553 1.51804,-0.9325 1.84334,-1.43129 0.32531,-0.4988 0.45541,-1.14937 -0.36869,-1.36623 -0.8241,-0.21687 -2.60234,-10e-6 -3.66497,0.26023 -1.06264,0.26023 -1.40962,0.56383 -1.69154,0.73733 z"
       id="path48"
       inkscape:path-effect="#path-effect49"
       inkscape:original-d="m 356.78398,-103.31382 c -0.21685,0.0434 -0.43371,0.0868 -0.65058,0.13012 -0.56386,0.73735 -1.12769,1.47467 -1.69154,2.21201 -0.0868,0.73735 -0.17349,1.474671 -0.26024,2.212007 0.86749,-0.216866 1.73492,-0.433727 2.60236,-0.65059 1.47471,-0.824097 2.94936,-1.648167 4.42402,-2.472247 0.52049,-0.34699 1.04095,-0.69396 1.56144,-1.04094 0.13012,-0.65061 0.26021,-1.30118 0.39034,-1.95178 -1.77832,0.21687 -3.55656,0.43373 -5.33485,0.6506 -0.34697,0.30361 -0.69395,0.60721 -1.04095,0.91082 z"
       transform="matrix(-1,0,0,1,703.45836,62.732547)" /><circle
       style="fill:#916b91;fill-opacity:1;fill-rule:evenodd;stroke:none;stroke-width:0.774907;stroke-linecap:round;stroke-linejoin:round;stroke-opacity:1;paint-order:stroke fill markers"
       id="path50"
       cx="-334.9325"
       cy="-44.648209"
       r="1.3546469"
       transform="scale(-1,1)" /><circle
       style="fill:#bacfba;fill-opacity:1;fill-rule:evenodd;stroke:none;stroke-width:1.61905;stroke-linecap:round;stroke-linejoin:round;stroke-opacity:1;paint-order:stroke fill markers"
       id="path51"
       cx="-334.68344"
       cy="-44.937714"
       r="0.78206319"
       transform="scale(-1,1)" /><circle
       style="fill:#bacfba;fill-opacity:1;fill-rule:evenodd;stroke:none;stroke-width:0.761906;stroke-linecap:round;stroke-linejoin:round;stroke-opacity:1;paint-order:stroke fill markers"
       id="circle51"
       cx="-335.62256"
       cy="-44.23418"
       r="0.36802974"
       transform="scale(-1,1)" /><circle
       style="fill:#bacfba;fill-opacity:1;fill-rule:evenodd;stroke:none;stroke-width:0.761906;stroke-linecap:round;stroke-linejoin:round;stroke-opacity:1;paint-order:stroke fill markers"
       id="circle52"
       cx="-334.56448"
       cy="-43.682137"
       r="0.36802974"
       transform="scale(-1,1)" /><path
       style="fill:#e5d409;fill-opacity:1;fill-rule:evenodd;stroke:#e5d409;stroke-width:1;stroke-linecap:round;stroke-linejoin:round;stroke-opacity:1;paint-order:stroke fill markers"
       d="m 361.25138,-58.108601 c -0.23855,0.162643 -0.43373,0.574686 -0.65059,1.225287 -0.21686,0.6506 -0.45541,1.539723 -0.46626,2.103568 -0.0108,0.563844 0.20602,0.802402 0.52048,0.596369 0.31446,-0.206033 0.72649,-0.856599 0.97589,-1.5831 0.24939,-0.726502 0.33613,-1.528884 0.23854,-1.973455 -0.0976,-0.444571 -0.3795,-0.531312 -0.61806,-0.368669 z"
       id="path52"
       inkscape:path-effect="#path-effect52"
       inkscape:original-d="m 361.208,-58.357994 c -0.19516,0.412041 -0.39034,0.824082 -0.58552,1.236123 -0.23855,0.889158 -0.4771,1.77828 -0.71565,2.667423 0.21685,0.238553 0.43373,0.477099 0.65058,0.715648 0.41207,-0.650603 0.82408,-1.301182 1.23614,-1.951771 0.0867,-0.802412 0.17348,-1.60479 0.26022,-2.407187 -0.28192,-0.08675 -0.56383,-0.17349 -0.84577,-0.260236 z"
       transform="matrix(-1,0,0,1,701.62811,18.606897)" /></g></svg>
