<?xml version="1.0" encoding="UTF-8" standalone="no"?>
<!-- Created with Inkscape (http://www.inkscape.org/) -->

<svg
   width="31.826036"
   height="41.779854"
   viewBox="0 0 8.4206386 11.054253"
   version="1.1"
   id="svg1"
   xmlns="http://www.w3.org/2000/svg"
   xmlns:svg="http://www.w3.org/2000/svg">
  <defs
     id="defs1" />
  <g
     id="layer1"
     transform="translate(-24.16591,64.667822)">
    <path
       style="font-size:9.87777px;font-family:'Poor Richard';-inkscape-font-specification:'Poor Richard';text-align:center;text-anchor:middle;fill:#ffffff;fill-rule:evenodd;stroke:#000000;stroke-width:1.34161;stroke-linecap:round;stroke-linejoin:round;stroke-opacity:1;paint-order:stroke fill markers"
       d="m 28.770951,-61.453984 q -0.04529,0.07118 -0.04529,0.103524 0,0.03236 0.08411,0.03236 0.33001,-0.02589 0.401188,-0.02589 1.197094,0 1.947704,0.905909 0.757081,0.905908 0.757081,2.115942 0,1.054738 -0.757081,2.070649 -0.757081,1.01591 -1.772992,1.494749 -1.009441,0.472367 -2.018883,0.472367 -0.452954,0 -1.035324,-0.174711 -0.582369,-0.17471 -1.041795,-0.575899 -0.452954,-0.40766 -0.452954,-0.705315 0,-0.110003 0.07766,-0.181181 0.08411,-0.07119 0.174711,-0.07119 0.1553,0 0.407661,0.284714 0.44001,0.491779 0.892966,0.634137 0.452955,0.142357 0.92532,0.142357 0.73767,0 1.501219,-0.433542 0.763553,-0.440012 1.203566,-1.248859 0.446483,-0.808849 0.446483,-1.895937 0,-0.342951 -0.213536,-0.886497 -0.213536,-0.543545 -0.614722,-0.880026 -0.394718,-0.342951 -0.931793,-0.342951 -0.394718,0 -0.74414,0.168241 -0.342951,0.16824 -0.420599,0.16824 -0.155299,0 -0.155299,-0.16824 0,-0.148828 0.142357,-0.349422 l 1.177681,-1.727697 q 0.07118,-0.103536 0.07118,-0.226478 0,-0.129413 -0.122943,-0.129413 h -1.870053 q -0.174712,0 -0.349422,0.220007 -0.168241,0.220006 -0.297655,0.220006 -0.23942,0 -0.23942,-0.50472 0,-0.213536 0.03882,-0.394718 0.03882,-0.187652 0.03882,-0.271772 0,-0.381777 0.427072,-0.381777 h 3.8307 q 0.51119,0 0.51119,0.213538 0,0.09707 -0.05825,0.17471 -0.05825,0.07766 -0.401188,0.226477 -0.336481,0.142357 -0.491779,0.381775 z"
       id="path4" />
  </g>
</svg>
