<?xml version="1.0" encoding="UTF-8" standalone="no"?>
<!-- Created with Inkscape (http://www.inkscape.org/) -->

<svg
   width="30.603262"
   height="41.828976"
   viewBox="0 0 8.0971129 11.06725"
   version="1.1"
   id="svg1"
   xmlns="http://www.w3.org/2000/svg"
   xmlns:svg="http://www.w3.org/2000/svg">
  <defs
     id="defs1" />
  <g
     id="layer1"
     transform="translate(-33.800934,64.894089)">
    <path
       id="path5"
       style="font-size:9.87777px;font-family:'Poor Richard';-inkscape-font-specification:'Poor Richard';text-align:center;text-anchor:middle;fill:#40446e;fill-rule:evenodd;stroke:#00043d;stroke-width:1.34161;stroke-linecap:round;stroke-linejoin:round;paint-order:stroke fill markers"
       d="m 39.441299,-64.223284 c -0.120792,0 -0.243735,0.08411 -0.368837,0.252361 l -4.445425,5.661469 c -0.103536,0.129413 -0.155298,0.226476 -0.155298,0.291184 0,0.06902 0.01941,0.125337 0.05824,0.168473 0.03882,0.03882 0.0822,0.05825 0.129646,0.05825 0.06471,0 0.25236,-0.07118 0.562959,-0.213536 0.310596,-0.142358 0.629591,-0.213535 0.957443,-0.213535 0.931792,0 1.656522,0.105452 2.174183,0.316836 0.06039,0.02589 0.09083,0.09321 0.09083,0.201057 v 1.986298 c 0,0.232948 -0.03497,0.394717 -0.103991,0.485309 -0.06471,0.08628 -0.215464,0.142587 -0.452724,0.168471 -0.237259,0.02157 -0.381543,0.05392 -0.43331,0.09706 -0.04746,0.04313 -0.07141,0.09683 -0.07141,0.161537 0,0.103537 0.03236,0.179251 0.09706,0.226708 0.0647,0.05177 0.183109,0.07766 0.355661,0.07766 0.05608,0 0.209454,-0.01941 0.459657,-0.05825 0.250203,-0.03882 0.489623,-0.05825 0.718257,-0.05825 0.31491,0 0.569197,0.01941 0.76332,0.05825 0.198438,0.03883 0.338869,0.05825 0.420831,0.05825 0.306285,0 0.459659,-0.08675 0.459659,-0.259294 0,-0.202747 -0.185728,-0.314677 -0.556719,-0.336248 -0.146671,-0.0043 -0.26769,-0.04506 -0.362596,-0.122719 -0.0949,-0.08196 -0.142124,-0.243735 -0.142124,-0.48531 v -1.921822 c 0,-0.05608 0.01102,-0.0949 0.03258,-0.116469 0.02157,-0.02589 0.06423,-0.03882 0.128953,-0.03882 0.263144,0 0.573745,-0.08868 0.931793,-0.265533 0.358049,-0.176867 0.537305,-0.353505 0.537305,-0.530373 0,-0.04313 -0.01487,-0.08004 -0.04506,-0.110242 -0.02589,-0.03451 -0.05825,-0.052 -0.09706,-0.052 -0.02157,0 -0.127721,0.03234 -0.317531,0.09706 -0.18981,0.0604 -0.424685,0.09083 -0.705084,0.09083 -0.17687,0 -0.301741,-0.0084 -0.375073,-0.02565 -0.06902,-0.02157 -0.103991,-0.07596 -0.103991,-0.162232 v -4.529315 c 0,-0.107847 0.01295,-0.230792 0.03884,-0.368833 0.03019,-0.138047 0.04577,-0.237036 0.04577,-0.297426 0,-0.08628 -0.02396,-0.155527 -0.07141,-0.207297 -0.04315,-0.05608 -0.0949,-0.08389 -0.155298,-0.08389 z m -1.07392,2.232419 c 0.03451,0 0.05131,0.07765 0.05131,0.232949 v 2.730206 c 0,0.07766 -0.04268,0.116469 -0.128952,0.116469 -0.02157,0 -0.123181,-0.0168 -0.304359,-0.05131 -0.18118,-0.03451 -0.433542,-0.052 -0.75708,-0.052 -0.448642,0 -0.864698,0.05368 -1.24863,0.161538 l -0.110242,0.01941 0.04506,-0.11647 2.251833,-2.846682 c 0.103536,-0.129414 0.170861,-0.194123 0.201056,-0.194123 z" />
  </g>
</svg>
