<?xml version="1.0" encoding="UTF-8" standalone="no"?>
<!-- Created with Inkscape (http://www.inkscape.org/) -->

<svg
   width="79.681152"
   height="170.98398"
   viewBox="0 0 21.082304 45.239511"
   version="1.1"
   id="svg1"
   inkscape:version="1.3.2 (091e20e, 2023-11-25, custom)"
   sodipodi:docname="Card.svg"
   xml:space="preserve"
   inkscape:export-filename="Card.svg"
   inkscape:export-xdpi="96"
   inkscape:export-ydpi="96"
   xmlns:inkscape="http://www.inkscape.org/namespaces/inkscape"
   xmlns:sodipodi="http://sodipodi.sourceforge.net/DTD/sodipodi-0.dtd"
   xmlns="http://www.w3.org/2000/svg"
   xmlns:svg="http://www.w3.org/2000/svg"><sodipodi:namedview
     id="namedview1"
     pagecolor="#ffffff"
     bordercolor="#000000"
     borderopacity="0.25"
     inkscape:showpageshadow="2"
     inkscape:pageopacity="0.0"
     inkscape:pagecheckerboard="0"
     inkscape:deskcolor="#d1d1d1"
     inkscape:document-units="mm"
     showgrid="true"
     inkscape:zoom="1.0412186"
     inkscape:cx="3079.0846"
     inkscape:cy="-336.62481"
     inkscape:window-width="1920"
     inkscape:window-height="1010"
     inkscape:window-x="1699"
     inkscape:window-y="-6"
     inkscape:window-maximized="1"
     inkscape:current-layer="layer1"><inkscape:grid
       id="grid1"
       units="mm"
       originx="-822.87175"
       originy="18.526144"
       spacingx="63.999999"
       spacingy="63.999999"
       empcolor="#0099e5"
       empopacity="0.30196078"
       color="#0099e5"
       opacity="0.14901961"
       empspacing="5"
       dotted="false"
       gridanglex="30"
       gridanglez="30"
       visible="true" /></sodipodi:namedview><defs
     id="defs1"><inkscape:path-effect
       effect="bspline"
       id="path-effect37"
       is_visible="true"
       lpeversion="1.3"
       weight="33.333333"
       steps="2"
       helper_size="0"
       apply_no_weight="true"
       apply_with_weight="true"
       only_selected="false"
       uniform="false" /><inkscape:path-effect
       effect="bspline"
       id="path-effect36"
       is_visible="true"
       lpeversion="1.3"
       weight="33.333333"
       steps="2"
       helper_size="0"
       apply_no_weight="true"
       apply_with_weight="true"
       only_selected="false"
       uniform="false" /><inkscape:path-effect
       effect="bspline"
       id="path-effect22"
       is_visible="true"
       lpeversion="1.3"
       weight="33.333333"
       steps="2"
       helper_size="0"
       apply_no_weight="true"
       apply_with_weight="true"
       only_selected="false"
       uniform="false" /><inkscape:path-effect
       effect="bspline"
       id="path-effect18"
       is_visible="true"
       lpeversion="1.3"
       weight="33.333333"
       steps="2"
       helper_size="0"
       apply_no_weight="true"
       apply_with_weight="true"
       only_selected="false"
       uniform="false" /><inkscape:path-effect
       effect="bspline"
       id="path-effect14"
       is_visible="true"
       lpeversion="1.3"
       weight="33.333333"
       steps="2"
       helper_size="0"
       apply_no_weight="true"
       apply_with_weight="true"
       only_selected="false"
       uniform="false" /></defs><g
     inkscape:label="Layer 1"
     inkscape:groupmode="layer"
     id="layer1"
     transform="translate(-822.87179,18.526144)"><g
       id="g37"
       transform="matrix(-0.19967503,-0.74519737,0.74519737,-0.19967503,999.11697,621.17357)"><path
         style="fill:#c7fff7;fill-rule:evenodd;stroke-width:1;stroke-linecap:round;stroke-linejoin:round;paint-order:stroke fill markers"
         d="m 821.04383,-57.498374 c 0.19465,0.269524 0.19465,0.269524 0.19465,0.269524 2.42572,0.239577 4.85137,0.479147 6.96269,0.628886 2.11133,0.149739 3.90811,0.209632 5.82474,0.389317 1.91663,0.179686 3.95299,0.479151 5.92952,1.137999 1.97653,0.658847 3.8931,1.677025 5.77979,2.605395 1.88669,0.92837 3.74335,1.766865 5.16585,2.665293 1.4225,0.898428 2.41072,1.856708 3.12946,2.620366 0.71874,0.763658 1.16793,1.332631 0.71871,2.171161 -0.44922,0.838529 -1.7968,1.946542 -4.11774,2.770094 -2.32093,0.823552 -5.61505,1.36259 -8.62475,1.467401 -3.0097,0.104811 -5.73483,-0.2246 -8.35522,-0.793604 -2.6204,-0.569003 -5.1359,-1.377557 -7.18729,-2.216085 -2.0514,-0.838527 -3.63855,-1.706967 -5.091,-2.635334 -1.45245,-0.928368 -2.77009,-1.916604 -3.81825,-2.635341 -1.04816,-0.718736 -1.82676,-1.167926 -2.41073,-2.12625 -0.58398,-0.958324 -0.97328,-2.425703 -0.74867,-3.653538 0.22461,-1.227836 1.06312,-2.216077 2.11128,-2.844968 1.04816,-0.628892 2.30591,-0.898411 3.12945,-0.763646 0.82354,0.134766 1.21285,0.673807 1.40751,0.94333 z"
         id="path14"
         inkscape:path-effect="#path-effect14"
         inkscape:original-d="m 821.23848,-57.22885 v 0 c 0,0 4.85137,0.479147 7.27715,0.71873 1.79687,0.05989 3.59365,0.119788 5.39046,0.179681 2.03645,0.299479 4.07281,0.598942 6.10921,0.898414 1.91666,1.01822 3.83323,2.0364 5.74984,3.054601 1.85677,0.838533 3.71343,1.677035 5.57014,2.515552 0.9883,0.958327 1.97652,1.916613 2.96476,2.874921 0.44924,0.569005 0.89842,1.137988 1.34763,1.706983 -1.34765,1.108062 -2.69523,2.216081 -4.04286,3.324124 -3.29424,0.539057 -6.58836,1.078095 -9.88253,1.617141 -2.72523,-0.329424 -5.45036,-0.658836 -8.17554,-0.988253 -2.51561,-0.808588 -5.03111,-1.617141 -7.54666,-2.425713 -1.58724,-0.868481 -3.17439,-1.736929 -4.7616,-2.605394 -1.31768,-0.988275 -2.63533,-1.976507 -3.95301,-2.96476 -0.77864,-0.449215 -1.55723,-0.898414 -2.33587,-1.347618 -0.38931,-1.467437 -0.77862,-2.934814 -1.16793,-4.402219 0.83852,-0.988275 1.67704,-1.976507 2.51556,-2.96476 1.2578,-0.269531 2.51555,-0.539049 3.77332,-0.808572 0.38931,0.539057 0.77862,1.078095 1.16793,1.617142 z"
         transform="translate(1.7787652,51.932601)"
         sodipodi:nodetypes="sccccccccccccccccccs" /><path
         style="fill:#c7fff7;fill-rule:evenodd;stroke-width:1;stroke-linecap:round;stroke-linejoin:round;paint-order:stroke fill markers"
         d="m 814.51537,-55.701548 c -0.0749,-0.179682 -0.2246,-0.539051 -0.52408,-1.84177 -0.29947,-1.302719 -0.74866,-3.548707 -1.1829,-5.105966 -0.43423,-1.557259 -0.85348,-2.425698 -1.51233,-3.174382 -0.65885,-0.748683 -1.55725,-1.377558 -2.57546,-2.126241 -1.01821,-0.748682 -2.15618,-1.617141 -2.74015,-2.216084 -0.58397,-0.598943 -0.61393,-0.928348 -0.77866,-1.272747 -0.16472,-0.3444 -0.46418,-0.70375 0.52409,-0.494114 0.98827,0.209635 3.26422,0.988248 5.19581,1.647086 1.93159,0.658837 3.51877,1.19788 5.01613,2.410758 1.49737,1.212877 2.90485,3.099504 3.99793,4.821474 1.09307,1.72197 1.87168,3.279186 1.94655,4.447125 0.0749,1.167939 -0.55402,1.946553 -1.54229,2.27597 -0.98827,0.329416 -2.33585,0.209631 -3.41396,0.194658 -1.07811,-0.01497 -1.88665,0.07487 -2.23104,0.194653 -0.34439,0.119788 -0.2246,0.269528 -0.16471,0.344395 0.0599,0.07487 0.0599,0.07487 -0.0149,-0.104815 z"
         id="path16"
         inkscape:path-effect="#path-effect18"
         inkscape:original-d="m 814.59024,-55.521867 c -0.14973,-0.359365 -0.29948,-0.71873 -0.44921,-1.078095 -0.44921,-2.246075 -0.89842,-4.492059 -1.3476,-6.738091 -0.41929,-0.868482 -0.83852,-1.736929 -1.25778,-2.605394 -0.89844,-0.628902 -1.79684,-1.257777 -2.69526,-1.886665 -1.13799,-0.868484 -2.27597,-1.736931 -3.41394,-2.605397 -0.03,-0.329422 -0.0599,-0.658833 -0.0899,-0.988253 -0.29949,-0.35937 -0.59894,-0.71873 -0.89842,-1.078092 2.27602,0.778637 4.55197,1.557247 6.82794,2.335871 1.58721,0.539057 3.17439,1.078092 4.76157,1.617141 1.40756,1.886702 2.81504,3.773332 4.22254,5.659996 0.77865,1.557279 1.55726,3.114495 2.33588,4.671742 -0.62889,0.77864 -1.25778,1.557248 -1.88667,2.335872 -1.34765,-0.11979 -2.69523,-0.239575 -4.04286,-0.359365 -0.80859,0.08984 -1.61713,0.179684 -2.4257,0.269523 0.11978,0.149738 0.23958,0.299471 0.35936,0.449207 z"
         transform="translate(2.5873361,52.022442)" /><path
         style="fill:#c7fff7;fill-rule:evenodd;stroke-width:1;stroke-linecap:round;stroke-linejoin:round;paint-order:stroke fill markers"
         d="m 814.85976,-54.518641 c -0.26952,0.134763 -0.26952,0.643863 -0.47915,1.43747 -0.20964,0.793607 -0.62889,1.871681 -1.06313,2.725177 -0.43424,0.853496 -0.88344,1.482376 -2.14123,1.976504 -1.25778,0.494129 -3.3241,0.85349 -5.42042,0.598929 -2.09632,-0.25456 -4.22251,-1.123003 -6.15412,-1.841738 -1.9316,-0.718736 -3.66848,-1.287716 -4.04281,-0.778602 -0.37434,0.509114 0.61389,2.09627 1.94655,3.339084 1.33266,1.242815 3.00967,2.141212 5.58515,2.425706 2.57548,0.284495 6.04928,-0.04492 8.57982,-0.688791 2.53054,-0.643873 4.11769,-1.602152 5.00114,-2.725182 0.88344,-1.12303 1.06312,-2.410727 0.86846,-3.458884 -0.19467,-1.048157 -0.76365,-1.856698 -1.31768,-2.380781 -0.55403,-0.524083 -1.09306,-0.763655 -1.36258,-0.628892 z"
         id="path20"
         inkscape:path-effect="#path-effect22"
         inkscape:original-d="m 814.59024,-54.892979 c 0,0.509101 0,1.018201 0,1.527302 -0.41926,1.078116 -0.83852,2.156187 -1.25778,3.234282 -0.44921,0.628902 -0.89842,1.257777 -1.34763,1.886665 -2.06636,0.359373 -4.13268,0.71873 -6.19902,1.078095 -2.1263,-0.868482 -4.25249,-1.736929 -6.37874,-2.605395 -1.73696,-0.569005 -3.47384,-1.137988 -5.21078,-1.706983 0.98827,1.587228 1.97649,3.174389 2.96476,4.761585 1.67706,0.898429 3.35407,1.796825 5.03111,2.695236 3.47392,-0.329425 6.94772,-0.658836 10.42156,-0.988253 1.58724,-0.958326 3.17439,-1.916613 4.7616,-2.87492 0.17968,-1.287749 0.35936,-2.575446 0.53904,-3.863171 -0.56901,-0.808588 -1.13797,-1.617141 -1.70699,-2.425713 -0.53906,-0.23958 -1.07809,-0.479153 -1.61713,-0.71873 z"
         transform="translate(1.7787652,51.932601)" /><circle
         style="fill:#ffffff;fill-rule:evenodd;stroke-width:1;stroke-linecap:round;stroke-linejoin:round;paint-order:stroke fill markers"
         id="path35"
         cx="852.39526"
         cy="4.6761246"
         r="2.2460303" /><circle
         style="fill:#00043d;fill-rule:evenodd;stroke-width:1;stroke-linecap:round;stroke-linejoin:round;paint-order:stroke fill markers"
         id="path34"
         cx="852.48511"
         cy="4.5862837"
         r="1.3476181" /><path
         style="fill:#5f8d94;fill-rule:evenodd;stroke:#5f8d94;stroke-width:1;stroke-linecap:round;stroke-linejoin:round;paint-order:stroke fill markers"
         d="m 806.99865,-32.432677 c 0.40429,-0.08984 1.21286,-0.269524 1.82678,-0.08983 0.61392,0.179694 1.03316,0.718721 1.51232,1.182902 0.47916,0.464182 1.0182,0.853485 1.69202,1.602176 0.67383,0.748692 1.48237,1.856707 1.93158,2.635341 0.44921,0.778635 0.53905,1.22782 0.76366,1.841744 0.2246,0.613924 0.58396,1.392533 0.86846,2.350849 0.2845,0.958316 0.49413,2.096283 0.58396,2.90486 0.0898,0.808576 0.0599,1.287716 -0.045,1.886665 -0.10482,0.59895 -0.28449,1.317664 -0.52407,1.946559 -0.23958,0.628894 -0.53905,1.167927 -0.7337,1.766874 -0.19466,0.598946 -0.28451,1.257773 -0.64388,1.841744 -0.35936,0.58397 -0.98825,1.093066 -1.93159,1.542276 -0.94335,0.44921 -2.2011,0.838513 -3.44392,0.973274 -1.24281,0.1347612 -2.47061,0.01497 -3.51877,-0.164711 -1.04816,-0.179686 -1.9166,-0.419255 -2.66528,-0.688777 -0.74867,-0.269523 -1.37756,-0.568994 -1.88666,-0.763651 -0.5091,-0.194657 -0.89841,-0.284499 -1.37757,-0.419264 -0.47916,-0.134764 -1.04814,-0.314442 -1.48237,-0.55402 -0.43424,-0.239579 -0.7337,-0.53904 -0.52407,-0.673804 0.20963,-0.134763 0.92834,-0.104817 1.72195,0.04492 0.7936,0.149736 1.66207,0.419263 2.54551,0.673815 0.88345,0.254551 1.78184,0.49412 2.93481,0.598935 1.15298,0.104815 2.56046,0.07487 3.87815,-0.164712 1.31769,-0.239581 2.54549,-0.688777 3.41396,-1.662072 0.86847,-0.973295 1.37756,-2.470616 1.70698,-3.818247 0.32942,-1.347631 0.47915,-2.545489 0.1647,-4.012914 -0.31445,-1.467425 -1.09306,-3.204325 -2.00645,-4.836454 -0.9134,-1.632128 -1.96152,-3.159395 -2.75513,-4.042836 -0.7936,-0.883441 -1.33264,-1.123012 -1.69201,-1.31767 -0.35937,-0.194658 -0.53905,-0.344392 -0.62889,-0.41926 -0.0898,-0.07487 -0.0898,-0.07487 0.31448,-0.16471 z"
         id="path36"
         inkscape:path-effect="#path-effect36"
         inkscape:original-d="m 806.59437,-32.342836 c 0.80857,-0.179681 1.61714,-0.359365 2.4257,-0.539046 0.41929,0.539057 0.83852,1.078095 1.25778,1.617141 0.53906,0.389319 1.0781,0.778624 1.61716,1.167935 0.80859,1.108064 1.61713,2.216084 2.4257,3.324127 0.0899,0.449214 0.17968,0.898411 0.26953,1.347617 0.35938,0.778639 0.71874,1.557247 1.0781,2.335871 0.20963,1.138012 0.41926,2.275978 0.62889,3.413966 -0.03,0.479163 -0.0599,0.958307 -0.0899,1.43746 -0.17968,0.718744 -0.35935,1.437459 -0.53903,2.156189 -0.29948,0.539058 -0.59894,1.078094 -0.89842,1.617141 -0.0898,0.658849 -0.17968,1.317671 -0.26953,1.976507 -0.62889,0.50911 -1.25778,1.0182 -1.88667,1.527301 -1.2578,0.389319 -2.51555,0.778623 -3.77333,1.1679352 -1.22785,-0.1197906 -2.45565,-0.2395762 -3.68347,-0.3593652 -0.8685,-0.239581 -1.73694,-0.479153 -2.60541,-0.718729 -0.62888,-0.299477 -1.25777,-0.598942 -1.88666,-0.898412 -0.38931,-0.08984 -0.77862,-0.179683 -1.16792,-0.269524 -0.56902,-0.179686 -1.138,-0.359365 -1.70699,-0.539047 -0.29948,-0.299477 -0.59894,-0.598942 -0.89842,-0.898412 0.71874,0.02995 1.43745,0.05989 2.1562,0.08984 0.86846,0.269529 1.73693,0.539047 2.60537,0.808571 0.89845,0.239581 1.79684,0.479153 2.69526,0.71873 1.40753,-0.02995 2.81501,-0.0599 4.22254,-0.08984 1.22785,-0.449215 2.45565,-0.898412 3.68348,-1.347618 0.50911,-1.497383 1.01819,-2.994707 1.5273,-4.49206 0.14973,-1.197907 0.29946,-2.395766 0.44921,-3.593649 -0.77864,-1.736965 -1.55726,-3.47386 -2.33587,-5.21079 -1.04817,-1.527331 -2.09629,-3.054601 -3.14444,-4.581901 -0.53906,-0.239582 -1.0781,-0.479155 -1.61716,-0.71873 -0.17968,-0.149738 -0.35936,-0.299471 -0.53904,-0.449207 z"
         transform="translate(1.7787652,14.73834)" /><path
         style="fill:#ffffff;fill-opacity:1;fill-rule:evenodd;stroke:#ffffff;stroke-width:1;stroke-linecap:round;stroke-linejoin:round;stroke-opacity:1;paint-order:stroke fill markers"
         d="m 841.41945,-5.0398324 c -0.40234,0.1694086 -0.86819,0.5082116 -1.90582,0.7835008 -1.03763,0.2752893 -2.64696,0.487044 -4.00222,0.5717463 -1.35526,0.084702 -2.45638,0.042352 -2.41402,0.2541124 0.0424,0.2117607 1.22817,0.6776141 2.49874,0.8893754 1.27057,0.2117614 2.62579,0.1694107 3.81164,-0.04235 1.18585,-0.2117611 2.20228,-0.5929229 2.8799,-0.9740877 0.67762,-0.3811647 1.01643,-0.7623162 0.99525,-1.0376092 -0.0212,-0.275293 -0.40235,-0.4446962 -0.76232,-0.5293962 -0.35998,-0.0847 -0.69881,-0.0847 -1.10115,0.084709 z"
         id="path37"
         inkscape:path-effect="#path-effect37"
         inkscape:original-d="m 841.48299,-5.209241 c -0.46588,0.3388125 -0.93173,0.6776249 -1.39761,1.0164374 -1.60938,0.2117619 -3.21871,0.4235153 -4.82806,0.6352733 -1.10117,-0.042352 -2.20229,-0.084703 -3.30343,-0.1270548 1.18586,0.4658765 2.37167,0.9317342 3.55754,1.3976013 1.35527,-0.042352 2.71049,-0.084703 4.06574,-0.1270547 1.01645,-0.3811717 2.03288,-0.7623278 3.0493,-1.1434918 0.33882,-0.3811717 0.67762,-0.7623281 1.01645,-1.1434919 -0.38119,-0.1694097 -0.76235,-0.3388124 -1.1435,-0.5082188 -0.3388,0 -0.67763,0 -1.01643,0 z"
         transform="translate(1.0164373,14.73834)" /></g></g></svg>
