<?xml version="1.0" encoding="UTF-8" standalone="no"?>
<!-- Created with Inkscape (http://www.inkscape.org/) -->

<svg
   width="31.72821"
   height="35.762798"
   viewBox="0 0 8.3947555 9.4622404"
   version="1.1"
   id="svg1"
   xmlns="http://www.w3.org/2000/svg"
   xmlns:svg="http://www.w3.org/2000/svg">
  <defs
     id="defs1" />
  <g
     id="layer1"
     transform="translate(-5.9475323,47.923801)">
    <path
       style="font-size:9.87777px;font-family:'Javanese Text';-inkscape-font-specification:'Javanese Text';text-align:center;text-anchor:middle;fill:#40446e;fill-rule:evenodd;stroke:#00043d;stroke-width:1.34161;stroke-linecap:round;stroke-linejoin:round;paint-order:stroke fill markers"
       d="m 10.157852,-39.132172 q -0.2005942,-0.763553 -0.575899,-1.430042 -0.3688344,-0.672961 -1.4365122,-2.083589 -0.7829639,-1.035325 -0.9641455,-1.313567 -0.2976557,-0.452954 -0.433542,-0.828261 -0.129416,-0.381776 -0.129416,-0.770021 0,-0.718256 0.4788373,-1.203565 0.4788373,-0.485307 1.1841519,-0.485307 0.7117853,0 1.2359183,0.504719 0.3947171,0.375305 0.6406062,1.119444 0.213536,-0.731197 0.601782,-1.112972 0.537075,-0.517663 1.24239,-0.517663 0.698843,0 1.184152,0.485309 0.485308,0.478837 0.485308,1.145326 0,0.582371 -0.284714,1.216507 -0.284714,0.627664 -1.100032,1.650047 -1.061208,1.339452 -1.546516,2.200063 -0.381776,0.679432 -0.582369,1.423572 z"
       id="text3" />
  </g>
</svg>
