<?xml version="1.0" encoding="UTF-8" standalone="no"?>
<!-- Created with Inkscape (http://www.inkscape.org/) -->

<svg
   width="177.4281"
   height="135.65433"
   viewBox="0 0 46.944517 35.891874"
   version="1.1"
   id="svg1"
   inkscape:version="1.3.2 (091e20e, 2023-11-25, custom)"
   sodipodi:docname="Card.svg"
   xml:space="preserve"
   xmlns:inkscape="http://www.inkscape.org/namespaces/inkscape"
   xmlns:sodipodi="http://sodipodi.sourceforge.net/DTD/sodipodi-0.dtd"
   xmlns="http://www.w3.org/2000/svg"
   xmlns:svg="http://www.w3.org/2000/svg"><sodipodi:namedview
     id="namedview1"
     pagecolor="#ffffff"
     bordercolor="#000000"
     borderopacity="0.25"
     inkscape:showpageshadow="2"
     inkscape:pageopacity="0.0"
     inkscape:pagecheckerboard="0"
     inkscape:deskcolor="#d1d1d1"
     inkscape:document-units="mm"
     showgrid="true"
     inkscape:zoom="1.0167041"
     inkscape:cx="1420.2756"
     inkscape:cy="-209.99227"
     inkscape:window-width="1920"
     inkscape:window-height="1010"
     inkscape:window-x="1699"
     inkscape:window-y="-6"
     inkscape:window-maximized="1"
     inkscape:current-layer="layer1"><inkscape:grid
       id="grid1"
       units="mm"
       originx="-395.0737"
       originy="49.389412"
       spacingx="63.999999"
       spacingy="63.999999"
       empcolor="#0099e5"
       empopacity="0.30196078"
       color="#0099e5"
       opacity="0.14901961"
       empspacing="5"
       dotted="false"
       gridanglex="30"
       gridanglez="30"
       visible="true" /></sodipodi:namedview><defs
     id="defs1"><inkscape:path-effect
       effect="bspline"
       id="path-effect71"
       is_visible="true"
       lpeversion="1.3"
       weight="33.333333"
       steps="2"
       helper_size="0"
       apply_no_weight="true"
       apply_with_weight="true"
       only_selected="false"
       uniform="false" /><inkscape:path-effect
       effect="bspline"
       id="path-effect70"
       is_visible="true"
       lpeversion="1.3"
       weight="33.333333"
       steps="2"
       helper_size="0"
       apply_no_weight="true"
       apply_with_weight="true"
       only_selected="false"
       uniform="false" /><inkscape:path-effect
       effect="bspline"
       id="path-effect69"
       is_visible="true"
       lpeversion="1.3"
       weight="33.333333"
       steps="2"
       helper_size="0"
       apply_no_weight="true"
       apply_with_weight="true"
       only_selected="false"
       uniform="false" /><inkscape:path-effect
       effect="bspline"
       id="path-effect68"
       is_visible="true"
       lpeversion="1.3"
       weight="33.333333"
       steps="2"
       helper_size="0"
       apply_no_weight="true"
       apply_with_weight="true"
       only_selected="false"
       uniform="false" /><inkscape:path-effect
       effect="bspline"
       id="path-effect64"
       is_visible="true"
       lpeversion="1.3"
       weight="33.333333"
       steps="2"
       helper_size="0"
       apply_no_weight="true"
       apply_with_weight="true"
       only_selected="false"
       uniform="false" /><inkscape:path-effect
       effect="bspline"
       id="path-effect63"
       is_visible="true"
       lpeversion="1.3"
       weight="33.333333"
       steps="2"
       helper_size="0"
       apply_no_weight="true"
       apply_with_weight="true"
       only_selected="false"
       uniform="false" /><inkscape:path-effect
       effect="bspline"
       id="path-effect62"
       is_visible="true"
       lpeversion="1.3"
       weight="33.333333"
       steps="2"
       helper_size="0"
       apply_no_weight="true"
       apply_with_weight="true"
       only_selected="false"
       uniform="false" /><inkscape:path-effect
       effect="bspline"
       id="path-effect61"
       is_visible="true"
       lpeversion="1.3"
       weight="33.333333"
       steps="2"
       helper_size="0"
       apply_no_weight="true"
       apply_with_weight="true"
       only_selected="false"
       uniform="false" /><inkscape:path-effect
       effect="bspline"
       id="path-effect60"
       is_visible="true"
       lpeversion="1.3"
       weight="33.333333"
       steps="2"
       helper_size="0"
       apply_no_weight="true"
       apply_with_weight="true"
       only_selected="false"
       uniform="false" /><inkscape:path-effect
       effect="bspline"
       id="path-effect56"
       is_visible="true"
       lpeversion="1.3"
       weight="33.333333"
       steps="2"
       helper_size="0"
       apply_no_weight="true"
       apply_with_weight="true"
       only_selected="false"
       uniform="false" /><inkscape:path-effect
       effect="bspline"
       id="path-effect55"
       is_visible="true"
       lpeversion="1.3"
       weight="33.333333"
       steps="2"
       helper_size="0"
       apply_no_weight="true"
       apply_with_weight="true"
       only_selected="false"
       uniform="false" /></defs><g
     inkscape:label="Layer 1"
     inkscape:groupmode="layer"
     id="layer1"
     transform="translate(-395.07371,49.389412)"><path
       style="fill:#00043d;fill-opacity:1;fill-rule:evenodd;stroke:#00043d;stroke-width:1;stroke-linecap:round;stroke-linejoin:round;stroke-opacity:1;paint-order:stroke fill markers"
       d="m 477.62039,-110.94741 c 0.17349,-0.69396 0.30361,-0.95421 0.95421,-1.86505 0.6506,-0.91085 1.82164,-2.47224 3.07946,-3.77342 1.25782,-1.30119 2.60236,-2.34212 3.81681,-2.64572 1.21445,-0.3036 2.29874,0.13011 3.68667,0.19517 1.38794,0.0651 3.07945,-0.23855 4.2939,0.30362 1.21444,0.54217 1.95177,1.93008 2.73249,2.45055 0.78072,0.52046 1.60476,0.1735 2.16862,0.88916 0.56386,0.71567 0.86746,2.49391 1.01926,3.4698 0.15181,0.97589 0.15181,1.14937 0.78072,1.69154 0.62892,0.54217 1.88669,1.45298 2.23366,2.29875 0.34698,0.84578 -0.21686,1.62647 0.1952,2.3855 0.41205,0.75903 1.79998,1.49636 2.66743,2.71081 0.86745,1.21445 1.21442,2.905954 0.43369,4.011965 -0.78073,1.106011 -2.68909,1.626473 -4.07702,2.710804 -1.38793,1.084331 -2.25537,2.732464 -3.23127,4.120406 -0.97589,1.387942 -2.06018,2.515603 -3.86018,2.558965 -1.8,0.04336 -4.31556,-0.997558 -5.48663,-0.325258 -1.17106,0.6723 -0.99757,3.057752 -1.6048,4.966171 -0.60724,1.908418 -1.99514,3.339686 -3.36139,4.554125 -1.36625,1.21444 -2.71077,2.211996 -4.74932,1.45295 -2.03855,-0.759045 -4.77098,-3.274611 -6.46252,-4.163749 -1.69154,-0.889138 -2.34211,-0.151813 -3.42645,-0.737368 -1.08434,-0.585554 -2.60234,-2.493902 -2.88426,-4.597505 -0.28192,-2.103602 0.67226,-4.402308 1.14935,-6.39747 0.4771,-1.995161 0.4771,-3.686664 0.88915,-4.640863 0.41205,-0.954203 1.23612,-1.171053 2.49395,-1.669853 1.25783,-0.49879 2.94934,-1.27949 4.01197,-2.49395 1.06263,-1.21445 1.49635,-2.86258 1.82165,-4.25052 0.3253,-1.38794 0.54216,-2.5156 0.71565,-3.20956 z"
       id="path56"
       inkscape:path-effect="#path-effect56"
       inkscape:original-d="m 477.66377,-111.38114 c 0.13009,-0.26024 0.26022,-0.52048 0.39034,-0.78071 1.1711,-1.56145 2.34214,-3.12284 3.51319,-4.68426 1.34458,-1.04096 2.68912,-2.08189 4.03368,-3.12283 1.08434,0.43373 2.16863,0.86745 3.25294,1.30118 1.69156,-0.30362 3.38307,-0.60722 5.07461,-0.91083 0.73734,1.38796 1.47468,2.77586 2.21202,4.16378 0.8241,-0.34698 1.64814,-0.69396 2.47224,-1.04094 0.30361,1.77832 0.60722,3.55656 0.91083,5.33484 0,0.1735 0,0.34698 0,0.52047 1.25783,0.91085 2.5156,1.82166 3.7734,2.73249 -0.56385,0.78072 -1.12768,1.56142 -1.69153,2.34212 1.38795,0.73735 2.77588,1.47468 4.1638,2.21201 0.34698,1.69157 0.69395,3.383075 1.04093,5.074612 -1.90844,0.520483 -3.8168,1.040945 -5.72519,1.561417 -0.86746,1.648195 -1.7349,3.296327 -2.60236,4.944488 -1.08435,1.127715 -2.16863,2.255383 -3.25295,3.383074 -2.51568,-1.040966 -5.03124,-2.08189 -7.54687,-3.122837 0.17349,2.385549 0.34698,4.771001 0.52049,7.1565 -1.38798,1.431327 -2.77588,2.862598 -4.1638,4.293899 -1.34456,0.997593 -2.68909,1.995146 -4.03365,2.992718 -2.73254,-2.515669 -5.46497,-5.031235 -8.19746,-7.546854 -0.65058,0.737352 -1.30116,1.474672 -1.95175,2.21201 -1.5181,-1.90844 -3.03609,-3.8168 -4.55414,-5.7252 0.95422,-2.2988 1.90839,-4.597508 2.86258,-6.896264 0,-1.691568 0,-3.383071 0,-5.074603 0.8241,-0.21687 1.64817,-0.43373 2.47227,-0.65059 1.69156,-0.78073 3.38307,-1.56142 5.0746,-2.34213 0.43373,-1.6482 0.86746,-3.29633 1.30117,-4.94449 0.21688,-1.12772 0.43373,-2.25538 0.65061,-3.38307 z"
       transform="matrix(-0.89822968,0.43952639,0.43952639,0.89822968,894.67149,-155.0772)" /><path
       style="fill:#40446e;fill-opacity:1;fill-rule:evenodd;stroke:#40446e;stroke-width:1;stroke-linecap:round;stroke-linejoin:round;stroke-opacity:1;paint-order:stroke fill markers"
       d="m 477.31678,-110.03659 c -0.86745,0.0434 -2.60237,0.13012 -3.83849,0.28193 -1.23612,0.1518 -1.97347,0.36866 -3.16624,0.54215 -1.19276,0.17349 -2.84088,0.30361 -4.22882,0.62891 -1.38793,0.3253 -2.51561,0.84577 -3.20958,1.58311 -0.69396,0.73735 -0.95419,1.69153 -0.56383,2.51561 0.39036,0.82409 1.4313,1.51805 2.66744,1.97347 1.23614,0.45541 2.6674,0.67227 4.1204,0.97588 1.453,0.30361 2.92765,0.69396 5.13969,0.93251 2.21203,0.23855 5.16132,0.32529 7.13479,0.23854 1.97348,-0.0867 2.97101,-0.34697 3.92523,-0.58553 0.95422,-0.23855 1.86502,-0.45541 2.01682,-1.60481 0.1518,-1.14939 -0.45541,-3.23124 -1.66986,-4.46737 -1.21445,-1.23612 -3.03608,-1.62647 -4.38064,-1.99514 -1.34456,-0.36867 -2.21201,-0.71565 -3.94691,-1.01926 z"
       id="path55"
       inkscape:path-effect="#path-effect55"
       inkscape:original-d="m 478.18423,-110.07996 c -1.7349,0.0867 -3.46982,0.17349 -5.20472,0.26024 -0.73734,0.21686 -1.47469,0.43372 -2.21203,0.65058 -1.64819,0.13013 -3.29631,0.26024 -4.94448,0.39036 -1.1277,0.52048 -2.25538,1.04095 -3.38307,1.56142 -0.26024,0.95422 -0.52046,1.9084 -0.7807,2.8626 1.04095,0.69397 2.0819,1.38792 3.12282,2.08189 1.43135,0.21686 2.86261,0.43372 4.2939,0.65059 1.47471,0.39036 2.94936,0.78071 4.42402,1.17106 2.94941,0.0868 5.8987,0.17349 8.84803,0.26024 0.99762,-0.26024 1.99515,-0.52047 2.99273,-0.78071 0.91086,-0.21687 1.82166,-0.43373 2.73249,-0.65059 -0.60725,-2.08193 -1.21444,-4.16378 -1.82166,-6.24567 -1.82168,-0.39036 -3.64331,-0.78071 -5.46497,-1.17107 -0.86746,-0.34699 -2.60236,-1.04094 -2.60236,-1.04094 z"
       transform="matrix(-0.89822968,0.43952639,0.43952639,0.89822968,894.2065,-155.13938)" /><ellipse
       style="fill:#bacfba;fill-opacity:1;fill-rule:evenodd;stroke:#bacfba;stroke-width:1;stroke-linecap:round;stroke-linejoin:round;stroke-opacity:1;paint-order:stroke fill markers"
       id="path58"
       cx="-406.46344"
       cy="146.58543"
       rx="1.0331739"
       ry="0.92087239"
       transform="matrix(-0.89822968,0.43952639,0.43952639,0.89822968,0,0)" /><circle
       style="fill:#5f8d94;fill-opacity:1;fill-rule:evenodd;stroke:none;stroke-width:1;stroke-linecap:round;stroke-linejoin:round;stroke-opacity:1;paint-order:stroke fill markers"
       id="path59"
       cx="-406.32867"
       cy="146.8325"
       r="0.85349149"
       transform="matrix(-0.89822968,0.43952639,0.43952639,0.89822968,0,0)" /><path
       style="fill:#00043d;fill-opacity:1;fill-rule:evenodd;stroke:none;stroke-width:1;stroke-linecap:round;stroke-linejoin:round;stroke-opacity:1;paint-order:stroke fill markers"
       d="m 444.28724,-56.285515 c -0.0374,-0.149733 0.12728,-0.254546 0.53157,-0.516589 0.40429,-0.262043 1.04815,-0.681303 1.55724,-1.250303 0.5091,-0.569 0.88344,-1.287714 1.09307,-1.744406 0.20963,-0.456692 0.25455,-0.651362 0.35187,-0.419257 0.0973,0.232105 0.24706,0.890925 0.25455,1.415002 0.007,0.524077 -0.12727,0.913376 -0.29947,1.28772 -0.1722,0.374345 -0.38183,0.733707 -0.7412,1.01072 -0.35937,0.277012 -0.86845,0.471663 -1.26524,0.583963 -0.3968,0.112301 -0.68131,0.142249 -0.94334,0.05989 -0.26203,-0.08236 -0.50161,-0.277011 -0.53905,-0.426743 z"
       id="path60"
       inkscape:path-effect="#path-effect60"
       inkscape:original-d="m 444.0851,-56.330439 c 0.1647,-0.104815 0.32941,-0.20963 0.49414,-0.314444 0.64386,-0.419267 1.28772,-0.838518 1.93156,-1.257776 0.37436,-0.718744 0.74869,-1.437461 1.12303,-2.156191 0.0449,-0.194659 0.0899,-0.38931 0.13475,-0.583967 0.14975,0.65885 0.29948,1.31767 0.44921,1.976507 -0.13476,0.389321 -0.26951,0.778623 -0.40429,1.167936 -0.20963,0.359371 -0.41926,0.718731 -0.62888,1.078093 -0.50912,0.194662 -1.0182,0.389313 -1.52729,0.58397 -0.2845,0.02995 -0.56901,0.05989 -0.85349,0.08984 -0.23958,-0.194659 -0.47916,-0.389311 -0.71874,-0.583968 z"
       transform="matrix(-0.89822968,0.43952639,0.43952639,0.89822968,855.46221,-187.11054)" /><path
       style="fill:#00043d;fill-opacity:1;fill-rule:evenodd;stroke:none;stroke-width:1;stroke-linecap:round;stroke-linejoin:round;stroke-opacity:1;paint-order:stroke fill markers"
       d="m 441.74259,-59.646867 c -0.0582,0.03706 -0.17471,0.111173 -0.25412,0.227647 -0.0794,0.116474 -0.12176,0.275276 -0.11647,0.428796 0.005,0.15352 0.0582,0.301757 0.11117,0.455293 0.0529,0.153537 0.10588,0.312335 0.21705,0.333508 0.11118,0.02117 0.28057,-0.09529 0.38116,-0.312344 0.10059,-0.217058 0.13235,-0.534682 0.11648,-0.72526 -0.0159,-0.190577 -0.0794,-0.254119 -0.15353,-0.307056 -0.0741,-0.05294 -0.15883,-0.0953 -0.20117,-0.116468 -0.0423,-0.02117 -0.0423,-0.02117 -0.10057,0.01588 z"
       id="path61"
       inkscape:path-effect="#path-effect61"
       inkscape:original-d="m 441.80082,-59.683924 c -0.11647,0.07411 -0.23294,0.14823 -0.34941,0.222345 -0.0424,0.158821 -0.0847,0.317635 -0.12705,0.476454 0.0529,0.148232 0.10586,0.29646 0.1588,0.444693 0.053,0.158821 0.10589,0.317635 0.15883,0.476453 0.16941,-0.116469 0.3388,-0.232933 0.50821,-0.3494 0.0318,-0.317643 0.0635,-0.635273 0.0953,-0.95291 -0.0635,-0.06353 -0.12706,-0.127053 -0.19058,-0.190582 -0.0847,-0.04235 -0.16942,-0.0847 -0.25411,-0.127053 z"
       transform="matrix(-0.89822968,0.43952639,0.43952639,0.89822968,855.90251,-187.5321)" /><path
       style="fill:#00043d;fill-opacity:1;fill-rule:evenodd;stroke:none;stroke-width:1;stroke-linecap:round;stroke-linejoin:round;stroke-opacity:1;paint-order:stroke fill markers"
       d="m 447.1996,-58.224581 c 0.015,-0.0524 0.045,-0.157222 0.15726,-0.524084 0.11232,-0.366861 0.30697,-0.995742 0.42675,-1.452435 0.11979,-0.456692 0.16471,-0.741198 0.26204,-0.973289 0.0973,-0.232091 0.24706,-0.411764 0.34439,-0.19464 0.0973,0.217123 0.14225,0.83103 0.14973,1.340134 0.007,0.509104 -0.0225,0.913376 -0.0749,1.212854 -0.0524,0.299479 -0.12729,0.49412 -0.3444,0.583963 -0.21711,0.08984 -0.57647,0.07487 -0.75616,0.06738 -0.17969,-0.0075 -0.17969,-0.0075 -0.16471,-0.05989 z"
       id="path62"
       inkscape:path-effect="#path-effect62"
       inkscape:original-d="m 447.18462,-58.172183 c 0.0299,-0.104814 0.0599,-0.209629 0.0899,-0.314444 0.19465,-0.628901 0.38931,-1.257779 0.58396,-1.886667 0.0449,-0.284501 0.0899,-0.568994 0.13475,-0.85349 0.14976,-0.179686 0.29948,-0.359365 0.44921,-0.539049 0.0449,0.613929 0.0899,1.227831 0.13478,1.841746 -0.03,0.404294 -0.0599,0.80857 -0.0899,1.212856 -0.0749,0.194659 -0.14973,0.389313 -0.22461,0.583969 -0.35935,-0.01497 -0.71871,-0.02995 -1.07809,-0.04492 z"
       transform="matrix(-0.89822968,0.43952639,0.43952639,0.89822968,855.90251,-187.5321)" /><path
       style="fill:#40446e;fill-opacity:1;fill-rule:evenodd;stroke:none;stroke-width:1;stroke-linecap:round;stroke-linejoin:round;stroke-opacity:1;paint-order:stroke fill markers"
       d="m 447.94177,-54.5488 c -0.49763,0.910557 -1.49288,2.731675 -2.55168,4.213989 -1.05879,1.482313 -2.1811,2.625791 -3.09166,3.716353 -0.91057,1.090562 -1.60935,2.128157 -1.95875,2.848134 -0.3494,0.719978 -0.3494,1.122312 0.14824,0.815253 0.49764,-0.307059 1.49288,-1.32347 2.48816,-2.170514 0.99528,-0.847045 1.99051,-1.524653 2.81637,-2.350516 0.82585,-0.825862 1.4823,-1.799939 1.97993,-2.869324 0.49763,-1.069386 0.83644,-2.234023 1.01643,-2.964594 0.18,-0.73057 0.20116,-1.027021 0.11645,-1.312894 -0.0847,-0.285873 -0.27529,-0.561151 -0.37059,-0.698797 -0.0953,-0.137647 -0.0953,-0.137647 -0.5929,0.77291 z"
       id="path63"
       inkscape:path-effect="#path-effect63"
       inkscape:original-d="m 448.4394,-55.459357 c -0.99525,1.821117 -1.99051,3.642233 -2.98577,5.46335 -1.12233,1.143513 -2.24464,2.286984 -3.36695,3.430476 -0.69882,1.037632 -1.39761,2.075225 -2.0964,3.112839 0,0.402346 0,0.80468 0,1.207018 0.99528,-1.016457 1.99051,-2.032875 2.98579,-3.049312 0.99529,-0.677638 1.99052,-1.355249 2.98577,-2.032873 0.65646,-0.974106 1.31292,-1.948172 1.96935,-2.922257 0.33883,-1.164693 0.67762,-2.329336 1.01645,-3.494005 0.0212,-0.296466 0.0423,-0.592921 0.0635,-0.889381 -0.19058,-0.275291 -0.38116,-0.550572 -0.57177,-0.825855 z"
       transform="matrix(-0.89822968,0.43952639,0.43952639,0.89822968,855.44845,-187.59282)" /><path
       style="fill:#40446e;fill-opacity:1;fill-rule:evenodd;stroke:none;stroke-width:1;stroke-linecap:round;stroke-linejoin:round;stroke-opacity:1;paint-order:stroke fill markers"
       d="m 448.61942,-54.855851 c -0.0529,0.07412 -0.0529,0.434105 0.0318,1.291736 0.0847,0.857632 0.25411,2.212855 0.40234,3.599884 0.14823,1.387028 0.27528,2.805777 0.45527,4.012807 0.17999,1.207029 0.41292,2.202275 0.91056,2.901077 0.49764,0.698802 1.25995,1.101129 1.6623,1.122306 0.40235,0.02118 0.4447,-0.338807 0.21176,-1.016444 -0.23294,-0.677637 -0.74115,-1.672881 -1.13291,-2.678738 -0.39176,-1.005857 -0.66704,-2.022271 -0.93174,-3.134013 -0.2647,-1.111742 -0.5188,-2.318736 -0.74115,-3.292829 -0.22234,-0.974092 -0.41292,-1.715231 -0.56115,-2.191689 -0.14823,-0.476457 -0.25411,-0.688216 -0.30704,-0.614097 z"
       id="path64"
       inkscape:path-effect="#path-effect64"
       inkscape:original-d="m 448.56648,-55.141722 c 0,0.35999 0,0.719976 0,1.079966 0.16939,1.355275 0.3388,2.710497 0.50821,4.065749 0.12706,1.418804 0.25411,2.837553 0.38116,4.256331 0.23294,0.99528 0.46588,1.990523 0.69879,2.985783 0.76235,0.402349 1.52466,0.80468 2.28701,1.207021 0.0423,-0.359997 0.0847,-0.719976 0.12705,-1.079966 -0.50824,-0.99528 -1.01645,-1.990524 -1.52466,-2.985783 -0.2753,-1.016458 -0.55057,-2.032876 -0.82587,-3.049312 -0.25411,-1.207045 -0.50821,-2.41404 -0.76232,-3.621059 -0.19058,-0.741166 -0.38116,-1.482304 -0.57174,-2.223457 -0.10588,-0.211762 -0.21177,-0.423514 -0.31763,-0.635273 z"
       transform="matrix(-0.89822968,0.43952639,0.43952639,0.89822968,854.80502,-188.76319)" /><path
       id="path66"
       style="fill:#5f8d94;fill-opacity:1;fill-rule:evenodd;stroke:#5f8d94;stroke-width:1;stroke-linecap:round;stroke-linejoin:round;stroke-opacity:1;paint-order:stroke fill markers"
       d="m 405.35244,-48.500615 c 0.26463,-0.128375 0.5435,-0.231355 0.84958,-0.296628 0.78873,-0.168188 1.7614,-0.08294 2.80801,0.162057 0.0133,0.04772 0.0291,0.0936 0.0401,0.14319 0.18054,0.811848 0.0916,1.855672 -1.50463,2.920146 -1.59623,1.064466 -4.6995,2.149324 -6.25688,4.144956 -1.55736,1.995641 -1.56893,4.901862 -1.79365,7.679049 -0.22471,2.777191 -0.66248,5.425247 -0.44934,7.121348 0.21313,1.696096 1.07692,2.439991 2.52372,3.182337 1.44681,0.742343 3.47638,1.483031 5.1281,1.758373 1.65172,0.275339 2.92559,0.08537 4.55557,-0.228788 1.62999,-0.314157 3.61604,-0.752601 5.62602,-0.08579 2.00997,0.666808 4.04415,2.438937 5.74022,3.00932 1.69606,0.570382 3.05418,-0.06086 4.39972,-0.78595 1.34555,-0.725088 2.67841,-1.544096 4.04172,-2.777978 1.3633,-1.23388 2.75678,-2.882626 3.97874,-4.030685 0.77616,-0.729221 1.46473,-1.238093 2.01176,-1.608618 0.21985,1.708783 -0.22642,3.450113 -0.81247,4.27 -0.71661,1.002554 -1.62476,0.626133 -2.75335,2.168254 -1.12859,1.542126 -2.47726,5.003023 -3.97472,6.580816 -1.49746,1.577789 -3.14393,1.272653 -4.90491,0.782311 -1.76097,-0.490345 -3.63646,-1.166193 -5.02069,-2.613495 -1.38424,-1.447299 -2.27708,-3.666065 -3.62445,-3.755233 -1.34739,-0.08916 -3.14939,1.951223 -4.78527,2.703422 -1.63587,0.7522 -3.10528,0.216308 -4.5919,-0.601448 -1.48662,-0.817756 -2.99035,-1.917116 -4.71362,-2.28106 -1.72327,-0.363946 -3.666,0.0071 -4.85339,-0.643213 -1.1874,-0.6503 -1.61917,-2.321813 -1.37379,-3.793935 0.24539,-1.472123 1.16803,-2.74462 1.20453,-3.60751 0.0365,-0.862886 -0.81336,-1.31605 -0.87344,-2.228248 -0.0601,-0.912203 0.6695,-2.283584 0.99611,-3.047 0.32661,-0.76342 0.25054,-0.91914 -0.042,-1.862434 -0.29257,-0.943289 -0.80152,-2.673702 -0.60961,-3.564356 0.19192,-0.890668 1.08474,-0.941477 1.55724,-1.752112 0.47251,-0.810649 0.52448,-2.381184 1.37703,-3.40196 0.85255,-1.020771 2.50517,-1.491699 3.72326,-2.16017 0.91357,-0.501349 1.58277,-1.11387 2.37667,-1.49895 z" /><path
       style="fill:#40446e;fill-opacity:1;fill-rule:evenodd;stroke:none;stroke-width:1;stroke-linecap:round;stroke-linejoin:round;stroke-opacity:1;paint-order:stroke fill markers"
       d="m 465.79673,-60.642815 c -0.03,-0.179683 0.17968,-0.179683 0.70376,-0.119788 0.52409,0.0599 1.36258,0.179679 2.09629,0.149729 0.73372,-0.02995 1.36259,-0.209628 1.58719,-0.134758 0.2246,0.07487 0.0449,0.404285 -0.20963,0.74868 -0.25455,0.344396 -0.58396,0.70375 -1.19789,0.74867 -0.61392,0.04492 -1.51231,-0.224597 -2.09628,-0.539046 -0.58398,-0.314449 -0.8535,-0.673804 -0.88344,-0.853487 z"
       id="path67"
       inkscape:path-effect="#path-effect68"
       inkscape:original-d="m 465.55715,-60.822498 c 0.20963,0 0.41926,0 0.62889,0 0.83854,0.11979 1.67703,0.239575 2.51555,0.359362 0.62891,-0.179683 1.25778,-0.359362 1.88666,-0.539046 -0.17967,0.329425 -0.35935,0.658837 -0.53903,0.988253 -0.32943,0.359373 -0.65884,0.71873 -0.98827,1.078095 -0.89842,-0.269528 -1.79681,-0.539046 -2.69523,-0.808572 -0.26953,-0.35937 -0.53904,-0.71873 -0.80857,-1.078092 z"
       transform="matrix(-0.89822968,0.43952639,0.43952639,0.89822968,855.90251,-187.5321)" /><path
       style="fill:#40446e;fill-opacity:1;fill-rule:evenodd;stroke:none;stroke-width:1;stroke-linecap:round;stroke-linejoin:round;stroke-opacity:1;paint-order:stroke fill markers"
       d="m 467.09942,-59.400016 c 0.25454,-0.104817 0.52407,-0.04492 0.88344,0.07487 0.35937,0.11979 0.80858,0.299472 1.12303,0.464182 0.31444,0.16471 0.49412,0.314443 0.34438,0.479153 -0.14974,0.16471 -0.62888,0.344388 -0.86846,0.703759 -0.23958,0.359371 -0.23958,0.89841 -0.52408,1.00322 -0.28451,0.104809 -0.8535,-0.224606 -1.18291,-0.643872 -0.32942,-0.419266 -0.41926,-0.928346 -0.34439,-1.31766 0.0749,-0.389313 0.31445,-0.658834 0.56899,-0.763651 z"
       id="path68"
       inkscape:path-effect="#path-effect69"
       inkscape:original-d="m 467.08446,-59.564722 c 0.2695,0.05989 0.53903,0.119788 0.80856,0.179681 0.44921,0.179687 0.89842,0.359366 1.34763,0.539049 0.17968,0.149739 0.35936,0.299469 0.53904,0.449205 -0.47916,0.179686 -0.9583,0.359365 -1.43746,0.539048 0,0.539057 0,1.078096 0,1.617142 -0.56901,-0.329425 -1.138,-0.658837 -1.70698,-0.988253 -0.0899,-0.509112 -0.17968,-1.018202 -0.26953,-1.527302 0.23958,-0.269529 0.47916,-0.539047 0.71874,-0.80857 z"
       transform="matrix(-0.89822968,0.43952639,0.43952639,0.89822968,855.90251,-187.5321)" /><path
       style="fill:#bacfba;fill-opacity:1;fill-rule:evenodd;stroke:none;stroke-width:1;stroke-linecap:round;stroke-linejoin:round;stroke-opacity:1;paint-order:stroke fill markers"
       d="m 440.49146,-43.617906 c -0.0899,0.314447 -0.26953,0.943334 -0.32943,1.242802 -0.0599,0.299468 10e-6,0.26952 0.13476,0.02994 0.13476,-0.239577 0.34439,-0.688775 0.40429,-0.988239 0.0599,-0.299464 -0.0299,-0.449217 -0.0749,-0.524084 -0.0449,-0.07487 -0.0449,-0.07487 -0.13476,0.239579 z"
       id="path69"
       inkscape:path-effect="#path-effect70"
       inkscape:original-d="m 440.5813,-43.932353 c -0.1797,0.628891 -0.35938,1.257779 -0.53906,1.886667 0.0599,-0.02995 0.1198,-0.05989 0.17968,-0.08984 0.20963,-0.449215 0.41926,-0.898411 0.62889,-1.347618 -0.0898,-0.149738 -0.17968,-0.299471 -0.26951,-0.449207 z"
       transform="matrix(-0.89822968,0.43952639,0.43952639,0.89822968,855.90251,-187.5321)" /><path
       style="fill:#bacfba;fill-opacity:1;fill-rule:evenodd;stroke:none;stroke-width:1;stroke-linecap:round;stroke-linejoin:round;stroke-opacity:1;paint-order:stroke fill markers"
       d="m 452.4029,-43.969784 c -0.0374,0.05241 0.0225,0.202139 0.17219,0.494127 0.14974,0.291988 0.38932,0.726214 0.53906,0.913381 0.14974,0.187166 0.20962,0.127281 0.12727,-0.142248 -0.0824,-0.269529 -0.30696,-0.748676 -0.48664,-1.010712 -0.17968,-0.262036 -0.31445,-0.306958 -0.35188,-0.254548 z"
       id="path70"
       inkscape:path-effect="#path-effect71"
       inkscape:original-d="m 452.30557,-44.067113 c 0.0599,0.149736 0.11978,0.299471 0.17968,0.449204 0.23958,0.434242 0.47916,0.868466 0.71874,1.3027 0.0599,-0.0599 0.11978,-0.11979 0.17968,-0.179684 -0.2246,-0.479163 -0.44921,-0.958305 -0.67381,-1.43746 -0.13476,-0.04492 -0.26953,-0.08984 -0.40429,-0.13476 z"
       transform="matrix(-0.89822968,0.43952639,0.43952639,0.89822968,855.90251,-187.5321)" /></g></svg>
