<?xml version="1.0" encoding="UTF-8" standalone="no"?>
<!-- Created with Inkscape (http://www.inkscape.org/) -->

<svg
   width="135.36865"
   height="150.45348"
   viewBox="0 0 35.816288 39.807482"
   version="1.1"
   id="svg1"
   inkscape:version="1.3.2 (091e20e, 2023-11-25, custom)"
   sodipodi:docname="Card.svg"
   xml:space="preserve"
   xmlns:inkscape="http://www.inkscape.org/namespaces/inkscape"
   xmlns:sodipodi="http://sodipodi.sourceforge.net/DTD/sodipodi-0.dtd"
   xmlns="http://www.w3.org/2000/svg"
   xmlns:svg="http://www.w3.org/2000/svg"><sodipodi:namedview
     id="namedview1"
     pagecolor="#ffffff"
     bordercolor="#000000"
     borderopacity="0.25"
     inkscape:showpageshadow="2"
     inkscape:pageopacity="0.0"
     inkscape:pagecheckerboard="0"
     inkscape:deskcolor="#d1d1d1"
     inkscape:document-units="mm"
     showgrid="true"
     inkscape:zoom="2.0334082"
     inkscape:cx="187.86194"
     inkscape:cy="119.74969"
     inkscape:window-width="1920"
     inkscape:window-height="1010"
     inkscape:window-x="1698"
     inkscape:window-y="-7"
     inkscape:window-maximized="1"
     inkscape:current-layer="layer1"><inkscape:grid
       id="grid1"
       units="mm"
       originx="-265.81585"
       originy="55.342777"
       spacingx="63.999999"
       spacingy="63.999999"
       empcolor="#0099e5"
       empopacity="0.30196078"
       color="#0099e5"
       opacity="0.14901961"
       empspacing="5"
       dotted="false"
       gridanglex="30"
       gridanglez="30"
       visible="true" /></sodipodi:namedview><defs
     id="defs1"><inkscape:path-effect
       effect="bspline"
       id="path-effect44"
       is_visible="true"
       lpeversion="1.3"
       weight="33.333333"
       steps="2"
       helper_size="0"
       apply_no_weight="true"
       apply_with_weight="true"
       only_selected="false"
       uniform="false" /><inkscape:path-effect
       effect="bspline"
       id="path-effect43"
       is_visible="true"
       lpeversion="1.3"
       weight="33.333333"
       steps="2"
       helper_size="0"
       apply_no_weight="true"
       apply_with_weight="true"
       only_selected="false"
       uniform="false" /><inkscape:path-effect
       effect="bspline"
       id="path-effect42"
       is_visible="true"
       lpeversion="1.3"
       weight="33.333333"
       steps="2"
       helper_size="0"
       apply_no_weight="true"
       apply_with_weight="true"
       only_selected="false"
       uniform="false" /><inkscape:path-effect
       effect="bspline"
       id="path-effect41"
       is_visible="true"
       lpeversion="1.3"
       weight="33.333333"
       steps="2"
       helper_size="0"
       apply_no_weight="true"
       apply_with_weight="true"
       only_selected="false"
       uniform="false" /><inkscape:path-effect
       effect="bspline"
       id="path-effect40"
       is_visible="true"
       lpeversion="1.3"
       weight="33.333333"
       steps="2"
       helper_size="0"
       apply_no_weight="true"
       apply_with_weight="true"
       only_selected="false"
       uniform="false" /><inkscape:path-effect
       effect="bspline"
       id="path-effect34"
       is_visible="true"
       lpeversion="1.3"
       weight="33.333333"
       steps="2"
       helper_size="0"
       apply_no_weight="true"
       apply_with_weight="true"
       only_selected="false"
       uniform="false" /><inkscape:path-effect
       effect="bspline"
       id="path-effect33"
       is_visible="true"
       lpeversion="1.3"
       weight="33.333333"
       steps="2"
       helper_size="0"
       apply_no_weight="true"
       apply_with_weight="true"
       only_selected="false"
       uniform="false" /><inkscape:path-effect
       effect="bspline"
       id="path-effect32"
       is_visible="true"
       lpeversion="1.3"
       weight="33.333333"
       steps="2"
       helper_size="0"
       apply_no_weight="true"
       apply_with_weight="true"
       only_selected="false"
       uniform="false" /><inkscape:path-effect
       effect="bspline"
       id="path-effect26"
       is_visible="true"
       lpeversion="1.3"
       weight="33.333333"
       steps="2"
       helper_size="0"
       apply_no_weight="true"
       apply_with_weight="true"
       only_selected="false"
       uniform="false" /><inkscape:path-effect
       effect="bspline"
       id="path-effect17"
       is_visible="true"
       lpeversion="1.3"
       weight="33.333333"
       steps="2"
       helper_size="0"
       apply_no_weight="true"
       apply_with_weight="true"
       only_selected="false"
       uniform="false" /><inkscape:path-effect
       effect="bspline"
       id="path-effect6"
       is_visible="true"
       lpeversion="1.3"
       weight="33.333333"
       steps="2"
       helper_size="0"
       apply_no_weight="true"
       apply_with_weight="true"
       only_selected="false"
       uniform="false" /><inkscape:path-effect
       effect="bspline"
       id="path-effect3"
       is_visible="true"
       lpeversion="1.3"
       weight="33.333333"
       steps="2"
       helper_size="0"
       apply_no_weight="true"
       apply_with_weight="true"
       only_selected="false"
       uniform="false" /><inkscape:path-effect
       effect="bspline"
       id="path-effect2"
       is_visible="true"
       lpeversion="1.3"
       weight="33.333333"
       steps="2"
       helper_size="0"
       apply_no_weight="true"
       apply_with_weight="true"
       only_selected="false"
       uniform="false" /></defs><g
     inkscape:label="Layer 1"
     inkscape:groupmode="layer"
     id="layer1"
     transform="translate(-265.81586,55.342777)"><g
       id="g44"
       transform="matrix(0.772689,0,0,0.772689,41.32011,5.8189574)"><path
         style="fill:#fffddb;fill-opacity:1;fill-rule:evenodd;stroke:#fffddb;stroke-width:1;stroke-linecap:round;stroke-linejoin:round;stroke-opacity:1;paint-order:stroke fill markers"
         d="m 249.47988,-81.302163 c 0.13012,-0.71565 0.30361,-1.01926 0.93253,-1.951787 0.62891,-0.932528 1.71321,-2.493917 3.75266,-4.132476 2.03945,-1.638559 5.03385,-3.354155 7.57211,-4.342128 2.53826,-0.987972 4.62008,-1.2482 6.24658,-1.139766 1.6265,0.108433 2.79753,0.585519 2.10764,1.710149 -0.68989,1.124631 -3.24058,2.896669 -3.39239,5.087041 -0.15181,2.190373 2.09529,4.798782 3.13216,6.49344 1.03688,1.694659 0.86339,2.475337 -0.39534,3.376556 -1.25873,0.901219 -3.60263,1.922908 -4.90472,3.10605 -1.30208,1.183142 -1.56231,2.527669 -1.97436,3.742115 -0.41205,1.214445 -0.97588,2.298744 -2.12528,2.493915 -1.14939,0.195171 -2.88426,-0.498778 -4.33726,-1.626485 -1.453,-1.127708 -2.62404,-2.689095 -3.73005,-4.402336 -1.10602,-1.71324 -2.14694,-3.578227 -2.62404,-5.074601 -0.4771,-1.496373 -0.39036,-2.624037 -0.26024,-3.339687 z"
         id="path33"
         inkscape:path-effect="#path-effect34"
         inkscape:original-d="m 249.43651,-81.714204 c 0.17349,-0.303609 0.34698,-0.607219 0.52047,-0.910826 1.08434,-1.561449 2.16864,-3.122837 3.25296,-4.684254 2.99458,-1.715701 5.98898,-3.431294 8.98356,-5.146999 2.08194,-0.260242 4.16376,-0.52047 6.24568,-0.780711 1.17108,0.477108 2.34211,0.954191 3.51319,1.4313 -2.55086,1.772153 -5.10155,3.544195 -7.65242,5.316351 2.24725,2.608586 4.49435,5.216993 6.7416,7.825583 -0.1735,0.780729 -0.34699,1.561407 -0.52049,2.342128 -2.34396,1.021719 -4.68786,2.043406 -7.03179,3.065109 -0.26024,1.344581 -0.52047,2.689109 -0.78071,4.033663 -0.56385,1.084339 -1.12769,2.168636 -1.69154,3.252954 -1.73494,-0.693978 -3.46981,-1.387927 -5.20472,-2.08189 -1.17109,-1.561449 -2.34213,-3.122837 -3.51319,-4.684254 -1.04097,-1.865064 -2.08189,-3.730054 -3.12284,-5.59508 0.0868,-1.127715 0.17349,-2.255383 0.26024,-3.383074 z"
         transform="translate(59.390487,14.236776)"
         sodipodi:nodetypes="cccccccccccccccc" /><path
         style="fill:#f98867;fill-opacity:0.705882;fill-rule:evenodd;stroke:none;stroke-width:1;stroke-linecap:round;stroke-linejoin:round;stroke-opacity:0.705882;paint-order:stroke fill markers"
         d="m 262.20584,-60.004181 c 0.72073,-0.01534 2.16218,-0.046 3.28161,-0.168686 1.11944,-0.122681 1.91681,-0.337357 3.09759,-0.736062 1.18079,-0.398706 2.74487,-0.981403 4.03299,-1.732806 1.28811,-0.751404 2.30018,-1.671472 2.74488,-2.68356 0.4447,-1.012088 0.32203,-2.116157 -0.55206,-3.051573 -0.87408,-0.935417 -2.49948,-1.702114 -3.76772,-2.294762 -1.26823,-0.592648 -2.17918,-1.011191 -3.03024,-1.402219 -0.85106,-0.391027 -1.64224,-0.754542 -2.35987,-0.345908 -0.71764,0.408633 -1.36166,1.589349 -2.1054,2.133733 -0.74374,0.544385 -1.58712,0.452379 -2.11617,0.943096 -0.52905,0.490716 -0.74373,1.564116 -0.80506,3.020919 -0.0613,1.456803 0.0307,3.296914 0.19935,4.416342 0.16868,1.119427 0.41403,1.51812 0.5367,1.717469 0.12268,0.199348 0.12268,0.199352 0.8434,0.184017 z"
         id="path32"
         inkscape:path-effect="#path-effect33"
         inkscape:original-d="m 261.48512,-59.988846 c 1.44145,-0.03067 2.8829,-0.06134 4.32434,-0.09201 0.79743,-0.214689 1.5948,-0.429369 2.39221,-0.644054 1.56416,-0.582724 3.12824,-1.165426 4.69238,-1.748139 1.01209,-0.920094 2.02417,-1.840151 3.03623,-2.760224 -0.12266,-1.104111 -0.24535,-2.208178 -0.36801,-3.312268 -1.6255,-0.766744 -3.2509,-1.533442 -4.8764,-2.300184 -0.91097,-0.418554 -1.82192,-0.837096 -2.73287,-1.25564 -0.79117,-0.363512 -1.58235,-0.727025 -2.37355,-1.09055 -0.64407,1.180789 -1.28809,2.361508 -1.93215,3.542285 -0.84342,-0.09201 -1.6868,-0.184015 -2.53021,-0.276023 -0.21469,1.073441 -0.42937,2.14684 -0.64405,3.22026 0.092,1.840187 0.18402,3.680298 0.27602,5.520446 0.24536,0.398706 0.49071,0.797399 0.73606,1.196097 z"
         transform="translate(61.27695,12.421004)"
         sodipodi:nodetypes="sccccccccccccss" /><path
         style="fill:#f98867;fill-opacity:0.705882;fill-rule:evenodd;stroke:none;stroke-width:1;stroke-linecap:round;stroke-linejoin:round;stroke-opacity:0.705882;paint-order:stroke fill markers"
         d="m 275.65426,-36.158921 c 0,0 0,0 0,0 -1.65613,2.668215 -3.31226,5.336431 -4.24767,7.253265 -0.93541,1.916833 -1.15009,3.082238 -1.13475,3.971646 0.0153,0.889409 0.26067,1.502783 0.99674,1.364764 0.73607,-0.13802 1.96281,-1.027406 3.26627,-2.3462 1.30345,-1.318795 2.68354,-3.066906 3.58828,-4.508364 0.90475,-1.441458 1.33411,-2.576192 1.28811,-3.312254 -0.046,-0.736061 -0.56737,-1.07341 -1.08876,-1.42611 -0.52139,-0.352701 -1.04275,-0.72072 -1.48746,-0.889401 -0.44471,-0.168682 -0.81272,-0.138013 -0.99674,-0.122678 -0.18402,0.01534 -0.18402,0.01533 -0.18402,0.01533 z"
         id="path31"
         inkscape:path-effect="#path-effect32"
         inkscape:original-d="m 275.65426,-36.158921 c 0,0 0,0 0,0 0,0 -3.31226,5.336431 -4.96839,8.004646 -0.21469,1.165452 -0.42937,2.330856 -0.64405,3.496283 0.24534,0.613395 0.49069,1.226766 0.73604,1.840149 1.22679,-0.889423 2.45353,-1.778811 3.6803,-2.668216 1.38015,-1.748175 2.76024,-3.496283 4.14033,-5.244424 0.4294,-1.13478 0.85876,-2.269517 1.28813,-3.404275 -0.52139,-0.337368 -1.04275,-0.674719 -1.56414,-1.012081 -0.52139,-0.368036 -1.04275,-0.736061 -1.56414,-1.104088 -0.36803,0.03067 -0.73604,0.06134 -1.10408,0.09201 z"
         transform="translate(25.704354,-4.0864377)" /><path
         style="fill:#f98868;fill-opacity:1;fill-rule:evenodd;stroke:#f98868;stroke-width:1;stroke-linecap:round;stroke-linejoin:round;paint-order:stroke fill markers"
         d="m 270.11326,-52.895191 c -1.02421,2.5013 -1.15903,4.838218 -0.7036,7.440608 0.45542,2.60239 1.49635,5.551679 3.0361,7.828764 1.53975,2.277086 3.57823,3.881846 5.7252,4.792674 2.14698,0.910829 4.40232,1.127689 6.78784,0.715636 2.38552,-0.412054 4.90108,-1.452974 6.44082,-4.12044 1.53974,-2.667465 2.10358,-6.961279 2.34212,-9.954015 0.23855,-2.992736 0.15181,-4.684235 -0.47711,-6.26011 -0.62892,-1.575874 -1.79994,-3.036004 -3.0144,-4.395021 -1.21445,-1.359016 -2.47223,-2.616788 -4.16379,-3.505942 -1.69156,-0.889154 -3.81676,-1.409613 -5.70349,-1.518045 -1.88674,-0.108433 -3.66231,0.218646 -5.34314,1.712697 -1.68082,1.494051 -3.90233,4.761894 -4.92655,7.263194 z"
         id="path1"
         inkscape:path-effect="#path-effect2"
         inkscape:original-d="m 269.21446,-52.567736 c -0.72636,2.139176 -0.26024,4.510762 -0.39034,6.766144 1.04095,2.949403 2.08188,5.89869 3.12283,8.848035 2.03856,1.604822 4.07704,3.209581 6.11555,4.814371 2.25544,0.216869 4.51078,0.433729 6.76614,0.650592 2.51568,-1.040966 5.03124,-2.08189 7.54687,-3.122837 0.56385,-4.293984 1.12768,-8.587798 1.69153,-12.881697 -0.0868,-1.691569 -0.17349,-3.383071 -0.26024,-5.074608 -1.17109,-1.46021 -2.34211,-2.920341 -3.51319,-4.380548 -1.25783,-1.257829 -2.51561,-2.515597 -3.77344,-3.773426 -2.12529,-0.520481 -4.25049,-1.040939 -6.37577,-1.561418 -1.64819,0.303613 -3.54081,-0.0047 -4.94451,0.910828 -2.9724,1.938763 -4.84441,5.4442 -5.98543,8.804564 z"
         transform="translate(29.314698,-1.3011816)"
         sodipodi:nodetypes="accccccccccaa" /><path
         style="fill:#fffddb;fill-opacity:1;fill-rule:evenodd;stroke:#fffddb;stroke-width:1;stroke-linecap:round;stroke-linejoin:round;paint-order:stroke fill markers"
         d="m 271.6867,-40.726984 c 1.47469,0.607224 2.94937,1.214445 5.39995,1.084314 2.45059,-0.130131 5.87697,-0.997567 8.30586,-2.190329 2.42889,-1.192762 3.86016,-2.710778 5.03123,-3.730041 1.17106,-1.019263 2.08189,-1.539733 2.81813,-2.07073 0.73625,-0.530997 1.29789,-1.072505 1.4497,-0.291781 0.15181,0.780724 -0.10623,2.883621 -0.30032,4.672441 -0.19409,1.78882 -0.32421,3.263462 -0.9965,4.629716 -0.67229,1.366253 -1.88671,2.624041 -3.0144,3.491496 -1.12769,0.867455 -2.16862,1.344548 -3.92524,1.626473 -1.75662,0.281925 -4.22883,0.368669 -6.67941,-0.390371 -2.45059,-0.759041 -4.87941,-2.363795 -6.22397,-3.643298 -1.34456,-1.279503 -1.60479,-2.233686 -1.73491,-2.710788 -0.13012,-0.477102 -0.13012,-0.477102 -0.13012,-0.477102"
         id="path2"
         inkscape:path-effect="#path-effect3"
         inkscape:original-d="m 271.6867,-40.726984 c 1.47469,0.607219 2.94937,1.214438 4.42402,1.821654 3.42652,-0.867471 6.8529,-1.734908 10.27936,-2.602363 1.43131,-1.518076 2.86258,-3.036091 4.29389,-4.554135 0.91083,-0.520483 1.82166,-1.040945 2.73249,-1.561417 0.56166,-0.541519 1.1233,-1.083031 1.68497,-1.624562 -0.25805,2.10298 -0.51609,4.205877 -0.77414,6.308814 -0.13013,1.474703 -0.26025,2.949345 -0.39037,4.424018 -1.21446,1.257835 -2.42888,2.515619 -3.64331,3.773427 -1.04095,0.47711 -2.08188,0.954199 -3.12283,1.431301 -2.47229,0.08675 -4.9445,0.173489 -7.41674,0.260236 -2.42893,-1.604825 -4.85775,-3.209581 -7.28663,-4.814372 -0.26022,-0.95422 -0.52046,-1.9084 -0.78071,-2.862601 v 0"
         transform="translate(28.556313,0.19980085)"
         sodipodi:nodetypes="ccccccccccccsc" /><path
         style="fill:#40446e;fill-opacity:1;fill-rule:evenodd;stroke:#40446e;stroke-width:1;stroke-linecap:round;stroke-linejoin:round;paint-order:stroke fill markers"
         d="m 272.57585,-47.796739 c -0.45542,0.346981 -0.93251,1.171064 -1.04094,2.10359 -0.10843,0.932525 0.1518,1.973444 0.49879,2.645724 0.34698,0.67228 0.78071,0.975887 1.23613,0.954199 0.45541,-0.02169 0.93251,-0.368669 1.32286,-0.889146 0.39036,-0.520478 0.69396,-1.214429 0.75902,-1.843339 0.0651,-0.628911 -0.10842,-1.192743 -0.39035,-1.691536 -0.28193,-0.498792 -0.67228,-0.932516 -1.08432,-1.214434 -0.41204,-0.281918 -0.84578,-0.412038 -1.30119,-0.06506 z"
         id="path6"
         inkscape:path-effect="#path-effect6"
         inkscape:original-d="m 272.59753,-48.273837 c -0.47709,0.824082 -0.95419,1.648164 -1.43129,2.472245 0.26025,1.040966 0.52046,2.08189 0.78071,3.122835 0.43373,0.303617 0.86746,0.607219 1.30119,0.910828 0.4771,-0.346988 0.9542,-0.693962 1.43129,-1.040945 0.30361,-0.693978 0.60722,-1.387927 0.91083,-2.08189 -0.17349,-0.563858 -0.34697,-1.127691 -0.52046,-1.691536 -0.39037,-0.433737 -0.78073,-0.867455 -1.17107,-1.301181 -0.43373,-0.130123 -0.86747,-0.260237 -1.3012,-0.390356 z"
         transform="matrix(0.67849832,0,0,0.67849832,117.05686,-17.155725)" /><path
         style="fill:#40446e;fill-opacity:1;fill-rule:evenodd;stroke:#40446e;stroke-width:1;stroke-linecap:round;stroke-linejoin:round;paint-order:stroke fill markers"
         d="m 272.57585,-47.796739 c -0.45542,0.346981 -0.93251,1.171064 -1.04094,2.10359 -0.10843,0.932525 0.1518,1.973444 0.49879,2.645724 0.34698,0.67228 0.78071,0.975887 1.23613,0.954199 0.45541,-0.02169 0.93251,-0.368669 1.32286,-0.889146 0.39036,-0.520478 0.69396,-1.214429 0.75902,-1.843339 0.0651,-0.628911 -0.10842,-1.192743 -0.39035,-1.691536 -0.28193,-0.498792 -0.67228,-0.932516 -1.08432,-1.214434 -0.41204,-0.281918 -0.84578,-0.412038 -1.30119,-0.06506 z"
         id="path11"
         inkscape:path-effect="#path-effect17"
         inkscape:original-d="m 272.59753,-48.273837 c -0.47709,0.824082 -0.95419,1.648164 -1.43129,2.472245 0.26025,1.040966 0.52046,2.08189 0.78071,3.122835 0.43373,0.303617 0.86746,0.607219 1.30119,0.910828 0.4771,-0.346988 0.9542,-0.693962 1.43129,-1.040945 0.30361,-0.693978 0.60722,-1.387927 0.91083,-2.08189 -0.17349,-0.563858 -0.34697,-1.127691 -0.52046,-1.691536 -0.39037,-0.433737 -0.78073,-0.867455 -1.17107,-1.301181 -0.43373,-0.130123 -0.86747,-0.260237 -1.3012,-0.390356 z"
         transform="matrix(0.67849832,0,0,0.67849832,132.4108,-22.620688)" /><circle
         style="fill:#ffffff;fill-opacity:1;fill-rule:evenodd;stroke:none;stroke-width:2.00364;stroke-linecap:round;stroke-linejoin:round;stroke-opacity:0.705882;paint-order:stroke fill markers"
         id="circle34"
         cx="302.448"
         cy="-47.278015"
         r="1.0102488" /><circle
         style="fill:#ffffff;fill-opacity:1;fill-rule:evenodd;stroke:none;stroke-width:1;stroke-linecap:round;stroke-linejoin:round;stroke-opacity:0.705882;paint-order:stroke fill markers"
         id="circle36"
         cx="302.29749"
         cy="-49.213444"
         r="0.50420785" /><circle
         style="fill:#ffffff;fill-opacity:1;fill-rule:evenodd;stroke:none;stroke-width:0.548387;stroke-linecap:round;stroke-linejoin:round;stroke-opacity:0.705882;paint-order:stroke fill markers"
         id="circle37"
         cx="303.5011"
         cy="-48.465263"
         r="0.27650106" /><circle
         style="fill:#ffffff;fill-opacity:1;fill-rule:evenodd;stroke:none;stroke-width:2.00364;stroke-linecap:round;stroke-linejoin:round;stroke-opacity:0.705882;paint-order:stroke fill markers"
         id="circle38"
         cx="317.81323"
         cy="-52.706455"
         r="1.0102488" /><circle
         style="fill:#ffffff;fill-opacity:1;fill-rule:evenodd;stroke:none;stroke-width:1;stroke-linecap:round;stroke-linejoin:round;stroke-opacity:0.705882;paint-order:stroke fill markers"
         id="circle39"
         cx="317.66272"
         cy="-54.641884"
         r="0.50420785" /><circle
         style="fill:#ffffff;fill-opacity:1;fill-rule:evenodd;stroke:none;stroke-width:0.548387;stroke-linecap:round;stroke-linejoin:round;stroke-opacity:0.705882;paint-order:stroke fill markers"
         id="circle40"
         cx="318.86633"
         cy="-53.893703"
         r="0.27650106" /><path
         style="fill:#f98868;fill-opacity:0.706693;fill-rule:evenodd;stroke:#000000;stroke-width:1;stroke-linecap:round;stroke-linejoin:round;stroke-opacity:0;paint-order:stroke fill markers"
         d="m 272.23466,-62.595725 c -0.90475,-0.09201 -2.28487,-0.398702 -3.78766,-0.506041 -1.50279,-0.10734 -3.12823,-0.01533 -4.6617,-0.368036 -1.53348,-0.352703 -2.9749,-1.150084 -3.87964,-2.131509 -0.90475,-0.981426 -1.27277,-2.146828 -1.27277,-3.327603 1e-5,-1.180775 0.36803,-2.376846 1.04276,-3.281591 0.67473,-0.904745 1.65613,-1.518118 2.97492,-1.518111 1.31879,8e-6 2.97488,0.613376 4.26299,1.426109 1.2881,0.812732 2.20818,1.824813 3.34294,2.928902 1.13476,1.104089 2.48421,2.300189 3.83365,3.496285 0.30669,0.889405 0.61338,1.778803 0.59803,2.300185 -0.0153,0.521382 -0.35268,0.674718 -0.73605,0.81273 -0.38336,0.138011 -0.81273,0.260688 -1.71747,0.16868 z"
         id="path26"
         inkscape:path-effect="#path-effect26"
         inkscape:original-d="m 272.71003,-62.381039 c -1.38012,-0.306692 -2.76024,-0.613384 -4.14033,-0.920076 -1.62549,0.09201 -3.25093,0.184016 -4.8764,0.276024 -1.44148,-0.797414 -2.8829,-1.594794 -4.32435,-2.392193 -0.36804,-1.165452 -0.73606,-2.330855 -1.10409,-3.496283 0.36804,-1.196121 0.73606,-2.392193 1.10409,-3.58829 0.98143,-0.613394 1.96283,-1.226764 2.94424,-1.840148 1.65617,0.613394 3.31226,1.226765 4.96839,1.840148 0.92008,1.012082 1.84016,2.024163 2.76024,3.036245 1.34944,1.196097 2.69889,2.392195 4.04833,3.588292 0,0 0.61336,1.778809 0.92007,2.668214 -0.33738,0.15335 -0.67472,0.306692 -1.01209,0.460037 -0.42936,0.122679 -0.85873,0.245353 -1.2881,0.36803 z"
         transform="translate(32.40544,3.4265998)"
         sodipodi:nodetypes="cccccccaccccc" /><path
         style="fill:#7f1f0f;fill-opacity:1;fill-rule:evenodd;stroke:#7f1f0f;stroke-width:1;stroke-linecap:round;stroke-linejoin:round;stroke-opacity:1;paint-order:stroke fill markers"
         d="m 312.54925,-45.052972 c -0.18402,-0.06134 -0.55206,-0.184019 -1.11944,-0.09201 -0.56739,0.09201 -1.3341,0.398694 -1.80948,0.782064 -0.47537,0.383369 -0.65937,0.843393 -0.6287,1.288101 0.0307,0.444709 0.27601,0.874068 0.69006,1.150095 0.41405,0.276026 0.99674,0.398696 1.62547,0.337355 0.62873,-0.06134 1.30342,-0.306683 1.70213,-0.751394 0.3987,-0.44471 0.52136,-1.088754 0.53669,-1.548792 0.0153,-0.460038 -0.0767,-0.736053 -0.23001,-0.889401 -0.15334,-0.153348 -0.36802,-0.184017 -0.47537,-0.199353 -0.10734,-0.01534 -0.10734,-0.01533 -0.29135,-0.07667 z"
         id="path40"
         inkscape:path-effect="#path-effect40"
         inkscape:original-d="m 312.73326,-44.991633 c -0.36803,-0.122677 -0.73607,-0.245354 -1.10408,-0.36803 -0.76676,0.306697 -1.53347,0.613383 -2.30021,0.920072 -0.18401,0.460047 -0.368,0.920076 -0.55202,1.380112 0.24535,0.429376 0.49069,0.858737 0.73604,1.288105 0.58275,0.12268 1.16544,0.245354 1.74816,0.36803 0.67474,-0.245358 1.34943,-0.490706 2.02417,-0.73606 0.12266,-0.644064 0.24534,-1.288105 0.368,-1.932157 -0.092,-0.276026 -0.18399,-0.552045 -0.27601,-0.828066 -0.21468,-0.03067 -0.42936,-0.06134 -0.64405,-0.09201 z" /><path
         style="fill:#fffddb;fill-opacity:1;fill-rule:evenodd;stroke:#fffddb;stroke-width:1;stroke-linecap:round;stroke-linejoin:round;stroke-opacity:1;paint-order:stroke fill markers"
         d="m 302.96515,-39.440523 c -0.0153,-0.06134 -0.046,-0.184027 0.16869,-0.475383 0.2147,-0.291357 0.67473,-0.751384 1.07343,-0.966065 0.3987,-0.21468 0.73604,-0.184012 1.04274,-0.291354 0.30669,-0.107341 0.58271,-0.352686 0.90474,-0.137998 0.32204,0.214687 0.69005,0.88939 0.96608,1.334096 0.27602,0.444706 0.46004,0.659389 -0.0154,0.828069 -0.47539,0.16868 -1.61011,0.291352 -2.40751,0.245349 -0.7974,-0.046 -1.25744,-0.260688 -1.48745,-0.36803 -0.23002,-0.107341 -0.23004,-0.107342 -0.24537,-0.168684 z"
         id="path41"
         inkscape:path-effect="#path-effect41"
         inkscape:original-d="m 302.98048,-39.379181 c -0.0307,-0.122676 -0.0614,-0.245353 -0.092,-0.36803 0.46006,-0.460047 0.92009,-0.920075 1.38012,-1.380111 0.33737,0.03067 0.67471,0.06134 1.01208,0.09201 0.27602,-0.245359 0.55203,-0.490707 0.82807,-0.736061 0.36804,0.674735 0.73605,1.349441 1.10408,2.024163 0.18402,0.214689 0.36804,0.429369 0.55205,0.644052 -1.13479,0.122679 -2.26951,0.245353 -3.40428,0.36803 -0.46003,-0.214688 -0.92007,-0.429369 -1.3801,-0.644052 z" /><path
         style="fill:#fffddb;fill-opacity:1;fill-rule:evenodd;stroke:#fffddb;stroke-width:1;stroke-linecap:round;stroke-linejoin:round;stroke-opacity:1;paint-order:stroke fill markers"
         d="m 316.30621,-42.814128 c -0.0153,-0.122678 -0.046,-0.368024 0.092,-0.904745 0.13801,-0.536721 0.44469,-1.364771 0.78205,-1.809473 0.33736,-0.444701 0.7054,-0.50604 0.96609,-0.72073 0.26069,-0.214689 0.41403,-0.582703 0.65939,-0.368013 0.24536,0.214691 0.58271,1.012069 0.78206,1.518108 0.19935,0.50604 0.26069,0.720724 -0.046,1.088763 -0.3067,0.368038 -0.98141,0.889408 -1.57947,1.134758 -0.59805,0.245349 -1.11941,0.214681 -1.38011,0.199345 -0.26069,-0.01534 -0.26068,-0.01533 -0.27601,-0.138013 z"
         id="path42"
         inkscape:path-effect="#path-effect42"
         inkscape:original-d="m 316.32154,-42.691449 c -0.0307,-0.245353 -0.0613,-0.490707 -0.092,-0.73606 0.3067,-0.828083 0.61338,-1.656133 0.92006,-2.4842 0.36803,-0.06134 0.73607,-0.122676 1.1041,-0.184015 0.15336,-0.368038 0.30668,-0.73606 0.46004,-1.104087 0.33737,0.797411 0.67471,1.594794 1.01208,2.392193 0.0613,0.214688 0.12266,0.429366 0.18402,0.644051 -0.67474,0.521385 -1.34946,1.04275 -2.02417,1.564127 -0.52139,-0.03067 -1.04275,-0.06134 -1.56414,-0.09201 z" /><path
         style="fill:#f98868;fill-opacity:1;fill-rule:evenodd;stroke:#f98868;stroke-width:1;stroke-linecap:round;stroke-linejoin:round;stroke-opacity:1;paint-order:stroke fill markers"
         d="m 324.40287,-74.265333 c -0.10734,-0.168681 -0.32203,-0.168681 -1.0121,-0.01533 -0.69007,0.153351 -1.85545,0.460031 -2.49951,1.05809 -0.64406,0.59806 -0.76674,1.487444 -0.55205,2.116167 0.21469,0.628723 0.76673,0.996751 1.01208,1.380112 0.24535,0.383361 0.18401,0.782057 0.18401,1.22677 0,0.444712 0.0613,0.935402 0.23003,1.180755 0.16869,0.245353 0.4447,0.245353 0.51117,-0.169576 0.0665,-0.414929 -0.092,-1.334096 -0.15592,-2.1924 -0.0639,-0.858303 -0.0332,-1.655681 0.2888,-2.207733 0.32204,-0.552051 0.93539,-0.858729 1.3341,-1.073415 0.3987,-0.214686 0.58271,-0.337358 0.67472,-0.567381 0.092,-0.230022 0.092,-0.567377 -0.0153,-0.736058 z"
         id="path43"
         inkscape:path-effect="#path-effect43"
         inkscape:original-d="m 324.51021,-74.434014 c -0.21468,0 -0.42937,0 -0.64405,0 -1.16546,0.3067 -2.33084,0.613384 -3.49628,0.920076 -0.12269,0.889423 -0.24535,1.778809 -0.36804,2.668217 0.55206,0.368035 1.10411,0.736057 1.65614,1.104087 -0.0613,0.398706 -0.12266,0.797399 -0.18402,1.196097 0.0614,0.490717 0.12269,0.981413 0.18402,1.47212 0.27604,0 0.55205,0 0.82806,0 -0.15335,-0.828087 -0.30668,-1.748141 -0.46003,-2.668217 0.0307,-0.797414 0.0613,-1.594794 0.092,-2.392193 0.61341,-0.306697 1.22676,-0.613383 1.84015,-0.920075 0.18402,-0.122677 0.36803,-0.245351 0.55205,-0.368028 0,-0.337367 0,-0.674722 0,-1.012084 z"
         transform="translate(4.9684014,-2.3001858)" /><path
         style="fill:#f98868;fill-opacity:1;fill-rule:evenodd;stroke:#f98868;stroke-width:1;stroke-linecap:round;stroke-linejoin:round;stroke-opacity:1;paint-order:stroke fill markers"
         d="m 321.94935,-59.25279 c 0.0153,-0.09201 0.046,-0.276015 0.33736,-0.7974 0.29136,-0.521385 0.8434,-1.380102 1.25743,-2.100837 0.41404,-0.720734 0.69006,-1.303437 1.07343,-1.150079 0.38337,0.153358 0.87406,1.042746 1.02741,1.80948 0.15335,0.766735 -0.0307,1.410779 -0.26069,1.778808 -0.23002,0.368029 -0.50603,0.460032 -0.96608,0.567375 -0.46004,0.107342 -1.10409,0.230018 -1.54879,0.230016 -0.4447,-10e-7 -0.69005,-0.122679 -0.81272,-0.184016 -0.12267,-0.06134 -0.12268,-0.06134 -0.10735,-0.153347 z"
         id="path44"
         inkscape:path-effect="#path-effect44"
         inkscape:original-d="m 321.93402,-59.16078 c 0.0307,-0.184015 0.0613,-0.36803 0.092,-0.552042 0.55205,-0.858756 1.10408,-1.717474 1.65613,-2.576208 0.27604,-0.582727 0.55206,-1.165429 0.82807,-1.748142 0.49072,0.889423 0.98142,1.778809 1.47212,2.668214 -0.18402,0.644065 -0.36804,1.288106 -0.55203,1.932157 -0.27604,0.09201 -0.55205,0.184015 -0.82807,0.276021 -0.64407,0.12268 -1.28812,0.245354 -1.93217,0.36803 -0.24535,-0.122679 -0.4907,-0.245353 -0.73604,-0.36803 z"
         transform="translate(4.4163568,-2.5762081)" /></g></g></svg>
