<?xml version="1.0" encoding="UTF-8" standalone="no"?>
<!-- Created with Inkscape (http://www.inkscape.org/) -->

<svg
   width="117.2876"
   height="75.686066"
   viewBox="0 0 31.032343 20.025271"
   version="1.1"
   id="svg1"
   inkscape:version="1.3.2 (091e20e, 2023-11-25, custom)"
   sodipodi:docname="Card.svg"
   xml:space="preserve"
   inkscape:export-filename="Card.svg"
   inkscape:export-xdpi="96"
   inkscape:export-ydpi="96"
   xmlns:inkscape="http://www.inkscape.org/namespaces/inkscape"
   xmlns:sodipodi="http://sodipodi.sourceforge.net/DTD/sodipodi-0.dtd"
   xmlns="http://www.w3.org/2000/svg"
   xmlns:svg="http://www.w3.org/2000/svg"><sodipodi:namedview
     id="namedview1"
     pagecolor="#ffffff"
     bordercolor="#000000"
     borderopacity="0.25"
     inkscape:showpageshadow="2"
     inkscape:pageopacity="0.0"
     inkscape:pagecheckerboard="0"
     inkscape:deskcolor="#d1d1d1"
     inkscape:document-units="mm"
     showgrid="true"
     inkscape:zoom="1.4725054"
     inkscape:cx="4582.6657"
     inkscape:cy="-433.61471"
     inkscape:window-width="1920"
     inkscape:window-height="1010"
     inkscape:window-x="1699"
     inkscape:window-y="-6"
     inkscape:window-maximized="1"
     inkscape:current-layer="layer1"><inkscape:grid
       id="grid1"
       units="mm"
       originx="-1188.7149"
       originy="105.15162"
       spacingx="63.999999"
       spacingy="63.999999"
       empcolor="#0099e5"
       empopacity="0.30196078"
       color="#0099e5"
       opacity="0.14901961"
       empspacing="5"
       dotted="false"
       gridanglex="30"
       gridanglez="30"
       visible="true" /></sodipodi:namedview><defs
     id="defs1"><inkscape:path-effect
       effect="bspline"
       id="path-effect188"
       is_visible="true"
       lpeversion="1.3"
       weight="33.333333"
       steps="2"
       helper_size="0"
       apply_no_weight="true"
       apply_with_weight="true"
       only_selected="false"
       uniform="false" /><inkscape:path-effect
       effect="bspline"
       id="path-effect187"
       is_visible="true"
       lpeversion="1.3"
       weight="33.333333"
       steps="2"
       helper_size="0"
       apply_no_weight="true"
       apply_with_weight="true"
       only_selected="false"
       uniform="false" /><inkscape:path-effect
       effect="bspline"
       id="path-effect186"
       is_visible="true"
       lpeversion="1.3"
       weight="33.333333"
       steps="2"
       helper_size="0"
       apply_no_weight="true"
       apply_with_weight="true"
       only_selected="false"
       uniform="false" /><inkscape:path-effect
       effect="bspline"
       id="path-effect185"
       is_visible="true"
       lpeversion="1.3"
       weight="33.333333"
       steps="2"
       helper_size="0"
       apply_no_weight="true"
       apply_with_weight="true"
       only_selected="false"
       uniform="false" /><inkscape:path-effect
       effect="bspline"
       id="path-effect184"
       is_visible="true"
       lpeversion="1.3"
       weight="33.333333"
       steps="2"
       helper_size="0"
       apply_no_weight="true"
       apply_with_weight="true"
       only_selected="false"
       uniform="false" /><inkscape:path-effect
       effect="bspline"
       id="path-effect183"
       is_visible="true"
       lpeversion="1.3"
       weight="33.333333"
       steps="2"
       helper_size="0"
       apply_no_weight="true"
       apply_with_weight="true"
       only_selected="false"
       uniform="false" /><inkscape:path-effect
       effect="bspline"
       id="path-effect182"
       is_visible="true"
       lpeversion="1.3"
       weight="33.333333"
       steps="2"
       helper_size="0"
       apply_no_weight="true"
       apply_with_weight="true"
       only_selected="false"
       uniform="false" /><inkscape:path-effect
       effect="bspline"
       id="path-effect181"
       is_visible="true"
       lpeversion="1.3"
       weight="33.333333"
       steps="2"
       helper_size="0"
       apply_no_weight="true"
       apply_with_weight="true"
       only_selected="false"
       uniform="false" /><inkscape:path-effect
       effect="bspline"
       id="path-effect180"
       is_visible="true"
       lpeversion="1.3"
       weight="33.333333"
       steps="2"
       helper_size="0"
       apply_no_weight="true"
       apply_with_weight="true"
       only_selected="false"
       uniform="false" /><inkscape:path-effect
       effect="bspline"
       id="path-effect179"
       is_visible="true"
       lpeversion="1.3"
       weight="33.333333"
       steps="2"
       helper_size="0"
       apply_no_weight="true"
       apply_with_weight="true"
       only_selected="false"
       uniform="false" /><inkscape:path-effect
       effect="bspline"
       id="path-effect178"
       is_visible="true"
       lpeversion="1.3"
       weight="33.333333"
       steps="2"
       helper_size="0"
       apply_no_weight="true"
       apply_with_weight="true"
       only_selected="false"
       uniform="false" /><inkscape:path-effect
       effect="bspline"
       id="path-effect177"
       is_visible="true"
       lpeversion="1.3"
       weight="33.333333"
       steps="2"
       helper_size="0"
       apply_no_weight="true"
       apply_with_weight="true"
       only_selected="false"
       uniform="false" /><inkscape:path-effect
       effect="bspline"
       id="path-effect176"
       is_visible="true"
       lpeversion="1.3"
       weight="33.333333"
       steps="2"
       helper_size="0"
       apply_no_weight="true"
       apply_with_weight="true"
       only_selected="false"
       uniform="false" /><inkscape:path-effect
       effect="bspline"
       id="path-effect175"
       is_visible="true"
       lpeversion="1.3"
       weight="33.333333"
       steps="2"
       helper_size="0"
       apply_no_weight="true"
       apply_with_weight="true"
       only_selected="false"
       uniform="false" /><inkscape:path-effect
       effect="bspline"
       id="path-effect174"
       is_visible="true"
       lpeversion="1.3"
       weight="33.333333"
       steps="2"
       helper_size="0"
       apply_no_weight="true"
       apply_with_weight="true"
       only_selected="false"
       uniform="false" /><inkscape:path-effect
       effect="bspline"
       id="path-effect173"
       is_visible="true"
       lpeversion="1.3"
       weight="33.333333"
       steps="2"
       helper_size="0"
       apply_no_weight="true"
       apply_with_weight="true"
       only_selected="false"
       uniform="false" /><inkscape:path-effect
       effect="bspline"
       id="path-effect170"
       is_visible="true"
       lpeversion="1.3"
       weight="33.333333"
       steps="2"
       helper_size="0"
       apply_no_weight="true"
       apply_with_weight="true"
       only_selected="false"
       uniform="false" /></defs><g
     inkscape:label="Layer 1"
     inkscape:groupmode="layer"
     id="layer1"
     transform="translate(-1188.7149,105.15163)"><path
       style="fill:#ffffff;fill-opacity:0.192157;fill-rule:evenodd;stroke:#d0bc94;stroke-width:0.499999;stroke-linecap:square;stroke-linejoin:round;stroke-dasharray:none;stroke-opacity:1;paint-order:stroke fill markers"
       d="m 1220.6141,-77.249231 c -0.7623,0.762312 -1.5247,1.524673 -2.0964,2.371709 -0.5718,0.847036 -0.9529,1.778732 -0.2753,2.625788 0.6777,0.847056 2.414,1.609345 3.8751,1.609335 1.4612,-1e-5 2.647,-0.762303 2.7317,-1.799948 0.085,-1.037645 -0.9317,-2.350511 -1.1646,-3.409304 -0.2329,-1.058794 0.3176,-1.863432 0.4235,-2.286959 0.1058,-0.423527 -0.233,-0.465874 -0.5718,-0.508221"
       id="path188"
       inkscape:path-effect="#path-effect188"
       inkscape:original-d="m 1220.6141,-77.249231 c -0.7623,0.762328 -1.5247,1.524656 -2.287,2.286985 -0.3812,0.931751 -0.7623,1.863468 -1.1435,2.795201 1.7365,0.762344 3.4728,1.524656 5.2092,2.286984 1.1859,-0.762344 2.3717,-1.524656 3.5576,-2.286984 -1.0165,-1.312924 -2.0329,-2.625797 -3.0493,-3.938694 0.5506,-0.804695 1.1011,-1.609359 1.6517,-2.414039 -0.3389,-0.04235 -0.6777,-0.0847 -1.0165,-0.127053"
       transform="matrix(0.58827783,0,0,0.58827783,490.05446,-43.71607)"
       inkscape:export-filename="Card_J_Art.svg"
       inkscape:export-xdpi="96"
       inkscape:export-ydpi="96" /><path
       style="fill:#ffffff;fill-opacity:0.192157;fill-rule:evenodd;stroke:#c5ac7a;stroke-width:0.499999;stroke-linecap:square;stroke-linejoin:round;stroke-dasharray:none;stroke-opacity:1;paint-order:stroke fill markers"
       d="m 1197.1834,-89.258862 c -1.0472,-0.588628 -2.0944,-1.177257 -3.2504,-2.098024 -1.1561,-0.920767 -2.4205,-2.173255 -3.4763,-2.206649 -1.0557,-0.03339 -1.9027,1.152417 -2.2157,2.501504 -0.313,1.349087 -0.092,2.861269 -0.028,4.513005 0.063,1.651736 -0.031,3.442875 0.049,4.931394 0.08,1.488519 0.3341,2.67434 1.0753,3.33655 0.7411,0.66221 1.9693,0.800787 3.3245,0.800787 1.3553,0 2.8376,-0.138577 3.727,-0.356106 0.8894,-0.217529 1.1858,-0.513953 1.4823,-0.81043"
       id="path174"
       inkscape:path-effect="#path-effect174"
       inkscape:original-d="m 1197.1834,-89.258862 c -1.0472,-0.58863 -2.0944,-1.177261 -3.1418,-1.765996 -1.2647,-1.252787 -2.5291,-2.505255 -3.7936,-3.757916 -0.847,1.185868 -1.694,2.371688 -2.5411,3.557532 0.2212,1.512289 0.4423,3.024475 0.6634,4.536754 -0.094,1.791202 -0.1881,3.582339 -0.2822,5.373508 0.2541,1.185868 0.5082,2.371688 0.7623,3.55753 1.2282,0.138578 2.4564,0.277155 3.6846,0.415733 1.4823,-0.138578 2.9646,-0.277155 4.4469,-0.415733 0.2965,-0.296466 0.5929,-0.592921 0.8894,-0.889381"
       transform="matrix(0.58827783,0,0,0.58827783,489.94345,-43.741718)"
       sodipodi:nodetypes="cccccccccc" /><path
       style="fill:#ffe085;fill-opacity:1;fill-rule:evenodd;stroke:none;stroke-width:0.499999;stroke-linecap:square;stroke-linejoin:round;stroke-dasharray:none;stroke-opacity:1;paint-order:stroke fill markers"
       d="m 1203.0228,-100.43508 c -6.4786,4.743279 -8.8953,13.762501 -8.7136,18.704457 0.1817,4.941955 2.9915,5.694841 8.5273,6.07131 5.5358,0.376468 13.7971,0.376468 18.9015,-0.59717 5.1043,-0.973637 7.0515,-2.920827 8.8911,-7.126223 1.8396,-4.205396 3.5714,-10.668664 3.5235,-14.81412 -0.048,-4.145454 -1.8753,-5.972944 -8.0262,-6.681964 -6.1509,-0.70902 -16.625,-0.29957 -23.1036,4.44371 z"
       id="path169"
       inkscape:path-effect="#path-effect170"
       inkscape:original-d="m 1198.9758,-104.76689 c -2.4316,9.075098 -4.8483,18.09431 -7.2949,27.225284 2.81,0.752936 5.6198,1.505842 8.4298,2.258761 8.2616,0 16.5229,0 24.7843,0 1.9473,-1.947277 3.8945,-3.894481 5.8418,-5.841722 1.7319,-6.463527 3.4637,-12.926795 5.1955,-19.390193 -1.8275,-1.82754 -3.655,-3.65501 -5.4825,-5.48251 -10.4765,0.35425 -20.9527,0.70849 -31.474,1.23038 z"
       transform="matrix(0.58827783,0,0,0.58827783,489.42024,-43.293257)" /><path
       style="fill:#40446e;fill-opacity:1;fill-rule:evenodd;stroke:none;stroke-width:0.499999;stroke-linecap:square;stroke-linejoin:round;stroke-dasharray:none;stroke-opacity:1;paint-order:stroke fill markers"
       d="m 1229.8149,-88.281815 c -0.1164,0.02117 -0.434,0.127039 -0.6987,0.370559 -0.2648,0.243521 -0.4765,0.624693 -0.2859,1.090587 0.1906,0.465894 0.7835,1.016442 1.1435,0.98466 0.36,-0.03178 0.487,-0.645853 0.4129,-1.132902 -0.074,-0.487048 -0.3494,-0.847032 -0.4446,-1.058863 -0.095,-0.21183 -0.011,-0.275212 -0.1272,-0.254041 z"
       id="path184"
       inkscape:path-effect="#path-effect184"
       inkscape:original-d="m 1230.0161,-88.366514 c -0.3176,0.105881 -0.6352,0.211759 -0.9529,0.317637 -0.2117,0.381172 -0.4235,0.762328 -0.6353,1.143492 0.593,0.550583 1.1859,1.101141 1.7788,1.651712 0.1271,-0.614111 0.2541,-1.228196 0.3812,-1.842294 -0.2753,-0.359994 -0.5506,-0.719976 -0.8259,-1.079965 0.085,-0.06353 0.1694,-0.127053 0.2541,-0.190582 z"
       transform="matrix(0.58827783,0,0,0.58827783,489.42024,-43.293257)" /><circle
       style="fill:#ffffff;fill-opacity:1;fill-rule:evenodd;stroke:none;stroke-width:0.32307;stroke-linecap:square;stroke-linejoin:round;stroke-dasharray:none;stroke-opacity:1;paint-order:stroke fill markers"
       id="circle172"
       cx="1204.6028"
       cy="-98.939743"
       r="2.5039051" /><ellipse
       style="fill:#00043d;fill-opacity:1;fill-rule:evenodd;stroke:none;stroke-width:0.294138;stroke-linecap:square;stroke-linejoin:round;stroke-dasharray:none;stroke-opacity:1;paint-order:stroke fill markers"
       id="path171"
       cx="1204.7665"
       cy="-98.998833"
       rx="2.4840248"
       ry="1.162735" /><circle
       style="fill:#ffffff;fill-opacity:1;fill-rule:evenodd;stroke:none;stroke-width:0.32307;stroke-linecap:square;stroke-linejoin:round;stroke-dasharray:none;stroke-opacity:1;paint-order:stroke fill markers"
       id="path172"
       cx="1197.6516"
       cy="-98.939743"
       r="2.5039051" /><ellipse
       style="fill:#00043d;fill-opacity:1;fill-rule:evenodd;stroke:none;stroke-width:0.294138;stroke-linecap:square;stroke-linejoin:round;stroke-dasharray:none;stroke-opacity:1;paint-order:stroke fill markers"
       id="ellipse171"
       cx="1197.5787"
       cy="-98.998833"
       rx="2.4840248"
       ry="1.162735" /><path
       style="fill:none;fill-opacity:1;fill-rule:evenodd;stroke:#c5ac7a;stroke-width:0.499999;stroke-linecap:square;stroke-linejoin:round;stroke-dasharray:none;stroke-opacity:1;paint-order:stroke fill markers"
       d="m 1200.2853,-88.302985 c -1.1011,-0.381154 -2.2022,-0.762307 -2.8799,-0.656434 -0.6776,0.105874 -0.9317,0.698786 -0.6776,1.334053 0.2541,0.635267 1.0164,1.31287 1.4401,1.672935 0.4236,0.360065 0.5081,0.402296 0.042,0.444649 -0.4659,0.04235 -1.4823,0.0847 -2.1811,0.550583 -0.6988,0.46588 -1.0799,1.355259 -0.5717,1.905818 0.5082,0.550558 1.9058,0.762316 2.9434,0.592915 1.0376,-0.169401 1.7152,-0.71995 2.3929,-1.270553"
       id="path173"
       inkscape:path-effect="#path-effect173"
       inkscape:original-d="m 1200.2853,-88.302985 c -1.1011,-0.381164 -2.2022,-0.762328 -3.3034,-1.143492 -0.2541,0.592934 -0.5082,1.185844 -0.7623,1.778764 0.7623,0.677638 1.5246,1.355249 2.287,2.032876 0.085,0.04235 0.1694,0.0847 0.2541,0.127053 -1.0165,0.04235 -2.0329,0.0847 -3.0493,0.127056 -0.3812,0.889399 -0.7624,1.778764 -1.1435,2.668148 1.3976,0.211762 2.7952,0.423516 4.1928,0.635272 0.6776,-0.550582 1.3552,-1.10114 2.0329,-1.651711"
       transform="matrix(0.58827783,0,0,0.58827783,489.79396,-43.368001)" /><path
       style="fill:#ffffff;fill-opacity:0.192157;fill-rule:evenodd;stroke:#c5ac7a;stroke-width:0.499999;stroke-linecap:square;stroke-linejoin:round;stroke-dasharray:none;stroke-opacity:1;paint-order:stroke fill markers"
       d="m 1221.7576,-85.761892 c 2.3293,-2.456374 4.6586,-4.912747 6.4374,-6.331541 1.7788,-1.418794 3.007,-1.799957 3.8964,-0.868198 0.8894,0.931759 1.4399,3.176334 1.4611,4.82807 0.021,1.651736 -0.4871,2.710494 -1.6306,3.493996 -1.1435,0.783501 -2.9222,1.291702 -4.1716,1.482285 -1.2494,0.190584 -1.9693,0.06354 -2.6893,-0.06352"
       id="path175"
       inkscape:path-effect="#path-effect175"
       inkscape:original-d="m 1221.7576,-85.761892 c 2.3293,-2.456392 4.6586,-4.912781 6.988,-7.36917 1.2282,-0.381172 2.4564,-0.762328 3.6846,-1.143492 0.5506,2.244677 1.1011,4.489265 1.6517,6.733897 -0.5083,1.05881 -1.0165,2.117577 -1.5247,3.176365 -1.7788,0.50823 -3.5575,1.016437 -5.3363,1.524656 -0.72,-0.127058 -1.4399,-0.254108 -2.1599,-0.381164"
       transform="matrix(0.58827783,0,0,0.58827783,489.42024,-43.293257)" /><path
       style="fill:#ffffff;fill-opacity:0.192157;fill-rule:evenodd;stroke:#d0bc94;stroke-width:0.499999;stroke-linecap:square;stroke-linejoin:round;stroke-dasharray:none;stroke-opacity:1;paint-order:stroke fill markers"
       d="m 1232.9384,-91.860517 c 0.7545,0.761951 1.509,1.523865 3.0277,0.530846 1.5186,-0.993019 3.8009,-3.740624 4.7191,-3.126339 0.9182,0.614286 0.4721,4.590547 -0.047,7.807036 -0.5196,3.21649 -1.1124,5.672714 -2.0019,7.366846 -0.8894,1.694132 -2.0752,2.625825 -3.0226,2.257665 -0.9474,-0.36816 -1.6564,-2.03605 -2.7613,-2.819588 -1.1049,-0.783539 -2.6056,-0.682542 -3.8007,-0.80145 -1.195,-0.118909 -2.0844,-0.457721 -2.9738,-0.796534"
       id="path176"
       inkscape:path-effect="#path-effect176"
       inkscape:original-d="m 1232.9384,-91.860517 c 0.7545,0.761973 1.509,1.523871 2.2636,2.285889 2.2827,-2.74806 4.565,-5.49568 6.8476,-8.243593 -0.4462,3.976494 -0.8924,7.952749 -1.3385,11.929273 -0.593,2.456452 -1.1859,4.912675 -1.7788,7.36917 -1.1859,0.931774 -2.3717,1.863442 -3.5575,2.795203 -0.709,-1.668055 -1.418,-3.335924 -2.127,-5.004019 -1.5008,0.101004 -3.0015,0.202001 -4.5022,0.302998 -0.8894,-0.33882 -1.7788,-0.677627 -2.6682,-1.016439"
       sodipodi:nodetypes="ccccccccc"
       transform="matrix(0.58827783,0,0,0.58827783,489.42024,-43.293257)" /><path
       style="fill:#40446e;fill-opacity:1;fill-rule:evenodd;stroke:none;stroke-width:0.499999;stroke-linecap:square;stroke-linejoin:round;stroke-dasharray:none;stroke-opacity:1;paint-order:stroke fill markers"
       d="m 1208.3343,-100.80184 c -0.06,0.29947 -0.06,0.77863 0.1872,1.242802 0.247,0.464172 0.7412,0.913407 1.2054,0.756178 0.4641,-0.157229 0.8984,-0.920897 0.7112,-1.44497 -0.1872,-0.52407 -0.9957,-0.80854 -1.4599,-0.8909 -0.4642,-0.0824 -0.584,0.0374 -0.6439,0.33689 z"
       id="path177"
       inkscape:path-effect="#path-effect177"
       inkscape:original-d="m 1208.2744,-100.98152 c 0,0.47915 0,0.95831 0,1.437461 0.4941,0.449215 0.9883,0.898411 1.4824,1.347618 0.4342,-0.763667 0.8685,-1.527302 1.3027,-2.290949 -0.8086,-0.28451 -1.6171,-0.569 -2.4257,-0.85349 -0.1198,0.11979 -0.2396,0.23957 -0.3594,0.35936 z"
       transform="matrix(0.58827783,0,0,0.58827783,489.42024,-43.293257)" /><path
       style="fill:#40446e;fill-opacity:1;fill-rule:evenodd;stroke:none;stroke-width:0.499999;stroke-linecap:square;stroke-linejoin:round;stroke-dasharray:none;stroke-opacity:1;paint-order:stroke fill markers"
       d="m 1208.4092,-82.803654 c -0.015,-0.2695 0.1946,-0.41922 0.7936,-0.673781 0.5989,-0.254561 1.5872,-0.613947 1.8717,-0.40432 0.2844,0.209627 -0.1348,0.988252 -0.614,1.437462 -0.4791,0.449209 -1.0181,0.568991 -1.4074,0.434226 -0.3894,-0.134765 -0.629,-0.524087 -0.6439,-0.793587 z"
       id="path178"
       inkscape:path-effect="#path-effect178"
       inkscape:original-d="m 1208.1846,-82.923435 c 0.2096,-0.149735 0.4192,-0.299471 0.6289,-0.449206 0.9882,-0.359373 1.9765,-0.71873 2.9647,-1.078095 -0.4192,0.778639 -0.8385,1.557247 -1.2578,2.335871 -0.539,0.11979 -1.078,0.239577 -1.6171,0.359365 -0.2396,-0.389319 -0.4792,-0.778624 -0.7187,-1.167935 z"
       transform="matrix(0.58827783,0,0,0.58827783,489.42024,-43.293257)" /><path
       style="fill:#40446e;fill-opacity:1;fill-rule:evenodd;stroke:none;stroke-width:0.499999;stroke-linecap:square;stroke-linejoin:round;stroke-dasharray:none;stroke-opacity:1;paint-order:stroke fill markers"
       d="m 1219.8789,-78.95544 c -0.075,0.284505 -0.2246,0.853492 0.09,1.2428 0.3144,0.389308 1.093,0.598937 1.677,0.35934 0.584,-0.239597 0.9733,-0.928354 0.6738,-1.377556 -0.2995,-0.449202 -1.2877,-0.658818 -1.7969,-0.703741 -0.5091,-0.04492 -0.5391,0.07486 -0.5541,0.134757 -0.015,0.05989 -0.015,0.05989 -0.09,0.3444 z"
       id="path179"
       inkscape:path-effect="#path-effect179"
       inkscape:original-d="m 1219.9538,-79.239945 c -0.1498,0.568994 -0.2995,1.137989 -0.4492,1.706983 0.7786,0.209632 1.5572,0.419259 2.3358,0.628888 0.3894,-0.688798 0.7787,-1.377566 1.168,-2.066348 -0.9883,-0.209635 -1.9765,-0.419259 -2.9648,-0.628888 -0.03,0.11979 -0.06,0.239575 -0.09,0.359365 z"
       transform="matrix(0.58827783,0,0,0.58827783,489.42024,-43.293257)" /><path
       style="fill:#40446e;fill-opacity:1;fill-rule:evenodd;stroke:none;stroke-width:0.499999;stroke-linecap:square;stroke-linejoin:round;stroke-dasharray:none;stroke-opacity:1;paint-order:stroke fill markers"
       d="m 1198.2272,-80.063493 c -0.2546,0.164723 -0.4941,0.763675 -0.3744,1.287731 0.1198,0.524057 0.599,0.973291 1.0182,0.973272 0.4193,-1.9e-5 0.7787,-0.449235 0.7936,-0.838533 0.015,-0.389297 -0.3144,-0.718712 -0.6139,-1.0182 -0.2995,-0.299488 -0.569,-0.568993 -0.8235,-0.40427 z"
       id="path180"
       inkscape:path-effect="#path-effect180"
       inkscape:original-d="m 1198.2122,-80.497724 c -0.2396,0.598943 -0.4792,1.197883 -0.7187,1.796825 0.4791,0.449215 0.9583,0.898411 1.4374,1.347618 0.3594,-0.449215 0.7188,-0.898411 1.0781,-1.347618 -0.3294,-0.329425 -0.6588,-0.658836 -0.9882,-0.988253 -0.2696,-0.269528 -0.5391,-0.539046 -0.8086,-0.808572 z"
       transform="matrix(0.58827783,0,0,0.58827783,489.42024,-43.293257)" /><path
       style="fill:#40446e;fill-opacity:1;fill-rule:evenodd;stroke:none;stroke-width:0.499999;stroke-linecap:square;stroke-linejoin:round;stroke-dasharray:none;stroke-opacity:1;paint-order:stroke fill markers"
       d="m 1225.2844,-101.31093 c -0.2995,0.17968 -0.4792,0.3893 -0.3894,0.83852 0.09,0.44922 0.4492,1.137966 0.9733,1.347602 0.5241,0.209636 1.2129,-0.05989 1.3327,-0.583981 0.1197,-0.524091 -0.3294,-1.302641 -0.7637,-1.617111 -0.4342,-0.31446 -0.8535,-0.16471 -1.1529,0.015 z"
       id="path181"
       inkscape:path-effect="#path-effect181"
       inkscape:original-d="m 1225.1646,-101.34088 c -0.1797,0.20963 -0.3594,0.41925 -0.5391,0.62888 0.3594,0.6888 0.7187,1.37757 1.0781,2.066352 0.6888,-0.269528 1.3776,-0.539046 2.0664,-0.808569 -0.4493,-0.778643 -0.8984,-1.557243 -1.3477,-2.335873 -0.4192,0.14974 -0.8385,0.29947 -1.2577,0.44921 z"
       transform="matrix(0.58827783,0,0,0.58827783,489.42024,-43.293257)" /><path
       style="fill:#40446e;fill-opacity:1;fill-rule:evenodd;stroke:none;stroke-width:0.499999;stroke-linecap:square;stroke-linejoin:round;stroke-dasharray:none;stroke-opacity:1;paint-order:stroke fill markers"
       d="m 1218.1869,-101.49064 c -0.1497,0.11978 -0.4492,0.35937 -0.584,0.6289 -0.1347,0.26954 -0.1047,0.56901 0.4494,0.68879 0.554,0.11979 1.6321,0.0599 2.0962,-0.25455 0.4642,-0.31444 0.3144,-0.88342 -0.09,-1.12301 -0.4043,-0.23959 -1.0631,-0.14975 -1.3926,-0.10482 -0.3294,0.0449 -0.3295,0.0449 -0.4792,0.16469 z"
       id="path182"
       inkscape:path-effect="#path-effect182"
       inkscape:original-d="m 1218.3366,-101.61041 c -0.2994,0.23958 -0.5989,0.47916 -0.8984,0.71873 0.03,0.29948 0.06,0.59895 0.09,0.898414 1.0781,-0.05989 2.1562,-0.119784 3.2342,-0.179684 -0.1497,-0.569 -0.2994,-1.13799 -0.4492,-1.70698 -0.6588,0.0898 -1.3176,0.17968 -1.9765,0.26952 z"
       transform="matrix(0.58827783,0,0,0.58827783,489.42024,-43.293257)" /><path
       style="fill:#40446e;fill-opacity:1;fill-rule:evenodd;stroke:none;stroke-width:0.499999;stroke-linecap:square;stroke-linejoin:round;stroke-dasharray:none;stroke-opacity:1;paint-order:stroke fill markers"
       d="m 1218.0095,-87.170072 c -0.233,0.0953 -0.4659,0.243497 -0.7306,0.677608 -0.2647,0.43411 -0.5612,1.154099 -0.4235,1.619955 0.1376,0.465856 0.7094,0.677635 1.1329,0.349396 0.4235,-0.328238 0.6988,-1.196428 0.7941,-1.757634 0.095,-0.561205 0.011,-0.81522 -0.1482,-0.921093 -0.1589,-0.105872 -0.3918,-0.06353 -0.6247,0.03177 z"
       id="path183"
       inkscape:path-effect="#path-effect183"
       inkscape:original-d="m 1218.0095,-87.223022 c -0.233,0.14823 -0.4659,0.296463 -0.6989,0.444693 -0.2964,0.719989 -0.5929,1.439952 -0.8893,2.159929 0.5717,0.211762 1.1435,0.423516 1.7152,0.635272 0.2753,-0.868225 0.5506,-1.736413 0.8259,-2.604619 -0.085,-0.254116 -0.1694,-0.50822 -0.2541,-0.762328 -0.233,0.04235 -0.4659,0.0847 -0.6988,0.127053 z"
       transform="matrix(0.58827783,0,0,0.58827783,489.42024,-43.293257)" /><path
       style="fill:#40446e;fill-opacity:1;fill-rule:evenodd;stroke:none;stroke-width:0.499999;stroke-linecap:square;stroke-linejoin:round;stroke-dasharray:none;stroke-opacity:1;paint-order:stroke fill markers"
       d="m 1231.7313,-98.96499 c -0.127,0.07412 -0.3811,0.222346 -0.5187,0.603516 -0.1375,0.381171 -0.1585,0.995256 0.1063,1.217611 0.2647,0.222355 0.8153,0.05294 1.0906,-0.328236 0.2753,-0.381175 0.2753,-0.974082 0.1376,-1.270544 -0.1376,-0.296462 -0.4129,-0.296462 -0.5506,-0.296462 -0.1376,0 -0.1381,0 -0.2652,0.07412 z"
       id="path185"
       inkscape:path-effect="#path-effect185"
       inkscape:original-d="m 1231.8584,-99.039105 c -0.2541,0.148231 -0.5082,0.296461 -0.7623,0.444691 -0.021,0.614111 -0.042,1.228196 -0.063,1.842294 0.5505,-0.16941 1.1011,-0.338813 1.6517,-0.50822 0,-0.592934 0,-1.185841 0,-1.778765 -0.2753,0 -0.5506,0 -0.8259,0 z"
       transform="matrix(0.58827783,0,0,0.58827783,489.42024,-43.293257)" /><path
       style="fill:#40446e;fill-opacity:1;fill-rule:evenodd;stroke:none;stroke-width:0.499999;stroke-linecap:square;stroke-linejoin:round;stroke-dasharray:none;stroke-opacity:1;paint-order:stroke fill markers"
       d="m 1206.6169,-88.864148 c -0.4023,0.222334 -0.8894,0.582354 -1.0376,0.931734 -0.1482,0.34938 0.042,0.688203 0.5717,0.667033 0.5294,-0.02117 1.3976,-0.402332 1.7046,-0.794086 0.3071,-0.391754 0.053,-0.79409 -0.2329,-0.952912 -0.2858,-0.158822 -0.6035,-0.0741 -1.0058,0.148231 z"
       id="path186"
       inkscape:path-effect="#path-effect186"
       inkscape:original-d="m 1206.7016,-89.001787 c -0.487,0.35999 -0.9741,0.719976 -1.4611,1.079966 0.1905,0.338817 0.3811,0.677624 0.5717,1.016436 0.8682,-0.381172 1.7364,-0.762328 2.6046,-1.143492 -0.2541,-0.402346 -0.5082,-0.80468 -0.7623,-1.207018 -0.3176,0.0847 -0.6353,0.169405 -0.9529,0.254108 z"
       transform="matrix(0.58827783,0,0,0.58827783,489.42024,-43.293257)" /><path
       style="fill:#40446e;fill-opacity:1;fill-rule:evenodd;stroke:none;stroke-width:0.499999;stroke-linecap:square;stroke-linejoin:round;stroke-dasharray:none;stroke-opacity:1;paint-order:stroke fill markers"
       d="m 1197.5854,-92.019324 c -0.2859,0.01059 -0.4764,0.116442 -0.6141,0.370593 -0.1376,0.25415 -0.2223,0.65642 0.064,0.836416 0.2858,0.179996 0.9423,0.13764 1.2705,-0.07412 0.3282,-0.211761 0.3282,-0.592917 0.1376,-0.825854 -0.1906,-0.232937 -0.5717,-0.317625 -0.8576,-0.307034 z"
       id="path187"
       inkscape:path-effect="#path-effect187"
       inkscape:original-d="m 1197.4901,-92.114625 c -0.1906,0.105878 -0.3811,0.211756 -0.5717,0.317637 -0.085,0.402347 -0.1694,0.804677 -0.2541,1.207019 0.6564,-0.04235 1.3129,-0.0847 1.9693,-0.127056 0,-0.381172 0,-0.762328 0,-1.143492 -0.3812,-0.0847 -0.7623,-0.169405 -1.1435,-0.254108 z"
       transform="matrix(0.58827783,0,0,0.58827783,489.42024,-43.293257)" /></g></svg>
