<?xml version="1.0" encoding="UTF-8" standalone="no"?>
<!-- Created with Inkscape (http://www.inkscape.org/) -->

<svg
   width="1028"
   height="967.55902"
   viewBox="0 0 271.99166 255.99999"
   version="1.1"
   id="svg1"
   inkscape:version="1.3.2 (091e20e, 2023-11-25, custom)"
   sodipodi:docname="Card.svg"
   xmlns:inkscape="http://www.inkscape.org/namespaces/inkscape"
   xmlns:sodipodi="http://sodipodi.sourceforge.net/DTD/sodipodi-0.dtd"
   xmlns="http://www.w3.org/2000/svg"
   xmlns:svg="http://www.w3.org/2000/svg">
  <sodipodi:namedview
     id="namedview1"
     pagecolor="#ffffff"
     bordercolor="#000000"
     borderopacity="0.25"
     inkscape:showpageshadow="2"
     inkscape:pageopacity="0.0"
     inkscape:pagecheckerboard="0"
     inkscape:deskcolor="#d1d1d1"
     inkscape:document-units="mm"
     showgrid="true"
     inkscape:zoom="2.0334082"
     inkscape:cx="187.86194"
     inkscape:cy="119.74969"
     inkscape:window-width="1920"
     inkscape:window-height="1010"
     inkscape:window-x="1698"
     inkscape:window-y="-7"
     inkscape:window-maximized="1"
     inkscape:current-layer="layer1">
    <inkscape:grid
       id="grid1"
       units="mm"
       originx="0"
       originy="0"
       spacingx="63.999999"
       spacingy="63.999999"
       empcolor="#0099e5"
       empopacity="0.30196078"
       color="#0099e5"
       opacity="0.14901961"
       empspacing="5"
       dotted="false"
       gridanglex="30"
       gridanglez="30"
       visible="true" />
  </sodipodi:namedview>
  <defs
     id="defs1">
    <inkscape:path-effect
       effect="bspline"
       id="path-effect31"
       is_visible="true"
       lpeversion="1.3"
       weight="33.333333"
       steps="2"
       helper_size="0"
       apply_no_weight="true"
       apply_with_weight="true"
       only_selected="false"
       uniform="false" />
    <inkscape:path-effect
       effect="bspline"
       id="path-effect27"
       is_visible="true"
       lpeversion="1.3"
       weight="33.333333"
       steps="2"
       helper_size="0"
       apply_no_weight="true"
       apply_with_weight="true"
       only_selected="false"
       uniform="false" />
    <inkscape:path-effect
       effect="bspline"
       id="path-effect20"
       is_visible="true"
       lpeversion="1.3"
       weight="33.333333"
       steps="2"
       helper_size="0"
       apply_no_weight="true"
       apply_with_weight="true"
       only_selected="false"
       uniform="false" />
    <inkscape:path-effect
       effect="bspline"
       id="path-effect16"
       is_visible="true"
       lpeversion="1.3"
       weight="33.333333"
       steps="2"
       helper_size="0"
       apply_no_weight="true"
       apply_with_weight="true"
       only_selected="false"
       uniform="false" />
    <inkscape:path-effect
       effect="bspline"
       id="path-effect15"
       is_visible="true"
       lpeversion="1.3"
       weight="33.333333"
       steps="2"
       helper_size="0"
       apply_no_weight="true"
       apply_with_weight="true"
       only_selected="false"
       uniform="false" />
    <inkscape:path-effect
       effect="bspline"
       id="path-effect13"
       is_visible="true"
       lpeversion="1.3"
       weight="33.333333"
       steps="2"
       helper_size="0"
       apply_no_weight="true"
       apply_with_weight="true"
       only_selected="false"
       uniform="false" />
    <inkscape:path-effect
       effect="bspline"
       id="path-effect12"
       is_visible="true"
       lpeversion="1.3"
       weight="33.333333"
       steps="2"
       helper_size="0"
       apply_no_weight="true"
       apply_with_weight="true"
       only_selected="false"
       uniform="false" />
    <inkscape:path-effect
       effect="bspline"
       id="path-effect11"
       is_visible="true"
       lpeversion="1.3"
       weight="33.333333"
       steps="2"
       helper_size="0"
       apply_no_weight="true"
       apply_with_weight="true"
       only_selected="false"
       uniform="false" />
    <inkscape:path-effect
       effect="bspline"
       id="path-effect1"
       is_visible="true"
       lpeversion="1.3"
       weight="33.333333"
       steps="2"
       helper_size="0"
       apply_no_weight="true"
       apply_with_weight="true"
       only_selected="false"
       uniform="false" />
  </defs>
  <g
     inkscape:label="Layer 1"
     inkscape:groupmode="layer"
     id="layer1">
    <rect
       style="fill:#40446e;fill-rule:evenodd;stroke:#40446e;stroke-width:2;stroke-linecap:round;stroke-linejoin:round;stroke-dasharray:none;stroke-dashoffset:0;paint-order:stroke fill markers"
       id="rect31"
       width="48.407887"
       height="63.865135"
       x="75.541634"
       y="0.21099436"
       ry="4.4653955"
       inkscape:export-filename="CardBack.svg"
       inkscape:export-xdpi="96"
       inkscape:export-ydpi="96"
       inkscape:label="Card" />
    <rect
       style="fill:#916b91;fill-rule:evenodd;stroke:#916b91;stroke-width:1.5;stroke-linecap:round;stroke-linejoin:round;stroke-dasharray:none;stroke-dashoffset:0;paint-order:stroke fill markers"
       id="rect32"
       width="48.407887"
       height="63.865135"
       x="75.541634"
       y="0.21099436"
       ry="4.4653955"
       inkscape:export-filename="CardBack.svg"
       inkscape:export-xdpi="96"
       inkscape:export-ydpi="96"
       inkscape:label="Card" />
    <rect
       style="fill:#bacfba;fill-rule:evenodd;stroke:#00043d;stroke-width:1;stroke-linecap:round;stroke-linejoin:round;stroke-dasharray:none;stroke-dashoffset:0;paint-order:stroke fill markers"
       id="rect28"
       width="48.407887"
       height="63.865135"
       x="75.541634"
       y="0.21099436"
       ry="4.4653955"
       inkscape:export-filename="CardBack.svg"
       inkscape:export-xdpi="96"
       inkscape:export-ydpi="96"
       inkscape:label="Card" />
    <rect
       style="fill:#bacfba;fill-rule:evenodd;stroke:#00043d;stroke-width:2;stroke-linecap:round;stroke-linejoin:round;stroke-dasharray:none;stroke-dashoffset:0;paint-order:stroke fill markers"
       id="rect1"
       width="48.407887"
       height="63.865135"
       x="9.6643105"
       y="0.21099436"
       ry="4.4653955"
       inkscape:export-filename="CardFront.svg"
       inkscape:export-xdpi="96"
       inkscape:export-ydpi="96"
       inkscape:label="Card" />
    <path
       style="font-size:9.87777px;font-family:'Poor Richard';-inkscape-font-specification:'Poor Richard';text-align:center;text-anchor:middle;fill:#40446e;fill-rule:evenodd;stroke:#00043d;stroke-width:1.34161;stroke-linecap:round;stroke-linejoin:round;paint-order:stroke fill markers"
       d="m 105.52729,-60.302183 q -0.11648,0.161769 -0.11648,0.232946 0,0.05177 0.0517,0.122944 l 3.32598,4.477777 q 0.1553,0.168238 0.34295,0.245889 0.19413,0.07766 0.31707,0.07766 0.12941,0 0.23295,0.07118 0.10353,0.07117 0.10353,0.181181 0,0.174712 -0.16177,0.271774 -0.15529,0.09707 -0.39471,0.09707 -0.50472,0 -1.10651,-0.388248 -0.59531,-0.394717 -1.08061,-1.041794 l -2.31007,-3.047735 q -0.0712,-0.09059 -0.10354,-0.09059 -0.0324,0 -0.0906,0.07766 l -0.8412,1.07415 q -0.0518,0.07118 -0.0518,0.174711 v 2.128883 q 0,0.174712 0.0906,0.304128 0.0971,0.129412 0.40119,0.187652 0.30413,0.05825 0.36236,0.129411 0.0647,0.07117 0.0647,0.17471 0,0.11647 -0.16177,0.213538 -0.16177,0.09059 -0.47884,0.09059 -0.14883,0 -0.4206,-0.0647 -0.27177,-0.0647 -0.47884,-0.0647 -0.28471,0 -0.63414,0.07766 -0.34295,0.07766 -0.50472,0.07766 -0.15529,0 -0.29765,-0.09707 -0.14236,-0.09059 -0.14236,-0.245889 0,-0.110002 0.0647,-0.181183 0.0647,-0.07766 0.4206,-0.103525 0.35589,-0.03236 0.4659,-0.232948 0.11,-0.207064 0.11,-0.472365 v -6.774903 q 0,-0.252359 -0.11,-0.446483 -0.10354,-0.194124 -0.45296,-0.232948 -0.34295,-0.03882 -0.40766,-0.110003 -0.0647,-0.07766 -0.0647,-0.187653 0,-0.110002 0.14236,-0.226475 0.14236,-0.122944 0.38825,-0.122944 0.24589,0 0.60178,0.07766 0.36236,0.07117 0.60825,0.07117 0.1553,0 0.39472,-0.07766 0.24589,-0.08411 0.55649,-0.08411 0.25236,0 0.40765,0.09707 0.16177,0.09059 0.16177,0.220006 0,0.09707 -0.0777,0.174711 -0.0777,0.07117 -0.36237,0.148828 -0.28471,0.07117 -0.40119,0.129413 -0.11,0.05176 -0.18118,0.207064 -0.0647,0.155299 -0.0647,0.465895 v 3.500689 l 0.0194,0.129413 0.0906,-0.09059 2.87302,-3.772462 q 0.21354,-0.265301 0.21354,-0.388246 0,-0.07766 -0.0712,-0.122944 -0.0647,-0.05176 -0.34296,-0.07766 -0.27824,-0.02589 -0.36236,-0.09707 -0.0841,-0.07766 -0.0841,-0.194124 0,-0.148827 0.13589,-0.239419 0.14235,-0.09059 0.33648,-0.09059 0.17471,0 0.44648,0.05176 0.27824,0.04529 0.36236,0.04529 0.11648,0 0.4206,-0.05176 0.3106,-0.05825 0.47237,-0.05825 0.17471,0 0.28472,0.09707 0.11,0.09707 0.11,0.24589 0,0.08411 -0.0583,0.142356 -0.0517,0.05825 -0.4206,0.16824 -0.36883,0.110003 -0.56943,0.381776 z"
       id="path17"
       inkscape:label="K" />
    <path
       id="path19"
       style="font-size:9.87777px;font-family:'Poor Richard';-inkscape-font-specification:'Poor Richard';text-align:center;text-anchor:middle;fill:#40446e;fill-rule:evenodd;stroke:#00043d;stroke-width:1.34161;stroke-linecap:round;stroke-linejoin:round;paint-order:stroke fill markers"
       d="m 124.42853,-64.139396 c -1.10867,0 -2.03206,0.245892 -2.76974,0.737671 -0.73766,0.491778 -1.27474,1.130461 -1.61121,1.91558 -0.33649,0.780806 -0.50473,1.464092 -0.50473,2.050776 0,0.970615 0.21809,1.848719 0.65378,2.633839 0.4357,0.78512 1.02262,1.382359 1.76028,1.792174 0.73768,0.405503 1.59829,0.608717 2.58185,0.608717 0.40118,0 0.76355,-0.03236 1.08709,-0.09706 h 0.045 c 0.0432,0 0.0754,0.02782 0.097,0.08389 0.19413,0.509033 0.39473,0.936106 0.6018,1.281215 0.21137,0.345106 0.48507,0.61688 0.82155,0.815318 0.34079,0.198437 0.66241,0.297423 0.96437,0.297423 0.34942,0 0.68398,-0.08411 1.00321,-0.252359 0.31922,-0.163927 0.47838,-0.353506 0.47838,-0.569197 0,-0.04315 -0.0148,-0.08844 -0.045,-0.135887 -0.0302,-0.04746 -0.0626,-0.07141 -0.097,-0.07141 -0.0776,0 -0.21546,0.04791 -0.4139,0.142822 -0.19844,0.09921 -0.36282,0.148363 -0.49224,0.148363 -0.3106,0 -0.59077,-0.103536 -0.84098,-0.310596 -0.25019,-0.207064 -0.47667,-0.519589 -0.67942,-0.938032 -0.19844,-0.418446 -0.29743,-0.657867 -0.29743,-0.718257 0,-0.06904 0.062,-0.133733 0.1872,-0.194123 0.70315,-0.306283 1.27712,-0.869244 1.72144,-1.688874 0.44433,-0.823945 0.66627,-1.692957 0.66627,-2.607494 0,-1.483962 -0.5474,-2.754859 -1.64312,-3.811752 -0.77648,-0.741981 -1.86813,-1.112743 -3.27444,-1.112743 z m 0,0.608024 c 1.02237,0 1.86811,0.399262 2.53678,1.197325 0.66864,0.79806 1.0025,1.900026 1.0025,3.306337 0,0.716098 -0.0926,1.339914 -0.27801,1.870519 -0.18118,0.526287 -0.40574,0.922932 -0.6732,1.190391 -0.26314,0.267458 -0.43138,0.40142 -0.50472,0.40142 -0.0302,0 -0.056,-0.02396 -0.0776,-0.07141 -0.23727,-0.452954 -0.53493,-0.806923 -0.89298,-1.061439 -0.35373,-0.254518 -0.74583,-0.381316 -1.17721,-0.381316 -0.42275,0 -0.76833,0.135887 -1.03579,0.407661 -0.26314,0.267458 -0.39449,0.60394 -0.39449,1.009442 v 0.17471 l 0.006,0.06447 -0.0256,0.03882 c -0.0431,0 -0.20299,-0.07766 -0.47908,-0.232948 -0.27177,-0.155299 -0.52413,-0.390174 -0.75707,-0.705084 -0.23295,-0.314911 -0.41413,-0.72519 -0.54355,-1.22991 -0.1251,-0.509035 -0.18719,-1.123762 -0.18719,-1.844172 0,-1.203563 0.33386,-2.193597 1.0025,-2.970089 0.66865,-0.776492 1.49499,-1.164739 2.47855,-1.164739 z m -0.31684,7.073024 c 0.35373,0 0.66171,0.176638 0.92486,0.530373 0.26745,0.353735 0.40142,0.58861 0.40142,0.705084 0,0.04749 -0.0342,0.07599 -0.10322,0.08458 -0.17687,0.03019 -0.39041,0.04506 -0.64061,0.04506 -0.40549,0 -0.69476,-0.01748 -0.86731,-0.052 -0.16824,-0.03882 -0.2737,-0.09445 -0.31684,-0.167778 -0.0388,-0.07765 -0.0582,-0.205139 -0.0582,-0.382007 0,-0.509033 0.22001,-0.763321 0.66003,-0.763321 z"
       inkscape:label="Q" />
    <path
       style="font-size:9.87777px;font-family:'Poor Richard';-inkscape-font-specification:'Poor Richard';text-align:center;text-anchor:middle;fill:#40446e;fill-rule:evenodd;stroke:#00043d;stroke-width:1.34161;stroke-linecap:round;stroke-linejoin:round;paint-order:stroke fill markers"
       d="m 114.86461,-62.761078 q -0.0129,-0.23942 -0.14235,-0.394718 -0.12295,-0.155299 -0.48531,-0.187653 -0.36237,-0.03882 -0.47237,-0.09707 -0.11,-0.0647 -0.11,-0.278244 0,-0.226477 0.35589,-0.226477 0.0777,0 0.51766,0.07766 0.44002,0.07117 0.84767,0.07117 0.22648,0 0.63414,-0.0647 0.41413,-0.07117 0.70531,-0.07117 0.42707,0 0.42707,0.291184 0,0.103536 -0.0712,0.168241 -0.0712,0.05825 -0.36237,0.07766 -0.35589,0.01941 -0.49825,0.110003 -0.25883,0.155298 -0.24589,0.588838 l 0.14236,6.347832 q 0,0.75708 -0.67943,1.384746 -0.67943,0.627666 -1.46887,0.627666 -0.97709,0 -1.47533,-0.414132 -0.49825,-0.420599 -0.49825,-0.789434 0,-0.50472 0.40118,-0.50472 0.23942,0 0.38825,0.174712 0.1553,0.174709 0.1553,0.304126 0,0.187653 0.2653,0.407658 0.2653,0.213536 0.58237,0.213536 0.40766,0 0.80238,-0.355894 0.39471,-0.362362 0.38824,-0.970616 z"
       id="path18"
       inkscape:label="J" />
    <path
       id="path15"
       style="font-size:9.87777px;font-family:'Poor Richard';-inkscape-font-specification:'Poor Richard';text-align:center;text-anchor:middle;fill:#40446e;fill-rule:evenodd;stroke:#00043d;stroke-width:1.34161;stroke-linecap:round;stroke-linejoin:round;paint-order:stroke fill markers"
       d="m 95.87921,-64.184459 c -1.018065,0 -1.83339,0.47237 -2.445953,1.4171 -0.612567,0.940417 -0.918621,2.076661 -0.918621,3.40964 0,1.138854 0.153373,2.077122 0.459656,2.814789 0.310598,0.737665 0.72473,1.281214 1.242389,1.630637 0.517662,0.349418 1.037254,0.524132 1.559229,0.524132 0.905907,0 1.674008,-0.429001 2.303827,-1.287454 0.634135,-0.862767 0.951206,-2.010028 0.951206,-3.442224 0,-1.082773 -0.153373,-2.00425 -0.459657,-2.763484 -0.301969,-0.763551 -0.707705,-1.336834 -1.216737,-1.720766 -0.504722,-0.388244 -0.996502,-0.58237 -1.475339,-0.58237 z m -4.749782,0.04506 c -0.08628,0 -0.183339,0.03043 -0.291185,0.09083 -0.103537,0.0604 -0.330011,0.209225 -0.679432,0.446485 l -0.763323,0.530372 c -0.366676,0.24589 -0.619038,0.425146 -0.75708,0.537307 -0.138043,0.112159 -0.207297,0.206599 -0.207297,0.284252 0,0.207065 0.101609,0.310597 0.304359,0.310597 0.08197,0 0.206834,-0.06016 0.375073,-0.18095 0.172554,-0.120791 0.30459,-0.180952 0.39518,-0.180952 0.0604,0 0.125097,0.03881 0.194125,0.11647 0.07332,0.07765 0.109536,0.189578 0.109536,0.336249 l -0.01251,6.082302 c 0,0.159613 -0.03881,0.2955 -0.116469,0.407658 -0.07334,0.112171 -0.224089,0.183341 -0.452725,0.213537 -0.22432,0.02589 -0.35828,0.06086 -0.401418,0.103991 -0.04313,0.04313 -0.06447,0.09683 -0.06447,0.16154 0,0.254515 0.139737,0.382006 0.420137,0.382006 0.03882,0 0.153374,-0.01556 0.343183,-0.04577 0.194122,-0.03019 0.478838,-0.04506 0.854143,-0.04506 0.232947,0 0.474295,0.01487 0.724498,0.04506 0.254517,0.03019 0.418907,0.04577 0.492239,0.04577 0.129419,0 0.230333,-0.0285 0.303667,-0.08458 0.07332,-0.05608 0.110242,-0.120792 0.110242,-0.194123 0,-0.07765 -0.02589,-0.144284 -0.07765,-0.200362 -0.04746,-0.05609 -0.185264,-0.105919 -0.413899,-0.14906 -0.228633,-0.04313 -0.377463,-0.111704 -0.446484,-0.206603 -0.06471,-0.09921 -0.09706,-0.218311 -0.09706,-0.356355 l 0.02565,-1.811588 -0.03884,-5.208746 c 0,-0.31491 0.0815,-0.597699 0.245429,-0.847903 0.09059,-0.138044 0.135884,-0.259064 0.135884,-0.362594 0,-0.146671 -0.07119,-0.219777 -0.213534,-0.219777 z m 4.710958,0.608024 c 0.539231,0 0.972777,0.364983 1.300626,1.094023 0.332167,0.729039 0.498482,1.714528 0.498482,2.956916 0,1.427878 -0.166315,2.527919 -0.498482,3.300097 -0.327849,0.772178 -0.789204,1.158501 -1.384515,1.158501 -0.565114,0 -1.009672,-0.38825 -1.333211,-1.16474 -0.319225,-0.780806 -0.478376,-1.723619 -0.478376,-2.827962 0,-1.238071 0.174713,-2.299286 0.524134,-3.183625 0.349419,-0.88865 0.80623,-1.33321 1.371342,-1.33321 z"
       inkscape:label="10" />
    <path
       style="font-size:9.87777px;font-family:'Poor Richard';-inkscape-font-specification:'Poor Richard';text-align:center;text-anchor:middle;fill:#40446e;fill-rule:evenodd;stroke:#00043d;stroke-width:1.34161;stroke-linecap:round;stroke-linejoin:round;paint-order:stroke fill markers"
       d="m 82.420147,-64.158766 q 1.598282,0 2.555956,1.300626 0.957675,1.294155 0.957675,3.643047 0,2.232418 -1.00297,3.533043 -1.002969,1.294155 -2.400657,1.294155 -1.015914,0 -1.785934,-0.459425 -0.763552,-0.459425 -0.763552,-0.802376 0,-0.0647 0.09707,-0.122944 0.09707,-0.05825 0.181182,-0.05825 0.135887,0 0.588841,0.284715 0.459425,0.284714 0.795906,0.381775 0.33648,0.09707 0.634136,0.09707 0.621194,0 1.100032,-0.368835 0.485308,-0.375305 0.802376,-1.475336 0.323538,-1.106503 0.323538,-2.646546 0,-1.857114 -0.517663,-2.873025 -0.51119,-1.022384 -1.514159,-1.022384 -0.957677,0 -1.391218,0.854143 -0.433542,0.854143 -0.433542,2.711255 0,1.100033 0.414129,1.688872 0.420602,0.588842 1.06768,0.588842 0.239418,0 0.504719,-0.07766 0.265302,-0.08411 0.634136,-0.330008 0.368834,-0.252361 0.504721,-0.252361 0.09059,0 0.155298,0.07766 0.07117,0.07118 0.07117,0.161769 0,0.284715 -0.660019,0.679433 -0.653548,0.394716 -1.210034,0.394716 -0.608255,0 -1.32651,-0.388246 -0.711784,-0.394718 -1.145327,-1.106501 -0.427072,-0.711787 -0.427072,-1.650049 0,-1.203565 0.478837,-2.17418 0.48531,-0.970617 1.281214,-1.423572 0.795906,-0.459424 1.430042,-0.459426 z"
       id="path13"
       inkscape:label="9" />
    <path
       id="path10"
       style="font-size:9.87777px;font-family:'Poor Richard';-inkscape-font-specification:'Poor Richard';text-align:center;text-anchor:middle;fill:#40446e;fill-rule:evenodd;stroke:#00043d;stroke-width:1.34161;stroke-linecap:round;stroke-linejoin:round;paint-order:stroke fill markers"
       d="m 73.529368,-64.210804 c -0.660019,0 -1.227524,0.198669 -1.702047,0.595542 -0.474522,0.39256 -0.711323,0.905679 -0.711323,1.539815 0,0.349421 0.07118,0.66911 0.213535,0.958137 0.146669,0.289029 0.407429,0.597008 0.782734,0.924861 0.04746,0.04313 0.07141,0.0781 0.07141,0.103991 0,0.02157 -0.02396,0.05392 -0.07141,0.09706 -0.58237,0.465896 -1.004897,0.909762 -1.268042,1.332518 -0.258832,0.418443 -0.388246,0.848133 -0.388246,1.288147 0,0.85414 0.314449,1.554915 0.944271,2.102773 0.629821,0.543544 1.357169,0.815318 2.181115,0.815318 0.888652,0 1.630174,-0.263376 2.225486,-0.789665 0.599624,-0.530603 0.899901,-1.239772 0.899901,-2.128426 0,-0.647076 -0.142357,-1.195168 -0.427071,-1.64381 -0.2804,-0.452951 -0.759239,-0.903983 -1.436513,-1.352622 l -0.06517,-0.06447 0.05199,-0.06447 c 0.396875,-0.332166 0.651161,-0.610412 0.763322,-0.834731 0.116469,-0.22432 0.174711,-0.47283 0.174711,-0.744602 0,-0.677274 -0.200595,-1.201409 -0.601783,-1.5724 -0.401187,-0.375304 -0.946661,-0.562957 -1.636877,-0.562957 z m 0.07765,0.679432 c 0.345106,0 0.64084,0.12749 0.886728,0.382008 0.250203,0.250201 0.375074,0.549786 0.375074,0.899206 0,0.608253 -0.383704,1.072225 -1.151568,1.391448 -0.918846,-0.306282 -1.378276,-0.787049 -1.378276,-1.442753 0,-0.34942 0.118397,-0.640607 0.355663,-0.873556 0.241573,-0.237259 0.545703,-0.356353 0.912379,-0.356353 z m -0.569198,3.947637 c 0.04313,0.02157 0.247585,0.112158 0.614262,0.271772 0.366676,0.155299 0.690218,0.353276 0.970617,0.59485 0.487465,0.418445 0.731429,0.942579 0.731429,1.572401 0,0.57374 -0.221932,1.050654 -0.666259,1.430272 -0.44001,0.379619 -0.880027,0.569199 -1.320038,0.569199 -0.58237,0 -1.089714,-0.19605 -1.521095,-0.588611 -0.427072,-0.396873 -0.640608,-0.908069 -0.640608,-1.533574 0,-0.414129 0.13396,-0.800452 0.401419,-1.158501 0.267459,-0.362364 0.744373,-0.747993 1.430273,-1.157808 z"
       inkscape:label="8" />
    <path
       style="font-size:9.87777px;font-family:'Poor Richard';-inkscape-font-specification:'Poor Richard';text-align:center;text-anchor:middle;fill:#40446e;fill-rule:evenodd;stroke:#00043d;stroke-width:1.34161;stroke-linecap:round;stroke-linejoin:round;paint-order:stroke fill markers"
       d="m 67.83502,-63.984054 q 0.297657,0 0.297657,0.187652 0,0.135886 -0.207065,0.323539 -0.388247,0.362362 -0.647077,0.789434 -1.313568,2.174181 -1.870055,3.960114 -0.550016,1.785934 -0.550016,2.821258 0,0.394718 0.135886,0.537076 0.135887,0.142357 0.394718,0.220004 l 0.03882,0.01288 0.09059,0.01288 q 0.556487,0.0647 0.556487,0.33001 0,0.323539 -0.543545,0.323539 -0.142357,0 -0.401189,-0.0647 -0.258831,-0.05825 -0.420601,-0.05825 -0.168239,0 -0.427069,0.0453 -0.258834,0.04529 -0.381778,0.04529 -0.142357,0 -0.232947,-0.08411 -0.08411,-0.07766 -0.08411,-0.362365 0,-1.048265 0.414128,-2.471835 0.414129,-1.430041 0.938262,-2.523602 0.530603,-1.093561 1.067679,-1.947703 0.537073,-0.854143 0.537073,-0.905908 0,-0.07118 -0.265301,-0.07118 -0.103524,0 -0.407658,0.01941 -0.297657,0.01289 -0.465898,0.01289 h -2.730666 q -0.200594,0 -0.291186,0.07766 -0.08411,0.07766 -0.08411,0.375305 0,0.394719 -0.31707,0.394719 -0.342952,0 -0.342952,-0.595312 v -1.074148 q 0,-0.330011 0.304128,-0.330011 z"
       id="path9"
       inkscape:label="7" />
    <path
       style="font-size:9.87777px;font-family:'Poor Richard';-inkscape-font-specification:'Poor Richard';text-align:center;text-anchor:middle;fill:#40446e;fill-rule:evenodd;stroke:#00043d;stroke-width:1.34161;stroke-linecap:round;stroke-linejoin:round;paint-order:stroke fill markers"
       d="m 56.401163,-61.583396 q 0.608252,0 1.320039,0.394716 0.718255,0.388248 1.145327,1.100031 0.433541,0.711786 0.433541,1.643579 0,1.235917 -0.472366,2.180651 -0.465896,0.944732 -1.274743,1.410629 -0.802376,0.465895 -1.442983,0.465895 -1.604752,0 -2.581839,-1.300625 -0.970615,-1.300627 -0.970615,-3.643047 0,-2.174182 1.009439,-3.50069 1.015913,-1.326509 2.433012,-1.326509 1.015911,0 1.779463,0.465896 0.763551,0.459426 0.763551,0.795905 0,0.0647 -0.09707,0.129412 -0.09059,0.05825 -0.18118,0.05825 -0.129413,0 -0.601783,-0.284714 -0.465897,-0.291184 -0.795905,-0.388245 -0.330011,-0.09707 -0.614726,-0.09707 -1.203562,0 -1.714753,1.307097 -0.511193,1.300625 -0.511193,3.183622 0,1.876525 0.511193,2.885965 0.517661,1.00944 1.514161,1.00944 0.977087,0 1.404157,-0.860612 0.427071,-0.860613 0.427071,-2.704784 0,-1.100032 -0.420599,-1.688873 -0.414131,-0.58884 -1.061208,-0.58884 -0.207064,0 -0.446484,0.07766 -0.239418,0.07766 -0.647077,0.336482 -0.407658,0.25236 -0.550015,0.25236 -0.09059,0 -0.16177,-0.07117 -0.0647,-0.07766 -0.0647,-0.168241 0,-0.284714 0.679429,-0.679431 0.679432,-0.394717 1.190622,-0.394717 z"
       id="path8"
       inkscape:label="6" />
    <path
       style="font-size:9.87777px;font-family:'Poor Richard';-inkscape-font-specification:'Poor Richard';text-align:center;text-anchor:middle;fill:#40446e;fill-rule:evenodd;stroke:#00043d;stroke-width:1.34161;stroke-linecap:round;stroke-linejoin:round;paint-order:stroke fill markers"
       d="m 44.786122,-61.66105 q 0,0.135887 0.09059,0.135887 0.03883,0 0.08411,-0.03236 0.317068,-0.258833 0.776493,-0.414131 0.459424,-0.155298 0.918849,-0.155298 0.556489,0 1.352394,0.349423 0.795905,0.349421 1.404158,1.138857 0.608252,0.789434 0.608252,2.219475 0,1.25533 -0.575899,2.200063 -0.575899,0.944733 -1.546516,1.455924 -0.964145,0.504721 -1.785934,0.504721 -0.763551,0 -1.384745,-0.271772 -0.614724,-0.265302 -0.957675,-0.640606 -0.33648,-0.375308 -0.33648,-0.530605 0,-0.08411 0.05825,-0.168238 0.0647,-0.08411 0.168238,-0.08411 0.116482,0 0.465897,0.284714 0.562957,0.465896 0.957675,0.608253 0.394717,0.142357 0.76355,0.142357 0.569429,0 1.216507,-0.368835 0.653549,-0.375304 1.093561,-1.106503 0.446483,-0.737667 0.446483,-2.051235 0,-1.300626 -0.737668,-2.148298 -0.731199,-0.84767 -1.436512,-0.84767 -0.938263,0 -1.779463,1.132384 -0.16177,0.220007 -0.245891,0.271774 -0.08411,0.04529 -0.17471,0.04529 -0.200594,0 -0.200594,-0.291187 0,-0.129412 0.03236,-0.278244 0.09059,-0.407659 0.09059,-1.300625 v -1.630635 q 0,-0.452955 0.472366,-0.452955 h 2.704786 q 0.161768,0 0.317067,-0.09059 0.161769,-0.09059 0.317069,-0.09059 0.07766,0 0.129412,0.05825 0.05825,0.05825 0.05825,0.148827 0,0.278243 -0.582369,0.634136 -0.582369,0.349422 -1.507691,0.349422 -0.381774,0 -0.763551,-0.07119 -0.381776,-0.07766 -0.420599,-0.07766 -0.09059,0 -0.09059,0.135886 z"
       id="path7"
       inkscape:label="5" />
    <path
       id="path5"
       style="font-size:9.87777px;font-family:'Poor Richard';-inkscape-font-specification:'Poor Richard';text-align:center;text-anchor:middle;fill:#40446e;fill-rule:evenodd;stroke:#00043d;stroke-width:1.34161;stroke-linecap:round;stroke-linejoin:round;paint-order:stroke fill markers"
       d="m 39.441299,-64.223284 c -0.120792,0 -0.243735,0.08411 -0.368837,0.252361 l -4.445425,5.661469 c -0.103536,0.129413 -0.155298,0.226476 -0.155298,0.291184 0,0.06902 0.01941,0.125337 0.05824,0.168473 0.03882,0.03882 0.0822,0.05825 0.129646,0.05825 0.06471,0 0.25236,-0.07118 0.562959,-0.213536 0.310596,-0.142358 0.629591,-0.213535 0.957443,-0.213535 0.931792,0 1.656522,0.105452 2.174183,0.316836 0.06039,0.02589 0.09083,0.09321 0.09083,0.201057 v 1.986298 c 0,0.232948 -0.03497,0.394717 -0.103991,0.485309 -0.06471,0.08628 -0.215464,0.142587 -0.452724,0.168471 -0.237259,0.02157 -0.381543,0.05392 -0.43331,0.09706 -0.04746,0.04313 -0.07141,0.09683 -0.07141,0.161537 0,0.103537 0.03236,0.179251 0.09706,0.226708 0.0647,0.05177 0.183109,0.07766 0.355661,0.07766 0.05608,0 0.209454,-0.01941 0.459657,-0.05825 0.250203,-0.03882 0.489623,-0.05825 0.718257,-0.05825 0.31491,0 0.569197,0.01941 0.76332,0.05825 0.198438,0.03883 0.338869,0.05825 0.420831,0.05825 0.306285,0 0.459659,-0.08675 0.459659,-0.259294 0,-0.202747 -0.185728,-0.314677 -0.556719,-0.336248 -0.146671,-0.0043 -0.26769,-0.04506 -0.362596,-0.122719 -0.0949,-0.08196 -0.142124,-0.243735 -0.142124,-0.48531 v -1.921822 c 0,-0.05608 0.01102,-0.0949 0.03258,-0.116469 0.02157,-0.02589 0.06423,-0.03882 0.128953,-0.03882 0.263144,0 0.573745,-0.08868 0.931793,-0.265533 0.358049,-0.176867 0.537305,-0.353505 0.537305,-0.530373 0,-0.04313 -0.01487,-0.08004 -0.04506,-0.110242 -0.02589,-0.03451 -0.05825,-0.052 -0.09706,-0.052 -0.02157,0 -0.127721,0.03234 -0.317531,0.09706 -0.18981,0.0604 -0.424685,0.09083 -0.705084,0.09083 -0.17687,0 -0.301741,-0.0084 -0.375073,-0.02565 -0.06902,-0.02157 -0.103991,-0.07596 -0.103991,-0.162232 v -4.529315 c 0,-0.107847 0.01295,-0.230792 0.03884,-0.368833 0.03019,-0.138047 0.04577,-0.237036 0.04577,-0.297426 0,-0.08628 -0.02396,-0.155527 -0.07141,-0.207297 -0.04315,-0.05608 -0.0949,-0.08389 -0.155298,-0.08389 z m -1.07392,2.232419 c 0.03451,0 0.05131,0.07765 0.05131,0.232949 v 2.730206 c 0,0.07766 -0.04268,0.116469 -0.128952,0.116469 -0.02157,0 -0.123181,-0.0168 -0.304359,-0.05131 -0.18118,-0.03451 -0.433542,-0.052 -0.75708,-0.052 -0.448642,0 -0.864698,0.05368 -1.24863,0.161538 l -0.110242,0.01941 0.04506,-0.11647 2.251833,-2.846682 c 0.103536,-0.129414 0.170861,-0.194123 0.201056,-0.194123 z"
       inkscape:label="4" />
    <path
       style="font-size:9.87777px;font-family:'Poor Richard';-inkscape-font-specification:'Poor Richard';text-align:center;text-anchor:middle;fill:#40446e;fill-rule:evenodd;stroke:#00043d;stroke-width:1.34161;stroke-linecap:round;stroke-linejoin:round;paint-order:stroke fill markers"
       d="m 28.770951,-61.453984 q -0.04529,0.07118 -0.04529,0.103524 0,0.03236 0.08411,0.03236 0.33001,-0.02589 0.401188,-0.02589 1.197094,0 1.947704,0.905909 0.757081,0.905908 0.757081,2.115942 0,1.054738 -0.757081,2.070649 -0.757081,1.01591 -1.772992,1.494749 -1.009441,0.472367 -2.018883,0.472367 -0.452954,0 -1.035324,-0.174711 -0.582369,-0.17471 -1.041795,-0.575899 -0.452954,-0.40766 -0.452954,-0.705315 0,-0.110003 0.07766,-0.181181 0.08411,-0.07119 0.174711,-0.07119 0.1553,0 0.407661,0.284714 0.44001,0.491779 0.892966,0.634137 0.452955,0.142357 0.92532,0.142357 0.73767,0 1.501219,-0.433542 0.763553,-0.440012 1.203566,-1.248859 0.446483,-0.808849 0.446483,-1.895937 0,-0.342951 -0.213536,-0.886497 -0.213536,-0.543545 -0.614722,-0.880026 -0.394718,-0.342951 -0.931793,-0.342951 -0.394718,0 -0.74414,0.168241 -0.342951,0.16824 -0.420599,0.16824 -0.155299,0 -0.155299,-0.16824 0,-0.148828 0.142357,-0.349422 l 1.177681,-1.727697 q 0.07118,-0.103536 0.07118,-0.226478 0,-0.129413 -0.122943,-0.129413 h -1.870053 q -0.174712,0 -0.349422,0.220007 -0.168241,0.220006 -0.297655,0.220006 -0.23942,0 -0.23942,-0.50472 0,-0.213536 0.03882,-0.394718 0.03882,-0.187652 0.03882,-0.271772 0,-0.381777 0.427072,-0.381777 h 3.8307 q 0.51119,0 0.51119,0.213538 0,0.09707 -0.05825,0.17471 -0.05825,0.07766 -0.401188,0.226477 -0.336481,0.142357 -0.491779,0.381775 z"
       id="path4"
       inkscape:label="3" />
    <path
       style="font-size:9.87777px;font-family:'Poor Richard';-inkscape-font-specification:'Poor Richard';text-align:center;text-anchor:middle;fill:#40446e;fill-rule:evenodd;stroke:#00043d;stroke-width:1.34161;stroke-linecap:round;stroke-linejoin:round;paint-order:stroke fill markers"
       d="m 18.100642,-55.727348 h 2.594781 q 0.09707,0 0.148827,-0.0647 0.05177,-0.0647 0.05177,-0.317067 0.0063,-0.25883 0.0647,-0.33001 0.05825,-0.07117 0.161769,-0.07117 0.595312,0 0.595312,1.197093 0,0.103524 0.02589,0.155299 0.02589,0.04529 0.02589,0.148827 0,0.161768 -0.135887,0.271772 -0.129413,0.110003 -0.310598,0.110003 h -4.00541 q -0.25236,0 -0.368832,-0.05176 -0.110003,-0.05825 -0.110003,-0.226478 0,-0.459425 0.478836,-1.235918 0.485309,-0.776492 1.307098,-1.430042 0.427071,-0.342951 1.462396,-1.410628 1.035324,-1.067678 1.035324,-2.523604 0,-0.789433 -0.550015,-1.455923 -0.550017,-0.666489 -1.675933,-0.666489 -0.478837,0 -1.074149,0.226475 -0.595311,0.220008 -0.93826,0.640608 -0.336482,0.414129 -0.336482,1.080619 0,0.569428 0.278243,0.905909 0.278244,0.33001 0.491778,0.33001 0.05825,0 0.187653,-0.05176 0.135887,-0.05176 0.239421,-0.05176 0.220004,0 0.381775,0.1553 0.161768,0.148825 0.161768,0.414128 0,0.245889 -0.25883,0.414129 -0.258832,0.168241 -0.621194,0.168241 -0.679432,0 -1.125915,-0.608253 -0.446485,-0.614725 -0.446485,-1.436512 0,-1.287685 0.938264,-2.044765 0.938262,-0.763553 2.530073,-0.763553 0.569429,0 1.391216,0.252361 0.82826,0.245888 1.352392,0.938263 0.530603,0.692373 0.530603,1.714756 0,0.795905 -0.401186,1.462395 -0.401189,0.660018 -0.99003,1.17121 -0.58237,0.51119 -1.598282,1.229446 -1.009439,0.718258 -1.248859,1.07415 -0.239419,0.349422 -0.239419,0.679432 z"
       id="path3"
       inkscape:label="2" />
    <path
       style="font-size:9.87777px;font-family:'Poor Richard';-inkscape-font-specification:'Poor Richard';text-align:center;text-anchor:middle;fill:#40446e;fill-rule:evenodd;stroke:#00043d;stroke-width:1.34161;stroke-linecap:round;stroke-linejoin:round;paint-order:stroke fill markers"
       d="m 8.6468395,-61.622224 q -0.1294159,-0.297656 -0.1941232,-0.297656 -0.077651,0 -0.2329479,0.414129 l -1.384746,3.16421 -1.1970934,2.66596 q -0.051766,0.122944 -0.051766,0.213535 0,0.09707 0.071179,0.17471 0.077648,0.07766 0.3558924,0.155299 0.2782434,0.07766 0.3494221,0.155299 0.071177,0.07766 0.071177,0.17471 0,0.297656 -0.3882465,0.297656 -0.090591,0 -0.4464836,-0.05825 -0.3494218,-0.05176 -0.5823698,-0.05176 -0.2394186,0 -0.4917789,0.05176 -0.2523602,0.05177 -0.3688343,0.05177 -0.1617694,0 -0.2653017,-0.09059 -0.1035326,-0.08411 -0.1035326,-0.200595 0,-0.168239 0.064707,-0.220005 0.064707,-0.05176 0.2394186,-0.07766 0.5047204,-0.08411 0.6923729,-0.375304 0.1941233,-0.297656 0.9835579,-2.09006 l 1.5659277,-3.494219 q 0.5758989,-1.255331 0.7376683,-1.662989 0.1682402,-0.414129 0.1682402,-0.640607 0,-0.07766 -0.058236,-0.278244 -0.051766,-0.207064 -0.051766,-0.297656 0,-0.187651 0.2005941,-0.187651 0.3300093,0 0.5306035,0.278243 0.200594,0.278242 0.5370743,1.048264 l 1.7924044,4.050706 q 0.977087,2.213005 1.235917,2.737139 0.258831,0.524132 0.4206,0.679432 0.168241,0.148826 0.394718,0.220005 0.232948,0.07117 0.317069,0.142357 0.08411,0.0647 0.08411,0.226476 0,0.220008 -0.407659,0.220008 -0.135886,0 -0.498251,-0.03882 -0.355891,-0.03882 -0.711783,-0.03882 -0.355894,0 -0.744139,0.0453 -0.381776,0.04529 -0.524133,0.04529 -0.220006,0 -0.349422,-0.07766 -0.129416,-0.07117 -0.129416,-0.200594 0,-0.110003 0.07765,-0.181183 0.07765,-0.07118 0.41413,-0.103524 0.342951,-0.03236 0.440012,-0.142357 0.103533,-0.116469 0.103533,-0.284715 0,-0.181181 -0.368834,-0.996498 -0.368834,-0.821788 -0.459425,-0.873553 -0.09059,-0.05177 -0.349422,-0.05177 H 7.2426812 q -0.16824,0 -0.3041265,-0.103536 -0.1358862,-0.110003 -0.1358862,-0.25236 0,-0.110002 0.1035326,-0.194122 0.1100028,-0.08411 0.2458895,-0.08411 H 9.934524 q 0.232948,0 0.232948,-0.08411 0,-0.05177 -0.09059,-0.25236 z"
       id="text2"
       inkscape:label="A" />
    <path
       style="font-size:9.87777px;font-family:'Javanese Text';-inkscape-font-specification:'Javanese Text';text-align:center;text-anchor:middle;fill:#40446e;fill-rule:evenodd;stroke:#00043d;stroke-width:1.34161;stroke-linecap:round;stroke-linejoin:round;paint-order:stroke fill markers"
       d="m 44.110013,-47.252996 q 0.168238,0.698843 0.51766,1.248861 0.349421,0.550015 1.24239,1.365333 0.899437,0.808845 1.138856,1.242389 0.239418,0.433542 0.239418,0.880025 0,0.621195 -0.41413,1.035323 -0.414129,0.414131 -1.00944,0.414131 -0.504721,0 -0.91885,-0.310597 -0.407659,-0.317069 -0.724727,-0.918851 0.0063,0.951204 0.245889,1.51416 0.24589,0.556489 0.776495,0.880027 0.537073,0.317068 1.423569,0.375305 l 0.0453,0.23942 H 41.54112 l 0.05177,-0.23942 q 1.190624,0 1.844171,-0.692373 0.660019,-0.698843 0.634138,-2.077119 -0.291187,0.614723 -0.724729,0.925321 -0.427069,0.304127 -0.970615,0.304127 -0.58237,0 -1.00297,-0.420601 -0.414131,-0.420601 -0.414131,-1.009441 0,-0.472365 0.213537,-0.854143 0.291186,-0.530603 0.944734,-1.067678 0.653547,-0.537073 0.964144,-0.886495 0.472368,-0.537074 0.685903,-0.957676 0.220006,-0.420598 0.342951,-0.990028 z"
       id="path23"
       inkscape:label="Spade" />
    <path
       style="font-size:9.87777px;font-family:'Javanese Text';-inkscape-font-specification:'Javanese Text';text-align:center;text-anchor:middle;fill:#40446e;fill-rule:evenodd;stroke:#00043d;stroke-width:1.34161;stroke-linecap:round;stroke-linejoin:round;paint-order:stroke fill markers"
       d="m 35.309756,-39.28747 h -5.487218 l 0.05177,-0.220008 q 1.067679,-0.226476 1.417101,-0.446482 0.524131,-0.33001 0.854142,-0.977089 0.336478,-0.647078 0.336478,-1.365333 0,-0.103536 -0.0063,-0.297655 -0.394716,0.802375 -0.964145,1.171209 -0.562957,0.368835 -1.151797,0.368835 -0.750611,0 -1.274744,-0.524134 -0.524132,-0.524132 -0.524132,-1.287683 0,-0.750609 0.478837,-1.261801 0.478838,-0.517663 1.087091,-0.517663 0.388246,0 1.054735,0.33001 -0.271771,-0.452954 -0.355892,-0.679431 -0.07766,-0.232948 -0.07766,-0.49825 0,-0.737669 0.511191,-1.24886 0.511191,-0.511191 1.274743,-0.511191 0.763552,0 1.281212,0.511191 0.524135,0.511191 0.524135,1.216507 0,0.575898 -0.446484,1.210034 0.543545,-0.258831 0.653548,-0.291183 0.17471,-0.05176 0.394717,-0.05176 0.647077,0 1.119443,0.51119 0.478838,0.50472 0.478838,1.255331 0,0.776492 -0.524132,1.307095 -0.517662,0.524134 -1.248861,0.524134 -0.407658,0 -0.8412,-0.194123 -0.427071,-0.200594 -0.744139,-0.530606 -0.226476,-0.239417 -0.562957,-0.808846 0.02589,1.028854 0.310597,1.630637 0.291185,0.595311 0.886495,0.990029 0.401189,0.265299 1.442984,0.465895 z"
       id="path22"
       inkscape:label="Club" />
    <path
       style="font-size:9.87777px;font-family:'Javanese Text';-inkscape-font-specification:'Javanese Text';text-align:center;text-anchor:middle;fill:#40446e;fill-rule:evenodd;stroke:#00043d;stroke-width:1.34161;stroke-linecap:round;stroke-linejoin:round;paint-order:stroke fill markers"
       d="m 21.132287,-47.252996 q 0.575899,0.977088 1.4171,2.096532 0.970616,1.294155 1.565928,1.960644 -0.478838,0.504721 -1.565928,1.954175 -0.880026,1.177681 -1.41063,2.109473 -0.174711,-0.336481 -0.478837,-0.782964 -0.524132,-0.776494 -1.300625,-1.805346 -0.16824,-0.226478 -1.184153,-1.475338 0.653549,-0.744138 1.682402,-2.122414 0.763551,-1.022381 1.274743,-1.934762 z"
       id="path21"
       inkscape:label="Diamond" />
    <path
       style="font-size:9.87777px;font-family:'Javanese Text';-inkscape-font-specification:'Javanese Text';text-align:center;text-anchor:middle;fill:#40446e;fill-rule:evenodd;stroke:#00043d;stroke-width:1.34161;stroke-linecap:round;stroke-linejoin:round;paint-order:stroke fill markers"
       d="m 10.157852,-39.132172 q -0.2005942,-0.763553 -0.575899,-1.430042 -0.3688344,-0.672961 -1.4365122,-2.083589 -0.7829639,-1.035325 -0.9641455,-1.313567 -0.2976557,-0.452954 -0.433542,-0.828261 -0.129416,-0.381776 -0.129416,-0.770021 0,-0.718256 0.4788373,-1.203565 0.4788373,-0.485307 1.1841519,-0.485307 0.7117853,0 1.2359183,0.504719 0.3947171,0.375305 0.6406062,1.119444 0.213536,-0.731197 0.601782,-1.112972 0.537075,-0.517663 1.24239,-0.517663 0.698843,0 1.184152,0.485309 0.485308,0.478837 0.485308,1.145326 0,0.582371 -0.284714,1.216507 -0.284714,0.627664 -1.100032,1.650047 -1.061208,1.339452 -1.546516,2.200063 -0.381776,0.679432 -0.582369,1.423572 z"
       id="text3"
       inkscape:label="Heart" />
    <g
       id="g28"
       inkscape:label="AceImage"
       inkscape:export-filename="Card_1_Art.svg"
       inkscape:export-xdpi="96"
       inkscape:export-ydpi="96">
      <ellipse
         style="fill:#40446e;fill-rule:evenodd;stroke:#40446e;stroke-width:1;stroke-linecap:round;stroke-linejoin:round;stroke-dasharray:none;stroke-dashoffset:0;paint-order:stroke fill markers"
         id="path24"
         cx="217.68576"
         cy="-36.264011"
         rx="17.849442"
         ry="15.45725" />
      <circle
         style="fill:#ffffff;fill-rule:evenodd;stroke:#40446e;stroke-width:1;stroke-linecap:round;stroke-linejoin:round;stroke-dasharray:none;stroke-dashoffset:0;paint-order:stroke fill markers"
         id="path25"
         cx="208.50981"
         cy="-31.313828"
         r="2.3421268" />
      <circle
         style="fill:#00043d;fill-rule:evenodd;stroke:#00043d;stroke-width:0.565071;stroke-linecap:round;stroke-linejoin:round;stroke-dasharray:none;stroke-dashoffset:0;paint-order:stroke fill markers"
         id="circle25"
         cx="208.57486"
         cy="-31.248768"
         r="1.3234687" />
      <circle
         style="fill:#ffffff;fill-rule:evenodd;stroke:#40446e;stroke-width:1;stroke-linecap:round;stroke-linejoin:round;stroke-dasharray:none;stroke-dashoffset:0;paint-order:stroke fill markers"
         id="circle26"
         cx="225.83228"
         cy="-31.313828"
         r="2.3421268" />
      <circle
         style="fill:#00043d;fill-rule:evenodd;stroke:#00043d;stroke-width:0.565071;stroke-linecap:round;stroke-linejoin:round;stroke-dasharray:none;stroke-dashoffset:0;paint-order:stroke fill markers"
         id="circle27"
         cx="225.89732"
         cy="-31.248768"
         r="1.3234687" />
      <path
         style="fill:none;fill-rule:evenodd;stroke:#f6ff00;stroke-width:1;stroke-linecap:round;stroke-linejoin:round;stroke-dasharray:none;stroke-dashoffset:0;paint-order:stroke fill markers"
         d="m 213.54925,-24.749999 -3.12825,-0.09201 c 0,0 -1.2881,0.276023 -0.64405,1.288104 0.64405,1.012082 0.82806,1.748142 0.82806,1.748142 0,0 -1.01208,-1.012082 -3.31226,0.09201 -2.30019,1.104089 -2.57621,2.760223 -2.66822,3.680297 -0.092,0.920075 -0.55204,2.392194 -0.55204,2.392194"
         id="path27" />
      <path
         style="fill:none;fill-rule:evenodd;stroke:#f6ff00;stroke-width:1;stroke-linecap:round;stroke-linejoin:round;stroke-dasharray:none;stroke-dashoffset:0;paint-order:stroke fill markers"
         d="m 217.50558,-24.749999 3.12825,-0.09201 c 0,0 1.2881,0.276023 0.64405,1.288104 -0.64405,1.012082 -0.82806,1.748142 -0.82806,1.748142 0,0 1.01208,-1.012082 3.31226,0.09201 2.30019,1.104089 2.57621,2.760223 2.66822,3.680297 0.092,0.920075 0.55204,2.392194 0.55204,2.392194"
         id="path28" />
    </g>
    <rect
       style="fill:#00043d;fill-rule:evenodd;stroke:#00043d;stroke-width:1.81017;stroke-linecap:round;stroke-linejoin:round;stroke-dasharray:none;stroke-dashoffset:0;paint-order:stroke fill markers"
       id="rect29"
       width="43.813328"
       height="57.803474"
       x="77.838913"
       y="3.2418249"
       ry="4.0415692"
       inkscape:export-filename="CardFront.svg"
       inkscape:export-xdpi="96"
       inkscape:export-ydpi="96"
       inkscape:label="Card" />
    <ellipse
       style="fill:#ffffff;fill-rule:evenodd;stroke:#ffffff;stroke-width:1;stroke-linecap:round;stroke-linejoin:round;stroke-dasharray:none;stroke-dashoffset:0;paint-order:stroke fill markers"
       id="path29"
       cx="98.905289"
       cy="30.362453"
       rx="11.314207"
       ry="6.9925652" />
    <path
       style="fill:#ffffff;fill-rule:evenodd;stroke:#ffffff;stroke-width:1;stroke-linecap:round;stroke-linejoin:round;stroke-dasharray:none;stroke-dashoffset:0;paint-order:stroke fill markers"
       d="m 90.627321,24.565985 c -2.024163,-1.288104 -2.392193,-2.208178 -3.128253,-2.024163 -0.736058,0.184015 -2.024163,0.920074 -3.128251,2.944237 -1.10409,2.024165 -1.656135,1.656135 -0.73606,3.496283 0.920075,1.840148 2.392193,1.288103 1.840148,3.496284 -0.552045,2.208178 -4.048326,4.968401 -0.920073,5.336429 3.128251,0.36803 4.048326,0 6.072489,-1.288103 2.024163,-1.288106 1.840148,-0.184015 2.392193,-2.208178 0.552046,-2.024163 -2.392193,-9.752789 -2.392193,-9.752789 z"
       id="path30" />
  </g>
</svg>
