<?xml version="1.0" encoding="UTF-8" standalone="no"?>
<!-- Created with Inkscape (http://www.inkscape.org/) -->

<svg
   width="41.931252"
   height="49.585674"
   viewBox="0 0 11.09431 13.119543"
   version="1.1"
   id="svg1"
   xmlns="http://www.w3.org/2000/svg"
   xmlns:svg="http://www.w3.org/2000/svg">
  <defs
     id="defs1" />
  <g
     id="layer1"
     transform="translate(-119.04285,64.639396)">
    <path
       id="path19"
       style="font-size:9.87777px;font-family:'Poor Richard';-inkscape-font-specification:'Poor Richard';text-align:center;text-anchor:middle;fill:#ffffff;fill-rule:evenodd;stroke:#000000;stroke-width:1;stroke-linecap:round;stroke-linejoin:round;stroke-dasharray:none;stroke-dashoffset:0;stroke-opacity:1;paint-order:stroke fill markers"
       d="m 124.42853,-64.139396 c -1.10867,0 -2.03206,0.245892 -2.76974,0.737671 -0.73766,0.491778 -1.27474,1.130461 -1.61121,1.91558 -0.33649,0.780806 -0.50473,1.464092 -0.50473,2.050776 0,0.970615 0.21809,1.848719 0.65378,2.633839 0.4357,0.78512 1.02262,1.382359 1.76028,1.792174 0.73768,0.405503 1.59829,0.608717 2.58185,0.608717 0.40118,0 0.76355,-0.03236 1.08709,-0.09706 h 0.045 c 0.0432,0 0.0754,0.02782 0.097,0.08389 0.19413,0.509033 0.39473,0.936106 0.6018,1.281215 0.21137,0.345106 0.48507,0.61688 0.82155,0.815318 0.34079,0.198437 0.66241,0.297423 0.96437,0.297423 0.34942,0 0.68398,-0.08411 1.00321,-0.252359 0.31922,-0.163927 0.47838,-0.353506 0.47838,-0.569197 0,-0.04315 -0.0148,-0.08844 -0.045,-0.135887 -0.0302,-0.04746 -0.0626,-0.07141 -0.097,-0.07141 -0.0776,0 -0.21546,0.04791 -0.4139,0.142822 -0.19844,0.09921 -0.36282,0.148363 -0.49224,0.148363 -0.3106,0 -0.59077,-0.103536 -0.84098,-0.310596 -0.25019,-0.207064 -0.47667,-0.519589 -0.67942,-0.938032 -0.19844,-0.418446 -0.29743,-0.657867 -0.29743,-0.718257 0,-0.06904 0.062,-0.133733 0.1872,-0.194123 0.70315,-0.306283 1.27712,-0.869244 1.72144,-1.688874 0.44433,-0.823945 0.66627,-1.692957 0.66627,-2.607494 0,-1.483962 -0.5474,-2.754859 -1.64312,-3.811752 -0.77648,-0.741981 -1.86813,-1.112743 -3.27444,-1.112743 z m 0,0.608024 c 1.02237,0 1.86811,0.399262 2.53678,1.197325 0.66864,0.79806 1.0025,1.900026 1.0025,3.306337 0,0.716098 -0.0926,1.339914 -0.27801,1.870519 -0.18118,0.526287 -0.40574,0.922932 -0.6732,1.190391 -0.26314,0.267458 -0.43138,0.40142 -0.50472,0.40142 -0.0302,0 -0.056,-0.02396 -0.0776,-0.07141 -0.23727,-0.452954 -0.53493,-0.806923 -0.89298,-1.061439 -0.35373,-0.254518 -0.74583,-0.381316 -1.17721,-0.381316 -0.42275,0 -0.76833,0.135887 -1.03579,0.407661 -0.26314,0.267458 -0.39449,0.60394 -0.39449,1.009442 v 0.17471 l 0.006,0.06447 -0.0256,0.03882 c -0.0431,0 -0.20299,-0.07766 -0.47908,-0.232948 -0.27177,-0.155299 -0.52413,-0.390174 -0.75707,-0.705084 -0.23295,-0.314911 -0.41413,-0.72519 -0.54355,-1.22991 -0.1251,-0.509035 -0.18719,-1.123762 -0.18719,-1.844172 0,-1.203563 0.33386,-2.193597 1.0025,-2.970089 0.66865,-0.776492 1.49499,-1.164739 2.47855,-1.164739 z m -0.31684,7.073024 c 0.35373,0 0.66171,0.176638 0.92486,0.530373 0.26745,0.353735 0.40142,0.58861 0.40142,0.705084 0,0.04749 -0.0342,0.07599 -0.10322,0.08458 -0.17687,0.03019 -0.39041,0.04506 -0.64061,0.04506 -0.40549,0 -0.69476,-0.01748 -0.86731,-0.052 -0.16824,-0.03882 -0.2737,-0.09445 -0.31684,-0.167778 -0.0388,-0.07765 -0.0582,-0.205139 -0.0582,-0.382007 0,-0.509033 0.22001,-0.763321 0.66003,-0.763321 z" />
  </g>
</svg>
