<?xml version="1.0" encoding="UTF-8" standalone="no"?>
<!-- Created with Inkscape (http://www.inkscape.org/) -->

<svg
   width="43.841885"
   height="40.804905"
   viewBox="0 0 11.599832 10.796298"
   version="1.1"
   id="svg1"
   xmlns="http://www.w3.org/2000/svg"
   xmlns:svg="http://www.w3.org/2000/svg">
  <defs
     id="defs1" />
  <g
     id="layer1"
     transform="translate(-87.931111,64.684459)">
    <path
       id="path15"
       style="font-size:9.87777px;font-family:'Poor Richard';-inkscape-font-specification:'Poor Richard';text-align:center;text-anchor:middle;fill:#ffffff;fill-rule:evenodd;stroke:#000000;stroke-width:1;stroke-linecap:round;stroke-linejoin:round;stroke-dasharray:none;stroke-dashoffset:0;stroke-opacity:1;paint-order:stroke fill markers"
       d="m 95.87921,-64.184459 c -1.018065,0 -1.83339,0.47237 -2.445953,1.4171 -0.612567,0.940417 -0.918621,2.076661 -0.918621,3.40964 0,1.138854 0.153373,2.077122 0.459656,2.814789 0.310598,0.737665 0.72473,1.281214 1.242389,1.630637 0.517662,0.349418 1.037254,0.524132 1.559229,0.524132 0.905907,0 1.674008,-0.429001 2.303827,-1.287454 0.634135,-0.862767 0.951206,-2.010028 0.951206,-3.442224 0,-1.082773 -0.153373,-2.00425 -0.459657,-2.763484 -0.301969,-0.763551 -0.707705,-1.336834 -1.216737,-1.720766 -0.504722,-0.388244 -0.996502,-0.58237 -1.475339,-0.58237 z m -4.749782,0.04506 c -0.08628,0 -0.183339,0.03043 -0.291185,0.09083 -0.103537,0.0604 -0.330011,0.209225 -0.679432,0.446485 l -0.763323,0.530372 c -0.366676,0.24589 -0.619038,0.425146 -0.75708,0.537307 -0.138043,0.112159 -0.207297,0.206599 -0.207297,0.284252 0,0.207065 0.101609,0.310597 0.304359,0.310597 0.08197,0 0.206834,-0.06016 0.375073,-0.18095 0.172554,-0.120791 0.30459,-0.180952 0.39518,-0.180952 0.0604,0 0.125097,0.03881 0.194125,0.11647 0.07332,0.07765 0.109536,0.189578 0.109536,0.336249 l -0.01251,6.082302 c 0,0.159613 -0.03881,0.2955 -0.116469,0.407658 -0.07334,0.112171 -0.224089,0.183341 -0.452725,0.213537 -0.22432,0.02589 -0.35828,0.06086 -0.401418,0.103991 -0.04313,0.04313 -0.06447,0.09683 -0.06447,0.16154 0,0.254515 0.139737,0.382006 0.420137,0.382006 0.03882,0 0.153374,-0.01556 0.343183,-0.04577 0.194122,-0.03019 0.478838,-0.04506 0.854143,-0.04506 0.232947,0 0.474295,0.01487 0.724498,0.04506 0.254517,0.03019 0.418907,0.04577 0.492239,0.04577 0.129419,0 0.230333,-0.0285 0.303667,-0.08458 0.07332,-0.05608 0.110242,-0.120792 0.110242,-0.194123 0,-0.07765 -0.02589,-0.144284 -0.07765,-0.200362 -0.04746,-0.05609 -0.185264,-0.105919 -0.413899,-0.14906 -0.228633,-0.04313 -0.377463,-0.111704 -0.446484,-0.206603 -0.06471,-0.09921 -0.09706,-0.218311 -0.09706,-0.356355 l 0.02565,-1.811588 -0.03884,-5.208746 c 0,-0.31491 0.0815,-0.597699 0.245429,-0.847903 0.09059,-0.138044 0.135884,-0.259064 0.135884,-0.362594 0,-0.146671 -0.07119,-0.219777 -0.213534,-0.219777 z m 4.710958,0.608024 c 0.539231,0 0.972777,0.364983 1.300626,1.094023 0.332167,0.729039 0.498482,1.714528 0.498482,2.956916 0,1.427878 -0.166315,2.527919 -0.498482,3.300097 -0.327849,0.772178 -0.789204,1.158501 -1.384515,1.158501 -0.565114,0 -1.009672,-0.38825 -1.333211,-1.16474 -0.319225,-0.780806 -0.478376,-1.723619 -0.478376,-2.827962 0,-1.238071 0.174713,-2.299286 0.524134,-3.183625 0.349419,-0.88865 0.80623,-1.33321 1.371342,-1.33321 z" />
  </g>
</svg>
