<?xml version="1.0" encoding="UTF-8" standalone="no"?>
<!-- Created with Inkscape (http://www.inkscape.org/) -->

<svg
   width="29.263174"
   height="40.14624"
   viewBox="0 0 7.7425479 10.622026"
   version="1.1"
   id="svg1"
   xmlns="http://www.w3.org/2000/svg"
   xmlns:svg="http://www.w3.org/2000/svg">
  <defs
     id="defs1" />
  <g
     id="layer1"
     transform="translate(-15.33588,64.749327)">
    <path
       style="font-size:9.87777px;font-family:'Poor Richard';-inkscape-font-specification:'Poor Richard';text-align:center;text-anchor:middle;fill:#ffffff;fill-rule:evenodd;stroke:#000000;stroke-width:1;stroke-linecap:round;stroke-linejoin:round;stroke-dasharray:none;stroke-dashoffset:0;stroke-opacity:1;paint-order:stroke fill markers"
       d="m 18.100642,-55.727348 h 2.594781 q 0.09707,0 0.148827,-0.0647 0.05177,-0.0647 0.05177,-0.317067 0.0063,-0.25883 0.0647,-0.33001 0.05825,-0.07117 0.161769,-0.07117 0.595312,0 0.595312,1.197093 0,0.103524 0.02589,0.155299 0.02589,0.04529 0.02589,0.148827 0,0.161768 -0.135887,0.271772 -0.129413,0.110003 -0.310598,0.110003 h -4.00541 q -0.25236,0 -0.368832,-0.05176 -0.110003,-0.05825 -0.110003,-0.226478 0,-0.459425 0.478836,-1.235918 0.485309,-0.776492 1.307098,-1.430042 0.427071,-0.342951 1.462396,-1.410628 1.035324,-1.067678 1.035324,-2.523604 0,-0.789433 -0.550015,-1.455923 -0.550017,-0.666489 -1.675933,-0.666489 -0.478837,0 -1.074149,0.226475 -0.595311,0.220008 -0.93826,0.640608 -0.336482,0.414129 -0.336482,1.080619 0,0.569428 0.278243,0.905909 0.278244,0.33001 0.491778,0.33001 0.05825,0 0.187653,-0.05176 0.135887,-0.05176 0.239421,-0.05176 0.220004,0 0.381775,0.1553 0.161768,0.148825 0.161768,0.414128 0,0.245889 -0.25883,0.414129 -0.258832,0.168241 -0.621194,0.168241 -0.679432,0 -1.125915,-0.608253 -0.446485,-0.614725 -0.446485,-1.436512 0,-1.287685 0.938264,-2.044765 0.938262,-0.763553 2.530073,-0.763553 0.569429,0 1.391216,0.252361 0.82826,0.245888 1.352392,0.938263 0.530603,0.692373 0.530603,1.714756 0,0.795905 -0.401186,1.462395 -0.401189,0.660018 -0.99003,1.17121 -0.58237,0.51119 -1.598282,1.229446 -1.009439,0.718258 -1.248859,1.07415 -0.239419,0.349422 -0.239419,0.679432 z"
       id="path3" />
  </g>
</svg>
