<?xml version="1.0" encoding="UTF-8" standalone="no"?>
<!-- Created with Inkscape (http://www.inkscape.org/) -->

<svg
   width="42.317829"
   height="41.437492"
   viewBox="0 0 11.196592 10.96367"
   version="1.1"
   id="svg1"
   xmlns="http://www.w3.org/2000/svg"
   xmlns:svg="http://www.w3.org/2000/svg">
  <defs
     id="defs1" />
  <g
     id="layer1"
     transform="translate(-3.1164795,64.797237)">
    <path
       style="font-size:9.87777px;font-family:'Poor Richard';-inkscape-font-specification:'Poor Richard';text-align:center;text-anchor:middle;fill:#40446e;fill-rule:evenodd;stroke:#00043d;stroke-width:1.34161;stroke-linecap:round;stroke-linejoin:round;paint-order:stroke fill markers"
       d="m 8.6468395,-61.622224 q -0.1294159,-0.297656 -0.1941232,-0.297656 -0.077651,0 -0.2329479,0.414129 l -1.384746,3.16421 -1.1970934,2.66596 q -0.051766,0.122944 -0.051766,0.213535 0,0.09707 0.071179,0.17471 0.077648,0.07766 0.3558924,0.155299 0.2782434,0.07766 0.3494221,0.155299 0.071177,0.07766 0.071177,0.17471 0,0.297656 -0.3882465,0.297656 -0.090591,0 -0.4464836,-0.05825 -0.3494218,-0.05176 -0.5823698,-0.05176 -0.2394186,0 -0.4917789,0.05176 -0.2523602,0.05177 -0.3688343,0.05177 -0.1617694,0 -0.2653017,-0.09059 -0.1035326,-0.08411 -0.1035326,-0.200595 0,-0.168239 0.064707,-0.220005 0.064707,-0.05176 0.2394186,-0.07766 0.5047204,-0.08411 0.6923729,-0.375304 0.1941233,-0.297656 0.9835579,-2.09006 l 1.5659277,-3.494219 q 0.5758989,-1.255331 0.7376683,-1.662989 0.1682402,-0.414129 0.1682402,-0.640607 0,-0.07766 -0.058236,-0.278244 -0.051766,-0.207064 -0.051766,-0.297656 0,-0.187651 0.2005941,-0.187651 0.3300093,0 0.5306035,0.278243 0.200594,0.278242 0.5370743,1.048264 l 1.7924044,4.050706 q 0.977087,2.213005 1.235917,2.737139 0.258831,0.524132 0.4206,0.679432 0.168241,0.148826 0.394718,0.220005 0.232948,0.07117 0.317069,0.142357 0.08411,0.0647 0.08411,0.226476 0,0.220008 -0.407659,0.220008 -0.135886,0 -0.498251,-0.03882 -0.355891,-0.03882 -0.711783,-0.03882 -0.355894,0 -0.744139,0.0453 -0.381776,0.04529 -0.524133,0.04529 -0.220006,0 -0.349422,-0.07766 -0.129416,-0.07117 -0.129416,-0.200594 0,-0.110003 0.07765,-0.181183 0.07765,-0.07118 0.41413,-0.103524 0.342951,-0.03236 0.440012,-0.142357 0.103533,-0.116469 0.103533,-0.284715 0,-0.181181 -0.368834,-0.996498 -0.368834,-0.821788 -0.459425,-0.873553 -0.09059,-0.05177 -0.349422,-0.05177 H 7.2426812 q -0.16824,0 -0.3041265,-0.103536 -0.1358862,-0.110003 -0.1358862,-0.25236 0,-0.110002 0.1035326,-0.194122 0.1100028,-0.08411 0.2458895,-0.08411 H 9.934524 q 0.232948,0 0.232948,-0.08411 0,-0.05177 -0.09059,-0.25236 z"
       id="text2" />
  </g>
</svg>
